<svg width="20" height="20" viewBox="0 0 20 20" fill="none" xmlns="http://www.w3.org/2000/svg">
<path fill-rule="evenodd" clip-rule="evenodd" d="M15.2039 8.79601L17 7C17.5452 6.45475 17.8179 6.18212 17.9636 5.88803C18.2409 5.32848 18.2409 4.67152 17.9636 4.11197C17.8179 3.81788 17.5452 3.54525 17 3C16.4547 2.45475 16.1821 2.18213 15.888 2.03639C15.3285 1.75911 14.6715 1.75911 14.1119 2.03639C13.8178 2.18213 13.5452 2.45475 13 3V3.00001L11.1813 4.81866C12.1452 6.46926 13.5313 7.84482 15.2039 8.79601ZM9.72683 6.27312L3.66769 12.3323C3.33535 12.6646 3.16914 12.8308 3.04672 13.0289C2.92429 13.227 2.85001 13.4499 2.70138 13.8958L1.31619 18.0513C1.17821 18.4653 1.10922 18.6722 1.21847 18.7815C1.32773 18.8907 1.53469 18.8218 1.94864 18.6838L6.10415 17.2986C6.55004 17.15 6.77295 17.0757 6.97104 16.9532C7.16912 16.8308 7.33535 16.6646 7.66769 16.3323L13.7458 10.2542C12.1241 9.23857 10.7524 7.87628 9.72683 6.27312Z" stroke="#4F4F4F" stroke-width="2"/>
</svg>
