<svg width="43" height="44" viewBox="0 0 43 44" fill="none" xmlns="http://www.w3.org/2000/svg">
<path d="M6.04956 10.2004C6.04956 8.31482 6.04956 7.37201 6.63535 6.78623C7.22113 6.20044 8.16394 6.20044 10.0496 6.20044H33.6589C35.5446 6.20044 36.4874 6.20044 37.0731 6.78623C37.6589 7.37201 37.6589 8.31482 37.6589 10.2004V33.8098C37.6589 35.6954 37.6589 36.6382 37.0731 37.224C36.4874 37.8098 35.5446 37.8098 33.6589 37.8098H10.0496C8.16394 37.8098 7.22113 37.8098 6.63535 37.224C6.04956 36.6382 6.04956 35.6954 6.04956 33.8098V10.2004Z" fill="#4F4F4F" stroke="#4F4F4F" stroke-width="2"/>
<path d="M6.04956 18.493V19.7613C6.04956 21.6469 6.04956 22.5897 6.63535 23.1755C7.22113 23.7613 8.16394 23.7613 10.0496 23.7613H13.3884C14.0841 23.7613 14.432 23.7613 14.6939 23.95C14.9558 24.1388 15.0658 24.4688 15.2858 25.1288L16.1302 27.662C16.3502 28.322 16.4602 28.652 16.7221 28.8407C16.984 29.0295 17.3318 29.0295 18.0275 29.0295H25.681C26.3767 29.0295 26.7245 29.0295 26.9864 28.8407C27.2483 28.652 27.3583 28.322 27.5783 27.662L28.4227 25.1288C28.6427 24.4688 28.7527 24.1388 29.0146 23.95C29.2765 23.7613 29.6243 23.7613 30.3201 23.7613H33.6589C35.5446 23.7613 36.4874 23.7613 37.0731 23.1755C37.6589 22.5897 37.6589 21.6469 37.6589 19.7613V18.493" stroke="#F2F2F2" stroke-width="2"/>
</svg>
