<svg width="45" height="46" viewBox="0 0 45 46" fill="none" xmlns="http://www.w3.org/2000/svg">
<path d="M22.9131 8.29108V8.29108C28.2536 8.29108 30.9238 8.29108 32.9373 9.38833C34.4568 10.2164 35.7054 11.465 36.5335 12.9845C37.6307 14.998 37.6307 17.6682 37.6307 23.0087V33.7263C37.6307 35.6119 37.6307 36.5547 37.045 37.1405C36.4592 37.7263 35.5164 37.7263 33.6307 37.7263H22.9131C17.5727 37.7263 14.9025 37.7263 12.889 36.629C11.3695 35.801 10.1209 34.5524 9.2928 33.0328C8.19556 31.0193 8.19556 28.3491 8.19556 23.0087V23.0087" stroke="#C50707" stroke-width="2"/>
<path d="M17.394 21.169L28.4322 21.169" stroke="#4F4F4F" stroke-width="2" stroke-linecap="round" stroke-linejoin="round"/>
<path d="M10.0353 15.6499L10.0353 4.61169" stroke="#C50707" stroke-width="2" stroke-linecap="round" stroke-linejoin="round"/>
<path d="M4.51624 10.1308L15.5544 10.1308" stroke="#C50707" stroke-width="2" stroke-linecap="round" stroke-linejoin="round"/>
<path d="M22.9132 28.5278H28.4323" stroke="#4F4F4F" stroke-width="2" stroke-linecap="round" stroke-linejoin="round"/>
</svg>
