<svg width="43" height="44" viewBox="0 0 43 44" fill="none" xmlns="http://www.w3.org/2000/svg">
<path d="M8.95837 23.3926C8.95837 20.9034 8.95837 19.6588 9.45012 18.5648C9.94186 17.4707 10.8654 16.6608 12.7124 15.0408L14.504 13.4694C17.8425 10.5413 19.5117 9.07726 21.5 9.07726C23.4884 9.07726 25.1576 10.5413 28.496 13.4694L30.2877 15.0408C32.1347 16.6608 33.0582 17.4707 33.55 18.5648C34.0417 19.6588 34.0417 20.9034 34.0417 23.3926V31.1667C34.0417 34.6236 34.0417 36.3521 32.9922 37.4261C31.9426 38.5 30.2534 38.5 26.875 38.5H16.125C12.7466 38.5 11.0574 38.5 10.0079 37.4261C8.95837 36.3521 8.95837 34.6236 8.95837 31.1667V23.3926Z" fill="#4F4F4F" stroke="#4F4F4F" stroke-width="2"/>
<path d="M25.9792 38.5V28.5C25.9792 27.9477 25.5315 27.5 24.9792 27.5H18.0209C17.4686 27.5 17.0209 27.9477 17.0209 28.5V38.5" stroke="#F2F2F2" stroke-width="2" stroke-linecap="round" stroke-linejoin="round"/>
</svg>
