<svg width="43" height="44" viewBox="0 0 43 44" fill="none" xmlns="http://www.w3.org/2000/svg">
<path d="M6.04944 10.2005C6.04944 8.3149 6.04944 7.37209 6.63522 6.78631C7.22101 6.20052 8.16382 6.20052 10.0494 6.20052H33.6588C35.5444 6.20052 36.4872 6.20052 37.073 6.78631C37.6588 7.37209 37.6588 8.3149 37.6588 10.2005V33.8099C37.6588 35.6955 37.6588 36.6383 37.073 37.2241C36.4872 37.8099 35.5444 37.8099 33.6588 37.8099H10.0494C8.16382 37.8099 7.22101 37.8099 6.63522 37.2241C6.04944 36.6383 6.04944 35.6955 6.04944 33.8099V10.2005Z" stroke="#4F4F4F" stroke-width="2"/>
<path d="M6.04944 18.493V19.7613C6.04944 21.6469 6.04944 22.5897 6.63522 23.1755C7.22101 23.7613 8.16382 23.7613 10.0494 23.7613H13.3883C14.084 23.7613 14.4319 23.7613 14.6938 23.95C14.9557 24.1388 15.0657 24.4688 15.2857 25.1288L16.13 27.662C16.3501 28.322 16.4601 28.652 16.7219 28.8408C16.9838 29.0295 17.3317 29.0295 18.0274 29.0295H25.6808C26.3766 29.0295 26.7244 29.0295 26.9863 28.8408C27.2482 28.652 27.3582 28.322 27.5782 27.662L28.4226 25.1288C28.6426 24.4688 28.7526 24.1388 29.0145 23.95C29.2764 23.7613 29.6242 23.7613 30.3199 23.7613H33.6588C35.5444 23.7613 36.4872 23.7613 37.073 23.1755C37.6588 22.5897 37.6588 21.6469 37.6588 19.7613V18.493" stroke="#4F4F4F" stroke-width="2"/>
</svg>
