<svg width="45" height="46" viewBox="0 0 45 46" fill="none" xmlns="http://www.w3.org/2000/svg">
<path d="M9.93384 24.4061C9.93384 21.9083 9.93384 20.6593 10.4273 19.5615C10.9207 18.4637 11.8474 17.6509 13.7009 16.0253L15.4988 14.4484C18.8488 11.5102 20.5238 10.0411 22.5191 10.0411C24.5143 10.0411 26.1893 11.5102 29.5394 14.4484L31.3372 16.0253C33.1907 17.6509 34.1174 18.4637 34.6108 19.5615C35.1043 20.6593 35.1043 21.9083 35.1043 24.4061V32.2072C35.1043 35.6761 35.1043 37.4106 34.0511 38.4883C32.9979 39.566 31.3028 39.566 27.9127 39.566H17.1254C13.7353 39.566 12.0402 39.566 10.987 38.4883C9.93384 37.4106 9.93384 35.6761 9.93384 32.2072V24.4061Z" stroke="#4F4F4F" stroke-width="2"/>
<path d="M27.0139 39.566V29.5278C27.0139 28.9755 26.5661 28.5278 26.0139 28.5278H19.0244C18.4721 28.5278 18.0244 28.9755 18.0244 29.5278V39.566" stroke="#4F4F4F" stroke-width="2" stroke-linecap="round" stroke-linejoin="round"/>
</svg>
