<svg width="42" height="42" viewBox="0 0 42 42" fill="none" xmlns="http://www.w3.org/2000/svg">
<path fill-rule="evenodd" clip-rule="evenodd" d="M21 0C9.40227 0 0 9.40227 0 21C0 32.5977 9.40227 42 21 42C32.5977 42 42 32.5977 42 21C42 9.40227 32.5977 0 21 0ZM22.9091 28.6364C22.9091 29.1427 22.708 29.6283 22.3499 29.9863C21.9919 30.3443 21.5063 30.5455 21 30.5455C20.4937 30.5455 20.0081 30.3443 19.6501 29.9863C19.292 29.6283 19.0909 29.1427 19.0909 28.6364V22.9091H13.3636C12.8573 22.9091 12.3717 22.708 12.0137 22.3499C11.6557 21.9919 11.4545 21.5063 11.4545 21C11.4545 20.4937 11.6557 20.0081 12.0137 19.6501C12.3717 19.292 12.8573 19.0909 13.3636 19.0909H19.0909V13.3636C19.0909 12.8573 19.292 12.3717 19.6501 12.0137C20.0081 11.6557 20.4937 11.4545 21 11.4545C21.5063 11.4545 21.9919 11.6557 22.3499 12.0137C22.708 12.3717 22.9091 12.8573 22.9091 13.3636V19.0909H28.6364C29.1427 19.0909 29.6283 19.292 29.9863 19.6501C30.3443 20.0081 30.5455 20.4937 30.5455 21C30.5455 21.5063 30.3443 21.9919 29.9863 22.3499C29.6283 22.708 29.1427 22.9091 28.6364 22.9091H22.9091V28.6364Z" fill="#C50707"/>
</svg>
