<svg width="252" height="89" viewBox="0 0 252 89" fill="none" xmlns="http://www.w3.org/2000/svg">
<g filter="url(#filter0_d)">
<rect x="20" y="16" width="212" height="49" rx="24.5" fill="#F7F7F7"/>
</g>
<path d="M107.127 39.8203H99.1466V46.7812H108.322V48H97.7052V30.9375H108.264V32.168H99.1466V38.6016H107.127V39.8203ZM118.385 40.4648L121.807 35.3203H123.471L119.171 41.543L123.659 48H122.007L118.397 42.6328L114.788 48H113.135L117.612 41.543L113.311 35.3203H114.964L118.385 40.4648ZM139.628 41.7891C139.628 43.7656 139.191 45.3359 138.316 46.5C137.441 47.6562 136.269 48.2344 134.8 48.2344C133.066 48.2344 131.738 47.625 130.816 46.4062V52.875H129.421V35.3203H130.722L130.792 37.1133C131.706 35.7617 133.031 35.0859 134.765 35.0859C136.281 35.0859 137.468 35.6602 138.328 36.8086C139.195 37.957 139.628 39.5508 139.628 41.5898V41.7891ZM138.222 41.543C138.222 39.9258 137.89 38.6484 137.226 37.7109C136.562 36.7734 135.636 36.3047 134.449 36.3047C133.589 36.3047 132.851 36.5117 132.234 36.9258C131.617 37.3398 131.144 37.9414 130.816 38.7305V44.8125C131.152 45.5391 131.632 46.0938 132.257 46.4766C132.882 46.8594 133.62 47.0508 134.472 47.0508C135.652 47.0508 136.57 46.582 137.226 45.6445C137.89 44.6992 138.222 43.332 138.222 41.543ZM147.676 48H146.27V30H147.676V48ZM154.083 41.4727C154.083 40.2539 154.317 39.1562 154.786 38.1797C155.262 37.2031 155.93 36.4453 156.79 35.9062C157.657 35.3594 158.637 35.0859 159.731 35.0859C161.419 35.0859 162.786 35.6797 163.833 36.8672C164.88 38.0469 165.403 39.6133 165.403 41.5664V41.8594C165.403 43.0859 165.165 44.1914 164.688 45.1758C164.219 46.1523 163.555 46.9062 162.696 47.4375C161.837 47.9688 160.856 48.2344 159.755 48.2344C158.075 48.2344 156.708 47.6445 155.653 46.4648C154.606 45.2773 154.083 43.707 154.083 41.7539V41.4727ZM155.489 41.8594C155.489 43.375 155.88 44.6211 156.661 45.5977C157.45 46.5664 158.481 47.0508 159.755 47.0508C161.02 47.0508 162.044 46.5664 162.825 45.5977C163.614 44.6211 164.008 43.3359 164.008 41.7422V41.4727C164.008 40.5039 163.829 39.6172 163.469 38.8125C163.11 38.0078 162.606 37.3867 161.958 36.9492C161.309 36.5039 160.567 36.2812 159.731 36.2812C158.481 36.2812 157.462 36.7734 156.673 37.7578C155.883 38.7344 155.489 40.0156 155.489 41.6016V41.8594ZM177.529 36.5156C177.232 36.4609 176.915 36.4336 176.579 36.4336C175.704 36.4336 174.962 36.6797 174.353 37.1719C173.751 37.6562 173.322 38.3633 173.064 39.293V48H171.669V35.3203H173.04L173.064 37.3359C173.806 35.8359 174.997 35.0859 176.638 35.0859C177.029 35.0859 177.337 35.1367 177.564 35.2383L177.529 36.5156ZM187.791 48.2344C186.713 48.2344 185.736 47.9688 184.861 47.4375C183.994 46.9062 183.318 46.168 182.834 45.2227C182.35 44.2695 182.107 43.2031 182.107 42.0234V41.5195C182.107 40.3008 182.342 39.2031 182.81 38.2266C183.287 37.25 183.947 36.4844 184.791 35.9297C185.635 35.3672 186.549 35.0859 187.533 35.0859C189.072 35.0859 190.291 35.6133 191.189 36.668C192.096 37.7148 192.549 39.1484 192.549 40.9688V41.7539H183.502V42.0234C183.502 43.4609 183.912 44.6602 184.732 45.6211C185.56 46.5742 186.6 47.0508 187.85 47.0508C188.6 47.0508 189.26 46.9141 189.83 46.6406C190.408 46.3672 190.932 45.9297 191.4 45.3281L192.279 45.9961C191.248 47.4883 189.752 48.2344 187.791 48.2344ZM187.533 36.2812C186.478 36.2812 185.588 36.668 184.861 37.4414C184.143 38.2148 183.705 39.2539 183.549 40.5586H191.154V40.4062C191.115 39.1875 190.768 38.1953 190.111 37.4297C189.455 36.6641 188.596 36.2812 187.533 36.2812Z" fill="black"/>
<rect x="44" y="33" width="16" height="5" rx="1" stroke="#4F4F4F" stroke-width="2"/>
<path d="M44 46C44 45.0572 44 44.5858 44.2929 44.2929C44.5858 44 45.0572 44 46 44H49V47C49 47.9428 49 48.4142 48.7071 48.7071C48.4142 49 47.9428 49 47 49H46C45.0572 49 44.5858 49 44.2929 48.7071C44 48.4142 44 47.9428 44 47V46Z" stroke="#4F4F4F" stroke-width="2"/>
<path d="M55 44H58C58.9428 44 59.4142 44 59.7071 44.2929C60 44.5858 60 45.0572 60 46V47C60 47.9428 60 48.4142 59.7071 48.7071C59.4142 49 58.9428 49 58 49H57C56.0572 49 55.5858 49 55.2929 48.7071C55 48.4142 55 47.9428 55 47V44Z" stroke="#4F4F4F" stroke-width="2"/>
<defs>
<filter id="filter0_d" x="0" y="0" width="252" height="89" filterUnits="userSpaceOnUse" color-interpolation-filters="sRGB">
<feFlood flood-opacity="0" result="BackgroundImageFix"/>
<feColorMatrix in="SourceAlpha" type="matrix" values="0 0 0 0 0 0 0 0 0 0 0 0 0 0 0 0 0 0 127 0"/>
<feMorphology radius="2" operator="dilate" in="SourceAlpha" result="effect1_dropShadow"/>
<feOffset dy="4"/>
<feGaussianBlur stdDeviation="9"/>
<feColorMatrix type="matrix" values="0 0 0 0 0 0 0 0 0 0 0 0 0 0 0 0 0 0 0.13 0"/>
<feBlend mode="normal" in2="BackgroundImageFix" result="effect1_dropShadow"/>
<feBlend mode="normal" in="SourceGraphic" in2="effect1_dropShadow" result="shape"/>
</filter>
</defs>
</svg>
