<svg width="16" height="19" viewBox="0 0 16 19" fill="none" xmlns="http://www.w3.org/2000/svg">
<path d="M15.0968 7.22529C15.3235 7.22531 15.542 7.31062 15.7088 7.46428C15.8755 7.61794 15.9784 7.82871 15.9969 8.05471L16 8.12852V15.4834C16 16.2508 15.7028 16.9884 15.1706 17.5414C14.6384 18.0944 13.9127 18.4197 13.1458 18.449L13.0323 18.4511H2.96774C2.20029 18.4511 1.46266 18.1539 0.909699 17.6217C0.356734 17.0895 0.0314278 16.3638 0.00206437 15.5969L0 15.4834V8.12852C0.000236807 7.89552 0.0905031 7.67163 0.251938 7.50362C0.413374 7.33562 0.633488 7.23649 0.86629 7.22696C1.09909 7.21744 1.32657 7.29824 1.50119 7.45249C1.67582 7.60675 1.78408 7.82251 1.80335 8.05471L1.80645 8.12852V15.4834C1.80642 15.7776 1.91809 16.0609 2.1189 16.276C2.31971 16.4911 2.59469 16.6219 2.88826 16.6421L2.96774 16.6446H13.0323C13.3265 16.6447 13.6098 16.533 13.8249 16.3322C14.04 16.1314 14.1708 15.8564 14.191 15.5628L14.1935 15.4834V8.12852C14.1935 7.62994 14.5977 7.22529 15.0968 7.22529ZM7.74142 0.0087743L7.81832 0.00103218L7.90864 0L7.98813 0.00670968L8.08 0.0237419L8.11561 0.0330323C8.21626 0.0609033 8.31329 0.106839 8.40103 0.170323L8.46297 0.219355L8.51097 0.264258L12.5254 4.27871C12.6892 4.44284 12.7835 4.66364 12.789 4.89542C12.7944 5.1272 12.7106 5.3522 12.5547 5.52384C12.3988 5.69549 12.1829 5.80062 11.9517 5.81749C11.7205 5.83435 11.4916 5.76166 11.3125 5.61445L11.248 5.55613L8.77419 3.08181V13.0317C8.77417 13.2585 8.68886 13.477 8.5352 13.6437C8.38154 13.8105 8.17078 13.9133 7.94477 13.9319L7.87097 13.935C7.64429 13.935 7.4259 13.8497 7.25915 13.6962C7.09241 13.5426 6.98949 13.332 6.97084 13.1061L6.96774 13.0317V3.08387L4.49652 5.55613C4.33775 5.71484 4.12556 5.80875 3.90133 5.81953C3.67709 5.83031 3.45688 5.7572 3.28361 5.61445L3.2191 5.55613C3.06031 5.39743 2.96631 5.18528 2.95543 4.96104C2.94456 4.7368 3.01758 4.51655 3.16026 4.34323L3.2191 4.27871L7.22013 0.276645C7.24903 0.24671 7.28 0.218839 7.31252 0.193032L7.37084 0.151226C7.39047 0.137616 7.4108 0.125039 7.43174 0.113549L7.44155 0.108387C7.5329 0.0583226 7.63406 0.0242582 7.7409 0.0087743H7.74142Z" fill="#4F4F4F"/>
</svg>
