<svg width="19" height="19" viewBox="0 0 19 19" fill="none" xmlns="http://www.w3.org/2000/svg">
<path d="M9.62931 5.65372L9.61395 5.66908L9.61395 5.66908L4.50107 10.782L4.50107 10.782L5.20818 11.4891L4.50107 10.782C4.48799 10.795 4.47451 10.8084 4.4607 10.8222C4.30853 10.9734 4.11591 11.1649 3.97903 11.4066C3.84214 11.6484 3.77708 11.9121 3.72567 12.1204C3.721 12.1393 3.71645 12.1577 3.71197 12.1757L3.31449 13.7656C3.31169 13.7768 3.30876 13.7884 3.30575 13.8004C3.26893 13.9469 3.21792 14.1498 3.20035 14.3294C3.18013 14.5361 3.17345 14.9881 3.54223 15.3568C3.91101 15.7256 4.36297 15.7189 4.56966 15.6987C4.74927 15.6811 4.95219 15.6301 5.09867 15.5933C5.11068 15.5903 5.1223 15.5874 5.13351 15.5846L6.72341 15.1871C6.74134 15.1826 6.7598 15.1781 6.7787 15.1734C6.98701 15.122 7.25068 15.0569 7.49245 14.92C7.73421 14.7832 7.92567 14.5905 8.07692 14.4384C8.09065 14.4246 8.10405 14.4111 8.11712 14.398L13.23 9.28513L13.2509 9.26425C13.4165 9.09871 13.5777 8.93747 13.7042 8.79023C13.8428 8.62885 13.9934 8.42467 14.0897 8.15911C14.2495 7.71849 14.2495 7.23572 14.0897 6.79509C13.9934 6.52953 13.8428 6.32536 13.7042 6.16398C13.5777 6.01674 13.4165 5.85551 13.2509 5.68997L13.23 5.66908L13.2091 5.64817C13.0436 5.4826 12.8823 5.32134 12.7351 5.19488C12.5737 5.05627 12.3695 4.90569 12.104 4.80936C11.6634 4.64952 11.1806 4.64952 10.74 4.80936C10.4744 4.90569 10.2702 5.05627 10.1088 5.19488C9.96161 5.32134 9.80037 5.48261 9.63483 5.64819L9.62931 5.65372Z" stroke="#4F4F4F" stroke-width="2"/>
<path d="M9.58716 6.37621L11.789 4.90833L13.9908 7.11016L12.5229 9.31199L9.58716 6.37621Z" fill="#4F4F4F"/>
</svg>
