<svg width="20" height="18" viewBox="0 0 20 18" fill="none" xmlns="http://www.w3.org/2000/svg">
<path d="M9.17883 7.04809L9.93428 6.39288L10.5026 7.04809L9.93428 7.7033L9.17883 7.04809ZM6.86089 2.84931L9.93428 6.39288L8.42339 7.7033L5.34999 4.15973L6.86089 2.84931ZM9.93428 7.7033L6.86089 11.2469L5.34999 9.93646L8.42339 6.39288L9.93428 7.7033Z" fill="#4F4F4F"/>
<path d="M10.7156 11.3004L9.96013 10.6452L9.39186 11.3004L9.96013 11.9556L10.7156 11.3004ZM13.0335 7.10163L9.96013 10.6452L11.471 11.9556L14.5444 8.41205L13.0335 7.10163ZM9.96013 11.9556L13.0335 15.4992L14.5444 14.1888L11.471 10.6452L9.96013 11.9556Z" fill="#4F4F4F"/>
</svg>
