<svg width="314" height="261" viewBox="0 0 314 261" fill="none" xmlns="http://www.w3.org/2000/svg">
<path d="M45.9834 236.752C107.298 268.782 206.702 268.789 268.017 236.752C329.331 204.715 329.324 152.789 268.017 120.759C206.709 88.7299 107.298 88.7299 45.9834 120.759C-15.3315 152.789 -15.3241 204.73 45.9834 236.752Z" fill="#F0F0F0"/>
<path d="M281.035 174.032C281.035 174.032 281.803 170.168 288.038 167.183C294.104 164.256 297.602 164.936 301.766 163.261C305.929 161.585 302.937 153.711 291.521 157.209C281.064 160.414 280.003 169.466 280.003 169.466L281.035 174.032Z" fill="#BA68C8"/>
<path opacity="0.2" d="M281.035 174.032C281.035 174.032 281.803 170.168 288.038 167.183C294.104 164.256 297.602 164.936 301.766 163.261C305.929 161.585 302.937 153.711 291.521 157.209C281.064 160.414 280.003 169.466 280.003 169.466L281.035 174.032Z" fill="black"/>
<path d="M279.937 172.583C279.896 172.59 279.854 172.59 279.813 172.583C279.763 172.566 279.717 172.539 279.677 172.504C279.638 172.469 279.605 172.426 279.582 172.379C279.559 172.331 279.546 172.28 279.542 172.227C279.539 172.174 279.547 172.121 279.564 172.071C281.027 167.886 284.686 164.022 289.457 161.665C295.575 158.673 299.929 159.624 300.112 159.668C300.215 159.691 300.304 159.754 300.361 159.843C300.417 159.933 300.435 160.041 300.412 160.143C300.389 160.246 300.326 160.336 300.236 160.392C300.147 160.448 300.039 160.467 299.936 160.443C299.892 160.443 295.656 159.521 289.809 162.383C285.235 164.622 281.686 168.339 280.296 172.335C280.265 172.406 280.216 172.467 280.152 172.511C280.089 172.555 280.014 172.58 279.937 172.583Z" fill="#FAFAFA"/>
<path d="M280.135 169.217C280.135 169.217 280.867 167.022 283.684 162.726C288.543 155.277 296.468 152.021 299.936 147.762C303.668 143.166 297.214 140.327 291.411 141.908C288.089 142.83 285.06 145.859 283.472 147.901C280.107 152.341 278.18 157.702 277.947 163.268L280.135 169.217Z" fill="#BA68C8"/>
<path d="M279.044 169.393C278.939 169.389 278.839 169.344 278.767 169.267C278.694 169.191 278.655 169.089 278.657 168.983C278.996 164.149 280.371 159.445 282.689 155.189C287.079 147.308 293.592 144.505 293.87 144.388C293.963 144.367 294.06 144.378 294.145 144.422C294.229 144.465 294.296 144.537 294.333 144.624C294.37 144.712 294.374 144.81 294.346 144.901C294.317 144.991 294.258 145.069 294.177 145.12C289.594 147.415 285.826 151.063 283.384 155.57C281.126 159.712 279.785 164.292 279.454 168.998C279.453 169.051 279.442 169.103 279.421 169.151C279.4 169.2 279.369 169.243 279.331 169.28C279.293 169.317 279.248 169.346 279.199 169.365C279.15 169.384 279.097 169.394 279.044 169.393Z" fill="#FAFAFA"/>
<path d="M66.2607 175.803C60.9993 172.269 60.7651 162.756 61.5262 156.777C62.7336 147.264 57.8673 145.069 55.3867 149.269C54.1866 151.311 52.6791 155.745 52.8474 160.912C53.1182 169.005 56.6233 178.686 65.1119 182.199L66.2607 175.803Z" fill="#BA68C8"/>
<path opacity="0.2" d="M66.2607 175.803C60.9993 172.269 60.7651 162.756 61.5262 156.777C62.7336 147.264 57.8673 145.069 55.3867 149.269C54.1866 151.311 52.6791 155.745 52.8474 160.912C53.1182 169.005 56.6233 178.686 65.1119 182.199L66.2607 175.803Z" fill="black"/>
<path d="M65.1778 181.657C65.0918 181.657 65.0087 181.626 64.9437 181.57C56.0381 173.952 54.6404 160.348 57.1138 150.916C57.1258 150.868 57.1471 150.823 57.1766 150.783C57.2061 150.743 57.2431 150.709 57.2856 150.684C57.3281 150.658 57.3751 150.642 57.4241 150.634C57.4731 150.627 57.5231 150.629 57.5711 150.641C57.6192 150.653 57.6644 150.675 57.7042 150.704C57.744 150.734 57.7776 150.771 57.803 150.813C57.8285 150.856 57.8454 150.903 57.8527 150.952C57.86 151.001 57.8575 151.051 57.8455 151.099C55.4307 160.312 56.7698 173.601 65.4413 181.013C65.4778 181.044 65.5079 181.082 65.5296 181.125C65.5513 181.168 65.5642 181.214 65.5676 181.262C65.571 181.31 65.5648 181.358 65.5494 181.403C65.534 181.448 65.5097 181.49 65.4779 181.526C65.4423 181.57 65.3964 181.606 65.3442 181.629C65.2919 181.652 65.2348 181.661 65.1778 181.657Z" fill="#FAFAFA"/>
<path d="M74.1712 193.366C69.5904 196.658 59.0602 199.505 55.6356 193.863C52.4524 188.616 54.5818 186.326 48.1203 187.233C41.6588 188.141 40.1733 183.121 41.7027 178.877C43.2321 174.632 36.8657 168.493 41.5124 163.707C46.1592 158.921 48.8301 168.873 51.523 169.949C54.2159 171.025 55.8624 168.705 58.9651 170.395C62.0678 172.086 62.3678 179.001 65.39 179.133C70.3368 179.359 78.6643 179.323 79.2936 183.735C79.9229 188.148 74.1712 193.366 74.1712 193.366Z" fill="#BA68C8"/>
<path d="M76.0665 191.434H76.0299C52.0645 188.931 42.793 168.017 42.2222 164.973C42.2135 164.925 42.2144 164.876 42.2248 164.828C42.2352 164.78 42.2549 164.735 42.2828 164.695C42.3106 164.655 42.3461 164.621 42.3872 164.594C42.4283 164.568 42.4742 164.55 42.5222 164.541C42.5703 164.533 42.6195 164.534 42.6672 164.544C42.7149 164.554 42.7601 164.574 42.8002 164.602C42.8403 164.63 42.8745 164.665 42.9009 164.706C42.9273 164.747 42.9453 164.793 42.954 164.841C43.5101 167.834 52.5913 188.258 76.1177 190.709C76.1658 190.714 76.2126 190.728 76.2553 190.751C76.2979 190.773 76.3357 190.804 76.3663 190.842C76.3969 190.879 76.4198 190.922 76.4337 190.969C76.4475 191.015 76.452 191.064 76.447 191.112C76.4344 191.203 76.3886 191.286 76.3184 191.346C76.2481 191.405 76.1584 191.436 76.0665 191.434Z" fill="#FAFAFA"/>
<path d="M49.8618 182.067C48.3494 182.067 46.8395 181.945 45.3468 181.701C45.2519 181.683 45.1679 181.629 45.113 181.549C45.0582 181.47 45.037 181.372 45.0541 181.277C45.062 181.229 45.0794 181.184 45.1052 181.143C45.131 181.103 45.1647 181.068 45.2043 181.04C45.2439 181.013 45.2886 180.994 45.3357 180.984C45.3828 180.975 45.4314 180.975 45.4786 180.984C48.2116 181.434 50.9999 181.434 53.7329 180.984C53.8289 180.965 53.9287 180.983 54.0109 181.037C54.093 181.09 54.1509 181.174 54.172 181.269C54.1816 181.317 54.1818 181.365 54.1727 181.412C54.1636 181.459 54.1452 181.504 54.1187 181.544C54.0922 181.585 54.0581 181.619 54.0182 181.646C53.9784 181.673 53.9337 181.692 53.8866 181.701C52.5611 181.961 51.2124 182.084 49.8618 182.067Z" fill="#FAFAFA"/>
<path d="M57.0113 184.255H56.9308C56.837 184.234 56.7553 184.177 56.7033 184.096C56.6513 184.015 56.6331 183.917 56.6527 183.823C57.3918 180.565 57.5676 177.204 57.1723 173.886C57.1568 173.789 57.1804 173.69 57.2381 173.61C57.2957 173.53 57.3826 173.477 57.4796 173.461C57.5767 173.446 57.6759 173.47 57.7555 173.527C57.8351 173.585 57.8885 173.672 57.9041 173.769C58.3281 177.188 58.1498 180.656 57.3772 184.014C57.3505 184.088 57.3004 184.152 57.2344 184.195C57.1685 184.239 57.0902 184.26 57.0113 184.255Z" fill="#FAFAFA"/>
<path d="M12.161 155.621L23.6498 148.991C24.2026 148.713 24.8128 148.568 25.4316 148.568C26.0504 148.568 26.6607 148.713 27.2135 148.991L28.677 149.833C29.1971 150.17 29.6301 150.626 29.9404 151.162C30.2507 151.699 30.4296 152.302 30.4625 152.921V166.18C30.4285 166.799 30.249 167.401 29.9388 167.938C29.6286 168.474 29.1963 168.93 28.677 169.268L17.1956 175.898C16.6427 176.176 16.0325 176.321 15.4137 176.321C14.7949 176.321 14.1847 176.176 13.6319 175.898L12.1683 175.057C11.6496 174.719 11.2181 174.263 10.9091 173.726C10.6001 173.189 10.4222 172.587 10.3901 171.969V158.709C10.4232 158.092 10.6006 157.491 10.9081 156.954C11.2157 156.418 11.6448 155.961 12.161 155.621Z" fill="#BA68C8"/>
<path opacity="0.5" d="M12.161 155.621L23.6498 148.991C24.2026 148.713 24.8128 148.568 25.4316 148.568C26.0504 148.568 26.6607 148.713 27.2135 148.991L28.677 149.833C29.1971 150.17 29.6301 150.626 29.9404 151.162C30.2507 151.699 30.4296 152.302 30.4625 152.921V166.18C30.4285 166.799 30.249 167.401 29.9388 167.938C29.6286 168.474 29.1963 168.93 28.677 169.268L17.1956 175.898C16.6427 176.176 16.0325 176.321 15.4137 176.321C14.7949 176.321 14.1847 176.176 13.6319 175.898L12.1683 175.057C11.6496 174.719 11.2181 174.263 10.9091 173.726C10.6001 173.189 10.4222 172.587 10.3901 171.969V158.709C10.4232 158.092 10.6006 157.491 10.9081 156.954C11.2157 156.418 11.6448 155.961 12.161 155.621Z" fill="#FAFAFA"/>
<path d="M30.448 152.921C30.448 151.779 29.6504 151.318 28.6625 151.889L17.181 158.519C16.6617 158.857 16.2294 159.313 15.9192 159.849C15.609 160.386 15.4296 160.988 15.3955 161.607V174.866C15.3955 176.001 16.1931 176.462 17.181 175.898L28.6625 169.268C29.1818 168.93 29.614 168.474 29.9243 167.938C30.2345 167.401 30.4139 166.799 30.448 166.18V152.921Z" fill="#BA68C8"/>
<path d="M10.3828 171.969C10.4127 172.59 10.5894 173.195 10.8985 173.734C11.2076 174.273 11.6403 174.732 12.161 175.071L13.6245 175.913C14.1267 176.165 14.6765 176.308 15.2378 176.332C15.7991 176.356 16.3592 176.26 16.8809 176.052C16.0394 176.374 15.4174 175.898 15.4174 174.881V161.607C15.4368 160.986 15.6185 160.38 15.9443 159.851L10.9243 156.924C10.605 157.455 10.4263 158.06 10.4048 158.68L10.3828 171.969Z" fill="#BA68C8"/>
<path opacity="0.1" d="M10.3828 171.969C10.4127 172.59 10.5894 173.195 10.8985 173.734C11.2076 174.273 11.6403 174.732 12.161 175.071L13.6245 175.913C14.1267 176.165 14.6765 176.308 15.2378 176.332C15.7991 176.356 16.3592 176.26 16.8809 176.052C16.0394 176.374 15.4174 175.898 15.4174 174.881V161.607C15.4368 160.986 15.6185 160.38 15.9443 159.851L10.9243 156.924C10.605 157.455 10.4263 158.06 10.4048 158.68L10.3828 171.969Z" fill="black"/>
<path d="M18.0591 162.514L27.8283 156.858C28.0844 156.704 28.2966 156.858 28.2966 157.128V163.714C28.2882 163.879 28.2415 164.04 28.1602 164.183C28.0789 164.327 27.9652 164.449 27.8283 164.541L18.0591 170.242C17.7957 170.395 17.5835 170.242 17.5835 169.964V163.378C17.587 163.206 17.6321 163.038 17.715 162.887C17.7978 162.737 17.9159 162.609 18.0591 162.514Z" fill="#FAFAFA"/>
<path d="M17.5835 162.792L23.4157 164.688L28.2966 156.58L23.5767 165.368L17.5835 162.792Z" fill="#E0E0E0"/>
<path d="M12.161 122.157L23.6498 115.527C24.2016 115.246 24.8122 115.099 25.4316 115.099C26.0511 115.099 26.6617 115.246 27.2135 115.527L28.677 116.369C29.1948 116.708 29.6252 117.164 29.933 117.701C30.2407 118.237 30.4172 118.839 30.4479 119.457V132.717C30.415 133.335 30.236 133.936 29.9257 134.472C29.6153 135.007 29.1824 135.462 28.6624 135.797L17.1809 142.427C16.6291 142.709 16.0185 142.855 15.3991 142.855C14.7797 142.855 14.169 142.709 13.6172 142.427L12.1537 141.593C11.6346 141.251 11.2037 140.79 10.896 140.25C10.5883 139.71 10.4124 139.104 10.3828 138.483V125.245C10.4166 124.627 10.5952 124.026 10.9041 123.49C11.2129 122.953 11.6435 122.497 12.161 122.157Z" fill="#BA68C8"/>
<path opacity="0.5" d="M12.161 122.157L23.6498 115.527C24.2016 115.246 24.8122 115.099 25.4316 115.099C26.0511 115.099 26.6617 115.246 27.2135 115.527L28.677 116.369C29.1948 116.708 29.6252 117.164 29.933 117.701C30.2407 118.237 30.4172 118.839 30.4479 119.457V132.717C30.415 133.335 30.236 133.936 29.9257 134.472C29.6153 135.007 29.1824 135.462 28.6624 135.797L17.1809 142.427C16.6291 142.709 16.0185 142.855 15.3991 142.855C14.7797 142.855 14.169 142.709 13.6172 142.427L12.1537 141.593C11.6346 141.251 11.2037 140.79 10.896 140.25C10.5883 139.71 10.4124 139.104 10.3828 138.483V125.245C10.4166 124.627 10.5952 124.026 10.9041 123.49C11.2129 122.953 11.6435 122.497 12.161 122.157Z" fill="#FAFAFA"/>
<path d="M30.448 119.457C30.448 118.315 29.6504 117.854 28.6625 118.425L17.181 125.055C16.6609 125.392 16.228 125.848 15.9177 126.385C15.6074 126.922 15.4284 127.524 15.3955 128.143V141.41C15.3955 142.544 16.1931 143.005 17.181 142.435L28.6625 135.805C29.1824 135.469 29.6154 135.015 29.9257 134.479C30.2361 133.944 30.4151 133.342 30.448 132.724V119.457Z" fill="#BA68C8"/>
<path d="M10.3828 138.483C10.4166 139.101 10.5952 139.702 10.9041 140.239C11.2129 140.775 11.6435 141.231 12.161 141.571L13.6245 142.405C14.1255 142.66 14.6753 142.805 15.2369 142.83C15.7985 142.856 16.3591 142.761 16.8809 142.552C16.0394 142.866 15.4174 142.398 15.4174 141.381V128.143C15.4368 127.522 15.6185 126.916 15.9443 126.387L10.9243 123.46C10.605 123.992 10.4263 124.596 10.4048 125.216L10.3828 138.483Z" fill="#BA68C8"/>
<path opacity="0.1" d="M10.3828 138.483C10.4166 139.101 10.5952 139.702 10.9041 140.239C11.2129 140.775 11.6435 141.231 12.161 141.571L13.6245 142.405C14.1255 142.66 14.6753 142.805 15.2369 142.83C15.7985 142.856 16.3591 142.761 16.8809 142.552C16.0394 142.866 15.4174 142.398 15.4174 141.381V128.143C15.4368 127.522 15.6185 126.916 15.9443 126.387L10.9243 123.46C10.605 123.992 10.4263 124.596 10.4048 125.216L10.3828 138.483Z" fill="black"/>
<path d="M22.8083 135.556L21.6228 135.424C20.0129 135.292 18.0957 134.692 18.0957 132.358C18.1421 131.511 18.3875 130.686 18.8122 129.951C19.2368 129.216 19.8287 128.592 20.5398 128.128C21.5936 127.521 22.4863 127.77 22.8302 128.648C23.177 127.346 23.9927 126.217 25.1207 125.479C26.4745 124.704 27.5648 125.333 27.5648 126.892C27.5648 129.146 25.6622 132.014 24.0596 133.997L22.8083 135.556Z" fill="#FAFAFA"/>
<path d="M12.161 88.7227L23.6498 82.0929C24.2016 81.8115 24.8122 81.6648 25.4316 81.6648C26.0511 81.6648 26.6617 81.8115 27.2135 82.0929L28.677 82.9344C29.197 83.2702 29.6299 83.7245 29.9403 84.2601C30.2507 84.7956 30.4297 85.3971 30.4625 86.0152V99.2748C30.4302 99.894 30.2515 100.497 29.9411 101.034C29.6308 101.57 29.1976 102.026 28.677 102.363L17.1956 108.993C16.6438 109.274 16.0331 109.421 15.4137 109.421C14.7943 109.421 14.1837 109.274 13.6319 108.993L12.1683 108.158C11.6508 107.819 11.2202 107.363 10.9114 106.826C10.6025 106.29 10.424 105.688 10.3901 105.07V91.7888C10.4265 91.1752 10.6055 90.5786 10.9129 90.0463C11.2204 89.5141 11.6477 89.0608 12.161 88.7227Z" fill="#BA68C8"/>
<path opacity="0.5" d="M12.161 88.7227L23.6498 82.0929C24.2016 81.8115 24.8122 81.6648 25.4316 81.6648C26.0511 81.6648 26.6617 81.8115 27.2135 82.0929L28.677 82.9344C29.197 83.2702 29.6299 83.7245 29.9403 84.2601C30.2507 84.7956 30.4297 85.3971 30.4625 86.0152V99.2748C30.4302 99.894 30.2515 100.497 29.9411 101.034C29.6308 101.57 29.1976 102.026 28.677 102.363L17.1956 108.993C16.6438 109.274 16.0331 109.421 15.4137 109.421C14.7943 109.421 14.1837 109.274 13.6319 108.993L12.1683 108.158C11.6508 107.819 11.2202 107.363 10.9114 106.826C10.6025 106.29 10.424 105.688 10.3901 105.07V91.7888C10.4265 91.1752 10.6055 90.5786 10.9129 90.0463C11.2204 89.5141 11.6477 89.0608 12.161 88.7227Z" fill="#FAFAFA"/>
<path d="M17.181 108.971C16.1931 109.541 15.3955 109.08 15.3955 107.946V94.6865C15.4278 94.0673 15.6065 93.4646 15.9169 92.9278C16.2273 92.391 16.6605 91.9354 17.181 91.5985L28.6625 84.9686C29.6504 84.3979 30.448 84.8589 30.448 85.9931V99.2528C30.4156 99.872 30.237 100.475 29.9266 101.012C29.6162 101.548 29.183 102.004 28.6625 102.341" fill="#BA68C8"/>
<path d="M10.3828 105.048C10.4166 105.666 10.5952 106.268 10.9041 106.804C11.2129 107.341 11.6435 107.797 12.161 108.136L13.6245 108.971C14.1255 109.226 14.6753 109.371 15.2369 109.396C15.7985 109.421 16.3591 109.326 16.8809 109.117C16.0394 109.432 15.4174 108.963 15.4174 107.946V94.6865C15.4368 94.0651 15.6185 93.4597 15.9443 92.9302L10.9243 90.0032C10.605 90.5351 10.4263 91.1394 10.4048 91.7594L10.3828 105.048Z" fill="#BA68C8"/>
<path opacity="0.1" d="M10.3828 105.048C10.4166 105.666 10.5952 106.268 10.9041 106.804C11.2129 107.341 11.6435 107.797 12.161 108.136L13.6245 108.971C14.1255 109.226 14.6753 109.371 15.2369 109.396C15.7985 109.421 16.3591 109.326 16.8809 109.117C16.0394 109.432 15.4174 108.963 15.4174 107.946V94.6865C15.4368 94.0651 15.6185 93.4597 15.9443 92.9302L10.9243 90.0032C10.605 90.5351 10.4263 91.1394 10.4048 91.7594L10.3828 105.048Z" fill="black"/>
<path d="M20.8252 96.7721C20.8252 96.7721 22.1643 93.684 22.2887 93.2377C22.3552 92.4732 22.3552 91.7044 22.2887 90.9399C22.2887 90.6472 23.5108 89.8203 23.9059 90.6692C24.2861 91.5721 24.3581 92.5751 24.1108 93.5231L27.0891 91.7888C27.7185 91.4229 27.9746 91.9351 27.9819 92.3449C27.9615 92.8123 27.7923 93.261 27.4989 93.6255C27.4989 93.6255 28.099 93.4499 28.099 94.2475C28.0811 94.528 28.0072 94.8021 27.8815 95.0535C27.7558 95.3049 27.5809 95.5285 27.3672 95.711C27.3672 95.711 27.5575 95.8574 27.5648 96.4428C27.4766 97.0168 27.1795 97.538 26.7306 97.9063C26.8294 98.1371 26.8745 98.3874 26.8623 98.6381C26.8255 98.9884 26.7078 99.3255 26.5186 99.6226C26.3294 99.9197 26.0738 100.169 25.7719 100.35L20.8911 103.212L20.8252 96.7721Z" fill="#FAFAFA"/>
<path d="M18.0007 105.744L20.1448 104.492L20.1155 97.0283L17.9641 98.2796L18.0007 105.744Z" fill="#FAFAFA"/>
<path d="M5.87528 49.5437L23.4816 39.3795C24.3274 38.9501 25.2626 38.7263 26.2111 38.7263C27.1597 38.7263 28.0948 38.9501 28.9406 39.3795L31.1359 40.6601C31.9329 41.1777 32.5963 41.8764 33.0719 42.6992C33.5475 43.522 33.8219 44.4456 33.8727 45.3946V65.7231C33.818 66.6672 33.5417 67.5852 33.0663 68.4026C32.5908 69.2201 31.9295 69.9141 31.1359 70.4284L13.5735 80.6146C12.7264 81.0441 11.79 81.2679 10.8403 81.2679C9.89061 81.2679 8.95425 81.0441 8.10717 80.6146L5.91187 79.334C5.11702 78.8147 4.4557 78.1154 3.98149 77.2928C3.50727 76.4703 3.23351 75.5476 3.18237 74.5995V54.271C3.2294 53.3271 3.49761 52.4075 3.96538 51.5864C4.43315 50.7652 5.08738 50.0655 5.87528 49.5437Z" fill="#BA68C8"/>
<path opacity="0.1" d="M5.87528 49.5437L23.4816 39.3795C24.3274 38.9501 25.2626 38.7263 26.2111 38.7263C27.1597 38.7263 28.0948 38.9501 28.9406 39.3795L31.1359 40.6601C31.9329 41.1777 32.5963 41.8764 33.0719 42.6992C33.5475 43.522 33.8219 44.4456 33.8727 45.3946V65.7231C33.818 66.6672 33.5417 67.5852 33.0663 68.4026C32.5908 69.2201 31.9295 69.9141 31.1359 70.4284L13.5735 80.6146C12.7264 81.0441 11.79 81.2679 10.8403 81.2679C9.89061 81.2679 8.95425 81.0441 8.10717 80.6146L5.91187 79.334C5.11702 78.8147 4.4557 78.1154 3.98149 77.2928C3.50727 76.4703 3.23351 75.5476 3.18237 74.5995V54.271C3.2294 53.3271 3.49761 52.4075 3.96538 51.5864C4.43315 50.7652 5.08738 50.0655 5.87528 49.5437Z" fill="black"/>
<path d="M33.902 45.2703C33.902 44.2531 33.4044 41.7212 30.792 43.3238C28.1796 44.9264 15.3443 52.1782 13.5735 53.2319C12.3446 53.9061 11.3743 54.9691 10.8147 56.2541L12.2124 57.6591L33.902 45.2703Z" fill="#BA68C8"/>
<path opacity="0.2" d="M33.902 45.2703C33.902 44.2531 33.4044 41.7212 30.792 43.3238C28.1796 44.9264 15.3443 52.1782 13.5735 53.2319C12.3446 53.9061 11.3743 54.9691 10.8147 56.2541L12.2124 57.6591L33.902 45.2703Z" fill="black"/>
<path d="M13.5735 80.6147C12.0587 81.4855 10.8367 80.783 10.8367 79.0414V58.7202C10.8863 57.7699 11.1602 56.8449 11.6359 56.0208C12.1115 55.1966 12.7755 54.4967 13.5735 53.9784L31.1359 43.8141C32.6507 42.9433 33.8727 43.6531 33.8727 45.3947V65.7232C33.818 66.6673 33.5417 67.5853 33.0663 68.4027C32.5908 69.2202 31.9295 69.9142 31.1359 70.4285" fill="#BA68C8"/>
<path opacity="0.1" d="M13.5735 80.6147C12.0587 81.4855 10.8367 80.783 10.8367 79.0414V58.7202C10.8863 57.7699 11.1602 56.8449 11.6359 56.0208C12.1115 55.1966 12.7755 54.4967 13.5735 53.9784L31.1359 43.8141C32.6507 42.9433 33.8727 43.6531 33.8727 45.3947V65.7232C33.818 66.6673 33.5417 67.5853 33.0663 68.4027C32.5908 69.2202 31.9295 69.9142 31.1359 70.4285" fill="black"/>
<path d="M3.14573 74.5996C3.19686 75.5476 3.47063 76.4704 3.94484 77.2929C4.41905 78.1155 5.08038 78.8148 5.87522 79.3341L8.07053 80.6147C8.84067 81.0028 9.6844 81.223 10.546 81.2608C11.4075 81.2987 12.2673 81.1533 13.0685 80.8342C11.7806 81.3245 10.8 80.6001 10.8 79.0414V58.7202C10.8333 57.7684 11.1105 56.8412 11.605 56.0273L3.91408 51.5854C3.42159 52.3998 3.14691 53.3272 3.11646 54.2784L3.14573 74.5996Z" fill="#BA68C8"/>
<path opacity="0.2" d="M3.14573 74.5996C3.19686 75.5476 3.47063 76.4704 3.94484 77.2929C4.41905 78.1155 5.08038 78.8148 5.87522 79.3341L8.07053 80.6147C8.84067 81.0028 9.6844 81.223 10.546 81.2608C11.4075 81.2987 12.2673 81.1533 13.0685 80.8342C11.7806 81.3245 10.8 80.6001 10.8 79.0414V58.7202C10.8333 57.7684 11.1105 56.8412 11.605 56.0273L3.91408 51.5854C3.42159 52.3998 3.14691 53.3272 3.11646 54.2784L3.14573 74.5996Z" fill="black"/>
<path d="M22.8962 51.6075L25.1793 55.6323L30.3017 53.5394C30.7847 53.3418 30.9822 53.9126 30.631 54.5126L26.9356 60.8059L27.8064 66.177C27.8868 66.6893 27.3819 67.3991 26.9502 67.3918L22.3547 67.2527L17.7811 72.6678C17.3494 73.1801 16.8445 73.0483 16.925 72.441L17.8104 66.038L14.1516 64.011C13.8003 63.8207 13.9979 63.0231 14.4809 62.6645L19.6032 58.8594L21.8863 52.1929C22.0547 51.5856 22.6767 51.227 22.8962 51.6075Z" fill="#FAFAFA"/>
<path d="M270.424 144.469C261.643 148.647 247.447 148.647 238.68 144.469C229.913 140.291 229.899 133.492 238.68 129.343C247.461 125.194 261.658 125.165 270.424 129.343C279.191 133.522 279.161 140.291 270.424 144.469Z" fill="#E0E0E0"/>
<path d="M70.7976 192.978C70.8758 194.042 71.2034 195.073 71.7538 195.987C72.3043 196.901 73.0622 197.672 73.9662 198.239L162.752 249.463C163.734 249.961 164.819 250.221 165.92 250.221C167.021 250.221 168.107 249.961 169.089 249.463L290.562 179.323C291.52 178.818 292.321 178.061 292.88 177.134C293.439 176.206 293.735 175.144 293.735 174.062C293.735 172.979 293.439 171.917 292.88 170.99C292.321 170.063 291.52 169.306 290.562 168.8L201.784 117.576C200.802 117.078 199.717 116.819 198.616 116.819C197.515 116.819 196.429 117.078 195.447 117.576L73.9735 187.716C73.0681 188.282 72.3088 189.054 71.7571 189.968C71.2053 190.882 70.8766 191.913 70.7976 192.978Z" fill="#37474F"/>
<path d="M107.43 168.398L73.9663 187.716C73.0088 188.222 72.2074 188.979 71.6484 189.906C71.0894 190.833 70.7939 191.895 70.7939 192.978C70.7939 194.06 71.0894 195.123 71.6484 196.05C72.2074 196.977 73.0088 197.734 73.9663 198.239L162.752 249.463C163.728 249.973 164.819 250.225 165.92 250.195V168.398H107.43Z" fill="#263238"/>
<path d="M67.8267 187.826C66.9433 187.228 66.2137 186.43 65.6974 185.497C65.1811 184.563 64.8927 183.521 64.8557 182.455V76.5022C64.914 75.4024 65.2315 74.332 65.7821 73.3783C66.3328 72.4245 67.101 71.6144 68.0243 71.0139L189.498 0.910513C190.415 0.335377 191.471 0.0209478 192.553 0.00101084C193.635 -0.0189261 194.703 0.256385 195.64 0.797357C196.578 1.33833 197.35 2.12452 197.874 3.07145C198.398 4.01838 198.655 5.09026 198.616 6.17193V112.088C198.557 113.188 198.239 114.258 197.688 115.212C197.138 116.165 196.37 116.975 195.447 117.576L73.9735 187.716C73.03 188.217 71.9814 188.488 70.9133 188.508C69.8451 188.527 68.7875 188.293 67.8267 187.826Z" fill="#455A64"/>
<path d="M79.718 81.4049L65.8144 73.3555C65.2464 74.299 64.9291 75.3721 64.8924 76.4728V182.455C64.8542 183.535 65.1108 184.606 65.6347 185.552C66.1586 186.498 66.93 187.283 67.8664 187.824C68.8027 188.364 69.8685 188.64 70.9495 188.621C72.0306 188.602 73.0861 188.289 74.0029 187.716L87.8553 179.718L79.718 81.4049Z" fill="#263238"/>
<path d="M70.7976 79.9415V185.887C70.7976 187.907 72.2172 188.726 73.9662 187.716L195.44 117.576C196.363 116.975 197.131 116.165 197.681 115.212C198.232 114.258 198.549 113.188 198.608 112.088V6.14263C198.608 4.12295 197.189 3.30337 195.44 4.31321L73.9662 74.4459C73.0436 75.0488 72.276 75.8605 71.7255 76.8152C71.175 77.77 70.8571 78.841 70.7976 79.9415Z" fill="#37474F"/>
<path d="M73.9663 191.375L162.752 242.636C163.734 243.134 164.819 243.393 165.92 243.393C167.021 243.393 168.107 243.134 169.089 242.636L290.562 172.496C292.319 171.486 292.319 169.847 290.562 168.837L201.784 117.576C200.802 117.078 199.717 116.819 198.616 116.819C197.515 116.819 196.429 117.078 195.447 117.576L73.9736 187.716C72.2174 188.726 72.2174 190.365 73.9663 191.375Z" fill="#455A64"/>
<path d="M75.6712 80.3293L193.742 12.1651C194.788 11.5578 195.645 12.048 195.645 13.2628V104.975C195.608 105.635 195.416 106.277 195.086 106.849C194.755 107.421 194.295 107.907 193.742 108.268L75.6712 176.432C74.6174 177.04 73.7686 176.55 73.7686 175.335V83.6003C73.8071 82.9442 73.9994 82.3062 74.3299 81.738C74.6604 81.1698 75.1198 80.6873 75.6712 80.3293Z" fill="#FAFAFA"/>
<path d="M84.2694 188.631L197.028 123.504C197.519 123.255 198.061 123.125 198.612 123.125C199.162 123.125 199.705 123.255 200.196 123.504L205.97 126.833C206.161 126.898 206.327 127.021 206.445 127.185C206.562 127.349 206.625 127.546 206.625 127.748C206.625 127.95 206.562 128.147 206.445 128.311C206.327 128.475 206.161 128.598 205.97 128.663L93.1897 193.783C92.6987 194.032 92.1559 194.161 91.6054 194.161C91.0549 194.161 90.5122 194.032 90.0211 193.783L84.2694 190.439C84.0858 190.369 83.9276 190.246 83.816 190.084C83.7043 189.923 83.6445 189.731 83.6445 189.535C83.6445 189.339 83.7043 189.147 83.816 188.985C83.9276 188.824 84.0858 188.7 84.2694 188.631Z" fill="#263238"/>
<path d="M99.1316 197.215L211.89 132.087C212.381 131.838 212.924 131.709 213.474 131.709C214.025 131.709 214.567 131.838 215.058 132.087L250.535 152.577C250.726 152.642 250.892 152.765 251.009 152.929C251.127 153.093 251.19 153.29 251.19 153.491C251.19 153.693 251.127 153.89 251.009 154.054C250.892 154.218 250.726 154.341 250.535 154.406L137.908 219.431C137.416 219.68 136.872 219.81 136.32 219.81C135.768 219.81 135.225 219.68 134.732 219.431L99.139 199.029C98.9493 198.966 98.7843 198.844 98.6672 198.682C98.5501 198.52 98.4867 198.325 98.4858 198.125C98.485 197.924 98.5469 197.729 98.6627 197.566C98.7785 197.403 98.9425 197.28 99.1316 197.215Z" fill="#263238"/>
<path d="M200.211 161.402L203.745 159.36C203.892 159.272 203.884 159.126 203.745 159.038L199.662 156.682C199.575 156.637 199.478 156.614 199.38 156.614C199.282 156.614 199.186 156.637 199.099 156.682L195.571 158.724C195.418 158.804 195.425 158.95 195.571 159.046L199.655 161.402C199.741 161.446 199.836 161.468 199.933 161.468C200.029 161.468 200.125 161.446 200.211 161.402ZM193.244 153.301L189.717 155.314C189.564 155.401 189.571 155.548 189.717 155.643L193.801 157.999C193.888 158.042 193.985 158.065 194.082 158.065C194.18 158.065 194.276 158.042 194.364 157.999L197.898 155.958C198.045 155.87 198.038 155.723 197.898 155.636L193.815 153.272C193.724 153.232 193.625 153.214 193.526 153.219C193.427 153.224 193.331 153.252 193.244 153.301ZM181.836 159.887L175.865 163.363C175.711 163.451 175.726 163.597 175.865 163.692L179.948 166.049C180.036 166.092 180.132 166.114 180.23 166.114C180.328 166.114 180.424 166.092 180.512 166.049L186.483 162.602C186.629 162.514 186.622 162.368 186.483 162.28L182.4 159.916C182.314 159.869 182.219 159.841 182.121 159.836C182.024 159.831 181.926 159.848 181.836 159.887ZM188.085 156.279L184.551 158.321C184.405 158.402 184.412 158.548 184.551 158.643L188.634 160.999C188.721 161.044 188.818 161.068 188.916 161.068C189.014 161.068 189.111 161.044 189.198 160.999L192.725 158.958C192.879 158.87 192.871 158.724 192.725 158.636L188.642 156.279C188.555 156.236 188.46 156.213 188.364 156.213C188.267 156.213 188.172 156.236 188.085 156.279ZM174.233 164.278L170.706 166.29C170.552 166.378 170.567 166.524 170.706 166.619L174.789 168.976C174.876 169.021 174.973 169.044 175.071 169.044C175.169 169.044 175.266 169.021 175.353 168.976L178.887 166.941C179.033 166.854 179.026 166.707 178.887 166.619L174.804 164.256C174.714 164.215 174.615 164.195 174.516 164.199C174.417 164.203 174.32 164.23 174.233 164.278ZM169.074 167.256L165.547 169.29C165.393 169.378 165.401 169.524 165.547 169.62L169.63 171.976C169.718 172.019 169.814 172.042 169.912 172.042C170.01 172.042 170.106 172.019 170.194 171.976L173.728 169.934C173.874 169.846 173.867 169.7 173.728 169.612L169.645 167.249C169.556 167.205 169.458 167.184 169.359 167.185C169.26 167.186 169.162 167.21 169.074 167.256ZM185.136 176.842L188.664 174.801C188.81 174.713 188.803 174.566 188.664 174.479L184.558 172.144C184.471 172.099 184.375 172.076 184.277 172.076C184.179 172.076 184.082 172.099 183.995 172.144L180.468 174.186C180.314 174.266 180.329 174.413 180.468 174.508L184.551 176.864C184.643 176.909 184.744 176.931 184.847 176.927C184.949 176.924 185.048 176.894 185.136 176.842ZM179.97 179.82L183.505 177.779C183.651 177.691 183.644 177.552 183.505 177.457L179.399 175.071C179.312 175.026 179.216 175.003 179.118 175.003C179.02 175.003 178.923 175.026 178.836 175.071L175.294 177.128C175.14 177.208 175.155 177.354 175.294 177.45L179.377 179.806C179.467 179.858 179.568 179.887 179.672 179.889C179.776 179.892 179.878 179.868 179.97 179.82ZM174.811 182.799L178.346 180.757C178.492 180.677 178.485 180.53 178.346 180.435L174.262 178.079C174.175 178.034 174.079 178.01 173.981 178.01C173.883 178.01 173.786 178.034 173.699 178.079L170.172 180.106C170.018 180.194 170.025 180.34 170.172 180.428L174.255 182.784C174.34 182.83 174.435 182.855 174.531 182.858C174.628 182.861 174.724 182.84 174.811 182.799ZM169.689 185.777L173.223 183.735C173.37 183.655 173.362 183.509 173.223 183.413L169.14 181.057C169.053 181.012 168.956 180.989 168.858 180.989C168.76 180.989 168.664 181.012 168.577 181.057L164.991 183.121C164.837 183.209 164.844 183.355 164.991 183.443L169.074 185.799C169.165 185.843 169.265 185.864 169.366 185.86C169.467 185.856 169.565 185.828 169.652 185.777H169.689ZM195.052 164.38L198.579 162.339C198.733 162.251 198.725 162.112 198.579 162.017L194.496 159.66C194.409 159.615 194.312 159.592 194.214 159.592C194.116 159.592 194.019 159.615 193.932 159.66L190.405 161.702C190.251 161.79 190.259 161.929 190.405 162.024L194.488 164.38C194.576 164.425 194.672 164.449 194.77 164.449C194.868 164.449 194.965 164.425 195.052 164.38ZM190.295 173.893L198.169 169.342C198.316 169.254 198.308 169.107 198.169 169.02L188.254 163.297C188.167 163.252 188.07 163.229 187.972 163.229C187.874 163.229 187.777 163.252 187.69 163.297L183.622 165.646C183.468 165.734 183.475 165.88 183.622 165.975L188.876 169.005C189.037 169.1 189.044 169.246 188.876 169.327L185.619 171.215C185.473 171.295 185.48 171.442 185.619 171.537L189.703 173.893C189.796 173.937 189.899 173.957 190.003 173.952C190.106 173.947 190.206 173.917 190.295 173.864V173.893ZM163.915 170.234L160.388 172.276C160.234 172.356 160.242 172.503 160.388 172.598L164.471 174.954C164.559 174.997 164.655 175.02 164.753 175.02C164.851 175.02 164.947 174.997 165.035 174.954L168.569 172.913C168.716 172.825 168.708 172.678 168.569 172.591L164.486 170.234C164.398 170.188 164.3 170.164 164.201 170.164C164.101 170.164 164.003 170.188 163.915 170.234ZM158.793 173.213L155.258 175.254C155.112 175.342 155.119 175.481 155.258 175.576L159.342 177.933C159.429 177.977 159.525 178.001 159.623 178.001C159.721 178.001 159.818 177.977 159.905 177.933L163.432 175.891C163.586 175.803 163.579 175.657 163.432 175.569L159.349 173.213C159.258 173.163 159.156 173.136 159.053 173.136C158.949 173.136 158.847 173.163 158.756 173.213H158.793ZM133.005 206.618C133.092 206.663 133.189 206.686 133.287 206.686C133.385 206.686 133.482 206.663 133.569 206.618L137.103 204.576C137.25 204.488 137.242 204.342 137.103 204.254L133.02 201.898C132.933 201.853 132.836 201.83 132.738 201.83C132.64 201.83 132.544 201.853 132.456 201.898L128.929 203.94C128.776 204.027 128.783 204.166 128.929 204.262L133.005 206.618ZM117.484 197.024L113.95 199.066C113.804 199.146 113.811 199.293 113.95 199.388L118.033 201.744C118.121 201.787 118.217 201.81 118.315 201.81C118.413 201.81 118.509 201.787 118.597 201.744L122.124 199.703C122.278 199.615 122.27 199.468 122.124 199.381L118.041 197.024C117.954 196.981 117.859 196.958 117.763 196.958C117.666 196.958 117.571 196.981 117.484 197.024ZM125.79 204.013C125.877 204.058 125.974 204.081 126.072 204.081C126.17 204.081 126.266 204.058 126.353 204.013L129.881 201.971C130.034 201.883 130.02 201.744 129.881 201.649L125.805 199.293C125.718 199.248 125.621 199.224 125.523 199.224C125.425 199.224 125.328 199.248 125.241 199.293L121.707 201.334C121.56 201.422 121.568 201.561 121.707 201.656L125.79 204.013ZM142.086 208.403L145.621 206.362C145.767 206.274 145.76 206.128 145.621 206.04L141.538 203.676C141.45 203.633 141.354 203.61 141.256 203.61C141.158 203.61 141.062 203.633 140.974 203.676L137.447 205.718C137.293 205.798 137.301 205.945 137.447 206.04L141.53 208.396C141.613 208.444 141.705 208.473 141.8 208.479C141.896 208.485 141.991 208.47 142.079 208.433L142.086 208.403ZM136.364 211.367C136.451 211.412 136.548 211.435 136.646 211.435C136.744 211.435 136.84 211.412 136.928 211.367L140.462 209.325C140.608 209.238 140.601 209.091 140.462 209.003L136.379 206.647C136.292 206.602 136.195 206.579 136.097 206.579C135.999 206.579 135.902 206.602 135.815 206.647L132.259 208.733C132.105 208.813 132.112 208.959 132.259 209.055L136.364 211.367ZM122.607 194.097L119.072 196.132C118.926 196.219 118.933 196.366 119.072 196.461L123.156 198.817C123.243 198.86 123.34 198.883 123.437 198.883C123.535 198.883 123.631 198.86 123.719 198.817L127.246 196.776C127.4 196.688 127.393 196.541 127.246 196.454L123.2 194.097C123.108 194.049 123.006 194.024 122.903 194.024C122.8 194.024 122.698 194.049 122.607 194.097ZM148.438 179.169L144.904 181.211C144.757 181.299 144.765 181.445 144.904 181.533L148.987 183.889C149.074 183.934 149.171 183.957 149.269 183.957C149.367 183.957 149.463 183.934 149.551 183.889L153.078 181.847C153.231 181.767 153.217 181.621 153.078 181.525L149.002 179.169C148.914 179.126 148.818 179.103 148.72 179.103C148.622 179.103 148.526 179.126 148.438 179.169ZM127.795 191.09L124.268 193.124C124.114 193.212 124.122 193.358 124.268 193.453L128.351 195.81C128.439 195.853 128.535 195.875 128.633 195.875C128.731 195.875 128.827 195.853 128.915 195.81L132.449 193.775C132.595 193.687 132.588 193.541 132.449 193.446L128.366 191.09C128.277 191.045 128.18 191.022 128.08 191.022C127.981 191.022 127.884 191.045 127.795 191.09ZM153.597 176.191L150.063 178.233C149.916 178.32 149.924 178.459 150.063 178.555L154.146 180.911C154.233 180.956 154.33 180.979 154.428 180.979C154.526 180.979 154.622 180.956 154.709 180.911L158.237 178.869C158.39 178.781 158.383 178.642 158.237 178.547L154.153 176.191C154.067 176.147 153.972 176.124 153.875 176.124C153.779 176.124 153.683 176.147 153.597 176.191ZM143.272 182.148L139.745 184.189C139.591 184.277 139.606 184.423 139.745 184.511L143.828 186.875C143.916 186.918 144.012 186.94 144.11 186.94C144.208 186.94 144.304 186.918 144.392 186.875L147.919 184.84C148.072 184.753 148.058 184.606 147.919 184.511L143.828 182.162C143.743 182.118 143.648 182.093 143.552 182.091C143.455 182.088 143.36 182.108 143.272 182.148ZM138.113 185.133L134.586 187.167C134.432 187.255 134.447 187.402 134.586 187.489L138.706 189.853C138.792 189.896 138.887 189.919 138.984 189.919C139.08 189.919 139.176 189.896 139.262 189.853L142.796 187.819C142.943 187.731 142.935 187.585 142.796 187.489L138.706 185.14C138.616 185.089 138.514 185.062 138.41 185.061C138.307 185.059 138.204 185.084 138.113 185.133ZM132.954 188.111L129.427 190.146C129.273 190.234 129.288 190.38 129.427 190.475L133.51 192.831C133.598 192.875 133.694 192.897 133.792 192.897C133.89 192.897 133.986 192.875 134.074 192.831L137.608 190.797C137.754 190.709 137.747 190.563 137.608 190.468L133.525 188.111C133.436 188.067 133.338 188.044 133.239 188.044C133.14 188.044 133.043 188.067 132.954 188.111ZM159.334 191.734L162.854 189.707C163.008 189.619 163 189.472 162.854 189.377L158.771 187.021C158.684 186.976 158.587 186.953 158.489 186.953C158.391 186.953 158.294 186.976 158.207 187.021L154.673 189.055C154.527 189.143 154.534 189.29 154.673 189.385L158.756 191.741C158.846 191.785 158.946 191.808 159.046 191.807C159.147 191.805 159.245 191.78 159.334 191.734ZM204.653 146.715L201.118 148.728C200.972 148.808 200.979 148.954 201.118 149.05L205.202 151.406C205.289 151.449 205.386 151.472 205.483 151.472C205.581 151.472 205.677 151.449 205.765 151.406L209.292 149.364C209.446 149.276 209.438 149.13 209.292 149.042L205.209 146.686C205.12 146.647 205.024 146.629 204.927 146.634C204.831 146.639 204.737 146.667 204.653 146.715ZM198.403 150.323L194.876 152.386C194.723 152.474 194.73 152.621 194.876 152.716L198.952 155.072C199.039 155.117 199.136 155.14 199.234 155.14C199.332 155.14 199.429 155.117 199.516 155.072L203.05 153.038C203.196 152.95 203.189 152.804 203.05 152.716L198.967 150.352C198.882 150.304 198.786 150.277 198.689 150.272C198.591 150.267 198.493 150.284 198.403 150.323ZM209.812 143.737L206.277 145.801C206.131 145.888 206.138 146.035 206.277 146.13L210.36 148.486C210.448 148.529 210.545 148.552 210.642 148.552C210.74 148.552 210.836 148.529 210.924 148.486L214.451 146.445C214.605 146.357 214.597 146.21 214.451 146.123L210.368 143.759C210.283 143.713 210.189 143.688 210.092 143.684C209.996 143.68 209.9 143.698 209.812 143.737ZM183.102 171.281L186.637 169.217C186.783 169.129 186.776 168.983 186.637 168.895L182.553 166.539C182.466 166.494 182.37 166.471 182.272 166.471C182.174 166.471 182.077 166.494 181.99 166.539L178.455 168.573C178.309 168.661 178.316 168.807 178.455 168.902L182.539 171.259C182.625 171.305 182.72 171.332 182.818 171.336C182.916 171.339 183.013 171.321 183.102 171.281ZM215.541 140.766C215.454 140.723 215.357 140.7 215.26 140.7C215.162 140.7 215.066 140.723 214.978 140.766L211.451 142.8C211.297 142.888 211.304 143.034 211.451 143.13L215.534 145.486C215.621 145.531 215.718 145.554 215.816 145.554C215.914 145.554 216.01 145.531 216.098 145.486L219.632 143.452C219.778 143.364 219.771 143.217 219.632 143.122L215.541 140.766ZM164.493 188.755L168.02 186.721C168.174 186.633 168.167 186.487 168.02 186.392L163.937 184.035C163.849 183.992 163.753 183.97 163.655 183.97C163.558 183.97 163.461 183.992 163.374 184.035L159.825 186.048C159.678 186.136 159.686 186.282 159.825 186.37L163.908 188.733C163.997 188.784 164.096 188.812 164.198 188.816C164.3 188.82 164.401 188.799 164.493 188.755ZM227.769 152.225L231.304 150.184C231.45 150.096 231.443 149.95 231.304 149.862L227.22 147.506C227.133 147.461 227.037 147.437 226.939 147.437C226.841 147.437 226.744 147.461 226.657 147.506L223.123 149.547C222.976 149.628 222.983 149.774 223.123 149.869L227.206 152.225C227.293 152.27 227.39 152.294 227.488 152.294C227.586 152.294 227.682 152.27 227.769 152.225ZM216.793 151.838L220.32 149.796C220.474 149.708 220.466 149.562 220.32 149.474L216.237 147.118C216.149 147.073 216.053 147.049 215.955 147.049C215.857 147.049 215.76 147.073 215.673 147.118L212.139 149.159C211.992 149.24 212 149.386 212.139 149.481L216.222 151.838C216.308 151.881 216.403 151.904 216.5 151.904C216.597 151.904 216.692 151.881 216.778 151.838H216.793ZM221.396 144.132C221.308 144.089 221.212 144.066 221.114 144.066C221.016 144.066 220.92 144.089 220.832 144.132L217.305 146.174C217.151 146.254 217.159 146.401 217.305 146.496L221.388 148.852C221.476 148.895 221.572 148.918 221.67 148.918C221.768 148.918 221.864 148.895 221.952 148.852L225.486 146.81C225.632 146.723 225.625 146.576 225.486 146.488L221.396 144.132ZM222.479 143.51L232.372 149.233C232.46 149.276 232.556 149.298 232.654 149.298C232.752 149.298 232.848 149.276 232.936 149.233L236.47 147.191C236.616 147.103 236.609 146.957 236.47 146.869L226.518 141.154C226.43 141.111 226.334 141.088 226.236 141.088C226.138 141.088 226.042 141.111 225.954 141.154L222.427 143.188C222.281 143.269 222.288 143.415 222.449 143.51H222.479ZM210.514 150.096L206.98 152.138C206.833 152.218 206.841 152.365 206.98 152.46L211.063 154.816C211.15 154.861 211.247 154.884 211.345 154.884C211.443 154.884 211.539 154.861 211.626 154.816L215.154 152.774C215.307 152.686 215.3 152.54 215.154 152.452L211.07 150.096C210.982 150.045 210.882 150.017 210.779 150.015C210.677 150.012 210.576 150.035 210.485 150.081L210.514 150.096ZM171.635 172.503L168.101 174.544C167.955 174.632 167.962 174.771 168.101 174.866L172.184 177.223C172.271 177.268 172.368 177.291 172.466 177.291C172.564 177.291 172.66 177.268 172.748 177.223L176.275 175.181C176.428 175.093 176.421 174.954 176.275 174.859L172.191 172.503C172.105 172.459 172.01 172.436 171.913 172.436C171.817 172.436 171.721 172.459 171.635 172.503ZM222.032 155.189C222.119 155.234 222.216 155.258 222.314 155.258C222.412 155.258 222.509 155.234 222.596 155.189L226.123 153.148C226.276 153.06 226.269 152.921 226.123 152.826L222.04 150.469C221.952 150.424 221.856 150.401 221.758 150.401C221.66 150.401 221.563 150.424 221.476 150.469L217.942 152.511C217.795 152.599 217.803 152.738 217.942 152.833L222.032 155.189ZM176.794 169.524L173.26 171.566C173.113 171.647 173.121 171.793 173.26 171.888L177.343 174.244C177.43 174.289 177.527 174.313 177.625 174.313C177.723 174.313 177.819 174.289 177.907 174.244L181.434 172.203C181.587 172.115 181.58 171.969 181.434 171.881L177.35 169.524C177.266 169.483 177.174 169.462 177.08 169.462C176.986 169.462 176.893 169.483 176.809 169.524H176.794ZM138.128 203.61C138.215 203.653 138.312 203.676 138.409 203.676C138.507 203.676 138.603 203.653 138.691 203.61L142.226 201.569C142.372 201.481 142.365 201.334 142.226 201.247L138.142 198.89C138.055 198.845 137.959 198.822 137.861 198.822C137.763 198.822 137.666 198.845 137.579 198.89L134.052 200.932C133.898 201.012 133.905 201.159 134.052 201.254L138.128 203.61ZM130.371 196.293L126.836 198.334C126.69 198.415 126.697 198.561 126.836 198.656L130.92 201.012C131.007 201.056 131.104 201.078 131.201 201.078C131.299 201.078 131.396 201.056 131.483 201.012L135.01 198.971C135.164 198.883 135.157 198.737 135.01 198.649L130.927 196.293C130.837 196.256 130.74 196.24 130.644 196.248C130.547 196.255 130.454 196.286 130.371 196.336V196.293ZM143.828 200.683L147.363 198.642C147.509 198.554 147.502 198.407 147.363 198.32L143.279 195.963C143.192 195.918 143.096 195.895 142.998 195.895C142.9 195.895 142.803 195.918 142.716 195.963L139.189 197.998C139.035 198.085 139.05 198.232 139.189 198.327L143.272 200.683C143.358 200.726 143.453 200.749 143.55 200.749C143.647 200.749 143.742 200.726 143.828 200.683ZM148.994 197.705L152.522 195.663C152.675 195.575 152.661 195.429 152.522 195.334L148.438 192.978C148.351 192.934 148.254 192.912 148.157 192.912C148.059 192.912 147.962 192.934 147.875 192.978L144.348 195.012C144.201 195.1 144.209 195.246 144.348 195.341L148.431 197.698C148.521 197.744 148.622 197.769 148.724 197.769C148.825 197.769 148.926 197.744 149.016 197.698L148.994 197.705ZM154.117 194.719L157.644 192.685C157.798 192.597 157.783 192.451 157.644 192.356L153.568 189.999C153.48 189.956 153.384 189.934 153.286 189.934C153.188 189.934 153.092 189.956 153.004 189.999L149.47 192.034C149.324 192.121 149.331 192.268 149.47 192.363L153.553 194.719C153.649 194.771 153.756 194.798 153.865 194.797C153.974 194.795 154.081 194.766 154.175 194.712L154.117 194.719ZM135.53 193.366L131.995 195.4C131.849 195.488 131.856 195.634 131.995 195.729L136.079 198.085C136.166 198.129 136.263 198.151 136.36 198.151C136.458 198.151 136.555 198.129 136.642 198.085L140.169 196.044C140.323 195.956 140.316 195.81 140.169 195.722L136.093 193.366C136.006 193.322 135.909 193.3 135.812 193.3C135.714 193.3 135.617 193.322 135.53 193.366ZM140.689 190.387L137.154 192.422C137.008 192.509 137.015 192.656 137.154 192.751L141.238 195.107C141.325 195.152 141.421 195.175 141.519 195.175C141.617 195.175 141.714 195.152 141.801 195.107L145.336 193.073C145.482 192.985 145.475 192.839 145.336 192.743L141.252 190.387C141.165 190.343 141.069 190.319 140.971 190.318C140.874 190.317 140.777 190.338 140.689 190.38V190.387ZM161.332 178.467L157.798 180.508C157.644 180.596 157.659 180.742 157.798 180.83L161.881 183.187C161.968 183.232 162.065 183.255 162.163 183.255C162.261 183.255 162.357 183.232 162.444 183.187L165.971 181.145C166.125 181.064 166.11 180.918 165.971 180.823L161.888 178.467C161.802 178.422 161.707 178.399 161.611 178.397C161.514 178.396 161.419 178.417 161.332 178.459V178.467ZM156.166 181.452L152.609 183.479C152.456 183.567 152.47 183.713 152.609 183.801L156.685 186.165C156.773 186.208 156.869 186.231 156.967 186.231C157.065 186.231 157.161 186.208 157.249 186.165L160.783 184.131C160.93 184.043 160.922 183.896 160.783 183.801L156.7 181.445C156.617 181.405 156.525 181.384 156.433 181.384C156.34 181.384 156.249 181.405 156.166 181.445V181.452ZM166.513 175.481L162.978 177.523C162.832 177.611 162.839 177.757 162.978 177.845L167.062 180.201C167.149 180.246 167.245 180.269 167.343 180.269C167.442 180.269 167.538 180.246 167.625 180.201L171.152 178.159C171.306 178.079 171.291 177.933 171.152 177.837L167.076 175.481C166.989 175.436 166.893 175.413 166.795 175.413C166.697 175.413 166.6 175.436 166.513 175.481ZM145.87 187.402L142.343 189.436C142.189 189.524 142.196 189.67 142.343 189.765L146.426 192.121C146.514 192.165 146.61 192.187 146.708 192.187C146.805 192.187 146.902 192.165 146.989 192.121L150.524 190.087C150.67 189.999 150.663 189.853 150.524 189.758L146.441 187.402C146.349 187.354 146.247 187.328 146.144 187.328C146.041 187.328 145.939 187.354 145.848 187.402H145.87ZM151.029 184.423L147.487 186.458C147.333 186.545 147.341 186.692 147.487 186.787L151.57 189.143C151.658 189.186 151.754 189.209 151.852 189.209C151.95 189.209 152.046 189.186 152.134 189.143L155.668 187.109C155.814 187.021 155.807 186.875 155.668 186.78L151.585 184.423C151.496 184.376 151.397 184.351 151.296 184.351C151.195 184.351 151.096 184.376 151.007 184.423H151.029ZM147.26 205.454L150.795 203.413C150.941 203.325 150.934 203.179 150.795 203.091L146.711 200.727C146.624 200.684 146.527 200.661 146.43 200.661C146.332 200.661 146.235 200.684 146.148 200.727L142.621 202.761C142.467 202.849 142.482 202.996 142.621 203.091L146.697 205.447C146.781 205.488 146.873 205.51 146.967 205.511C147.06 205.512 147.153 205.493 147.238 205.454H147.26ZM116.987 202.396L112.904 200.039C112.816 199.994 112.72 199.971 112.622 199.971C112.524 199.971 112.427 199.994 112.34 200.039L108.806 202.081C108.659 202.161 108.667 202.308 108.806 202.403L112.889 204.759C112.976 204.804 113.073 204.827 113.171 204.827C113.269 204.827 113.365 204.804 113.452 204.759L116.98 202.717C117.133 202.63 117.119 202.483 116.965 202.396H116.987ZM124.714 204.664L120.631 202.308C120.544 202.263 120.447 202.239 120.349 202.239C120.251 202.239 120.155 202.263 120.068 202.308L114.638 205.447C114.492 205.535 114.499 205.674 114.638 205.769L118.721 208.125C118.808 208.17 118.905 208.194 119.003 208.194C119.101 208.194 119.197 208.17 119.285 208.125L124.714 204.986C124.868 204.898 124.853 204.759 124.692 204.664H124.714ZM110.723 197.837L106.64 195.48C106.553 195.435 106.456 195.412 106.358 195.412C106.26 195.412 106.163 195.435 106.076 195.48L101.729 197.99C101.576 198.078 101.59 198.224 101.729 198.32L105.813 200.676C105.9 200.719 105.997 200.742 106.094 200.742C106.192 200.742 106.289 200.719 106.376 200.676L110.716 198.166C110.899 198.078 110.899 197.932 110.701 197.837H110.723ZM114.052 195.912C114.14 195.957 114.236 195.98 114.334 195.98C114.432 195.98 114.529 195.957 114.616 195.912L118.143 193.87C118.297 193.783 118.289 193.644 118.143 193.548L114.06 191.192C113.973 191.147 113.876 191.124 113.778 191.124C113.68 191.124 113.583 191.147 113.496 191.192L109.962 193.234C109.816 193.322 109.823 193.461 109.962 193.556L114.052 195.912ZM131.886 207.269L127.802 204.913C127.715 204.868 127.619 204.844 127.521 204.844C127.423 204.844 127.326 204.868 127.239 204.913L120.448 208.835C120.302 208.923 120.309 209.069 120.448 209.157L124.531 211.513C124.618 211.558 124.715 211.582 124.813 211.582C124.911 211.582 125.008 211.558 125.095 211.513L131.886 207.591C132.054 207.481 132.047 207.342 131.886 207.269ZM135.274 212.048L131.19 209.691C131.103 209.646 131.007 209.623 130.909 209.623C130.811 209.623 130.714 209.646 130.627 209.691L126.266 212.165C126.119 212.252 126.127 212.399 126.266 212.487L130.349 214.85C130.437 214.893 130.533 214.916 130.631 214.916C130.728 214.916 130.825 214.893 130.912 214.85L135.259 212.34C135.442 212.26 135.435 212.121 135.274 212.026V212.048ZM152.397 173.783C152.483 173.828 152.578 173.852 152.675 173.852C152.772 173.852 152.867 173.828 152.953 173.783L156.488 171.742C156.634 171.661 156.627 171.515 156.488 171.42L152.404 169.063C152.317 169.019 152.221 168.995 152.123 168.995C152.025 168.995 151.928 169.019 151.841 169.063L148.314 171.105C148.16 171.193 148.175 171.339 148.314 171.427L152.397 173.783ZM142.072 179.747C142.159 179.791 142.256 179.813 142.354 179.813C142.451 179.813 142.548 179.791 142.635 179.747L146.17 177.706C146.316 177.625 146.309 177.479 146.17 177.384L142.086 175.027C141.999 174.984 141.902 174.962 141.805 174.962C141.707 174.962 141.611 174.984 141.523 175.027L137.974 177.04C137.82 177.128 137.828 177.274 137.974 177.362L142.072 179.747ZM119.189 192.956C119.277 192.999 119.373 193.021 119.471 193.021C119.569 193.021 119.665 192.999 119.753 192.956L123.28 190.914C123.434 190.826 123.426 190.68 123.28 190.592L119.182 188.243C119.095 188.198 118.998 188.175 118.9 188.175C118.802 188.175 118.706 188.198 118.619 188.243L115.084 190.285C114.938 190.365 114.945 190.512 115.084 190.607L119.189 192.956ZM147.231 176.762C147.318 176.807 147.415 176.83 147.513 176.83C147.611 176.83 147.707 176.807 147.794 176.762L151.329 174.72C151.475 174.64 151.468 174.493 151.329 174.398L147.245 172.042C147.158 171.997 147.062 171.973 146.964 171.973C146.866 171.973 146.769 171.997 146.682 172.042L143.155 174.083C143.001 174.171 143.016 174.318 143.155 174.405L147.231 176.762ZM136.913 182.726C137.001 182.769 137.097 182.791 137.195 182.791C137.292 182.791 137.389 182.769 137.476 182.726L141.011 180.691C141.157 180.603 141.15 180.457 141.011 180.362L136.906 177.998C136.818 177.953 136.722 177.93 136.624 177.93C136.526 177.93 136.429 177.953 136.342 177.998L132.852 180.018C132.698 180.106 132.705 180.252 132.852 180.347L136.913 182.726ZM138.106 212.391C138.019 212.347 137.922 212.323 137.824 212.323C137.726 212.323 137.629 212.347 137.542 212.391L132.12 215.531C131.973 215.619 131.981 215.765 132.12 215.86L136.218 218.246C136.305 218.289 136.402 218.311 136.499 218.311C136.597 218.311 136.694 218.289 136.781 218.246L142.211 215.114C142.357 215.026 142.35 214.879 142.211 214.784L138.106 212.391ZM129.507 186.963C129.595 187.007 129.691 187.031 129.789 187.031C129.887 187.031 129.984 187.007 130.071 186.963L133.583 184.95C133.73 184.862 133.722 184.716 133.583 184.621L129.5 182.265C129.412 182.221 129.316 182.199 129.218 182.199C129.121 182.199 129.024 182.221 128.937 182.265L125.409 184.299C125.256 184.387 125.263 184.533 125.409 184.628L129.507 186.963ZM124.348 189.941C124.436 189.984 124.532 190.007 124.63 190.007C124.728 190.007 124.824 189.984 124.912 189.941L128.446 187.899C128.593 187.811 128.585 187.665 128.446 187.577L124.363 185.221C124.276 185.176 124.179 185.153 124.081 185.153C123.983 185.153 123.887 185.176 123.8 185.221L120.265 187.255C120.119 187.343 120.126 187.489 120.265 187.585L124.348 189.941ZM233.704 157.216C233.616 157.173 233.52 157.15 233.422 157.15C233.324 157.15 233.228 157.173 233.14 157.216L224.447 162.236C224.301 162.324 224.308 162.47 224.447 162.558L228.53 164.922C228.618 164.965 228.714 164.987 228.812 164.987C228.91 164.987 229.006 164.965 229.094 164.922L237.78 159.902C237.934 159.821 237.926 159.675 237.78 159.58L233.704 157.216ZM222.296 163.802C222.209 163.757 222.112 163.734 222.014 163.734C221.916 163.734 221.819 163.757 221.732 163.802L218.205 165.844C218.051 165.932 218.059 166.078 218.205 166.166L222.288 168.522C222.375 168.567 222.472 168.59 222.57 168.59C222.668 168.59 222.765 168.567 222.852 168.522L226.386 166.48C226.533 166.4 226.525 166.253 226.386 166.158L222.296 163.802ZM152.404 202.469L155.932 200.434C156.078 200.347 156.071 200.2 155.932 200.105L151.826 197.756C151.739 197.713 151.642 197.69 151.545 197.69C151.447 197.69 151.35 197.713 151.263 197.756L147.736 199.79C147.582 199.878 147.597 200.025 147.736 200.12L151.819 202.476C151.91 202.524 152.01 202.548 152.113 202.547C152.215 202.545 152.315 202.519 152.404 202.469ZM211.978 169.759C211.891 169.714 211.794 169.69 211.696 169.69C211.598 169.69 211.501 169.714 211.414 169.759L207.88 171.793C207.733 171.881 207.741 172.027 207.88 172.122L211.963 174.479C212.051 174.522 212.147 174.544 212.245 174.544C212.342 174.544 212.439 174.522 212.527 174.479L216.054 172.444C216.207 172.356 216.2 172.21 216.054 172.115L211.978 169.759ZM238.863 154.238C238.776 154.193 238.679 154.169 238.581 154.169C238.483 154.169 238.387 154.193 238.299 154.238L234.765 156.279C234.619 156.367 234.626 156.514 234.765 156.601L238.848 158.958C238.935 159.003 239.032 159.026 239.13 159.026C239.228 159.026 239.325 159.003 239.412 158.958L242.939 156.916C243.092 156.836 243.085 156.689 242.939 156.594L238.863 154.238ZM248.105 153.616L238.226 147.893C238.139 147.848 238.043 147.825 237.944 147.825C237.846 147.825 237.75 147.848 237.663 147.893L234.136 149.935C233.982 150.016 233.989 150.162 234.136 150.257L244.051 155.979C244.138 156.024 244.235 156.048 244.333 156.048C244.431 156.048 244.527 156.024 244.615 155.979L248.149 153.938C248.273 153.85 248.266 153.711 248.105 153.616ZM192.696 180.925C192.608 180.882 192.512 180.86 192.414 180.86C192.316 180.86 192.22 180.882 192.132 180.925L187.785 183.435C187.639 183.516 187.646 183.662 187.785 183.757L191.869 186.114C191.956 186.159 192.052 186.182 192.15 186.182C192.248 186.182 192.345 186.159 192.432 186.114L196.772 183.604C196.925 183.516 196.918 183.37 196.772 183.274L192.696 180.925ZM205.728 173.403C205.641 173.36 205.544 173.337 205.447 173.337C205.349 173.337 205.253 173.36 205.165 173.403L199.735 176.542C199.589 176.63 199.596 176.776 199.735 176.864L203.833 179.169C203.92 179.214 204.017 179.238 204.115 179.238C204.213 179.238 204.309 179.214 204.397 179.169L209.826 176.03C209.973 175.949 209.965 175.803 209.826 175.708L205.728 173.403ZM180.746 187.826C180.659 187.781 180.562 187.758 180.464 187.758C180.366 187.758 180.269 187.781 180.182 187.826L151.146 204.554C150.992 204.642 151.007 204.788 151.146 204.884L155.229 207.24C155.317 207.283 155.413 207.306 155.511 207.306C155.608 207.306 155.705 207.283 155.793 207.24L184.844 190.468C184.997 190.38 184.99 190.234 184.844 190.138L180.746 187.826ZM150.055 205.542C149.968 205.499 149.871 205.476 149.774 205.476C149.676 205.476 149.58 205.499 149.492 205.542L145.145 208.001C144.999 208.089 145.006 208.228 145.145 208.323L149.229 210.679C149.316 210.724 149.412 210.748 149.51 210.748C149.608 210.748 149.705 210.724 149.792 210.679L154.139 208.169C154.285 208.081 154.278 207.935 154.139 207.847L150.055 205.542ZM186.717 184.379C186.63 184.334 186.533 184.311 186.435 184.311C186.337 184.311 186.241 184.334 186.154 184.379L181.814 186.889C181.661 186.977 181.668 187.124 181.814 187.219L185.897 189.575C185.985 189.618 186.081 189.641 186.179 189.641C186.277 189.641 186.373 189.618 186.461 189.575L190.808 187.065C190.954 186.977 190.947 186.838 190.808 186.743L186.717 184.379ZM144.084 208.996C143.997 208.951 143.901 208.928 143.802 208.928C143.704 208.928 143.608 208.951 143.521 208.996L139.174 211.506C139.02 211.594 139.035 211.74 139.174 211.835L143.257 214.192C143.345 214.235 143.441 214.257 143.539 214.257C143.637 214.257 143.733 214.235 143.821 214.192L148.219 211.66C148.372 211.572 148.365 211.433 148.219 211.338L144.084 208.996ZM198.667 177.479C198.579 177.436 198.483 177.413 198.385 177.413C198.287 177.413 198.191 177.436 198.103 177.479L193.757 179.989C193.61 180.077 193.618 180.223 193.757 180.318L197.84 182.674C197.927 182.719 198.024 182.743 198.122 182.743C198.22 182.743 198.316 182.719 198.403 182.674L202.75 180.172C202.896 180.084 202.889 179.938 202.75 179.842L198.667 177.479ZM217.137 166.817C217.049 166.774 216.953 166.751 216.855 166.751C216.757 166.751 216.661 166.774 216.573 166.817L213.039 168.859C212.892 168.946 212.9 169.093 213.039 169.181L217.122 171.544C217.21 171.587 217.306 171.61 217.404 171.61C217.501 171.61 217.598 171.587 217.685 171.544L221.22 169.51C221.366 169.422 221.359 169.276 221.22 169.181L217.137 166.817ZM228.442 158.607L231.97 156.565C232.123 156.477 232.116 156.338 231.97 156.243L227.872 153.85C227.785 153.805 227.688 153.782 227.59 153.782C227.492 153.782 227.395 153.805 227.308 153.85L223.774 155.892C223.627 155.979 223.635 156.126 223.774 156.214L227.857 158.57C227.947 158.619 228.048 158.644 228.15 158.644C228.252 158.644 228.353 158.619 228.442 158.57V158.607ZM205.37 158.46L208.904 156.419C209.051 156.331 209.043 156.184 208.904 156.097L204.821 153.74C204.734 153.695 204.637 153.672 204.539 153.672C204.441 153.672 204.345 153.695 204.258 153.74L200.73 155.782C200.577 155.862 200.584 156.009 200.73 156.104L204.814 158.46C204.903 158.497 205 158.512 205.096 158.506C205.192 158.5 205.286 158.471 205.37 158.424V158.46ZM193.662 178.679L203.979 172.715C204.126 172.635 204.119 172.488 203.979 172.393L199.896 170.037C199.809 169.992 199.712 169.968 199.614 169.968C199.516 169.968 199.42 169.992 199.333 170.037L189.015 175.993C188.861 176.081 188.876 176.227 189.015 176.323L193.098 178.679C193.191 178.72 193.293 178.738 193.395 178.732C193.497 178.726 193.596 178.695 193.683 178.642L193.662 178.679ZM222.698 161.57C222.785 161.615 222.882 161.639 222.98 161.639C223.078 161.639 223.174 161.615 223.262 161.57L226.789 159.536C226.942 159.448 226.928 159.302 226.789 159.207L222.705 156.85C222.618 156.807 222.521 156.785 222.424 156.785C222.326 156.785 222.23 156.807 222.142 156.85L218.608 158.892C218.461 158.98 218.468 159.126 218.608 159.214L222.698 161.57ZM217.429 158.219L220.956 156.177C221.11 156.097 221.103 155.95 220.956 155.855L216.873 153.499C216.786 153.454 216.69 153.43 216.591 153.43C216.493 153.43 216.397 153.454 216.31 153.499L212.775 155.54C212.629 155.628 212.636 155.775 212.775 155.862L216.859 158.219C216.952 158.263 217.056 158.283 217.16 158.277C217.263 158.27 217.364 158.238 217.451 158.182L217.429 158.219ZM188.495 181.635L192.03 179.594C192.176 179.506 192.169 179.359 192.03 179.272L187.946 176.915C187.859 176.87 187.763 176.847 187.665 176.847C187.567 176.847 187.47 176.87 187.383 176.915L183.856 178.957C183.702 179.037 183.717 179.184 183.856 179.279L187.932 181.635C188.02 181.686 188.12 181.714 188.222 181.718C188.324 181.721 188.425 181.701 188.517 181.657L188.495 181.635ZM211.29 168.134C211.377 168.179 211.474 168.203 211.572 168.203C211.67 168.203 211.766 168.179 211.853 168.134L215.388 166.093C215.534 166.012 215.527 165.866 215.388 165.771L211.304 163.414C211.217 163.369 211.121 163.346 211.023 163.346C210.925 163.346 210.828 163.369 210.741 163.414L207.214 165.456C207.06 165.544 207.068 165.69 207.214 165.778L211.29 168.134ZM162.7 196.527L166.228 194.492C166.381 194.405 166.367 194.258 166.228 194.163L162.122 191.792C162.035 191.749 161.938 191.726 161.841 191.726C161.743 191.726 161.646 191.749 161.559 191.792L158.024 193.834C157.878 193.922 157.885 194.068 158.024 194.163L162.108 196.519C162.202 196.57 162.308 196.596 162.416 196.595C162.523 196.594 162.629 196.565 162.722 196.512L162.7 196.527ZM167.859 193.548L171.386 191.514C171.54 191.426 171.533 191.28 171.386 191.185L167.303 188.829C167.216 188.785 167.119 188.763 167.022 188.763C166.924 188.763 166.827 188.785 166.74 188.829L163.205 190.87C163.059 190.958 163.066 191.104 163.205 191.192L167.289 193.548C167.381 193.596 167.483 193.62 167.587 193.617C167.69 193.615 167.792 193.586 167.881 193.534L167.859 193.548ZM157.541 199.505L161.069 197.471C161.222 197.383 161.208 197.237 161.069 197.141L157 194.771C156.913 194.726 156.816 194.702 156.718 194.702C156.62 194.702 156.524 194.726 156.436 194.771L152.902 196.805C152.756 196.893 152.763 197.039 152.902 197.134L156.985 199.49C157.075 199.536 157.174 199.56 157.274 199.56C157.375 199.56 157.474 199.536 157.563 199.49L157.541 199.505ZM178.221 187.577L181.756 185.536C181.902 185.448 181.895 185.309 181.756 185.214L177.672 182.857C177.585 182.812 177.489 182.789 177.391 182.789C177.293 182.789 177.196 182.812 177.109 182.857L173.582 184.899C173.428 184.987 173.435 185.126 173.582 185.221L177.665 187.577C177.751 187.621 177.847 187.644 177.943 187.644C178.04 187.644 178.135 187.621 178.221 187.577ZM173.062 190.556L176.597 188.514C176.743 188.433 176.736 188.287 176.597 188.192L172.513 185.836C172.426 185.791 172.33 185.767 172.232 185.767C172.134 185.767 172.037 185.791 171.95 185.836L168.416 187.877C168.269 187.965 168.276 188.111 168.416 188.199L172.499 190.556C172.583 190.597 172.676 190.618 172.77 190.618C172.863 190.618 172.956 190.597 173.04 190.556H173.062ZM183.344 184.584L186.878 182.543C187.024 182.455 187.017 182.316 186.878 182.221L182.795 179.864C182.708 179.819 182.611 179.796 182.513 179.796C182.415 179.796 182.318 179.819 182.231 179.864L178.704 181.906C178.551 181.994 178.565 182.133 178.704 182.228L182.787 184.584C182.874 184.628 182.969 184.651 183.066 184.651C183.162 184.651 183.257 184.628 183.344 184.584ZM206.95 140.51C207.038 140.555 207.134 140.578 207.232 140.578C207.33 140.578 207.427 140.555 207.514 140.51L211.048 138.468C211.195 138.38 211.187 138.241 211.048 138.146L209.958 137.517C209.871 137.472 209.774 137.449 209.676 137.449C209.578 137.449 209.482 137.472 209.395 137.517L205.867 139.551C205.721 139.639 205.728 139.785 205.867 139.881L206.95 140.51ZM181.565 156.901C181.653 156.945 181.749 156.967 181.847 156.967C181.945 156.967 182.041 156.945 182.129 156.901L185.656 154.867C185.81 154.779 185.802 154.633 185.656 154.538L181.573 152.182C181.486 152.137 181.389 152.113 181.291 152.113C181.193 152.113 181.096 152.137 181.009 152.182L177.489 154.231C177.343 154.318 177.35 154.465 177.489 154.56L181.565 156.901ZM191.883 150.938C191.97 150.982 192.067 151.006 192.165 151.006C192.263 151.006 192.36 150.982 192.447 150.938L195.981 148.903C196.128 148.815 196.12 148.669 195.981 148.574L191.898 146.218C191.81 146.174 191.714 146.152 191.616 146.152C191.519 146.152 191.422 146.174 191.335 146.218L187.8 148.259C187.654 148.347 187.661 148.493 187.8 148.581L191.883 150.938ZM175.294 160.553C175.381 160.598 175.478 160.621 175.576 160.621C175.674 160.621 175.77 160.598 175.858 160.553L179.385 158.519C179.538 158.431 179.531 158.285 179.385 158.189L175.294 155.84C175.207 155.797 175.11 155.775 175.012 155.775C174.915 155.775 174.818 155.797 174.731 155.84L171.196 157.875C171.05 157.963 171.057 158.109 171.196 158.204L175.294 160.553ZM186.754 153.967C186.841 154.01 186.938 154.033 187.035 154.033C187.133 154.033 187.229 154.01 187.317 153.967L190.844 151.933C190.998 151.845 190.991 151.699 190.844 151.603L186.761 149.247C186.674 149.202 186.577 149.179 186.479 149.179C186.381 149.179 186.285 149.202 186.197 149.247L182.612 151.252C182.465 151.34 182.473 151.486 182.612 151.574L186.754 153.967ZM164.962 166.51C165.049 166.553 165.146 166.575 165.243 166.575C165.341 166.575 165.437 166.553 165.525 166.51L169.052 164.468C169.199 164.38 169.191 164.234 169.052 164.146L164.969 161.79C164.882 161.745 164.785 161.721 164.687 161.721C164.589 161.721 164.493 161.745 164.405 161.79L160.878 163.824C160.725 163.912 160.739 164.058 160.878 164.153L164.962 166.51ZM170.121 163.531C170.208 163.576 170.304 163.6 170.402 163.6C170.5 163.6 170.597 163.576 170.684 163.531L174.211 161.497C174.365 161.409 174.35 161.263 174.211 161.168L170.135 158.811C170.048 158.768 169.951 158.746 169.853 158.746C169.756 158.746 169.659 158.768 169.572 158.811L166.037 160.846C165.891 160.934 165.898 161.08 166.037 161.175L170.121 163.531ZM196.647 146.481C196.734 146.526 196.831 146.549 196.929 146.549C197.027 146.549 197.124 146.526 197.211 146.481L200.738 144.447C200.891 144.359 200.884 144.213 200.738 144.118L199.647 143.488C199.56 143.445 199.463 143.422 199.366 143.422C199.268 143.422 199.172 143.445 199.084 143.488L195.557 145.522C195.403 145.61 195.41 145.757 195.557 145.852L196.647 146.481ZM212.124 137.546C212.211 137.591 212.308 137.615 212.406 137.615C212.504 137.615 212.6 137.591 212.688 137.546L216.222 135.505C216.368 135.417 216.361 135.27 216.222 135.183L215.139 134.553C215.051 134.51 214.955 134.488 214.857 134.488C214.759 134.488 214.663 134.51 214.575 134.553L211.041 136.595C210.895 136.683 210.902 136.829 211.041 136.917L212.124 137.546ZM220.7 142.5C220.788 142.544 220.884 142.566 220.982 142.566C221.08 142.566 221.176 142.544 221.264 142.5L224.798 140.466C224.945 140.378 224.937 140.232 224.798 140.137L220.664 137.788C220.576 137.744 220.48 137.722 220.382 137.722C220.284 137.722 220.188 137.744 220.1 137.788L216.573 139.822C216.42 139.91 216.427 140.056 216.573 140.151L220.7 142.5ZM233.601 155.592L237.129 153.55C237.282 153.462 237.275 153.323 237.129 153.228L233.045 150.872C232.958 150.827 232.862 150.803 232.764 150.803C232.666 150.803 232.569 150.827 232.482 150.872L228.947 152.913C228.801 153.001 228.808 153.14 228.947 153.235L233.031 155.592C233.119 155.638 233.217 155.662 233.316 155.662C233.415 155.662 233.513 155.638 233.601 155.592ZM201.806 143.503C201.893 143.548 201.99 143.571 202.088 143.571C202.186 143.571 202.282 143.548 202.37 143.503L205.904 141.461C206.05 141.381 206.043 141.234 205.904 141.139L204.814 140.51C204.726 140.467 204.63 140.444 204.532 140.444C204.434 140.444 204.338 140.467 204.25 140.51L200.723 142.544C200.569 142.632 200.584 142.778 200.723 142.873L201.806 143.503ZM159.795 169.488C159.883 169.531 159.979 169.554 160.077 169.554C160.175 169.554 160.271 169.531 160.359 169.488L163.893 167.446C164.04 167.358 164.032 167.212 163.893 167.124L159.81 164.768C159.723 164.723 159.626 164.7 159.528 164.7C159.43 164.7 159.334 164.723 159.246 164.768L155.719 166.81C155.566 166.89 155.58 167.036 155.719 167.132L159.795 169.488Z" fill="#E0E0E0"/>
<path d="M180.775 201.561L219.42 179.25L243.202 192.978L204.558 215.289L180.775 201.561Z" fill="#263238"/>
<path d="M103.157 69.2503L218.3 2.76918C220.554 1.46663 222.398 2.53501 222.398 5.13279V94.3207C222.36 94.9799 222.168 95.6209 221.837 96.1926C221.507 96.7644 221.047 97.251 220.496 97.6137L102.425 165.778C101.378 166.378 100.522 165.888 100.522 164.68V73.8092C100.575 72.8964 100.84 72.0086 101.298 71.2169C101.755 70.4252 102.392 69.7517 103.157 69.2503Z" fill="#F5F5F5"/>
<path d="M222.398 7.26952V5.13275C222.398 2.53498 220.554 1.47392 218.3 2.76915L103.157 69.2503C102.392 69.7517 101.755 70.4252 101.298 71.2169C100.84 72.0086 100.575 72.8964 100.522 73.8092V77.6364L222.398 7.26952Z" fill="#263238"/>
<path d="M205.224 12.1358C204.818 12.407 204.481 12.7692 204.239 13.1934C203.998 13.6177 203.859 14.0924 203.833 14.5799C203.833 15.4799 204.47 15.8458 205.246 15.3921C205.657 15.127 206 14.7678 206.246 14.3441C206.491 13.9204 206.633 13.4444 206.658 12.9553C206.636 12.0553 206.029 11.6894 205.224 12.1358Z" fill="#E0E0E0"/>
<path d="M210.822 8.90877C210.41 9.17545 210.067 9.53604 209.822 9.96091C209.576 10.3858 209.435 10.8628 209.409 11.3529C209.409 12.2529 210.039 12.6115 210.822 12.1651C211.236 11.8943 211.581 11.5288 211.826 11.0987C212.072 10.6687 212.211 10.1864 212.234 9.69176C212.234 8.82096 211.597 8.45507 210.822 8.90877Z" fill="#E0E0E0"/>
<path d="M216.42 5.67433C216.009 5.94189 215.666 6.30267 215.421 6.72736C215.176 7.15205 215.034 7.62866 215.007 8.11843C215.007 9.01851 215.637 9.38439 216.42 8.9307C216.829 8.66391 217.17 8.30413 217.414 7.88067C217.658 7.45721 217.799 6.98204 217.825 6.49391C217.825 5.59383 217.195 5.22795 216.42 5.67433Z" fill="#E0E0E0"/>
<path d="M100.522 77.6364V94.7963L222.391 24.4368V7.26953L100.522 77.6364Z" fill="#BA68C8"/>
<path opacity="0.1" d="M100.522 77.6364V94.7963L222.391 24.4368V7.26953L100.522 77.6364Z" fill="black"/>
<path d="M108.506 85.8542C108.096 85.9816 107.661 86.0042 107.24 85.92V77.512C107.236 77.3524 107.272 77.1942 107.342 77.051C107.429 76.9132 107.55 76.7998 107.693 76.7217L108.323 76.3632C108.484 76.268 108.601 76.2387 108.674 76.2827C108.747 76.3266 108.784 76.4363 108.784 76.6193V79.3854C109.017 79.023 109.298 78.6933 109.618 78.4048C109.958 78.0963 110.331 77.8263 110.73 77.5998C111.652 77.0656 112.362 76.9412 112.867 77.2413C113.372 77.5413 113.599 78.2218 113.599 79.2756C113.611 80.4581 113.308 81.6226 112.721 82.649C112.095 83.7069 111.198 84.5785 110.123 85.1736C109.618 85.4741 109.074 85.7032 108.506 85.8542ZM111.564 82.4222C111.909 81.7429 112.077 80.9881 112.055 80.2269C112.055 79.4951 111.923 79.0561 111.667 78.8731C111.411 78.6902 110.979 78.7633 110.372 79.1146C109.938 79.3693 109.562 79.7106 109.267 80.1171C108.963 80.4955 108.793 80.9638 108.784 81.4489V84.3321C108.977 84.3529 109.173 84.3279 109.355 84.2589C109.609 84.1761 109.854 84.0683 110.086 83.937C110.713 83.5826 111.226 83.0572 111.564 82.4222Z" fill="#FAFAFA"/>
<path d="M114.923 82.0709C114.85 82.0196 114.814 81.9172 114.814 81.7416V73.136C114.809 72.9753 114.847 72.8163 114.923 72.675C115.007 72.5339 115.128 72.4196 115.275 72.3457L115.926 71.9725C116.087 71.8773 116.204 71.8554 116.277 71.892C116.35 71.9286 116.387 72.0456 116.387 72.2286V80.8342C116.394 80.9895 116.358 81.1438 116.284 81.2806C116.199 81.4241 116.075 81.5407 115.926 81.6172L115.275 81.9904C115.106 82.0855 114.989 82.1367 114.923 82.0709Z" fill="#FAFAFA"/>
<path d="M118.458 79.3926C117.88 79.078 117.594 78.3682 117.594 77.2486C117.591 76.1408 117.89 75.053 118.458 74.1019C119.055 73.1015 119.906 72.2761 120.924 71.7091C121.985 71.0944 122.812 70.9773 123.39 71.2554C123.968 71.5334 124.261 72.2798 124.261 73.3994C124.265 74.5084 123.964 75.5971 123.39 76.5461C122.793 77.5488 121.942 78.3766 120.924 78.9463C119.855 79.5609 119.036 79.7073 118.458 79.3926ZM122.248 76.2607C122.561 75.6551 122.717 74.9809 122.702 74.2995C122.702 73.5678 122.548 73.0921 122.248 72.8799C121.948 72.6677 121.517 72.7335 120.924 73.0702C120.366 73.384 119.907 73.8479 119.599 74.4093C119.283 75.0084 119.124 75.6783 119.138 76.3558C119.138 77.0973 119.292 77.5852 119.599 77.8193C119.907 78.0389 120.331 77.9803 120.924 77.651C121.486 77.3299 121.946 76.8553 122.248 76.2826V76.2607Z" fill="#FAFAFA"/>
<path d="M127.21 77.3584C126.883 77.4918 126.531 77.5541 126.178 77.5414C126.046 77.5414 126.017 77.4463 126.083 77.2853L126.434 76.3852C126.462 76.2978 126.512 76.2195 126.581 76.1583C126.621 76.1475 126.664 76.1475 126.705 76.1583C127.333 76.1104 127.938 75.9012 128.461 75.551C128.958 75.2806 129.374 74.8844 129.669 74.4021C129.945 73.8593 130.076 73.2543 130.049 72.6459C129.833 73.0471 129.562 73.4165 129.244 73.7435C128.914 74.076 128.54 74.3616 128.132 74.5924C127.217 75.1192 126.5 75.2436 125.988 74.9656C125.476 74.6875 125.219 74.0143 125.219 72.9678C125.21 71.8131 125.527 70.6791 126.134 69.6968C126.794 68.6579 127.705 67.8022 128.783 67.2088C129.272 66.9186 129.799 66.6993 130.349 66.5575C130.753 66.4377 131.178 66.4102 131.593 66.4771V71.3433C131.605 72.4263 131.354 73.4959 130.861 74.4606C130.342 75.4272 129.554 76.2228 128.593 76.7511C128.15 76.9934 127.688 77.1966 127.21 77.3584ZM129.617 71.9434C129.897 71.5278 130.047 71.039 130.049 70.5384V68.0138C129.845 68.0306 129.645 68.08 129.456 68.1601C129.203 68.2591 128.958 68.379 128.725 68.5187C128.112 68.8438 127.605 69.3363 127.261 69.9387C126.918 70.5412 126.753 71.2288 126.785 71.9214C126.785 72.6532 126.924 73.063 127.21 73.2459C127.495 73.4289 127.942 73.341 128.512 73.0117C128.961 72.7487 129.339 72.3824 129.617 71.9434Z" fill="#FAFAFA"/>
<path d="M121.326 90.3766V150.696C121.326 151.099 121.539 151.304 121.795 151.15C121.943 151.026 122.062 150.87 122.143 150.694C122.224 150.518 122.265 150.326 122.263 150.133V89.8131C122.263 89.4107 122.051 89.2131 121.795 89.3668C121.646 89.489 121.526 89.6433 121.445 89.8181C121.364 89.993 121.323 90.1839 121.326 90.3766Z" fill="#BA68C8"/>
<path d="M85.66 113.778L112.216 98.4112C113.094 97.9063 113.804 98.3161 113.804 99.326V118.008C113.774 118.558 113.615 119.093 113.339 119.57C113.063 120.047 112.678 120.452 112.216 120.752L85.66 136.083C84.7892 136.588 84.0793 136.178 84.0793 135.168V116.53C84.1084 115.979 84.2667 115.443 84.5412 114.965C84.8158 114.487 85.1991 114.081 85.66 113.778Z" fill="#E0E0E0"/>
<path d="M113.826 99.3552C113.826 98.3454 113.094 97.9356 112.238 98.4405L85.6819 113.808C85.222 114.109 84.8394 114.515 84.5648 114.992C84.2903 115.468 84.1315 116.003 84.1013 116.552V118.14L113.826 100.951V99.3552Z" fill="#BA68C8"/>
<path d="M87.043 119.83L98.9342 112.966V124.982L87.043 131.846V119.83Z" fill="#FAFAFA"/>
<path d="M87.0503 130.097L91.5068 122.179C91.5419 122.099 91.5973 122.03 91.6677 121.978C91.738 121.927 91.8207 121.894 91.9074 121.885C91.9942 121.875 92.0819 121.888 92.1619 121.923C92.2418 121.958 92.3111 122.014 92.3629 122.084L93.9216 123.796L96.6072 117.598C96.7682 117.225 97.0828 117.189 97.339 117.525L98.9635 119.83V124.953L87.0722 131.817L87.0503 130.097Z" fill="#BA68C8"/>
<path d="M101.913 112.286C101.913 112.857 102.337 113.076 102.864 112.769L109.874 108.722C110.146 108.55 110.373 108.317 110.539 108.041C110.704 107.765 110.802 107.455 110.826 107.134C110.826 106.563 110.401 106.344 109.882 106.651L102.849 110.676C102.576 110.85 102.349 111.087 102.186 111.367C102.023 111.647 101.929 111.962 101.913 112.286Z" fill="#FAFAFA"/>
<path d="M101.913 117.262C101.913 117.833 102.337 118.052 102.864 117.752L109.874 113.698C110.147 113.527 110.375 113.294 110.54 113.018C110.706 112.742 110.803 112.431 110.826 112.11C110.826 111.539 110.401 111.327 109.882 111.627L102.849 115.637C102.576 115.814 102.348 116.054 102.185 116.337C102.022 116.619 101.929 116.936 101.913 117.262Z" fill="#FAFAFA"/>
<path d="M101.913 122.164C101.913 122.743 102.337 122.955 102.864 122.655L109.874 118.601C110.147 118.431 110.375 118.2 110.54 117.925C110.705 117.65 110.803 117.34 110.826 117.02C110.826 116.449 110.401 116.23 109.882 116.53L102.849 120.584C102.58 120.755 102.354 120.987 102.192 121.262C102.029 121.537 101.933 121.846 101.913 122.164Z" fill="#FAFAFA"/>
<path d="M85.66 142.698L112.216 127.367C113.094 126.862 113.804 127.272 113.804 128.282V146.964C113.774 147.514 113.615 148.049 113.339 148.526C113.063 149.003 112.678 149.408 112.216 149.708L85.66 165.075C84.7892 165.58 84.0793 165.17 84.0793 164.161V145.442C84.1095 144.893 84.2683 144.358 84.5429 143.882C84.8174 143.405 85.2 143 85.66 142.698Z" fill="#E0E0E0"/>
<path d="M113.826 128.282C113.826 127.272 113.094 126.862 112.238 127.367L85.6819 142.698C85.222 143 84.8394 143.405 84.5648 143.882C84.2903 144.358 84.1315 144.893 84.1013 145.442V147.037L113.826 129.87V128.282Z" fill="#BA68C8"/>
<path d="M87.043 148.75L98.9342 141.886V153.901L87.043 160.765V148.75Z" fill="#FAFAFA"/>
<path d="M87.0503 159.024L91.5068 151.106C91.5419 151.026 91.5973 150.957 91.6677 150.905C91.738 150.853 91.8207 150.821 91.9074 150.811C91.9942 150.802 92.0819 150.815 92.1619 150.85C92.2418 150.885 92.3111 150.941 92.3629 151.011L93.9216 152.716L96.6072 146.518C96.7682 146.145 97.0828 146.115 97.339 146.445L98.9635 148.75V153.872L87.0722 160.736L87.0503 159.024Z" fill="#BA68C8"/>
<path d="M101.913 141.205C101.913 141.776 102.337 141.995 102.864 141.695L109.874 137.641C110.147 137.472 110.375 137.24 110.54 136.966C110.705 136.691 110.803 136.381 110.826 136.061C110.826 135.483 110.401 135.271 109.882 135.571L102.849 139.625C102.58 139.796 102.354 140.028 102.192 140.303C102.029 140.577 101.933 140.887 101.913 141.205Z" fill="#FAFAFA"/>
<path d="M101.913 146.145C101.913 146.723 102.337 146.935 102.864 146.635L109.874 142.581C110.147 142.412 110.375 142.18 110.54 141.905C110.705 141.63 110.803 141.32 110.826 141C110.826 140.43 110.401 140.21 109.882 140.51L102.849 144.564C102.58 144.735 102.354 144.967 102.192 145.242C102.029 145.517 101.933 145.826 101.913 146.145Z" fill="#FAFAFA"/>
<path d="M101.913 151.091C101.913 151.662 102.337 151.882 102.864 151.574L109.874 147.528C110.146 147.356 110.373 147.123 110.539 146.847C110.704 146.571 110.802 146.26 110.826 145.94C110.826 145.369 110.401 145.149 109.882 145.457L102.849 149.503C102.58 149.677 102.356 149.911 102.193 150.187C102.03 150.462 101.934 150.772 101.913 151.091Z" fill="#FAFAFA"/>
<path d="M131.835 114.474L213.478 67.3404C214.349 66.8355 215.059 67.2453 215.059 68.2552V92.0596C215.028 92.6088 214.87 93.1432 214.595 93.6199C214.321 94.0965 213.938 94.502 213.478 94.8037L131.835 141.937C130.956 142.442 130.247 142.032 130.247 141.022V117.218C130.276 116.668 130.436 116.132 130.712 115.655C130.988 115.179 131.372 114.774 131.835 114.474Z" fill="#E0E0E0"/>
<path d="M215.059 68.2332C215.059 67.2233 214.327 66.8135 213.478 67.3185L131.835 114.474C131.372 114.774 130.988 115.179 130.712 115.655C130.436 116.132 130.276 116.668 130.247 117.218V118.806L215.059 69.8431V68.2332Z" fill="#BA68C8"/>
<path d="M150.414 109.527L133.92 119.04C133.553 119.282 133.247 119.606 133.027 119.987C132.807 120.369 132.68 120.796 132.654 121.235V137.539C132.654 138.344 133.225 138.673 133.92 138.271L150.414 128.758C150.782 128.516 151.088 128.192 151.308 127.81C151.528 127.429 151.655 127.002 151.68 126.562V110.259C151.651 109.454 151.08 109.124 150.414 109.527Z" fill="#FAFAFA"/>
<path d="M138.442 123.848L132.625 136.288V137.575C132.625 138.38 133.196 138.71 133.891 138.307L150.385 128.794C150.753 128.553 151.059 128.228 151.279 127.847C151.498 127.466 151.626 127.038 151.651 126.599V120.92L148.533 115.066C148.153 114.335 147.589 114.371 147.275 115.118L142.365 126.643L139.979 123.672C139.9 123.526 139.778 123.407 139.631 123.33C139.484 123.254 139.317 123.223 139.151 123.242C138.986 123.261 138.831 123.328 138.704 123.436C138.578 123.544 138.487 123.687 138.442 123.848Z" fill="#BA68C8"/>
<path d="M134.535 123.701C135.363 123.161 136.053 122.433 136.548 121.576C137.042 120.719 137.328 119.757 137.381 118.769C137.402 118.247 137.25 117.733 136.95 117.306L133.891 119.069C133.523 119.311 133.218 119.636 132.998 120.017C132.778 120.398 132.65 120.825 132.625 121.265V123.979C132.942 124.091 133.281 124.124 133.614 124.076C133.947 124.027 134.263 123.899 134.535 123.701Z" fill="#BA68C8"/>
<path d="M159.1 105.941L210.075 76.5168C210.807 76.107 211.341 76.385 211.341 77.1314C211.307 77.5527 211.175 77.9603 210.956 78.3212C210.736 78.6822 210.434 78.9865 210.075 79.2097L159.1 108.641C158.368 109.044 157.834 108.766 157.834 108.019C157.868 107.598 158 107.191 158.22 106.83C158.44 106.469 158.741 106.164 159.1 105.941Z" fill="#FAFAFA"/>
<path d="M159.1 112.805L210.075 83.3808C210.807 82.971 211.341 83.249 211.341 83.9954C211.307 84.4168 211.175 84.8243 210.956 85.1853C210.736 85.5462 210.434 85.8505 210.075 86.0737L159.1 115.505C158.368 115.908 157.834 115.63 157.834 114.883C157.868 114.462 158.001 114.055 158.221 113.694C158.44 113.333 158.742 113.029 159.1 112.805Z" fill="#FAFAFA"/>
<path d="M159.1 119.669L210.075 90.2448C210.807 89.835 211.341 90.1131 211.341 90.8595C211.307 91.2816 211.175 91.6899 210.955 92.052C210.735 92.414 210.434 92.7198 210.075 92.945L159.1 122.384C158.368 122.787 157.834 122.508 157.834 121.762C157.866 121.338 157.997 120.928 158.217 120.565C158.437 120.201 158.74 119.894 159.1 119.669Z" fill="#FAFAFA"/>
<path d="M242.5 39.1892L235.021 38.9624C234.516 38.538 226.657 29.6689 226.657 29.6689C226.657 29.6689 223.832 34.1254 223.781 34.4108C223.73 34.6962 231.487 42.9871 232.255 43.8213C232.471 44.1016 232.748 44.3286 233.065 44.4846C233.382 44.6407 233.731 44.7217 234.085 44.7214C236.112 44.8385 243.7 45.3727 243.7 45.3727L242.5 39.1892Z" fill="#F28F8F"/>
<path d="M253.133 47.7875L241.6 46.9313L242.493 39.1892L254.398 39.4526L253.133 47.7875Z" fill="#BA68C8"/>
<path opacity="0.2" d="M253.133 47.7875L241.6 46.9313L242.493 39.1892L254.398 39.4526L253.133 47.7875Z" fill="black"/>
<path d="M146.697 73.2532L228.34 26.12C229.211 25.6151 229.921 26.0249 229.921 27.0347V50.8464C229.89 51.3955 229.731 51.9298 229.457 52.4063C229.182 52.8829 228.8 53.2885 228.34 53.5906L146.697 100.724C145.819 101.229 145.109 100.819 145.109 99.8091V75.9973C145.139 75.4472 145.298 74.9119 145.574 74.435C145.85 73.9581 146.235 73.5532 146.697 73.2532Z" fill="#E0E0E0"/>
<path d="M229.921 27.0347C229.921 26.0249 229.189 25.6151 228.34 26.12L146.697 73.2532C146.235 73.5532 145.85 73.9581 145.574 74.435C145.298 74.9119 145.139 75.4472 145.109 75.9973V77.5853L229.921 28.6226V27.0347Z" fill="#BA68C8"/>
<path d="M165.247 68.3137L148.753 77.8267C148.384 78.0675 148.078 78.3917 147.858 78.7731C147.638 79.1545 147.511 79.5824 147.487 80.022V96.3185C147.487 97.1234 148.058 97.4527 148.753 97.0503L165.247 87.5373C165.616 87.2965 165.922 86.9723 166.142 86.5909C166.362 86.2095 166.489 85.7816 166.513 85.342V69.0455C166.513 68.2332 165.942 67.9112 165.247 68.3137Z" fill="#FAFAFA"/>
<path d="M153.341 82.6344L147.487 95.0379V96.3258C147.487 97.1308 148.058 97.4601 148.753 97.0576L165.247 87.5446C165.616 87.3038 165.922 86.9796 166.142 86.5982C166.362 86.2168 166.489 85.7889 166.513 85.3493V79.722L163.396 73.8678C163.015 73.1361 162.452 73.18 162.137 73.9191L157.227 85.4664L154.841 82.4881C154.758 82.3552 154.64 82.2482 154.499 82.179C154.359 82.1098 154.202 82.0812 154.046 82.0964C153.89 82.1116 153.741 82.17 153.617 82.2651C153.492 82.3601 153.397 82.488 153.341 82.6344Z" fill="#BA68C8"/>
<path d="M149.397 82.4879C150.226 81.9455 150.915 81.2158 151.409 80.3577C151.904 79.4997 152.19 78.5374 152.244 77.5485C152.263 77.0266 152.112 76.5126 151.812 76.085L148.753 77.8558C148.384 78.0966 148.078 78.4208 147.858 78.8022C147.638 79.1836 147.511 79.6115 147.487 80.0511V82.7587C147.804 82.8713 148.143 82.9055 148.475 82.8583C148.808 82.8112 149.124 82.6841 149.397 82.4879Z" fill="#BA68C8"/>
<path d="M173.962 64.7206L224.937 35.3035C225.669 34.9011 226.203 35.1718 226.203 35.9182C226.17 36.3405 226.038 36.7491 225.818 37.1112C225.598 37.4734 225.297 37.779 224.937 38.0038L173.962 67.4282C173.267 67.8306 172.697 67.5599 172.697 66.8135C172.73 66.3901 172.861 65.9803 173.081 65.6169C173.301 65.2535 173.603 64.9465 173.962 64.7206Z" fill="#FAFAFA"/>
<path d="M173.962 71.5846L224.937 42.1602C225.669 41.7578 226.203 42.0358 226.203 42.7749C226.17 43.1972 226.038 43.6058 225.818 43.9679C225.598 44.33 225.297 44.6357 224.937 44.8605L173.962 74.2849C173.267 74.6947 172.697 74.4166 172.697 73.6702C172.731 73.248 172.863 72.8397 173.083 72.4776C173.303 72.1156 173.604 71.8098 173.962 71.5846Z" fill="#FAFAFA"/>
<path d="M173.962 78.4779L224.937 49.0535C225.669 48.6511 226.203 48.9291 226.203 49.6682C226.17 50.0905 226.038 50.4991 225.818 50.8612C225.598 51.2233 225.297 51.529 224.937 51.7538L173.962 81.1782C173.267 81.588 172.697 81.3099 172.697 80.5635C172.731 80.1413 172.863 79.733 173.083 79.371C173.303 79.0089 173.604 78.7031 173.962 78.4779Z" fill="#FAFAFA"/>
<path d="M267.856 129.643H263.538V135.936H267.856V129.643Z" fill="#FFA8A7"/>
<path d="M252.671 121.84L248.356 121.988L248.572 128.278L252.887 128.129L252.671 121.84Z" fill="#FFA8A7"/>
<path d="M267.578 68.2332C267.578 72.3603 268.112 99.0479 268.112 99.0479C268.214 100.233 269.327 102.421 269.085 106.988C268.763 113.178 268.222 130.404 268.222 130.404C268.222 130.404 266.202 132.417 263.341 130.404C263.341 130.404 259.426 107.024 258.65 100.892C257.977 95.5354 256.828 80.9806 256.828 80.9806L252.862 98.0747C252.862 98.0747 253.594 102.099 253.725 104.946C253.857 107.793 252.994 124.199 252.994 124.199C252.295 124.638 251.494 124.886 250.669 124.918C249.845 124.95 249.026 124.765 248.296 124.382C248.296 124.382 244.812 100.431 244.337 97.8259C243.861 95.2208 247.374 68.2332 247.374 68.2332H267.578Z" fill="#455A64"/>
<path d="M261.08 39.6429H261.138C262.987 40.1159 264.625 41.1929 265.791 42.7029C266.958 44.213 267.587 46.0695 267.578 47.9777V68.2331C264.548 71.526 253.989 73.0627 247.374 68.2331V47.1581C247.374 43.792 249.24 39.7453 254.406 39.4453L261.08 39.6429Z" fill="#BA68C8"/>
<path d="M262.529 22.4171C262.877 22.3765 263.23 22.416 263.561 22.5327C263.892 22.6494 264.192 22.8401 264.438 23.0903C265.258 23.9245 265.082 25.4759 264.438 29.0323L261.906 29.325L262.529 22.4171Z" fill="#263238"/>
<path d="M247.791 21.4001C247.245 21.4024 246.704 21.2928 246.203 21.0781C245.427 20.6317 245.229 21.5099 245.654 22.2782C245.934 22.8272 246.35 23.2951 246.862 23.6372C247.375 23.9792 247.967 24.1841 248.581 24.232C248.581 24.1223 249.313 22.2563 249.313 22.2563L247.791 21.4001Z" fill="#263238"/>
<path d="M261.343 29.3251C261.723 29.552 262.258 28.8275 262.719 28.3445C262.901 28.137 263.134 27.9793 263.394 27.8862C263.654 27.7931 263.934 27.7677 264.207 27.8123C264.48 27.8569 264.737 27.9701 264.954 28.1413C265.171 28.3125 265.341 28.536 265.448 28.7909C266.216 30.4081 264.475 32.5595 263.45 33.2693C263.163 33.5184 262.805 33.6702 262.426 33.703C262.048 33.7359 261.668 33.6481 261.343 33.4523L261.079 39.643C260.627 40.6361 259.934 41.501 259.064 42.1601C258.195 42.8192 257.175 43.2518 256.096 43.419C252.437 43.9166 253.213 40.9163 254.406 39.4455V37.1989C253.497 37.3922 252.563 37.4391 251.64 37.338C251.164 37.2136 250.037 35.8744 249.305 34.3158C248.486 32.5961 247.11 29.5446 248.332 24.3857C249.642 18.8462 255.591 18.6779 259.14 20.9098C262.689 23.1417 261.343 29.3251 261.343 29.3251Z" fill="#FFA8A7"/>
<path d="M261.343 29.9617C261.533 29.9617 262.25 28.7689 262.719 28.3445C263.37 27.7591 262.528 22.4172 262.528 22.4172C262.528 22.4172 263.187 20.3975 261.906 19.0511C260.626 17.7046 258.145 17.9388 256.33 17.8729C254.103 17.8864 251.896 17.4431 249.847 16.5704C247.278 15.4508 247.081 15.319 246.766 16.4533C246.451 17.5875 246.32 20.1707 247.864 21.9123L249.137 22.3806C249.137 22.3806 249.832 22.9953 252.232 23.288C254.449 23.4552 256.676 23.4111 258.884 23.1563C259.579 23.0612 259.733 23.7417 260.106 25.5858C260.435 27.203 260.714 29.9471 261.343 29.9617Z" fill="#263238"/>
<path d="M262.528 22.8636L264.797 21.6489C264.725 21.4957 264.622 21.3587 264.495 21.2463C264.368 21.1339 264.22 21.0485 264.059 20.9951C263.899 20.9417 263.729 20.9216 263.56 20.9358C263.391 20.9501 263.227 20.9985 263.077 21.0781C262.774 21.2483 262.548 21.5286 262.445 21.861C262.343 22.1935 262.373 22.5525 262.528 22.8636Z" fill="#263238"/>
<path d="M254.413 37.1988C255.964 36.9027 257.485 36.4668 258.957 35.8963C259.646 35.5315 260.211 34.9714 260.582 34.2864C260.405 34.9735 260.091 35.618 259.66 36.1817C258.796 37.2793 254.413 38.0916 254.413 38.0916V37.1988Z" fill="#F28F8F"/>
<path d="M255.218 28.4835C255.228 28.6158 255.276 28.7422 255.357 28.8473C255.438 28.9525 255.548 29.0316 255.673 29.0751C255.799 29.1187 255.934 29.1246 256.063 29.0922C256.191 29.0599 256.308 28.9906 256.397 28.893C256.487 28.7954 256.547 28.6737 256.568 28.5428C256.59 28.4119 256.573 28.2776 256.519 28.1563C256.465 28.0351 256.377 27.9322 256.265 27.8603C256.154 27.7884 256.024 27.7507 255.891 27.7517C255.799 27.7545 255.708 27.7758 255.623 27.8143C255.539 27.8528 255.463 27.9077 255.401 27.9759C255.338 28.0441 255.289 28.1241 255.258 28.2113C255.227 28.2984 255.213 28.391 255.218 28.4835Z" fill="#263238"/>
<path d="M255.935 25.9368L257.399 26.7345C257.502 26.5366 257.525 26.3064 257.462 26.0922C257.399 25.878 257.256 25.6965 257.062 25.5856C256.966 25.5293 256.86 25.4937 256.749 25.481C256.639 25.4684 256.527 25.4789 256.421 25.512C256.315 25.545 256.217 25.5999 256.133 25.6731C256.05 25.7462 255.982 25.8361 255.935 25.9368Z" fill="#263238"/>
<path d="M255.269 33.0571L253.733 33.6352C253.766 33.7391 253.819 33.8352 253.89 33.9177C253.961 34.0002 254.048 34.0675 254.146 34.1154C254.244 34.1633 254.351 34.1908 254.459 34.1963C254.568 34.2018 254.677 34.1852 254.779 34.1475C254.986 34.0641 255.152 33.9041 255.243 33.7009C255.335 33.4977 255.344 33.267 255.269 33.0571Z" fill="#F28F8F"/>
<path d="M249.203 26.5224L250.52 25.5052C250.458 25.4166 250.379 25.3415 250.288 25.2843C250.196 25.2272 250.094 25.1893 249.987 25.1729C249.88 25.1564 249.771 25.1619 249.667 25.1888C249.562 25.2157 249.464 25.2636 249.378 25.3296C249.202 25.4684 249.086 25.6693 249.054 25.8911C249.021 26.1129 249.074 26.3387 249.203 26.5224Z" fill="#263238"/>
<path d="M249.613 28.2931C249.605 28.3863 249.616 28.4802 249.646 28.5688C249.676 28.6574 249.725 28.7387 249.788 28.8075C249.851 28.8764 249.928 28.9313 250.014 28.9687C250.1 29.0061 250.192 29.0253 250.286 29.0249C250.433 29.0367 250.579 29.004 250.707 28.9311C250.835 28.8581 250.938 28.7484 251.002 28.6161C251.067 28.4839 251.09 28.3353 251.069 28.1897C251.047 28.0441 250.983 27.9083 250.883 27.8C250.783 27.6918 250.653 27.616 250.51 27.5827C250.367 27.5494 250.217 27.5601 250.08 27.6133C249.942 27.6666 249.825 27.7599 249.741 27.8812C249.658 28.0025 249.613 28.146 249.613 28.2931Z" fill="#263238"/>
<path d="M253.045 27.6567L252.825 31.7107L250.703 30.9936L253.045 27.6567Z" fill="#F28F8F"/>
<path d="M263.546 133.8V133.185C263.129 133.361 262.17 137.027 260.458 138.593C259.089 139.837 257.231 141.271 256.762 142.654C256.294 144.037 259.353 144.893 260.626 144.666C262.089 144.403 264.665 143.364 265.309 142.398C265.953 141.432 266.253 140.005 266.773 139.303C267.292 138.6 268.5 137.802 268.785 136.983C268.87 136.218 268.785 135.443 268.536 134.714C268.339 133.983 268.119 133.112 267.856 133.185V133.653C267.243 134.14 266.48 134.398 265.697 134.385C265.075 134.407 263.538 134.283 263.546 133.8Z" fill="#263238"/>
<path d="M248.522 126.958C248.296 126.958 248.113 127.28 247.615 127.821C246.877 128.568 246.018 129.187 245.076 129.651C243.459 130.455 240.312 131.699 238.892 132.343C238 132.746 238.043 133.807 238.958 134.429C239.873 135.051 242.097 135.483 244.768 134.883C246.232 134.561 248.105 133.222 249.305 133.295C250.505 133.368 252.737 133.346 253.623 132.739C254.508 132.131 254.15 130.829 253.901 129.716C253.63 128.494 253.235 126.628 252.833 126.716V127.097C252.313 127.88 249.671 128.202 248.53 127.624L248.522 126.958Z" fill="#263238"/>
<path d="M262.375 42.4531L249.027 56.2543C249.027 56.2543 237.319 54.1614 233.324 53.0125C232.065 52.654 231.187 50.7733 230.909 49.3537C230.838 48.6145 230.477 47.9334 229.906 47.4584C229.906 47.4584 229.906 48.4902 229.643 50.1806C229.54 50.9124 228.384 51.0075 227.352 51.2343C223.694 52.0247 222.45 51.2343 220.935 52.2881C219.764 53.1223 221.235 55.2883 223.906 56.0201C227.66 57.0519 229.76 56.5397 232.014 57.1031C233.777 57.5422 246.466 61.4937 248.881 62.0499C250.154 62.328 251.128 62.2401 252.54 60.8717C253.952 59.5033 264.46 50.3123 264.46 50.3123L262.375 42.4531Z" fill="#FFA8A7"/>
<path d="M262.968 41.9774C261.504 41.6042 252.576 52.2221 252.576 52.2221L257.494 56.3493C257.494 56.3493 263.86 52.1782 264.987 50.4952C266.114 48.8121 267.395 43.0824 262.968 41.9774Z" fill="#BA68C8"/>
<path d="M257.816 56.6273C257.816 56.6273 264.534 50.6122 264.848 49.9536C265.456 48.6876 265.287 46.3459 265.287 46.3459C265.287 46.3459 266.019 48.3803 265.287 49.9536C264.556 51.5269 259.433 55.998 258.621 56.7663L257.794 57.542L256.996 56.8102L257.472 56.3931L257.816 56.6273Z" fill="#BA68C8"/>
<path opacity="0.2" d="M257.816 56.6273C257.816 56.6273 264.534 50.6122 264.848 49.9536C265.456 48.6876 265.287 46.3459 265.287 46.3459C265.287 46.3459 266.019 48.3803 265.287 49.9536C264.556 51.5269 259.433 55.998 258.621 56.7663L257.794 57.542L256.996 56.8102L257.472 56.3931L257.816 56.6273Z" fill="black"/>
<path d="M224.067 26.8444C225.53 26.6834 226.503 25.6004 226.833 25.9004C226.966 26.0425 227.044 26.2279 227.052 26.4228C227.06 26.6176 226.998 26.8088 226.877 26.9615C226.201 27.4745 225.464 27.8998 224.681 28.2274C224.498 28.9712 224.366 29.7267 224.286 30.4886C224.162 31.6082 224.206 33.8474 223.247 34.6084C220.386 36.9062 219.654 33.262 219.764 30.8179C219.932 27.781 222.537 27.0127 224.067 26.8444Z" fill="#F28F8F"/>
</svg>
