<svg width="322" height="226" viewBox="0 0 322 226" fill="none" xmlns="http://www.w3.org/2000/svg">
<path d="M101.343 31.0823V55.1552" stroke="white" stroke-linecap="round" stroke-linejoin="round"/>
<path d="M105.881 27.936V55.1553" stroke="white" stroke-linecap="round" stroke-linejoin="round"/>
<path d="M110.419 27.936V55.1553" stroke="white" stroke-linecap="round" stroke-linejoin="round"/>
<path d="M114.957 27.936V55.1553" stroke="white" stroke-linecap="round" stroke-linejoin="round"/>
<path d="M144.425 27.5339H117.198" stroke="white" stroke-linecap="round" stroke-linejoin="round"/>
<path d="M144.425 32.0718H117.198" stroke="white" stroke-linecap="round" stroke-linejoin="round"/>
<path d="M144.425 36.6096H117.198" stroke="white" stroke-linecap="round" stroke-linejoin="round"/>
<path d="M144.425 41.1553H117.198" stroke="white" stroke-linecap="round" stroke-linejoin="round"/>
<path d="M144.425 45.6931H117.198" stroke="white" stroke-linecap="round" stroke-linejoin="round"/>
<path d="M144.425 50.2307H117.198" stroke="white" stroke-linecap="round" stroke-linejoin="round"/>
<path d="M144.425 54.7688H117.198" stroke="white" stroke-linecap="round" stroke-linejoin="round"/>
<path d="M146.768 27.936V55.1553" stroke="white" stroke-linecap="round" stroke-linejoin="round"/>
<path d="M151.305 27.936V55.1553" stroke="white" stroke-linecap="round" stroke-linejoin="round"/>
<path d="M155.843 27.936V55.1553" stroke="white" stroke-linecap="round" stroke-linejoin="round"/>
<path d="M160.381 27.936V55.1553" stroke="white" stroke-linecap="round" stroke-linejoin="round"/>
<path d="M164.927 27.936V55.1553" stroke="white" stroke-linecap="round" stroke-linejoin="round"/>
<path d="M169.465 27.936V55.1553" stroke="white" stroke-linecap="round" stroke-linejoin="round"/>
<path d="M174.002 27.936V55.1553" stroke="white" stroke-linecap="round" stroke-linejoin="round"/>
<path d="M203.471 27.5339H176.244" stroke="white" stroke-linecap="round" stroke-linejoin="round"/>
<path d="M203.471 32.0718H176.244" stroke="white" stroke-linecap="round" stroke-linejoin="round"/>
<path d="M203.471 36.6096H176.244" stroke="white" stroke-linecap="round" stroke-linejoin="round"/>
<path d="M203.471 41.1553H176.244" stroke="white" stroke-linecap="round" stroke-linejoin="round"/>
<path d="M203.471 45.6931H176.244" stroke="white" stroke-linecap="round" stroke-linejoin="round"/>
<path d="M203.471 50.231H176.244" stroke="white" stroke-linecap="round" stroke-linejoin="round"/>
<path d="M203.471 54.7688H176.244" stroke="white" stroke-linecap="round" stroke-linejoin="round"/>
<path d="M205.814 27.936V55.1553" stroke="white" stroke-linecap="round" stroke-linejoin="round"/>
<path d="M210.352 31.8245V55.1553" stroke="white" stroke-linecap="round" stroke-linejoin="round"/>
<path d="M55.9489 71.6367H33.3215" stroke="white" stroke-linecap="round" stroke-linejoin="round"/>
<path d="M55.949 76.1748H28.7297" stroke="white" stroke-linecap="round" stroke-linejoin="round"/>
<path d="M55.949 80.7202H28.7297" stroke="white" stroke-linecap="round" stroke-linejoin="round"/>
<path d="M55.949 85.2581H28.7297" stroke="white" stroke-linecap="round" stroke-linejoin="round"/>
<path d="M58.2913 66.063V85.6445" stroke="white" stroke-linecap="round" stroke-linejoin="round"/>
<path d="M62.8291 65.5684V85.6446" stroke="white" stroke-linecap="round" stroke-linejoin="round"/>
<path d="M67.3748 63.8289V85.6445" stroke="white" stroke-linecap="round" stroke-linejoin="round"/>
<path d="M71.9126 62.0896V85.6446" stroke="white" stroke-linecap="round" stroke-linejoin="round"/>
<path d="M76.4504 58.4253V85.6446" stroke="white" stroke-linecap="round" stroke-linejoin="round"/>
<path d="M80.9883 58.4253V85.6446" stroke="white" stroke-linecap="round" stroke-linejoin="round"/>
<path d="M85.5261 58.4253V85.6446" stroke="white" stroke-linecap="round" stroke-linejoin="round"/>
<path d="M114.995 58.0232H87.7756" stroke="white" stroke-linecap="round" stroke-linejoin="round"/>
<path d="M114.995 62.561H87.7756" stroke="white" stroke-linecap="round" stroke-linejoin="round"/>
<path d="M114.995 67.0989H87.7756" stroke="white" stroke-linecap="round" stroke-linejoin="round"/>
<path d="M114.995 71.6367H87.7756" stroke="white" stroke-linecap="round" stroke-linejoin="round"/>
<path d="M114.995 76.1748H87.7756" stroke="white" stroke-linecap="round" stroke-linejoin="round"/>
<path d="M114.995 80.7202H87.7756" stroke="white" stroke-linecap="round" stroke-linejoin="round"/>
<path d="M114.995 85.2581H87.7756" stroke="white" stroke-linecap="round" stroke-linejoin="round"/>
<path d="M117.337 58.4253V85.6446" stroke="white" stroke-linecap="round" stroke-linejoin="round"/>
<path d="M121.875 58.4253V85.6446" stroke="white" stroke-linecap="round" stroke-linejoin="round"/>
<path d="M126.413 58.4253V85.6446" stroke="white" stroke-linecap="round" stroke-linejoin="round"/>
<path d="M130.959 58.4253V85.6446" stroke="white" stroke-linecap="round" stroke-linejoin="round"/>
<path d="M135.497 58.4253V85.6446" stroke="white" stroke-linecap="round" stroke-linejoin="round"/>
<path d="M140.034 58.4253V85.6446" stroke="white" stroke-linecap="round" stroke-linejoin="round"/>
<path d="M144.572 58.4253V85.6446" stroke="white" stroke-linecap="round" stroke-linejoin="round"/>
<path d="M174.041 58.0232H146.822" stroke="white" stroke-linecap="round" stroke-linejoin="round"/>
<path d="M174.041 62.561H146.822" stroke="white" stroke-linecap="round" stroke-linejoin="round"/>
<path d="M174.041 67.0989H146.822" stroke="white" stroke-linecap="round" stroke-linejoin="round"/>
<path d="M174.041 71.6367H146.822" stroke="white" stroke-linecap="round" stroke-linejoin="round"/>
<path d="M174.041 76.1746H146.822" stroke="white" stroke-linecap="round" stroke-linejoin="round"/>
<path d="M174.041 80.7202H146.822" stroke="white" stroke-linecap="round" stroke-linejoin="round"/>
<path d="M174.041 85.2581H146.822" stroke="white" stroke-linecap="round" stroke-linejoin="round"/>
<path d="M176.383 58.4253V85.6446" stroke="white" stroke-linecap="round" stroke-linejoin="round"/>
<path d="M180.921 58.4253V85.6446" stroke="white" stroke-linecap="round" stroke-linejoin="round"/>
<path d="M185.459 58.4253V85.6446" stroke="white" stroke-linecap="round" stroke-linejoin="round"/>
<path d="M190.005 58.4253V85.6446" stroke="white" stroke-linecap="round" stroke-linejoin="round"/>
<path d="M194.542 58.4253V85.6446" stroke="white" stroke-linecap="round" stroke-linejoin="round"/>
<path d="M199.08 58.4253V85.6446" stroke="white" stroke-linecap="round" stroke-linejoin="round"/>
<path d="M203.618 58.4253V85.6446" stroke="white" stroke-linecap="round" stroke-linejoin="round"/>
<path d="M233.087 58.0232H205.868" stroke="white" stroke-linecap="round" stroke-linejoin="round"/>
<path d="M233.087 62.561H205.868" stroke="white" stroke-linecap="round" stroke-linejoin="round"/>
<path d="M233.087 67.0989H205.868" stroke="white" stroke-linecap="round" stroke-linejoin="round"/>
<path d="M233.087 71.6367H205.868" stroke="white" stroke-linecap="round" stroke-linejoin="round"/>
<path d="M233.087 76.1748H205.868" stroke="white" stroke-linecap="round" stroke-linejoin="round"/>
<path d="M233.087 80.7202H205.868" stroke="white" stroke-linecap="round" stroke-linejoin="round"/>
<path d="M233.087 85.2581H205.868" stroke="white" stroke-linecap="round" stroke-linejoin="round"/>
<path d="M235.429 58.4253V85.6446" stroke="white" stroke-linecap="round" stroke-linejoin="round"/>
<path d="M239.967 64.3237V85.6446" stroke="white" stroke-linecap="round" stroke-linejoin="round"/>
<path d="M244.505 64.3237V85.6446" stroke="white" stroke-linecap="round" stroke-linejoin="round"/>
<path d="M249.051 62.8394V85.6445" stroke="white" stroke-linecap="round" stroke-linejoin="round"/>
<path d="M253.588 61.1001V85.6446" stroke="white" stroke-linecap="round" stroke-linejoin="round"/>
<path d="M258.126 60.1106V85.6446" stroke="white" stroke-linecap="round" stroke-linejoin="round"/>
<path d="M262.664 58.4253V85.6446" stroke="white" stroke-linecap="round" stroke-linejoin="round"/>
<path d="M292.133 62.561H264.906" stroke="white" stroke-linecap="round" stroke-linejoin="round"/>
<path d="M292.133 67.0989H264.906" stroke="white" stroke-linecap="round" stroke-linejoin="round"/>
<path d="M292.133 71.6367H264.906" stroke="white" stroke-linecap="round" stroke-linejoin="round"/>
<path d="M292.133 76.1748H264.906" stroke="white" stroke-linecap="round" stroke-linejoin="round"/>
<path d="M292.133 80.7202H264.906" stroke="white" stroke-linecap="round" stroke-linejoin="round"/>
<path d="M292.133 85.2581H264.906" stroke="white" stroke-linecap="round" stroke-linejoin="round"/>
<path d="M28.6755 89.2703V116.49" stroke="white" stroke-linecap="round" stroke-linejoin="round"/>
<path d="M33.2134 89.2703V116.49" stroke="white" stroke-linecap="round" stroke-linejoin="round"/>
<path d="M37.7512 89.2703V116.49" stroke="white" stroke-linecap="round" stroke-linejoin="round"/>
<path d="M42.2969 89.2703V116.49" stroke="white" stroke-linecap="round" stroke-linejoin="round"/>
<path d="M46.8347 89.2703V116.49" stroke="white" stroke-linecap="round" stroke-linejoin="round"/>
<path d="M51.3726 89.2703V116.49" stroke="white" stroke-linecap="round" stroke-linejoin="round"/>
<path d="M55.9104 89.2703V116.49" stroke="white" stroke-linecap="round" stroke-linejoin="round"/>
<path d="M85.3791 88.8606H58.1521" stroke="white" stroke-linecap="round" stroke-linejoin="round"/>
<path d="M85.3791 93.3982H58.1521" stroke="white" stroke-linecap="round" stroke-linejoin="round"/>
<path d="M85.3791 97.9438H58.1521" stroke="white" stroke-linecap="round" stroke-linejoin="round"/>
<path d="M85.3791 102.482H58.1521" stroke="white" stroke-linecap="round" stroke-linejoin="round"/>
<path d="M85.3791 107.02H58.1521" stroke="white" stroke-linecap="round" stroke-linejoin="round"/>
<path d="M85.3791 111.557H58.1521" stroke="white" stroke-linecap="round" stroke-linejoin="round"/>
<path d="M85.3791 116.095H58.1521" stroke="white" stroke-linecap="round" stroke-linejoin="round"/>
<path d="M87.7214 89.2703V116.49" stroke="white" stroke-linecap="round" stroke-linejoin="round"/>
<path d="M92.2595 89.2703V116.49" stroke="white" stroke-linecap="round" stroke-linejoin="round"/>
<path d="M96.7974 89.2703V116.49" stroke="white" stroke-linecap="round" stroke-linejoin="round"/>
<path d="M101.343 89.2703V116.49" stroke="white" stroke-linecap="round" stroke-linejoin="round"/>
<path d="M105.881 89.2703V116.49" stroke="white" stroke-linecap="round" stroke-linejoin="round"/>
<path d="M110.419 89.2703V116.49" stroke="white" stroke-linecap="round" stroke-linejoin="round"/>
<path d="M114.957 89.2703V116.49" stroke="white" stroke-linecap="round" stroke-linejoin="round"/>
<path d="M144.425 88.8606H117.198" stroke="white" stroke-linecap="round" stroke-linejoin="round"/>
<path d="M144.425 93.3982H117.198" stroke="white" stroke-linecap="round" stroke-linejoin="round"/>
<path d="M144.425 97.9438H117.198" stroke="white" stroke-linecap="round" stroke-linejoin="round"/>
<path d="M144.425 102.482H117.198" stroke="white" stroke-linecap="round" stroke-linejoin="round"/>
<path d="M144.425 107.02H117.198" stroke="white" stroke-linecap="round" stroke-linejoin="round"/>
<path d="M144.425 111.557H117.198" stroke="white" stroke-linecap="round" stroke-linejoin="round"/>
<path d="M144.425 116.095H117.198" stroke="white" stroke-linecap="round" stroke-linejoin="round"/>
<path d="M146.768 89.2703V116.49" stroke="white" stroke-linecap="round" stroke-linejoin="round"/>
<path d="M151.305 89.2703V116.49" stroke="white" stroke-linecap="round" stroke-linejoin="round"/>
<path d="M155.843 89.2703V116.49" stroke="white" stroke-linecap="round" stroke-linejoin="round"/>
<path d="M160.381 89.2703V116.49" stroke="white" stroke-linecap="round" stroke-linejoin="round"/>
<path d="M164.927 89.2703V116.49" stroke="white" stroke-linecap="round" stroke-linejoin="round"/>
<path d="M169.465 89.2703V116.49" stroke="white" stroke-linecap="round" stroke-linejoin="round"/>
<path d="M174.002 89.2703V116.49" stroke="white" stroke-linecap="round" stroke-linejoin="round"/>
<path d="M203.471 88.8606H176.244" stroke="white" stroke-linecap="round" stroke-linejoin="round"/>
<path d="M203.471 93.3982H176.244" stroke="white" stroke-linecap="round" stroke-linejoin="round"/>
<path d="M203.471 97.9438H176.244" stroke="white" stroke-linecap="round" stroke-linejoin="round"/>
<path d="M203.471 102.482H176.244" stroke="white" stroke-linecap="round" stroke-linejoin="round"/>
<path d="M203.471 107.02H176.244" stroke="white" stroke-linecap="round" stroke-linejoin="round"/>
<path d="M203.471 111.557H176.244" stroke="white" stroke-linecap="round" stroke-linejoin="round"/>
<path d="M203.471 116.095H176.244" stroke="white" stroke-linecap="round" stroke-linejoin="round"/>
<path d="M205.814 89.2703V116.49" stroke="white" stroke-linecap="round" stroke-linejoin="round"/>
<path d="M210.352 89.2703V116.49" stroke="white" stroke-linecap="round" stroke-linejoin="round"/>
<path d="M214.889 89.2703V116.49" stroke="white" stroke-linecap="round" stroke-linejoin="round"/>
<path d="M219.427 89.2703V116.49" stroke="white" stroke-linecap="round" stroke-linejoin="round"/>
<path d="M223.973 89.2703V116.49" stroke="white" stroke-linecap="round" stroke-linejoin="round"/>
<path d="M228.51 89.2703V116.49" stroke="white" stroke-linecap="round" stroke-linejoin="round"/>
<path d="M233.048 89.2703V116.49" stroke="white" stroke-linecap="round" stroke-linejoin="round"/>
<path d="M262.51 88.8606H235.29" stroke="white" stroke-linecap="round" stroke-linejoin="round"/>
<path d="M262.51 93.3982H235.29" stroke="white" stroke-linecap="round" stroke-linejoin="round"/>
<path d="M262.51 97.9438H235.29" stroke="white" stroke-linecap="round" stroke-linejoin="round"/>
<path d="M262.51 102.482H235.29" stroke="white" stroke-linecap="round" stroke-linejoin="round"/>
<path d="M262.51 107.02H235.29" stroke="white" stroke-linecap="round" stroke-linejoin="round"/>
<path d="M262.51 111.557H235.29" stroke="white" stroke-linecap="round" stroke-linejoin="round"/>
<path d="M262.51 116.095H235.29" stroke="white" stroke-linecap="round" stroke-linejoin="round"/>
<path d="M264.86 89.2703V116.49" stroke="white" stroke-linecap="round" stroke-linejoin="round"/>
<path d="M269.397 89.2703V116.49" stroke="white" stroke-linecap="round" stroke-linejoin="round"/>
<path d="M273.935 89.2703V116.49" stroke="white" stroke-linecap="round" stroke-linejoin="round"/>
<path d="M278.473 89.2703V116.49" stroke="white" stroke-linecap="round" stroke-linejoin="round"/>
<path d="M283.019 89.2703V116.49" stroke="white" stroke-linecap="round" stroke-linejoin="round"/>
<path d="M287.557 89.2703V116.49" stroke="white" stroke-linecap="round" stroke-linejoin="round"/>
<path d="M292.094 89.2703V116.49" stroke="white" stroke-linecap="round" stroke-linejoin="round"/>
<path d="M55.949 119.35H28.7297" stroke="white" stroke-linecap="round" stroke-linejoin="round"/>
<path d="M55.949 123.888H28.7297" stroke="white" stroke-linecap="round" stroke-linejoin="round"/>
<path d="M55.949 128.426H28.7297" stroke="white" stroke-linecap="round" stroke-linejoin="round"/>
<path d="M55.949 132.971H28.7297" stroke="white" stroke-linecap="round" stroke-linejoin="round"/>
<path d="M55.949 137.509H28.7297" stroke="white" stroke-linecap="round" stroke-linejoin="round"/>
<path d="M55.949 142.047H28.7297" stroke="white" stroke-linecap="round" stroke-linejoin="round"/>
<path d="M55.949 146.584H28.7297" stroke="white" stroke-linecap="round" stroke-linejoin="round"/>
<path d="M58.2913 119.752V146.971" stroke="white" stroke-linecap="round" stroke-linejoin="round"/>
<path d="M62.8291 119.752V146.971" stroke="white" stroke-linecap="round" stroke-linejoin="round"/>
<path d="M67.3748 119.752V146.971" stroke="white" stroke-linecap="round" stroke-linejoin="round"/>
<path d="M71.9126 119.752V146.971" stroke="white" stroke-linecap="round" stroke-linejoin="round"/>
<path d="M76.4504 119.752V146.971" stroke="white" stroke-linecap="round" stroke-linejoin="round"/>
<path d="M80.9883 119.752V146.971" stroke="white" stroke-linecap="round" stroke-linejoin="round"/>
<path d="M85.5261 119.752V146.971" stroke="white" stroke-linecap="round" stroke-linejoin="round"/>
<path d="M114.995 119.35H87.7756" stroke="white" stroke-linecap="round" stroke-linejoin="round"/>
<path d="M114.995 123.888H87.7756" stroke="white" stroke-linecap="round" stroke-linejoin="round"/>
<path d="M114.995 128.426H87.7756" stroke="white" stroke-linecap="round" stroke-linejoin="round"/>
<path d="M114.995 132.971H87.7756" stroke="white" stroke-linecap="round" stroke-linejoin="round"/>
<path d="M114.995 137.509H87.7756" stroke="white" stroke-linecap="round" stroke-linejoin="round"/>
<path d="M114.995 142.047H87.7756" stroke="white" stroke-linecap="round" stroke-linejoin="round"/>
<path d="M114.995 146.584H87.7756" stroke="white" stroke-linecap="round" stroke-linejoin="round"/>
<path d="M117.337 119.752V146.971" stroke="white" stroke-linecap="round" stroke-linejoin="round"/>
<path d="M121.875 119.752V146.971" stroke="white" stroke-linecap="round" stroke-linejoin="round"/>
<path d="M126.413 119.752V146.971" stroke="white" stroke-linecap="round" stroke-linejoin="round"/>
<path d="M130.959 119.752V146.971" stroke="white" stroke-linecap="round" stroke-linejoin="round"/>
<path d="M135.497 119.752V146.971" stroke="white" stroke-linecap="round" stroke-linejoin="round"/>
<path d="M140.034 119.752V146.971" stroke="white" stroke-linecap="round" stroke-linejoin="round"/>
<path d="M144.572 119.752V146.971" stroke="white" stroke-linecap="round" stroke-linejoin="round"/>
<path d="M174.041 119.35H146.822" stroke="white" stroke-linecap="round" stroke-linejoin="round"/>
<path d="M174.041 123.888H146.822" stroke="white" stroke-linecap="round" stroke-linejoin="round"/>
<path d="M174.041 128.426H146.822" stroke="white" stroke-linecap="round" stroke-linejoin="round"/>
<path d="M174.041 132.971H146.822" stroke="white" stroke-linecap="round" stroke-linejoin="round"/>
<path d="M174.041 137.509H146.822" stroke="white" stroke-linecap="round" stroke-linejoin="round"/>
<path d="M174.041 142.047H146.822" stroke="white" stroke-linecap="round" stroke-linejoin="round"/>
<path d="M174.041 146.584H146.822" stroke="white" stroke-linecap="round" stroke-linejoin="round"/>
<path d="M176.383 119.752V146.971" stroke="white" stroke-linecap="round" stroke-linejoin="round"/>
<path d="M180.921 119.752V146.971" stroke="white" stroke-linecap="round" stroke-linejoin="round"/>
<path d="M185.459 119.752V146.971" stroke="white" stroke-linecap="round" stroke-linejoin="round"/>
<path d="M190.005 119.752V146.971" stroke="white" stroke-linecap="round" stroke-linejoin="round"/>
<path d="M194.542 119.752V146.971" stroke="white" stroke-linecap="round" stroke-linejoin="round"/>
<path d="M199.08 119.752V146.971" stroke="white" stroke-linecap="round" stroke-linejoin="round"/>
<path d="M203.618 119.752V146.971" stroke="white" stroke-linecap="round" stroke-linejoin="round"/>
<path d="M233.087 119.35H205.868" stroke="white" stroke-linecap="round" stroke-linejoin="round"/>
<path d="M233.087 123.888H205.868" stroke="white" stroke-linecap="round" stroke-linejoin="round"/>
<path d="M233.087 128.426H205.868" stroke="white" stroke-linecap="round" stroke-linejoin="round"/>
<path d="M233.087 132.971H205.868" stroke="white" stroke-linecap="round" stroke-linejoin="round"/>
<path d="M233.087 137.509H205.868" stroke="white" stroke-linecap="round" stroke-linejoin="round"/>
<path d="M233.087 142.047H205.868" stroke="white" stroke-linecap="round" stroke-linejoin="round"/>
<path d="M233.087 146.584H205.868" stroke="white" stroke-linecap="round" stroke-linejoin="round"/>
<path d="M235.429 119.752V146.971" stroke="white" stroke-linecap="round" stroke-linejoin="round"/>
<path d="M239.967 119.752V146.971" stroke="white" stroke-linecap="round" stroke-linejoin="round"/>
<path d="M244.505 119.752V146.971" stroke="white" stroke-linecap="round" stroke-linejoin="round"/>
<path d="M249.051 119.752V146.971" stroke="white" stroke-linecap="round" stroke-linejoin="round"/>
<path d="M253.588 119.752V146.971" stroke="white" stroke-linecap="round" stroke-linejoin="round"/>
<path d="M258.126 119.752V146.971" stroke="white" stroke-linecap="round" stroke-linejoin="round"/>
<path d="M262.664 119.752V146.971" stroke="white" stroke-linecap="round" stroke-linejoin="round"/>
<path d="M292.133 119.35H264.906" stroke="white" stroke-linecap="round" stroke-linejoin="round"/>
<path d="M292.133 123.888H264.906" stroke="white" stroke-linecap="round" stroke-linejoin="round"/>
<path d="M292.133 128.426H264.906" stroke="white" stroke-linecap="round" stroke-linejoin="round"/>
<path d="M292.133 132.971H264.906" stroke="white" stroke-linecap="round" stroke-linejoin="round"/>
<path d="M292.133 137.509H264.906" stroke="white" stroke-linecap="round" stroke-linejoin="round"/>
<path d="M292.133 142.047H264.906" stroke="white" stroke-linecap="round" stroke-linejoin="round"/>
<path d="M292.133 146.584H264.906" stroke="white" stroke-linecap="round" stroke-linejoin="round"/>
<path d="M28.6755 150.597V177.816" stroke="white" stroke-linecap="round" stroke-linejoin="round"/>
<path d="M33.2134 150.597V177.816" stroke="white" stroke-linecap="round" stroke-linejoin="round"/>
<path d="M37.7512 150.597V177.816" stroke="white" stroke-linecap="round" stroke-linejoin="round"/>
<path d="M42.2969 150.597V177.816" stroke="white" stroke-linecap="round" stroke-linejoin="round"/>
<path d="M46.8347 150.597V177.816" stroke="white" stroke-linecap="round" stroke-linejoin="round"/>
<path d="M51.3726 150.597V177.816" stroke="white" stroke-linecap="round" stroke-linejoin="round"/>
<path d="M55.9104 150.597V177.816" stroke="white" stroke-linecap="round" stroke-linejoin="round"/>
<path d="M85.3791 150.195H58.1521" stroke="white" stroke-linecap="round" stroke-linejoin="round"/>
<path d="M85.3791 154.733H58.1521" stroke="white" stroke-linecap="round" stroke-linejoin="round"/>
<path d="M85.3791 159.271H58.1521" stroke="white" stroke-linecap="round" stroke-linejoin="round"/>
<path d="M85.3791 163.808H58.1521" stroke="white" stroke-linecap="round" stroke-linejoin="round"/>
<path d="M85.3791 168.346H58.1521" stroke="white" stroke-linecap="round" stroke-linejoin="round"/>
<path d="M85.3791 172.892H58.1521" stroke="white" stroke-linecap="round" stroke-linejoin="round"/>
<path d="M85.3791 177.43H58.1521" stroke="white" stroke-linecap="round" stroke-linejoin="round"/>
<path d="M87.7214 150.597V177.816" stroke="white" stroke-linecap="round" stroke-linejoin="round"/>
<path d="M92.2595 150.597V177.816" stroke="white" stroke-linecap="round" stroke-linejoin="round"/>
<path d="M96.7974 150.597V177.816" stroke="white" stroke-linecap="round" stroke-linejoin="round"/>
<path d="M101.343 150.597V177.816" stroke="white" stroke-linecap="round" stroke-linejoin="round"/>
<path d="M105.881 150.597V177.816" stroke="white" stroke-linecap="round" stroke-linejoin="round"/>
<path d="M110.419 150.597V177.816" stroke="white" stroke-linecap="round" stroke-linejoin="round"/>
<path d="M114.957 150.597V177.816" stroke="white" stroke-linecap="round" stroke-linejoin="round"/>
<path d="M144.425 150.195H117.198" stroke="white" stroke-linecap="round" stroke-linejoin="round"/>
<path d="M144.425 154.732H117.198" stroke="white" stroke-linecap="round" stroke-linejoin="round"/>
<path d="M144.425 159.271H117.198" stroke="white" stroke-linecap="round" stroke-linejoin="round"/>
<path d="M144.425 163.808H117.198" stroke="white" stroke-linecap="round" stroke-linejoin="round"/>
<path d="M144.425 168.346H117.198" stroke="white" stroke-linecap="round" stroke-linejoin="round"/>
<path d="M144.425 172.892H117.198" stroke="white" stroke-linecap="round" stroke-linejoin="round"/>
<path d="M144.425 177.429H117.198" stroke="white" stroke-linecap="round" stroke-linejoin="round"/>
<path d="M146.768 150.597V177.816" stroke="white" stroke-linecap="round" stroke-linejoin="round"/>
<path d="M151.305 150.597V177.816" stroke="white" stroke-linecap="round" stroke-linejoin="round"/>
<path d="M155.843 150.597V177.816" stroke="white" stroke-linecap="round" stroke-linejoin="round"/>
<path d="M160.381 150.597V177.816" stroke="white" stroke-linecap="round" stroke-linejoin="round"/>
<path d="M164.927 150.597V177.816" stroke="white" stroke-linecap="round" stroke-linejoin="round"/>
<path d="M169.465 150.597V177.816" stroke="white" stroke-linecap="round" stroke-linejoin="round"/>
<path d="M174.002 150.597V177.816" stroke="white" stroke-linecap="round" stroke-linejoin="round"/>
<path d="M203.471 150.195H176.244" stroke="white" stroke-linecap="round" stroke-linejoin="round"/>
<path d="M203.471 154.733H176.244" stroke="white" stroke-linecap="round" stroke-linejoin="round"/>
<path d="M203.471 159.271H176.244" stroke="white" stroke-linecap="round" stroke-linejoin="round"/>
<path d="M203.471 163.808H176.244" stroke="white" stroke-linecap="round" stroke-linejoin="round"/>
<path d="M203.471 168.346H176.244" stroke="white" stroke-linecap="round" stroke-linejoin="round"/>
<path d="M203.471 172.892H176.244" stroke="white" stroke-linecap="round" stroke-linejoin="round"/>
<path d="M203.471 177.43H176.244" stroke="white" stroke-linecap="round" stroke-linejoin="round"/>
<path d="M205.814 150.597V177.816" stroke="white" stroke-linecap="round" stroke-linejoin="round"/>
<path d="M210.352 150.597V177.816" stroke="white" stroke-linecap="round" stroke-linejoin="round"/>
<path d="M214.889 150.597V177.816" stroke="white" stroke-linecap="round" stroke-linejoin="round"/>
<path d="M219.427 150.597V177.816" stroke="white" stroke-linecap="round" stroke-linejoin="round"/>
<path d="M223.973 150.597V177.816" stroke="white" stroke-linecap="round" stroke-linejoin="round"/>
<path d="M228.51 150.597V177.816" stroke="white" stroke-linecap="round" stroke-linejoin="round"/>
<path d="M233.048 150.597V177.816" stroke="white" stroke-linecap="round" stroke-linejoin="round"/>
<path d="M262.51 150.195H235.29" stroke="white" stroke-linecap="round" stroke-linejoin="round"/>
<path d="M262.51 154.733H235.29" stroke="white" stroke-linecap="round" stroke-linejoin="round"/>
<path d="M262.51 159.271H235.29" stroke="white" stroke-linecap="round" stroke-linejoin="round"/>
<path d="M262.51 163.808H235.29" stroke="white" stroke-linecap="round" stroke-linejoin="round"/>
<path d="M262.51 168.346H235.29" stroke="white" stroke-linecap="round" stroke-linejoin="round"/>
<path d="M262.51 172.892H235.29" stroke="white" stroke-linecap="round" stroke-linejoin="round"/>
<path d="M262.51 177.43H235.29" stroke="white" stroke-linecap="round" stroke-linejoin="round"/>
<path d="M264.86 150.597V177.816" stroke="white" stroke-linecap="round" stroke-linejoin="round"/>
<path d="M269.397 150.597V177.816" stroke="white" stroke-linecap="round" stroke-linejoin="round"/>
<path d="M273.935 150.597V177.816" stroke="white" stroke-linecap="round" stroke-linejoin="round"/>
<path d="M278.473 150.597V177.816" stroke="white" stroke-linecap="round" stroke-linejoin="round"/>
<path d="M283.019 150.597V177.816" stroke="white" stroke-linecap="round" stroke-linejoin="round"/>
<path d="M287.557 150.597V177.816" stroke="white" stroke-linecap="round" stroke-linejoin="round"/>
<path d="M292.094 150.597V177.816" stroke="white" stroke-linecap="round" stroke-linejoin="round"/>
<path d="M131.801 136.806H85.0623V42.4927H131.801V136.806ZM181.965 42.4927H135.226V136.806H181.965V42.4927ZM232.128 42.4927H185.397V136.806H232.128V42.4927Z" fill="white"/>
<path d="M131.801 136.805H85.0623V135.553C91.3936 130.629 106.646 121.043 131.801 118.546V136.805ZM232.128 106.594C220.788 112.895 204.894 115.732 185.397 116.984V136.805H232.128V106.594ZM181.965 117.185C170.5 117.804 157.869 117.958 144.232 117.958C141.14 117.958 138.117 118.082 135.226 118.283V136.836H181.965V117.185ZM131.801 100.124V57.7912C119.084 51.1043 103.376 45.7934 92.2517 42.4692H85.0623V111.271C98.6603 107.313 117.376 104.986 131.801 100.124ZM181.965 93.8388C171.689 97.1426 161.135 99.51 150.432 100.912C149.686 100.959 148.96 101.17 148.306 101.531C143.668 104.623 163.071 105.612 165.159 105.597C170.778 105.552 176.39 105.175 181.965 104.468V93.8388ZM153.207 81.9183C154.506 73.7084 146.451 66.1325 135.195 59.6775V98.8869C144.858 95.153 151.963 89.9813 153.207 81.9183ZM232.059 69.5494C217.509 79.1969 201.81 86.9878 185.328 92.7411V104.043C201.392 101.67 216.953 96.8306 232.059 90.7311V69.5494ZM178.532 80.2098C179.674 80.3494 180.83 80.326 181.965 80.1403V42.477H144.704C149.172 52.7586 161.819 78.1612 178.532 80.2098ZM211.302 42.4847H185.397V79.143C196.715 74.3037 206.069 55.3716 211.302 42.477V42.4847Z" fill="#92E3A9"/>
<path opacity="0.48" d="M131.801 136.805H85.0623V135.553C91.3936 130.629 106.646 121.043 131.801 118.546V136.805ZM232.128 106.594C220.788 112.895 204.894 115.732 185.397 116.984V136.805H232.128V106.594ZM181.965 117.185C170.5 117.804 157.869 117.958 144.232 117.958C141.14 117.958 138.117 118.082 135.226 118.283V136.836H181.965V117.185ZM131.801 100.124V57.7912C119.084 51.1043 103.376 45.7934 92.2517 42.4692H85.0623V111.271C98.6603 107.313 117.376 104.986 131.801 100.124ZM181.965 93.8388C171.689 97.1426 161.135 99.51 150.432 100.912C149.686 100.959 148.96 101.17 148.306 101.531C143.668 104.623 163.071 105.612 165.159 105.597C170.778 105.552 176.39 105.175 181.965 104.468V93.8388ZM153.207 81.9183C154.506 73.7084 146.451 66.1325 135.195 59.6775V98.8869C144.858 95.153 151.963 89.9813 153.207 81.9183ZM232.059 69.5494C217.509 79.1969 201.81 86.9878 185.328 92.7411V104.043C201.392 101.67 216.953 96.8306 232.059 90.7311V69.5494ZM178.532 80.2098C179.674 80.3494 180.83 80.326 181.965 80.1403V42.477H144.704C149.172 52.7586 161.819 78.1612 178.532 80.2098ZM211.302 42.4847H185.397V79.143C196.715 74.3037 206.069 55.3716 211.302 42.477V42.4847Z" fill="white"/>
<path d="M310.091 176.479C310.091 176.479 310.694 174.268 310.71 174.159C310.949 172.482 310.408 169.111 308.707 168.292C308.421 168.162 308.11 168.095 307.795 168.093C307.48 168.092 307.169 168.156 306.881 168.283C306.592 168.41 306.334 168.596 306.123 168.829C305.912 169.063 305.752 169.338 305.654 169.637C305.198 170.897 305.777 172.435 306.466 173.502C307.269 174.701 310.083 176.471 310.091 176.479Z" fill="#92E3A9"/>
<path d="M276.471 175.744C277.824 176.339 281.148 176.262 281.155 176.262C281.163 176.262 280.437 174.09 280.382 173.943C279.656 172.397 277.344 169.892 275.474 170.147C275.163 170.198 274.867 170.313 274.604 170.486C274.341 170.658 274.117 170.884 273.947 171.149C273.778 171.414 273.665 171.711 273.618 172.022C273.571 172.333 273.589 172.65 273.672 172.953C273.974 174.275 275.35 175.242 276.471 175.744Z" fill="#92E3A9"/>
<path d="M281.627 169.003C281.55 169.537 281.48 170.109 281.411 170.742C281.295 171.902 281.179 173.216 281.14 174.654C281.092 176.201 281.131 177.75 281.256 179.293C281.392 181.023 281.679 182.738 282.114 184.418V184.48C281.813 184.008 280.939 182.725 280.854 182.64C279.749 181.357 276.865 179.548 275.118 180.282C274.832 180.413 274.577 180.602 274.37 180.837C274.162 181.073 274.007 181.35 273.914 181.65C273.82 181.949 273.791 182.266 273.828 182.577C273.865 182.889 273.967 183.19 274.128 183.459C274.77 184.634 276.308 185.214 277.561 185.392C278.968 185.601 281.936 184.743 282.199 184.673C282.686 186.371 283.285 188.034 283.993 189.651C284.402 190.595 284.843 191.53 285.299 192.465C285.028 192.071 284.781 191.692 284.742 191.692C283.637 190.409 280.746 188.6 278.999 189.327C278.713 189.458 278.458 189.648 278.25 189.885C278.043 190.121 277.887 190.398 277.794 190.699C277.701 190.999 277.671 191.316 277.709 191.628C277.746 191.94 277.848 192.242 278.009 192.512C278.651 193.687 280.197 194.267 281.442 194.444C282.686 194.622 285.253 193.95 285.925 193.756L286.459 194.831C287.317 196.539 288.183 198.248 288.979 199.941C289.257 200.536 289.512 201.139 289.752 201.734C289.512 201.386 289.311 201.093 289.273 201.046C288.167 199.771 285.276 197.954 283.536 198.688C283.25 198.819 282.994 199.009 282.786 199.245C282.578 199.481 282.421 199.758 282.327 200.058C282.233 200.359 282.203 200.676 282.24 200.989C282.276 201.301 282.378 201.603 282.539 201.873C283.189 203.049 284.727 203.628 285.979 203.806C287.232 203.984 289.543 203.373 290.339 203.149C290.587 203.775 290.826 204.394 291.043 205.004C291.174 205.43 291.329 205.824 291.437 206.257C291.545 206.69 291.677 207.099 291.793 207.517C291.986 208.328 292.195 209.156 292.365 209.952C292.481 210.501 292.589 211.034 292.697 211.56C292.427 210.965 291.87 209.805 291.808 209.712C290.911 208.282 288.329 206.048 286.49 206.512C286.187 206.598 285.906 206.747 285.665 206.95C285.424 207.152 285.228 207.403 285.09 207.686C284.952 207.969 284.875 208.277 284.865 208.592C284.854 208.906 284.91 209.22 285.028 209.511C285.492 210.764 286.922 211.568 288.121 211.939C289.458 212.348 292.396 211.939 292.759 211.939C292.937 212.82 293.099 213.678 293.238 214.49C293.687 217.041 294.011 219.213 294.174 220.829H295.449C295.217 219.182 294.869 216.964 294.344 214.281C294.166 213.392 293.957 212.441 293.741 211.459C294.627 211.107 295.492 210.701 296.331 210.246C297.47 211.227 298.739 212.047 300.103 212.681C299.763 213.508 299.431 214.312 299.098 215.07C298.078 217.389 297.135 219.383 296.4 220.829H297.799C298.456 219.422 299.268 217.621 300.119 215.502C300.466 214.66 300.822 213.755 301.17 212.82C301.525 212.897 304.448 213.485 305.808 213.183C307.045 212.905 308.537 212.209 309.086 210.988C309.223 210.706 309.3 210.398 309.311 210.085C309.323 209.771 309.268 209.459 309.152 209.168C309.035 208.877 308.859 208.613 308.635 208.394C308.411 208.175 308.143 208.005 307.849 207.896C306.056 207.293 303.311 209.333 302.306 210.694C302.252 210.779 301.703 211.714 301.371 212.317C301.51 211.939 301.657 211.544 301.796 211.173C302.082 210.4 302.345 209.627 302.631 208.754C302.755 208.344 302.886 207.927 303.01 207.501C303.133 207.076 303.234 206.628 303.35 206.187C303.59 205.167 303.791 204.115 303.961 203.049C304.649 203.304 307.053 204.154 308.359 204.061C309.666 203.968 311.196 203.512 311.923 202.391C312.104 202.132 312.228 201.838 312.287 201.528C312.346 201.218 312.338 200.898 312.265 200.591C312.192 200.284 312.055 199.995 311.863 199.745C311.671 199.494 311.428 199.287 311.15 199.137C309.465 198.271 306.45 199.871 305.252 201.069C305.174 201.139 304.409 202.09 303.999 202.616C304.1 201.974 304.208 201.34 304.285 200.691C304.517 198.812 304.695 196.903 304.881 195.001L305.066 193.254C305.306 193.347 308.158 194.421 309.604 194.321C310.864 194.236 312.449 193.772 313.175 192.651C313.356 192.392 313.48 192.099 313.539 191.789C313.598 191.479 313.59 191.161 313.517 190.854C313.444 190.547 313.307 190.26 313.115 190.01C312.923 189.76 312.68 189.553 312.402 189.404C310.717 188.531 307.702 190.131 306.504 191.329C306.411 191.414 305.313 192.79 305.051 193.153C305.19 191.87 305.337 190.595 305.53 189.35C305.788 187.661 306.152 185.991 306.62 184.348C306.736 184.387 309.712 185.523 311.189 185.423C312.449 185.33 314.026 184.874 314.76 183.753C314.94 183.494 315.063 183.199 315.121 182.889C315.179 182.579 315.172 182.26 315.099 181.954C315.026 181.647 314.889 181.358 314.698 181.108C314.506 180.857 314.264 180.65 313.987 180.498C312.31 179.633 309.287 181.233 308.089 182.423C308.011 182.501 307.177 183.552 306.79 184.055L306.697 184.008C307.215 182.368 307.877 180.777 308.676 179.254C309.109 178.411 309.565 177.63 310.029 176.881C310.57 177.151 313.044 178.349 314.358 178.427C315.672 178.504 317.242 178.187 318.092 177.159C318.324 176.932 318.504 176.658 318.62 176.354C318.736 176.051 318.785 175.727 318.764 175.403C318.743 175.079 318.652 174.763 318.497 174.478C318.342 174.193 318.128 173.944 317.868 173.75C316.322 172.706 313.114 173.966 311.792 175.018C311.722 175.072 311.057 175.736 310.578 176.231C310.794 175.891 311.003 175.543 311.22 175.226C311.993 174.036 312.812 172.992 313.539 172.072C313.949 171.554 314.312 171.09 314.691 170.665C315.355 170.665 318.038 170.572 319.213 170.024C320.388 169.475 321.664 168.477 321.934 167.171C322.01 166.866 322.02 166.548 321.965 166.239C321.91 165.929 321.79 165.634 321.614 165.374C321.437 165.114 321.208 164.894 320.941 164.728C320.674 164.562 320.375 164.454 320.063 164.411C318.177 164.21 315.943 166.792 315.255 168.338C315.193 168.47 314.482 170.657 314.544 170.657H314.582C314.227 171.059 313.848 171.5 313.446 171.987C312.673 172.892 311.9 173.92 311.065 175.079C310.164 176.342 309.338 177.656 308.591 179.014C307.728 180.541 307.003 182.143 306.427 183.799C306.429 183.82 306.429 183.841 306.427 183.861C306.427 183.305 306.427 181.751 306.427 181.635C306.21 179.957 304.803 176.842 302.94 176.502C302.63 176.452 302.313 176.469 302.009 176.551C301.706 176.633 301.423 176.777 301.179 176.976C300.935 177.174 300.736 177.422 300.595 177.703C300.453 177.983 300.373 178.291 300.358 178.604C300.25 179.942 301.216 181.272 302.159 182.114C303.103 182.957 306.172 183.985 306.403 184.055C305.859 185.743 305.428 187.465 305.112 189.211C304.927 190.224 304.78 191.252 304.641 192.303C304.641 191.824 304.641 191.399 304.641 191.337C304.424 189.659 303.018 186.551 301.154 186.204C300.844 186.151 300.525 186.164 300.22 186.243C299.915 186.322 299.63 186.464 299.383 186.66C299.137 186.856 298.935 187.102 298.789 187.382C298.644 187.661 298.56 187.969 298.542 188.283C298.433 189.613 299.4 190.95 300.335 191.785C301.27 192.62 303.791 193.478 304.455 193.687C304.409 194.081 304.355 194.46 304.308 194.877C304.084 196.771 303.86 198.673 303.59 200.528C303.497 201.178 303.381 201.819 303.265 202.461C303.265 202.036 303.265 201.688 303.265 201.618C303.048 199.949 301.641 196.833 299.778 196.485C299.467 196.436 299.149 196.453 298.846 196.535C298.542 196.617 298.258 196.763 298.015 196.962C297.771 197.161 297.572 197.41 297.431 197.691C297.29 197.973 297.21 198.281 297.196 198.596C297.08 199.925 298.047 201.263 298.99 202.105C299.933 202.948 302.206 203.706 302.994 203.961C302.855 204.618 302.716 205.267 302.554 205.893C302.43 206.319 302.345 206.744 302.198 207.161C302.051 207.579 301.927 207.996 301.796 208.406C301.51 209.179 301.224 209.998 300.93 210.725C300.722 211.258 300.521 211.753 300.32 212.271C300.42 211.622 300.598 210.346 300.598 210.238C300.576 208.752 300.175 207.296 299.431 206.009C299.446 205.842 299.446 205.674 299.431 205.507C299.391 205.195 299.287 204.895 299.124 204.627C298.961 204.358 298.743 204.127 298.485 203.949C298.227 203.77 297.934 203.648 297.625 203.59C297.317 203.532 296.999 203.54 296.694 203.613C294.862 204.1 293.702 207.308 293.602 209.024C293.602 209.117 293.656 210.207 293.71 210.895C293.617 210.493 293.532 210.122 293.432 209.697C293.238 208.924 293.03 208.089 292.798 207.223C292.674 206.813 292.55 206.396 292.419 205.971C292.287 205.545 292.125 205.12 291.978 204.687C291.615 203.698 291.205 202.716 290.757 201.734C291.468 201.564 293.973 200.923 294.985 200.15C295.998 199.377 297.049 198.124 297.034 196.787C297.046 196.47 296.991 196.155 296.872 195.861C296.753 195.568 296.574 195.303 296.345 195.084C296.116 194.865 295.844 194.696 295.546 194.59C295.247 194.484 294.93 194.442 294.614 194.468C292.736 194.676 291.097 197.676 290.749 199.33C290.749 199.431 290.618 200.652 290.571 201.317C290.301 200.729 290.038 200.142 289.744 199.554C288.901 197.861 287.997 196.168 287.1 194.483L286.289 192.937C286.544 192.875 289.543 192.164 290.664 191.314C291.785 190.463 292.736 189.288 292.72 187.951C292.735 187.634 292.681 187.317 292.563 187.022C292.446 186.728 292.266 186.462 292.037 186.242C291.808 186.022 291.534 185.854 291.235 185.749C290.935 185.644 290.617 185.604 290.301 185.632C288.422 185.833 286.783 188.832 286.435 190.486C286.435 190.61 286.25 192.365 286.234 192.806C285.639 191.669 285.059 190.525 284.534 189.373C283.816 187.824 283.199 186.231 282.686 184.603C282.802 184.603 285.933 183.83 287.093 182.98C288.09 182.207 289.157 180.947 289.141 179.617C289.154 179.3 289.1 178.985 288.982 178.69C288.863 178.396 288.684 178.131 288.455 177.911C288.226 177.692 287.953 177.524 287.654 177.418C287.355 177.312 287.037 177.271 286.721 177.298C284.843 177.499 283.204 180.498 282.856 182.153C282.856 182.261 282.717 183.598 282.671 184.232H282.562C282.091 182.577 281.77 180.882 281.604 179.169C281.496 178.233 281.449 177.329 281.418 176.448C282.014 176.37 284.735 176.007 285.863 175.327C286.992 174.646 288.183 173.541 288.275 172.235C288.319 171.923 288.296 171.606 288.209 171.304C288.122 171.003 287.972 170.722 287.769 170.482C287.566 170.242 287.315 170.048 287.032 169.911C286.749 169.775 286.44 169.7 286.126 169.691C284.232 169.691 282.261 172.482 281.758 174.098C281.758 174.183 281.534 175.103 281.411 175.775C281.411 175.381 281.411 174.963 281.411 174.585C281.411 173.154 281.503 171.84 281.596 170.681C281.65 170.024 281.72 169.428 281.782 168.872C282.331 168.493 284.518 166.947 285.191 165.841C285.863 164.736 286.389 163.205 285.902 161.976C285.796 161.679 285.628 161.409 285.41 161.181C285.193 160.953 284.929 160.774 284.638 160.654C284.346 160.535 284.033 160.478 283.718 160.487C283.403 160.496 283.094 160.572 282.81 160.708C281.132 161.574 280.692 164.96 280.97 166.63C280.962 166.792 281.596 169.026 281.627 169.003Z" fill="#92E3A9"/>
<path d="M305.298 135.143C305.298 135.143 305.901 132.932 305.924 132.785C306.156 131.116 305.623 127.737 303.914 126.918C303.628 126.788 303.318 126.721 303.003 126.719C302.689 126.718 302.378 126.783 302.091 126.91C301.803 127.037 301.546 127.223 301.335 127.456C301.125 127.689 300.966 127.964 300.869 128.263C300.412 129.523 300.992 131.062 301.642 132.128C302.484 133.365 305.298 135.143 305.298 135.143Z" fill="#92E3A9"/>
<path d="M271.678 134.409C273.038 135.004 276.363 134.927 276.363 134.927C276.363 134.927 275.644 132.755 275.589 132.608C274.863 131.062 272.559 128.565 270.681 128.812C270.37 128.864 270.073 128.98 269.811 129.153C269.548 129.327 269.324 129.553 269.154 129.818C268.984 130.084 268.872 130.382 268.825 130.693C268.778 131.004 268.796 131.322 268.879 131.626C269.165 132.94 270.518 133.906 271.678 134.409Z" fill="#92E3A9"/>
<path d="M276.834 127.668C276.765 128.201 276.687 128.781 276.618 129.407C276.509 130.567 276.386 131.881 276.355 133.319C276.3 134.866 276.337 136.415 276.463 137.957C276.598 139.688 276.885 141.403 277.321 143.083V143.145C277.02 142.673 276.146 141.397 276.069 141.305C274.963 140.029 272.072 138.212 270.325 138.947C270.039 139.078 269.784 139.268 269.577 139.505C269.369 139.741 269.214 140.018 269.12 140.319C269.027 140.619 268.998 140.936 269.035 141.248C269.072 141.561 269.174 141.862 269.335 142.132C269.977 143.299 271.523 143.879 272.768 144.064C274.183 144.265 277.143 143.407 277.406 143.338C277.893 145.035 278.492 146.699 279.2 148.316C279.609 149.259 280.05 150.203 280.506 151.138C280.236 150.736 279.988 150.365 279.95 150.365C278.844 149.082 275.953 147.273 274.213 148.007C273.927 148.138 273.671 148.327 273.463 148.563C273.254 148.799 273.098 149.077 273.004 149.377C272.91 149.678 272.88 149.994 272.917 150.307C272.953 150.62 273.055 150.921 273.216 151.192C273.866 152.359 275.404 152.939 276.656 153.125C277.909 153.31 280.467 152.622 281.132 152.437L281.666 153.504C282.524 155.22 283.39 156.92 284.186 158.613C284.464 159.216 284.719 159.812 284.959 160.415C284.719 160.059 284.511 159.765 284.472 159.727C283.366 158.443 280.475 156.634 278.736 157.361C278.45 157.492 278.195 157.682 277.987 157.919C277.78 158.155 277.624 158.433 277.531 158.733C277.438 159.033 277.409 159.35 277.446 159.662C277.483 159.975 277.585 160.276 277.746 160.546C278.388 161.721 279.926 162.301 281.179 162.479C282.431 162.657 284.742 162.046 285.539 161.829C285.786 162.448 286.033 163.066 286.242 163.685C286.374 164.102 286.528 164.496 286.644 164.929L286.992 166.189C287.185 166.962 287.394 167.836 287.564 168.624C287.688 169.181 287.788 169.707 287.897 170.24C287.626 169.637 287.069 168.478 287.008 168.385C286.111 166.955 283.529 164.721 281.697 165.184C281.394 165.271 281.113 165.42 280.872 165.622C280.63 165.824 280.434 166.075 280.296 166.358C280.157 166.64 280.08 166.949 280.068 167.264C280.056 167.578 280.111 167.892 280.228 168.184C280.692 169.436 282.122 170.248 283.32 170.611C284.65 171.021 287.595 170.65 287.958 170.611C288.136 171.493 288.299 172.351 288.438 173.162C288.894 175.713 289.211 177.893 289.373 179.509H290.649C290.417 177.863 290.069 175.644 289.543 172.961C289.365 172.065 289.164 171.114 288.94 170.14C289.825 169.78 290.689 169.372 291.53 168.918C292.671 169.898 293.94 170.717 295.302 171.353C294.97 172.181 294.63 172.992 294.297 173.742C293.277 176.061 292.334 178.056 291.607 179.509H292.999C293.664 178.094 294.468 176.293 295.318 174.183C295.666 173.34 296.021 172.428 296.377 171.493C296.733 171.57 299.647 172.165 301.015 171.856C302.252 171.578 303.744 170.882 304.293 169.66C304.433 169.379 304.511 169.071 304.524 168.757C304.537 168.443 304.483 168.13 304.366 167.838C304.249 167.546 304.072 167.282 303.847 167.063C303.621 166.844 303.352 166.676 303.056 166.568C301.263 165.965 298.526 167.998 297.521 169.359C297.459 169.444 296.91 170.387 296.578 170.982C296.725 170.604 296.864 170.209 297.011 169.838C297.297 169.065 297.56 168.292 297.846 167.419C297.969 167.006 298.093 166.589 298.217 166.166C298.348 165.749 298.441 165.293 298.557 164.86C298.797 163.832 298.998 162.78 299.175 161.721C299.856 161.968 302.268 162.819 303.566 162.726C304.865 162.633 306.404 162.177 307.138 161.056C307.317 160.797 307.44 160.504 307.498 160.194C307.557 159.885 307.549 159.567 307.476 159.26C307.403 158.954 307.266 158.667 307.075 158.417C306.884 158.167 306.642 157.96 306.365 157.809C304.68 156.936 301.665 158.536 300.466 159.734C300.389 159.804 299.632 160.763 299.222 161.28C299.322 160.647 299.423 160.005 299.508 159.356C299.74 157.477 299.918 155.568 300.103 153.666C300.157 153.086 300.219 152.506 300.281 151.926C300.521 152.012 303.373 153.086 304.826 152.986C306.087 152.901 307.664 152.437 308.39 151.316C308.571 151.057 308.695 150.764 308.753 150.454C308.812 150.144 308.805 149.826 308.732 149.519C308.659 149.212 308.522 148.925 308.33 148.675C308.138 148.425 307.895 148.218 307.617 148.069C305.932 147.203 302.917 148.842 301.719 149.994C301.626 150.079 300.528 151.455 300.265 151.818C300.405 150.535 300.551 149.267 300.745 148.015C301.003 146.326 301.367 144.656 301.835 143.013C301.951 143.06 304.927 144.188 306.404 144.088C307.664 144.003 309.248 143.539 309.975 142.418C310.154 142.159 310.277 141.865 310.335 141.556C310.394 141.247 310.386 140.928 310.313 140.622C310.24 140.316 310.104 140.028 309.912 139.778C309.721 139.528 309.479 139.321 309.202 139.171C307.517 138.297 304.502 139.898 303.304 141.096C303.219 141.173 302.384 142.217 301.997 142.719L301.904 142.673C302.421 141.034 303.086 139.445 303.891 137.926C304.316 137.084 304.78 136.303 305.244 135.545C305.777 135.816 308.251 137.014 309.565 137.092C310.88 137.169 312.449 136.86 313.299 135.824C313.506 135.587 313.661 135.31 313.754 135.01C313.847 134.71 313.876 134.394 313.839 134.082C313.801 133.77 313.699 133.469 313.538 133.199C313.377 132.929 313.162 132.696 312.905 132.515C311.359 131.464 308.158 132.724 306.829 133.775L305.615 134.989C305.831 134.656 306.048 134.301 306.257 133.984C307.03 132.793 307.849 131.75 308.576 130.83C308.986 130.312 309.349 129.848 309.735 129.423C310.4 129.423 313.075 129.33 314.25 128.781C315.425 128.232 316.701 127.235 316.979 125.936C317.054 125.631 317.065 125.312 317.009 125.002C316.953 124.692 316.833 124.397 316.656 124.137C316.479 123.877 316.248 123.657 315.98 123.491C315.712 123.326 315.413 123.218 315.1 123.177C313.222 122.968 310.98 125.55 310.292 127.096C310.23 127.227 309.519 129.415 309.581 129.415H309.619C309.264 129.817 308.846 130.258 308.483 130.745C307.749 131.649 306.937 132.677 306.102 133.837C305.201 135.099 304.375 136.413 303.628 137.772C302.789 139.289 302.086 140.878 301.526 142.518V142.58C301.526 142.024 301.526 140.47 301.526 140.354C301.309 138.676 299.91 135.561 298.047 135.221C297.736 135.172 297.418 135.188 297.114 135.27C296.811 135.352 296.527 135.496 296.283 135.695C296.039 135.893 295.839 136.14 295.697 136.421C295.554 136.702 295.473 137.009 295.457 137.323C295.349 138.661 296.315 139.99 297.258 140.833C298.201 141.676 301.27 142.704 301.502 142.773C300.974 144.46 300.559 146.18 300.258 147.922C300.08 148.935 299.925 149.955 299.786 151.014C299.786 150.535 299.786 150.102 299.786 150.04C299.57 148.363 298.163 145.255 296.3 144.907C295.989 144.859 295.671 144.877 295.368 144.96C295.064 145.042 294.782 145.188 294.538 145.387C294.295 145.586 294.096 145.834 293.954 146.115C293.813 146.396 293.732 146.703 293.718 147.018C293.609 148.347 294.576 149.685 295.519 150.527C296.462 151.37 298.974 152.213 299.632 152.421C299.585 152.823 299.531 153.194 299.485 153.612C299.26 155.513 299.044 157.407 298.766 159.263C298.673 159.92 298.557 160.554 298.441 161.195C298.441 160.77 298.441 160.422 298.441 160.361C298.225 158.683 296.818 155.568 294.955 155.227C294.644 155.178 294.327 155.195 294.023 155.277C293.72 155.358 293.437 155.503 293.193 155.702C292.95 155.9 292.751 156.148 292.609 156.428C292.468 156.709 292.387 157.016 292.373 157.33C292.264 158.668 293.231 159.997 294.166 160.84C295.101 161.682 297.382 162.448 298.17 162.703C298.031 163.352 297.892 164.009 297.73 164.636C297.606 165.061 297.521 165.478 297.374 165.896C297.227 166.313 297.104 166.731 296.972 167.14C296.686 167.913 296.4 168.733 296.106 169.459C295.905 169.985 295.697 170.48 295.496 171.006C295.596 170.356 295.774 169.081 295.774 168.972C295.756 167.486 295.354 166.029 294.607 164.744C294.626 164.579 294.626 164.413 294.607 164.249C294.567 163.937 294.463 163.637 294.3 163.368C294.137 163.1 293.92 162.868 293.662 162.689C293.404 162.509 293.111 162.386 292.802 162.328C292.494 162.269 292.176 162.275 291.87 162.347C290.038 162.834 288.878 166.042 288.778 167.759C288.778 167.859 288.832 168.941 288.886 169.629C288.793 169.227 288.708 168.856 288.608 168.431C288.422 167.658 288.206 166.823 287.974 165.957C287.85 165.548 287.726 165.13 287.595 164.705C287.464 164.28 287.301 163.855 287.154 163.43C286.791 162.44 286.381 161.451 285.941 160.469C286.644 160.299 289.157 159.696 290.162 158.923C291.167 158.15 292.226 156.889 292.218 155.552C292.23 155.235 292.175 154.919 292.055 154.625C291.936 154.331 291.756 154.065 291.526 153.846C291.297 153.627 291.024 153.459 290.724 153.353C290.425 153.247 290.107 153.206 289.791 153.233C287.912 153.434 286.281 156.433 285.925 158.088C285.925 158.196 285.794 159.41 285.747 160.074C285.477 159.487 285.214 158.899 284.92 158.312C284.078 156.619 283.173 154.926 282.284 153.241C282.006 152.725 281.735 152.21 281.472 151.695C281.72 151.633 284.719 150.922 285.848 150.079C286.845 149.306 287.912 148.046 287.904 146.716C287.915 146.399 287.859 146.084 287.739 145.79C287.62 145.497 287.439 145.232 287.21 145.013C286.981 144.794 286.708 144.626 286.409 144.52C286.111 144.413 285.793 144.372 285.477 144.397C283.598 144.598 281.967 147.597 281.612 149.252C281.612 149.383 281.434 151.13 281.411 151.571C280.823 150.427 280.236 149.252 279.71 148.131C278.993 146.582 278.375 144.989 277.862 143.361C277.978 143.361 281.109 142.588 282.269 141.738C283.266 140.965 284.333 139.712 284.325 138.375C284.337 138.058 284.282 137.743 284.163 137.45C284.044 137.156 283.865 136.891 283.636 136.672C283.407 136.453 283.135 136.285 282.837 136.178C282.538 136.072 282.221 136.03 281.905 136.056C280.019 136.257 278.388 139.256 278.04 140.918C278.04 141.026 277.901 142.356 277.855 142.99H277.746C277.279 141.336 276.958 139.644 276.788 137.934C276.68 136.991 276.633 136.087 276.602 135.205C277.197 135.136 279.926 134.772 281.047 134.084C282.168 133.396 283.328 132.299 283.467 130.992C283.509 130.68 283.486 130.363 283.398 130.061C283.31 129.76 283.159 129.48 282.955 129.24C282.752 129 282.5 128.805 282.217 128.669C281.933 128.533 281.624 128.458 281.31 128.449C279.416 128.449 277.445 131.247 276.942 132.855C276.942 132.94 276.726 133.86 276.594 134.533C276.594 134.138 276.594 133.76 276.594 133.342C276.594 131.912 276.687 130.598 276.772 129.438C276.834 128.781 276.896 128.186 276.958 127.629C277.507 127.251 279.694 125.704 280.375 124.599C281.055 123.493 281.565 121.971 281.078 120.734C280.973 120.436 280.806 120.165 280.588 119.936C280.371 119.708 280.107 119.528 279.816 119.408C279.524 119.289 279.21 119.232 278.895 119.242C278.579 119.252 278.27 119.328 277.986 119.466C276.301 120.332 275.86 123.718 276.138 125.387C276.169 125.48 276.803 127.691 276.834 127.668Z" fill="#92E3A9"/>
<path d="M250.96 144.034H299.229C299.229 144.034 303.69 144.807 302.206 153.689C300.721 162.571 293.292 219.399 293.292 219.399H226.083L240.724 147.126C240.724 147.126 241.335 143.291 250.96 144.034Z" fill="white" stroke="#263238" stroke-linecap="round" stroke-linejoin="round"/>
<path d="M302.206 153.689C300.721 162.602 293.292 219.399 293.292 219.399H284.503C286.482 205.948 293.864 156.116 295.148 150.342C296.431 144.567 298.526 144.065 299.09 144.026H299.229C299.229 144.026 303.69 144.776 302.206 153.689Z" fill="#263238" stroke="#263238" stroke-linecap="round" stroke-linejoin="round"/>
<path d="M198.338 212.318L208.318 195.681L207.151 220.141L195.671 219.971L198.338 212.318Z" fill="#92E3A9" stroke="#263238" stroke-linecap="round" stroke-linejoin="round"/>
<path d="M196.336 211.629H200.363C201.693 211.629 201.36 212.959 201.863 215.626C202.365 218.293 197.364 220.118 197.364 220.118C197.364 220.118 198.531 220.118 196.537 220.45C194.542 220.782 192.347 214.652 196.336 211.629Z" fill="white" stroke="#263238" stroke-linecap="round" stroke-linejoin="round"/>
<path d="M200.997 216.144C200.997 216.144 195.339 210.153 192.014 204.672C188.69 199.191 184.353 193.355 183.024 192.357C180.926 190.921 178.629 189.801 176.205 189.033C173.538 188.198 171.041 184.874 170.377 185.871C170.095 186.462 170.025 187.13 170.177 187.766C170.329 188.402 170.694 188.966 171.211 189.366C172.209 190.03 175.2 191.863 175.2 191.863C175.2 191.863 170.377 192.69 168.714 192.69C167.052 192.69 162.228 187.696 161.394 188.863C161.077 189.304 161.216 189.992 161.579 190.734C161.177 190.533 160.891 190.556 160.891 191.028C160.891 192.69 164.053 196.686 166.217 198.186C166.619 198.472 167.049 198.715 167.501 198.913C168.038 199.979 168.791 200.921 169.712 201.68C170.791 202.378 172.005 202.839 173.275 203.033C177.759 204.695 183.689 206.667 183.689 206.667L190.182 219.979H203.162L200.997 216.144Z" fill="white"/>
<path d="M200.997 216.144C200.997 216.144 195.339 210.153 192.014 204.672C188.69 199.191 184.353 193.355 183.024 192.357C180.926 190.921 178.629 189.801 176.205 189.033C173.538 188.198 171.041 184.874 170.377 185.871C170.095 186.462 170.025 187.13 170.177 187.766C170.329 188.402 170.694 188.966 171.211 189.366C172.209 190.03 175.2 191.863 175.2 191.863C175.2 191.863 170.377 192.69 168.714 192.69C167.052 192.69 162.228 187.696 161.394 188.863C161.077 189.304 161.216 189.992 161.579 190.734C161.177 190.533 160.891 190.556 160.891 191.028C160.891 192.69 164.053 196.686 166.217 198.186C166.619 198.472 167.049 198.715 167.501 198.913C168.038 199.979 168.791 200.921 169.712 201.68C170.791 202.378 172.005 202.839 173.275 203.033C177.759 204.695 183.689 206.667 183.689 206.667L190.182 219.979H203.162L200.997 216.144Z" fill="#92E3A9"/>
<path opacity="0.5" d="M200.997 216.144C200.997 216.144 195.339 210.153 192.014 204.672C188.69 199.191 184.353 193.355 183.024 192.357C180.926 190.921 178.629 189.801 176.205 189.033C173.538 188.198 171.041 184.874 170.377 185.871C170.095 186.462 170.025 187.13 170.177 187.766C170.329 188.402 170.694 188.966 171.211 189.366C172.209 190.03 175.2 191.863 175.2 191.863C175.2 191.863 170.377 192.69 168.714 192.69C167.052 192.69 162.228 187.696 161.394 188.863C161.077 189.304 161.216 189.992 161.579 190.734C161.177 190.533 160.891 190.556 160.891 191.028C160.891 192.69 164.053 196.686 166.217 198.186C166.619 198.472 167.049 198.715 167.501 198.913C168.038 199.979 168.791 200.921 169.712 201.68C170.791 202.378 172.005 202.839 173.275 203.033C177.759 204.695 183.689 206.667 183.689 206.667L190.182 219.979H203.162L200.997 216.144Z" fill="white"/>
<path d="M200.997 216.144C200.997 216.144 195.339 210.153 192.014 204.672C188.69 199.191 184.353 193.355 183.024 192.357C180.926 190.921 178.629 189.801 176.205 189.033C173.538 188.198 171.041 184.874 170.377 185.871C170.095 186.462 170.025 187.13 170.177 187.766C170.329 188.402 170.694 188.966 171.211 189.366C172.209 190.03 175.2 191.863 175.2 191.863C175.2 191.863 170.377 192.69 168.714 192.69C167.052 192.69 162.228 187.696 161.394 188.863C161.077 189.304 161.216 189.992 161.579 190.734C161.177 190.533 160.891 190.556 160.891 191.028C160.891 192.69 164.053 196.686 166.217 198.186C166.619 198.472 167.049 198.715 167.501 198.913C168.038 199.979 168.791 200.921 169.712 201.68C170.791 202.378 172.005 202.839 173.275 203.033C177.759 204.695 183.689 206.667 183.689 206.667L190.182 219.979H203.162L200.997 216.144Z" stroke="#263238" stroke-linecap="round" stroke-linejoin="round"/>
<path d="M175.2 191.855C175.2 191.855 176.205 194.846 176.87 196.176C177.535 197.506 179.862 197.846 179.862 197.846" stroke="#263238" stroke-linecap="round" stroke-linejoin="round"/>
<path d="M176.87 199.176C176.87 199.176 182.196 197.676 183.526 198.341C184.446 198.901 185.195 199.703 185.691 200.66" stroke="#263238" stroke-linecap="round" stroke-linejoin="round"/>
<path d="M165.576 193.602C164.687 192.829 160.938 189.644 160.938 191.02" stroke="#263238" stroke-linecap="round" stroke-linejoin="round"/>
<path d="M169.712 201.673C167.88 200.335 167.122 197.158 166.125 195.488C165.127 193.818 165.46 192.326 167.122 193.656C167.501 193.958 168.096 194.506 168.799 195.202" stroke="#263238" stroke-linecap="round" stroke-linejoin="round"/>
<path d="M175.626 199.323C175.626 199.323 170.701 196.13 169.805 195.666C169.271 195.388 167.137 195.001 168.305 196.663C169.682 198.321 171.183 199.872 172.796 201.302L174.628 202.794L176.113 203.992" stroke="#263238" stroke-linecap="round" stroke-linejoin="round"/>
<path d="M253.41 148.61C253.41 148.61 269.884 163.924 270.217 165.617C270.549 167.31 260.237 221.525 260.237 221.525H192.981C192.981 221.525 205.295 204.386 205.295 202.059C205.295 199.732 212.446 165.95 212.616 164.118C212.786 162.285 230.25 155.135 235.244 152.638C240.238 150.141 244.922 147.118 253.41 148.61Z" fill="#92E3A9"/>
<path opacity="0.2" d="M251.663 187.278L239.132 199.469C239.132 199.469 244.891 185.925 246.244 183.235C247.597 180.545 217.804 193.726 217.123 190.68C216.443 187.634 226.647 158.838 226.647 158.838L224.436 157.562C218.577 160.237 212.779 163.035 212.686 164.087C212.516 165.919 205.365 199.694 205.365 202.028C205.365 204.363 193.05 221.494 193.05 221.494H248.757L251.663 187.278Z" fill="black"/>
<path d="M253.41 148.61C253.41 148.61 269.884 163.924 270.217 165.617C270.549 167.31 260.237 221.525 260.237 221.525H192.981C192.981 221.525 205.295 204.386 205.295 202.059C205.295 199.732 212.446 165.95 212.616 164.118C212.786 162.285 230.25 155.135 235.244 152.638C240.238 150.141 244.922 147.118 253.41 148.61Z" stroke="#263238" stroke-linecap="round" stroke-linejoin="round"/>
<path d="M241.598 135.538C254.056 135.538 264.156 125.829 264.156 113.853C264.156 101.878 254.056 92.1692 241.598 92.1692C229.14 92.1692 219.04 101.878 219.04 113.853C219.04 125.829 229.14 135.538 241.598 135.538Z" fill="#263238" stroke="#263238" stroke-linecap="round" stroke-linejoin="round"/>
<path d="M226.848 155.653L221.197 169.297L227.521 166.8L226.848 155.653Z" fill="white" stroke="#263238" stroke-linecap="round" stroke-linejoin="round"/>
<path d="M240.16 144.173L226.848 155.652L227.088 171.376L243.492 152.993L240.16 144.173Z" fill="white" stroke="#263238" stroke-linecap="round" stroke-linejoin="round"/>
<path d="M225.642 106.162C225.642 106.162 222.194 110.885 221.321 113.158C220.447 115.431 219.922 134.486 221.321 138.158C222.72 141.83 226.037 144.451 230.056 145.502C230.056 145.502 231.981 156.518 230.582 160.538C229.183 164.558 225.689 172.25 227.088 171.361C228.487 170.472 249.159 152.738 250.519 149.716C251.215 148.169 250.341 136.952 250.341 136.952C250.341 136.952 252.444 127.158 252.089 124.537C251.733 121.916 249.12 119.814 247.543 121.035C246.514 121.867 245.576 122.805 244.745 123.834C244.745 123.834 241.428 121.917 242.997 119.118C244.567 116.32 248.942 113.869 247.373 110.197C245.804 106.525 243.345 105.474 239.642 106.525C235.939 107.576 227.915 109.308 225.642 106.162Z" fill="white"/>
<path d="M230.799 139.604C226.663 136.512 228.309 136.063 228.309 136.063L227.954 130.807C225.634 130.977 225.341 129.941 226.408 128.225C227.474 126.508 227.699 122.04 227.699 122.04L225.379 123.231C225.257 120.589 225.353 117.941 225.665 115.315C225.913 113.312 227.807 110.39 229.693 107.916C227.946 107.762 226.469 107.267 225.681 106.185C225.681 106.185 222.233 110.908 221.359 113.181C220.486 115.454 219.96 134.51 221.359 138.182C222.759 141.854 226.075 144.474 230.095 145.526C230.095 145.526 232.02 156.542 230.621 160.562C229.221 164.581 225.727 172.273 227.126 171.384C227.297 171.284 227.753 170.928 228.41 170.387L240.145 143.23C236.781 142.798 233.573 141.554 230.799 139.604Z" fill="#92E3A9"/>
<path opacity="0.5" d="M230.799 139.604C226.663 136.512 228.309 136.063 228.309 136.063L227.954 130.807C225.634 130.977 225.341 129.941 226.408 128.225C227.474 126.508 227.699 122.04 227.699 122.04L225.379 123.231C225.257 120.589 225.353 117.941 225.665 115.315C225.913 113.312 227.807 110.39 229.693 107.916C227.946 107.762 226.469 107.267 225.681 106.185C225.681 106.185 222.233 110.908 221.359 113.181C220.486 115.454 219.96 134.51 221.359 138.182C222.759 141.854 226.075 144.474 230.095 145.526C230.095 145.526 232.02 156.542 230.621 160.562C229.221 164.581 225.727 172.273 227.126 171.384C227.297 171.284 227.753 170.928 228.41 170.387L240.145 143.23C236.781 142.798 233.573 141.554 230.799 139.604Z" fill="white"/>
<path d="M225.642 106.162C225.642 106.162 222.194 110.885 221.321 113.158C220.447 115.431 219.922 134.486 221.321 138.158C222.72 141.83 226.037 144.451 230.056 145.502C230.056 145.502 231.981 156.518 230.582 160.538C229.183 164.558 225.689 172.25 227.088 171.361C228.487 170.472 249.159 152.738 250.519 149.716C251.215 148.169 250.341 136.952 250.341 136.952C250.341 136.952 252.444 127.158 252.089 124.537C251.733 121.916 249.12 119.814 247.543 121.035C246.514 121.867 245.576 122.805 244.745 123.834C244.745 123.834 241.428 121.916 242.997 119.118C244.567 116.32 248.942 113.869 247.373 110.197C245.804 106.525 243.345 105.474 239.642 106.525C235.939 107.576 227.915 109.308 225.642 106.162Z" stroke="#263238" stroke-linecap="round" stroke-linejoin="round"/>
<path d="M227.961 119.976L227.614 123.47L227.436 124.692C227.436 124.692 225.341 128.719 225.341 129.941C225.341 131.162 229.361 131.688 230.234 130.637" stroke="#263238" stroke-linecap="round" stroke-linejoin="round"/>
<path d="M226.214 135.36C226.214 135.36 230.412 137.285 232.855 133.814" stroke="#263238" stroke-linecap="round" stroke-linejoin="round"/>
<path d="M228.309 136.063C228.309 136.063 228.487 139.032 230.582 138.684C233.095 138.267 232.337 134.664 232.337 134.664C231.19 135.57 229.771 136.063 228.309 136.063Z" fill="#263238" stroke="#263238" stroke-linecap="round" stroke-linejoin="round"/>
<path d="M232.685 118.747C232.685 118.747 237.053 118.229 238.63 120.293" stroke="#263238" stroke-width="2" stroke-linecap="round" stroke-linejoin="round"/>
<path d="M227.266 118.229C227.266 118.229 222.72 117.355 221.321 119.45" stroke="#263238" stroke-width="2" stroke-linecap="round" stroke-linejoin="round"/>
<path d="M233.643 125.217C234.079 125.217 234.432 124.553 234.432 123.733C234.432 122.913 234.079 122.249 233.643 122.249C233.208 122.249 232.855 122.913 232.855 123.733C232.855 124.553 233.208 125.217 233.643 125.217Z" fill="#263238"/>
<path d="M224.552 124.692C224.988 124.692 225.341 124.027 225.341 123.207C225.341 122.388 224.988 121.723 224.552 121.723C224.117 121.723 223.764 122.388 223.764 123.207C223.764 124.027 224.117 124.692 224.552 124.692Z" fill="#263238"/>
<path d="M230.056 145.502C230.056 145.502 237.014 146.5 241.992 141.173" stroke="#263238" stroke-linecap="round" stroke-linejoin="round"/>
<path d="M252.9 118.417L249.855 118.097C247.206 117.819 244.832 119.742 244.554 122.391L243.681 130.71C243.403 133.36 245.326 135.733 247.975 136.011L251.02 136.33C253.67 136.608 256.043 134.686 256.321 132.036L257.194 123.718C257.472 121.068 255.549 118.695 252.9 118.417Z" fill="white" stroke="#263238" stroke-linecap="round" stroke-linejoin="round"/>
<path d="M254.471 116.136L250.15 115.683C249.658 115.631 249.217 115.989 249.165 116.481L247.802 129.467C247.751 129.959 248.108 130.401 248.601 130.452L252.922 130.906C253.414 130.957 253.855 130.6 253.907 130.107L255.27 117.122C255.321 116.629 254.964 116.188 254.471 116.136Z" fill="white" stroke="#263238" stroke-linecap="round" stroke-linejoin="round"/>
<path d="M254.145 93.0349C253.225 91.7825 251.926 90.8596 250.44 90.4029C248.954 89.9462 247.361 89.98 245.896 90.4993L240.918 92.1923H241.598C243.217 92.1935 244.831 92.3619 246.414 92.6948L246.608 92.6252C247.389 92.3237 248.234 92.2285 249.062 92.3489C249.891 92.4692 250.674 92.801 251.337 93.3123C251.999 93.8235 252.519 94.497 252.846 95.2676C253.173 96.0382 253.295 96.8801 253.202 97.7119L249.924 127.784C249.894 128.078 249.981 128.372 250.166 128.602C250.351 128.832 250.62 128.98 250.914 129.013H251.037C251.312 129.011 251.576 128.908 251.779 128.724C251.983 128.541 252.112 128.288 252.143 128.016L255.413 97.9438C255.602 96.2077 255.152 94.4621 254.145 93.0349Z" fill="#263238"/>
<path d="M232.012 157.485L227.088 171.376L233.829 166.862L232.012 157.485Z" fill="white" stroke="#263238" stroke-linecap="round" stroke-linejoin="round"/>
<path d="M232.012 157.485L232.507 170.132L255.807 150.829L253.14 143.338L232.012 157.485Z" fill="white" stroke="#263238" stroke-linecap="round" stroke-linejoin="round"/>
<path d="M264.063 163.252C264.063 163.252 257.879 165.749 256.905 167.89C255.931 170.031 242.766 218.309 242.766 218.309C242.766 218.309 242.433 220.976 245.757 221.138C249.081 221.3 269.22 221.138 269.22 221.138C269.22 221.138 270.882 187.363 270.719 181.867C270.557 176.37 270.387 166.406 269.552 165.563" fill="#92E3A9"/>
<path opacity="0.2" d="M255.722 172.722L251.996 193.378C251.996 193.378 257.075 189.311 262.154 193.378C267.233 197.444 261.481 194.731 257.755 195.743C254.029 196.756 252.676 198.457 252.676 198.457C252.676 198.457 262.494 200.15 265.2 203.536C267.905 206.922 266.56 210.3 263.174 210.3C259.788 210.3 245.564 208.607 245.564 208.607L255.722 172.722Z" fill="black"/>
<path d="M264.063 163.252C264.063 163.252 257.879 165.749 256.905 167.89C255.931 170.031 242.766 218.309 242.766 218.309C242.766 218.309 242.433 220.976 245.757 221.138C249.081 221.3 269.22 221.138 269.22 221.138C269.22 221.138 270.882 187.363 270.719 181.867C270.557 176.37 270.387 166.406 269.552 165.563" stroke="#263238" stroke-linecap="round" stroke-linejoin="round"/>
<path d="M240.856 198.294C240.856 198.294 223.702 183.606 220.834 178.875C217.966 174.144 217.278 171.222 215.229 169.22C213.181 167.217 210.181 165.555 208.032 163.909C205.883 162.262 205.945 165.455 206.64 166.522C207.524 167.541 208.535 168.442 209.648 169.204L210.846 171.183C210.846 171.183 203.115 169.351 201.569 169.452C200.023 169.552 193.251 169.243 192.177 170.789C191.102 172.335 193.614 172.219 194.326 172.436C195.037 172.652 197.201 172.436 198.763 172.66C200.325 172.884 204.221 173.881 204.221 173.881C204.221 173.881 193.87 175.559 192.555 175.791C191.241 176.023 190.692 177.646 191.659 178.319C192.625 178.991 195.795 178.759 195.795 178.759C195.795 178.759 200.719 181.774 201.793 182.091C202.868 182.408 205.334 182.98 205.334 182.98C205.334 182.98 212.639 186.072 215.067 187.332C217.494 188.592 222.712 196.114 225.403 199.864C228.093 203.613 231.873 208.684 234.37 211.282C236.867 213.879 238.545 215.773 238.545 215.773L244.482 200.691L240.856 198.294Z" fill="white"/>
<path d="M236.481 213.508C238.521 211.429 240.539 209.326 241.482 208.344L241.807 207.509C240.207 205.778 230.342 195.14 224.429 190.154C217.981 184.704 213.026 175.033 207.073 172.799C201.121 170.565 194.921 171.562 192.184 170.789C191.11 172.335 193.622 172.219 194.334 172.436C195.045 172.652 197.209 172.436 198.771 172.66C200.332 172.884 204.229 173.881 204.229 173.881C204.229 173.881 193.877 175.559 192.563 175.791C191.249 176.023 190.7 177.646 191.666 178.319C192.633 178.991 195.802 178.759 195.802 178.759C195.802 178.759 200.727 181.774 201.801 182.091C202.876 182.408 205.342 182.98 205.342 182.98C205.342 182.98 212.647 186.072 215.075 187.332C217.502 188.593 222.72 196.114 225.41 199.864C228.101 203.613 231.881 208.684 234.378 211.282L236.481 213.508Z" fill="#92E3A9"/>
<path opacity="0.5" d="M236.481 213.508C238.521 211.429 240.539 209.326 241.482 208.344L241.807 207.509C240.207 205.778 230.342 195.14 224.429 190.154C217.981 184.704 213.026 175.033 207.073 172.799C201.121 170.565 194.921 171.562 192.184 170.789C191.11 172.335 193.622 172.219 194.334 172.436C195.045 172.652 197.209 172.436 198.771 172.66C200.332 172.884 204.229 173.881 204.229 173.881C204.229 173.881 193.877 175.559 192.563 175.791C191.249 176.023 190.7 177.646 191.666 178.319C192.633 178.991 195.802 178.759 195.802 178.759C195.802 178.759 200.727 181.774 201.801 182.091C202.876 182.408 205.342 182.98 205.342 182.98C205.342 182.98 212.647 186.072 215.075 187.332C217.502 188.593 222.72 196.114 225.41 199.864C228.101 203.613 231.881 208.684 234.378 211.282L236.481 213.508Z" fill="white"/>
<path d="M240.856 198.294C240.856 198.294 223.702 183.606 220.834 178.875C217.966 174.144 217.278 171.222 215.229 169.22C213.181 167.217 210.181 165.555 208.032 163.909C205.883 162.262 205.945 165.455 206.64 166.522C207.524 167.541 208.535 168.442 209.648 169.204L210.846 171.183C210.846 171.183 203.115 169.351 201.569 169.452C200.023 169.552 193.251 169.243 192.177 170.789C191.102 172.335 193.614 172.219 194.326 172.436C195.037 172.652 197.201 172.436 198.763 172.66C200.325 172.884 204.221 173.881 204.221 173.881C204.221 173.881 193.87 175.559 192.555 175.791C191.241 176.023 190.692 177.646 191.659 178.319C192.625 178.991 195.795 178.759 195.795 178.759C195.795 178.759 200.719 181.774 201.793 182.091C202.868 182.408 205.334 182.98 205.334 182.98C205.334 182.98 212.639 186.072 215.067 187.332C217.494 188.592 222.712 196.114 225.403 199.864C228.093 203.613 231.873 208.684 234.37 211.282C236.867 213.879 238.545 215.773 238.545 215.773L244.482 200.691L240.856 198.294Z" stroke="#263238" stroke-linecap="round" stroke-linejoin="round"/>
<path d="M195.802 178.767L201.16 178.489L205.52 179.231" stroke="#263238" stroke-linecap="round" stroke-linejoin="round"/>
<path d="M199.884 181.102C201.662 181.494 203.475 181.709 205.295 181.743" stroke="#263238" stroke-linecap="round" stroke-linejoin="round"/>
<path d="M264.063 207.517C264.063 207.517 244.095 196.037 243.098 196.037C242.101 196.037 233.442 214.343 234.594 215.17C235.746 215.997 243.415 220.999 243.415 220.999H269.204C269.204 220.999 272.258 214.838 264.063 207.517Z" fill="#92E3A9" stroke="#263238" stroke-linecap="round" stroke-linejoin="round"/>
<path d="M241.931 195.535C241.931 195.535 232.948 214.173 233.11 215.008C233.272 215.843 240.431 220.164 241.768 220.334C243.106 220.504 252.746 200.529 252.413 200.034C252.081 199.539 243.763 195.202 243.763 195.202C243.763 195.202 242.108 194.375 241.931 195.535Z" fill="white" stroke="#263238" stroke-linecap="round" stroke-linejoin="round"/>
<path d="M195.918 170.07L194.125 169.892C193.808 169.962 193.514 170.039 193.251 170.124C194.488 170.062 195.918 170.07 195.918 170.07Z" fill="white"/>
<path d="M62.2647 144.033H13.9951C13.9951 144.033 9.54228 144.806 11.0265 153.689C12.5108 162.571 19.9399 219.399 19.9399 219.399H87.1494L72.4613 147.126C72.4613 147.126 71.9202 143.291 62.2647 144.033Z" fill="white" stroke="#263238" stroke-linecap="round" stroke-linejoin="round"/>
<path d="M11.0267 153.689C12.5109 162.602 19.94 219.399 19.94 219.399H28.7451C26.7584 205.948 19.3834 156.116 18.1001 150.342C16.8169 144.567 14.7219 144.065 14.1575 144.026H14.0107C14.0107 144.026 9.5424 144.776 11.0267 153.689Z" fill="#263238" stroke="#263238" stroke-linecap="round" stroke-linejoin="round"/>
<path d="M72.8479 142.936C72.8479 142.936 44.4303 153.527 39.9775 156.495C35.5247 159.464 31.0642 164.666 31.0642 171.724C31.0642 178.782 35.1537 219.275 35.1537 219.275H130.054C130.054 219.275 118.172 177.484 114.268 168.756C112.088 163.878 109.9 158.459 106.213 154.478C101.389 149.275 94.3079 146.121 87.5514 144.281C85.0461 143.655 82.4853 143.277 79.9059 143.152C77.9269 142.998 74.7496 142.232 72.8479 142.936Z" fill="#92E3A9"/>
<path opacity="0.2" d="M123.259 219.275C124.163 218.17 124.697 217.412 124.697 217.412L107.086 167.302C107.086 167.302 111.833 190.324 112.498 192.357C113.163 194.39 117.244 203.899 103.731 205.561C90.2184 207.223 74.6181 204.548 63.7798 198.789C52.9416 193.03 49.8648 177.801 49.8648 177.801L49.1845 189.652L47.6384 219.275H123.259Z" fill="black"/>
<path d="M72.8479 142.936C72.8479 142.936 44.4303 153.527 39.9775 156.495C35.5247 159.464 31.0642 164.666 31.0642 171.724C31.0642 178.782 35.1537 219.275 35.1537 219.275H130.054C130.054 219.275 118.172 177.484 114.268 168.756C112.088 163.878 109.9 158.459 106.213 154.478C101.389 149.275 94.3079 146.121 87.5514 144.281C85.0461 143.655 82.4853 143.277 79.9059 143.152C77.9269 142.998 74.7496 142.232 72.8479 142.936Z" stroke="#263238" stroke-linecap="round" stroke-linejoin="round"/>
<path d="M79.6044 164.125C87.456 164.125 93.8209 159.031 93.8209 152.746C93.8209 146.461 87.456 141.366 79.6044 141.366C71.7529 141.366 65.3879 146.461 65.3879 152.746C65.3879 159.031 71.7529 164.125 79.6044 164.125Z" fill="white" stroke="#263238" stroke-linecap="round" stroke-linejoin="round"/>
<path d="M60.5948 114.704L59.6672 104.832C59.5224 103.268 59.693 101.691 60.1691 100.195C60.6452 98.6986 61.4169 97.3131 62.4385 96.1206C63.4602 94.9281 64.7109 93.9529 66.1165 93.2528C67.5222 92.5528 69.0541 92.1422 70.6214 92.0454L79.496 91.4965C82.8249 91.2948 86.1114 92.3263 88.7281 94.3939C91.3447 96.4616 93.1081 99.4206 93.6816 102.706L94.8026 109.099" stroke="#263238" stroke-width="2" stroke-linecap="round" stroke-linejoin="round"/>
<path d="M95.2337 110.036L93.5098 110.191C91.7807 110.347 90.5051 111.875 90.6607 113.604L91.6347 124.427C91.7904 126.156 93.3183 127.432 95.0474 127.276L96.7713 127.121C98.5004 126.965 99.776 125.437 99.6204 123.708L98.6464 112.885C98.4907 111.156 96.9628 109.881 95.2337 110.036Z" fill="white" stroke="#263238" stroke-width="1.00404" stroke-linecap="round" stroke-linejoin="round"/>
<path d="M68.0239 136.063C68.0239 136.063 69.3227 146.113 69.1371 147.211C68.9516 148.308 69.1371 155.382 74.3321 158.35C79.527 161.319 85.1085 160.028 87.7059 156.124C90.3034 152.22 88.077 135.692 88.077 135.692C88.077 135.692 76.5662 141.451 68.0239 136.063Z" fill="white"/>
<path d="M88.8037 143.253C88.5408 139.14 88.077 135.692 88.077 135.692C88.077 135.692 76.5662 141.451 68.0239 136.063C68.0239 136.063 68.6578 140.964 68.9748 144.296C73.1957 146.801 80.13 148.734 88.8037 143.253Z" fill="#92E3A9"/>
<path opacity="0.5" d="M88.8037 143.253C88.5408 139.14 88.077 135.692 88.077 135.692C88.077 135.692 76.5662 141.451 68.0239 136.063C68.0239 136.063 68.6578 140.964 68.9748 144.296C73.1957 146.801 80.13 148.734 88.8037 143.253Z" fill="white"/>
<path d="M68.0239 136.063C68.0239 136.063 69.3227 146.113 69.1371 147.211C68.9516 148.308 69.1371 155.382 74.3321 158.35C79.527 161.319 85.1085 160.028 87.7059 156.124C90.3034 152.22 88.077 135.692 88.077 135.692C88.077 135.692 76.5662 141.451 68.0239 136.063Z" stroke="#263238" stroke-linecap="round" stroke-linejoin="round"/>
<path d="M78.5162 93.1435L72.2046 93.8805C65.4407 94.6703 60.5978 100.794 61.3875 107.558L64.0638 130.478C64.8536 137.241 70.977 142.084 77.7409 141.295L84.0525 140.558C90.8164 139.768 95.6593 133.644 94.8695 126.881L92.1933 103.961C91.4035 97.1967 85.28 92.3538 78.5162 93.1435Z" fill="white"/>
<path d="M74.3553 141.281C70.0958 136.426 67.1891 102.536 68.1708 98.8869C68.8743 96.3049 74.6336 94.2099 78.0892 93.1663L71.7501 93.9393C68.6301 94.3055 65.7832 95.8954 63.8349 98.3597C61.8867 100.824 60.9966 103.961 61.3602 107.081L64.151 130.961C64.4636 133.57 65.6363 136.001 67.4841 137.87C69.332 139.739 71.7496 140.939 74.3553 141.281Z" fill="#92E3A9"/>
<path opacity="0.5" d="M74.3553 141.281C70.0958 136.426 67.1891 102.536 68.1708 98.8869C68.8743 96.3049 74.6336 94.2099 78.0892 93.1663L71.7501 93.9393C68.6301 94.3055 65.7832 95.8954 63.8349 98.3597C61.8867 100.824 60.9966 103.961 61.3602 107.081L64.151 130.961C64.4636 133.57 65.6363 136.001 67.4841 137.87C69.332 139.739 71.7496 140.939 74.3553 141.281Z" fill="white"/>
<path d="M78.5162 93.1435L72.2046 93.8805C65.4407 94.6703 60.5978 100.794 61.3875 107.558L64.0638 130.478C64.8536 137.241 70.977 142.084 77.7409 141.295L84.0525 140.558C90.8164 139.768 95.6593 133.644 94.8695 126.881L92.1933 103.961C91.4035 97.1967 85.28 92.3538 78.5162 93.1435Z" stroke="#263238" stroke-linecap="round" stroke-linejoin="round"/>
<path d="M94.8257 126.392L94.2227 121.182C94.0913 123.447 93.5424 126.245 91.6098 126.029C88.3862 125.673 88.6335 122.504 86.5927 121.197C84.5518 119.891 80.0913 120.424 76.7517 121.754C73.4121 123.084 74.1465 127.699 71.7345 129.369C69.3226 131.038 66.7174 127.142 66.7174 127.142L64.1199 111.171C64.1199 111.171 66.7174 108.009 67.9852 106.71C69.253 105.412 66.8643 105.041 65.9366 103.185C65.0089 101.33 67.7997 99.0957 70.9537 96.6838C74.1078 94.2719 76.8985 97.4569 79.4574 97.4569C82.0162 97.4569 83.7323 96.3437 85.9587 95.0449L86.0824 94.9908C83.6532 93.5109 80.7981 92.8876 77.9731 93.2205L72.6235 93.8467C69.2648 94.257 66.2052 95.9803 64.1134 98.64C62.0216 101.3 61.0678 104.679 61.4606 108.04L64.0194 129.987C64.4129 133.361 66.1296 136.441 68.7923 138.55C71.455 140.659 74.8461 141.625 78.2205 141.235L83.57 140.609C85.2432 140.416 86.8619 139.895 88.3335 139.076C89.8051 138.257 91.1007 137.155 92.1462 135.835C93.1917 134.514 93.9665 133.001 94.4262 131.38C94.886 129.76 95.0218 128.065 94.8257 126.392Z" fill="#263238" stroke="#263238" stroke-linecap="round" stroke-linejoin="round"/>
<path d="M77.6794 124.367C77.6794 124.367 80.4624 126.964 85.8506 124.181" stroke="white" stroke-linecap="round" stroke-linejoin="round"/>
<path d="M83.632 109.509C83.632 109.509 84.405 117.123 84.405 118.608C84.405 120.092 81.6143 122.512 78.9937 119.164" stroke="#263238" stroke-linecap="round" stroke-linejoin="round"/>
<path d="M79.9058 108.21C79.9058 108.21 76.1951 104.677 71.178 109.138" stroke="#263238" stroke-width="2" stroke-linecap="round" stroke-linejoin="round"/>
<path d="M84.552 107.646C84.552 107.646 88.0771 105.234 91.0534 107.275" stroke="#263238" stroke-width="2" stroke-linecap="round" stroke-linejoin="round"/>
<path d="M78.2206 113.034C78.2206 113.853 77.8495 114.518 77.3857 114.518C76.9218 114.518 76.5508 113.853 76.5508 113.034C76.5508 112.214 76.9218 111.55 77.3857 111.55C77.8495 111.55 78.2206 112.214 78.2206 113.034Z" fill="#263238"/>
<path d="M87.9843 114.333C88.4454 114.333 88.8192 113.668 88.8192 112.848C88.8192 112.029 88.4454 111.364 87.9843 111.364C87.5232 111.364 87.1494 112.029 87.1494 112.848C87.1494 113.668 87.5232 114.333 87.9843 114.333Z" fill="#263238"/>
<path d="M61.4505 112.985L59.739 113.191C58.0223 113.398 56.7983 114.958 57.0051 116.674L58.2997 127.419C58.5065 129.136 60.0659 130.36 61.7826 130.153L63.4942 129.947C65.2109 129.74 66.4349 128.181 66.228 126.464L64.9334 115.719C64.7266 114.002 63.1673 112.778 61.4505 112.985Z" fill="white" stroke="#263238" stroke-linecap="round" stroke-linejoin="round"/>
<path d="M115.196 210.547C110.558 209.434 104.242 209.774 100.508 209.62C96.7739 209.465 73.0179 207.385 67.4519 205.754C61.8859 204.123 53.1503 202.6 53.1503 202.6L50.7307 186.992C40.3795 182.911 34.3805 187.186 32.2778 189.211C33.4761 202.948 35.1304 219.314 35.1304 219.314H118.582L120.955 219.128C120.955 219.128 119.842 211.63 115.196 210.547Z" fill="white"/>
<path d="M40.7274 214.026C37.7589 212.379 35.316 207.285 33.5071 202.484C34.3806 211.676 35.146 219.275 35.146 219.275H113.781C116.572 217.196 118.234 215.719 118.234 215.719C118.234 215.719 46.8268 217.412 40.7274 214.026Z" fill="#92E3A9"/>
<path opacity="0.5" d="M40.7274 214.026C37.7589 212.379 35.316 207.285 33.5071 202.484C34.3806 211.676 35.146 219.275 35.146 219.275H113.781C116.572 217.196 118.234 215.719 118.234 215.719C118.234 215.719 46.8268 217.412 40.7274 214.026Z" fill="white"/>
<path d="M115.196 210.547C110.557 209.434 104.242 209.774 100.508 209.62C96.7739 209.465 73.0179 207.385 67.4519 205.754C61.8859 204.123 53.1503 202.6 53.1503 202.6L50.7307 186.992C40.3795 182.911 34.3805 187.186 32.2778 189.211C33.4761 202.948 35.1304 219.314 35.1304 219.314H118.582L120.955 219.128C120.955 219.128 119.842 211.63 115.196 210.547Z" stroke="#263238" stroke-linecap="round" stroke-linejoin="round"/>
<path d="M53.1658 202.562C53.1658 202.562 46.7649 202.716 44.2988 207.424" stroke="#263238" stroke-linecap="round" stroke-linejoin="round"/>
<path d="M50.7462 186.954L49.4475 173.216" stroke="#263238" stroke-linecap="round" stroke-linejoin="round"/>
<path d="M30.2911 215.495H26.0393C25.6969 215.495 25.3685 215.359 25.1264 215.117C24.8843 214.874 24.7483 214.546 24.7483 214.204V205.545C24.7483 205.203 24.8843 204.875 25.1264 204.633C25.3685 204.39 25.6969 204.254 26.0393 204.254H30.2911C30.8488 204.254 31.3836 204.476 31.7779 204.87C32.1723 205.265 32.3938 205.799 32.3938 206.357V213.392C32.3938 213.95 32.1723 214.484 31.7779 214.879C31.3836 215.273 30.8488 215.495 30.2911 215.495ZM27.0443 213.662H30.1365V206.087H27.0443V213.662Z" fill="white" stroke="#263238" stroke-linecap="round" stroke-linejoin="round"/>
<path d="M14.884 203.938H28.7449V212.65C28.7449 213.974 28.2188 215.245 27.2822 216.181C26.3457 217.118 25.0755 217.644 23.751 217.644H19.8857C19.2299 217.644 18.5805 217.515 17.9746 217.264C17.3687 217.013 16.8182 216.645 16.3545 216.181C15.8907 215.717 15.5229 215.167 15.2719 214.561C15.0209 213.955 14.8918 213.306 14.8918 212.65V203.938H14.884Z" fill="white" stroke="#263238" stroke-linecap="round" stroke-linejoin="round"/>
<path d="M29.7578 218.734H12.4568L8.74609 216.569H33.4607L29.7578 218.734Z" fill="white" stroke="#263238" stroke-linecap="round" stroke-linejoin="round"/>
<path d="M207.839 215.495H203.603C203.26 215.495 202.932 215.359 202.69 215.117C202.448 214.874 202.312 214.546 202.312 214.204V205.545C202.312 205.203 202.448 204.875 202.69 204.633C202.932 204.39 203.26 204.254 203.603 204.254H207.839C208.397 204.254 208.931 204.476 209.326 204.87C209.72 205.265 209.942 205.799 209.942 206.357V213.392C209.942 213.95 209.72 214.484 209.326 214.879C208.931 215.273 208.397 215.495 207.839 215.495ZM204.592 213.662H207.684V206.087H204.592V213.662Z" fill="white" stroke="#263238" stroke-linecap="round" stroke-linejoin="round"/>
<path d="M192.448 203.938H206.363V212.65C206.363 213.974 205.836 215.245 204.9 216.181C203.963 217.118 202.693 217.644 201.369 217.644H197.503C196.179 217.644 194.909 217.118 193.972 216.181C193.035 215.245 192.509 213.974 192.509 212.65V203.938H192.448Z" fill="white" stroke="#263238" stroke-linecap="round" stroke-linejoin="round"/>
<path d="M207.321 218.734H190.02L186.309 216.569H211.024L207.321 218.734Z" fill="white" stroke="#263238" stroke-linecap="round" stroke-linejoin="round"/>
<path d="M119.865 164.334L135.96 162.355" stroke="#263238" stroke-width="4" stroke-linecap="round" stroke-linejoin="round"/>
<path d="M133.981 166.437C133.436 166.449 132.902 166.289 132.453 165.98C132.004 165.671 131.664 165.229 131.48 164.716C131.296 164.203 131.278 163.646 131.429 163.122C131.579 162.598 131.891 162.135 132.319 161.798L159.546 139.272C160.077 138.832 160.761 138.621 161.448 138.685C162.134 138.75 162.767 139.085 163.207 139.616C163.646 140.147 163.857 140.831 163.793 141.517C163.728 142.204 163.394 142.836 162.863 143.276L135.636 165.803C135.176 166.202 134.59 166.427 133.981 166.437V166.437Z" stroke="#263238" stroke-width="3" stroke-linecap="round" stroke-linejoin="round"/>
<path d="M161.456 138.344C160.807 138.311 160.169 138.52 159.665 138.93C159.162 139.339 158.827 139.921 158.727 140.563C156.895 152.375 147.904 208.754 148.584 209.635C149.265 210.516 157.985 217.304 157.985 217.304C157.985 217.304 155.511 211.119 155.511 208.646C155.511 206.481 162.414 153.658 163.945 141.289C163.989 140.93 163.958 140.565 163.855 140.218C163.751 139.871 163.577 139.549 163.343 139.273C163.11 138.996 162.821 138.771 162.497 138.611C162.172 138.451 161.817 138.36 161.456 138.344V138.344Z" stroke="#263238" stroke-width="3" stroke-linecap="round" stroke-linejoin="round"/>
<path d="M115.204 153.875C116.064 154.951 116.586 156.259 116.702 157.632C116.818 159.005 116.524 160.382 115.856 161.588C115.189 162.794 114.178 163.774 112.953 164.405C111.728 165.036 110.343 165.288 108.974 165.131C107.605 164.973 106.313 164.412 105.263 163.52C104.213 162.627 103.452 161.443 103.076 160.117C102.699 158.791 102.726 157.384 103.151 156.073C103.576 154.762 104.381 153.607 105.463 152.754C106.906 151.617 108.74 151.097 110.564 151.307C112.389 151.517 114.057 152.44 115.204 153.875Z" fill="#263238" stroke="#263238" stroke-linecap="round" stroke-linejoin="round"/>
<path d="M124.364 174.824L122.648 176.185C122.354 176.416 121.985 176.533 121.611 176.513C121.237 176.493 120.883 176.338 120.615 176.077L109.97 165.579C109.52 165.134 109.17 164.598 108.942 164.008C108.714 163.417 108.614 162.785 108.648 162.154C108.683 161.522 108.85 160.904 109.141 160.342C109.431 159.78 109.838 159.285 110.333 158.892C110.829 158.498 111.404 158.214 112.018 158.059C112.632 157.904 113.272 157.881 113.895 157.992C114.519 158.104 115.112 158.346 115.634 158.704C116.157 159.061 116.598 159.526 116.928 160.067L124.72 172.822C124.913 173.143 124.983 173.522 124.918 173.89C124.852 174.258 124.656 174.59 124.364 174.824Z" fill="white" stroke="#263238" stroke-linecap="round" stroke-linejoin="round"/>
<path d="M118.474 162.873C117.747 162.744 117.001 162.77 116.285 162.951C115.569 163.132 114.9 163.463 114.322 163.922C113.744 164.381 113.27 164.958 112.932 165.614C112.593 166.27 112.398 166.99 112.359 167.728C112.355 167.795 112.355 167.862 112.359 167.929L114.361 169.908C113.997 169.293 113.818 168.588 113.844 167.874C113.869 167.161 114.099 166.47 114.507 165.884C114.914 165.297 115.481 164.84 116.14 164.567C116.8 164.294 117.524 164.215 118.226 164.342C118.951 164.471 119.621 164.812 120.151 165.323L118.682 162.919C118.612 162.908 118.542 162.892 118.474 162.873Z" fill="#263238"/>
<path d="M124.457 176.842C124.137 177.093 123.732 177.207 123.328 177.161C122.925 177.114 122.555 176.911 122.3 176.595L121.512 175.528C121.262 175.208 121.147 174.802 121.193 174.399C121.24 173.995 121.443 173.626 121.759 173.371C122.079 173.121 122.485 173.006 122.888 173.053C123.292 173.099 123.661 173.302 123.916 173.618L124.736 174.647C124.864 174.808 124.959 174.994 125.014 175.192C125.07 175.391 125.085 175.598 125.059 175.803C125.033 176.008 124.966 176.205 124.863 176.383C124.76 176.562 124.622 176.718 124.457 176.842Z" fill="white" stroke="#263238" stroke-linecap="round" stroke-linejoin="round"/>
<path d="M164.687 219.36H139.238C138.835 219.36 138.447 219.203 138.158 218.921C137.869 218.639 137.702 218.256 137.692 217.853C137.692 217.443 137.855 217.049 138.145 216.759C138.435 216.47 138.828 216.307 139.238 216.307H164.687C165.09 216.317 165.474 216.484 165.755 216.773C166.037 217.062 166.195 217.449 166.194 217.853C166.185 218.249 166.023 218.627 165.742 218.908C165.461 219.188 165.084 219.35 164.687 219.36Z" fill="#263238"/>
<path d="M134.523 167.751C137.076 167.751 139.145 165.681 139.145 163.128C139.145 160.575 137.076 158.505 134.523 158.505C131.969 158.505 129.9 160.575 129.9 163.128C129.9 165.681 131.969 167.751 134.523 167.751Z" fill="#263238"/>
<path d="M161.038 146.221C163.591 146.221 165.661 144.152 165.661 141.598C165.661 139.045 163.591 136.976 161.038 136.976C158.485 136.976 156.415 139.045 156.415 141.598C156.415 144.152 158.485 146.221 161.038 146.221Z" fill="#263238"/>
<path d="M246.917 164.334L263.004 162.355" stroke="#263238" stroke-width="4" stroke-linecap="round" stroke-linejoin="round"/>
<path d="M261.025 166.437C260.481 166.447 259.948 166.286 259.5 165.976C259.053 165.667 258.713 165.225 258.531 164.712C258.348 164.2 258.331 163.643 258.481 163.12C258.632 162.597 258.943 162.135 259.371 161.798L286.598 139.272C286.861 139.054 287.164 138.89 287.49 138.789C287.817 138.689 288.16 138.654 288.499 138.685C288.839 138.717 289.17 138.816 289.471 138.976C289.773 139.135 290.041 139.353 290.258 139.616C290.476 139.879 290.64 140.182 290.741 140.508C290.841 140.834 290.876 141.177 290.844 141.517C290.813 141.857 290.714 142.187 290.554 142.489C290.395 142.791 290.177 143.058 289.914 143.276L262.687 165.803C262.225 166.203 261.637 166.428 261.025 166.437V166.437Z" stroke="#263238" stroke-width="3" stroke-linecap="round" stroke-linejoin="round"/>
<path d="M288.492 138.344C287.843 138.311 287.206 138.52 286.702 138.93C286.198 139.339 285.864 139.921 285.763 140.563C283.931 152.375 274.94 208.754 275.621 209.635C276.301 210.516 285.021 217.304 285.021 217.304C285.021 217.304 282.547 211.119 282.547 208.646C282.547 206.481 289.451 153.658 290.974 141.289C291.02 140.93 290.991 140.565 290.889 140.218C290.787 139.87 290.614 139.548 290.38 139.271C290.147 138.994 289.859 138.769 289.534 138.609C289.209 138.449 288.854 138.359 288.492 138.344V138.344Z" stroke="#263238" stroke-width="3" stroke-linecap="round" stroke-linejoin="round"/>
<path d="M242.499 162.143C244.693 159.004 243.927 154.681 240.788 152.487C237.649 150.293 233.326 151.059 231.132 154.198C228.938 157.337 229.704 161.661 232.843 163.854C235.982 166.048 240.305 165.282 242.499 162.143Z" fill="#263238" stroke="#263238" stroke-linecap="round" stroke-linejoin="round"/>
<path d="M251.385 174.824L249.669 176.185C249.375 176.416 249.006 176.533 248.632 176.513C248.258 176.493 247.904 176.338 247.636 176.077L236.991 165.579C236.541 165.134 236.191 164.598 235.963 164.008C235.735 163.417 235.635 162.785 235.669 162.154C235.704 161.522 235.871 160.904 236.162 160.342C236.452 159.78 236.859 159.285 237.354 158.892C237.85 158.498 238.425 158.214 239.039 158.059C239.653 157.904 240.293 157.881 240.916 157.992C241.54 158.104 242.133 158.346 242.656 158.704C243.178 159.061 243.619 159.526 243.948 160.067L251.741 172.822C251.934 173.143 252.004 173.522 251.939 173.89C251.873 174.258 251.677 174.59 251.385 174.824Z" fill="white" stroke="#263238" stroke-linecap="round" stroke-linejoin="round"/>
<path d="M245.525 162.873C244.799 162.744 244.053 162.77 243.337 162.951C242.621 163.132 241.952 163.463 241.374 163.922C240.796 164.381 240.322 164.958 239.983 165.614C239.645 166.27 239.45 166.99 239.411 167.728C239.407 167.795 239.407 167.862 239.411 167.929L241.413 169.884C240.959 169.11 240.8 168.197 240.965 167.314C241.13 166.432 241.609 165.638 242.313 165.08C243.016 164.523 243.898 164.238 244.795 164.278C245.692 164.318 246.545 164.681 247.195 165.3L245.726 162.896C245.659 162.892 245.592 162.884 245.525 162.873Z" fill="#263238"/>
<path d="M251.509 176.842C251.189 177.092 250.783 177.207 250.38 177.161C249.976 177.114 249.607 176.911 249.352 176.595L248.533 175.566C248.282 175.247 248.168 174.841 248.214 174.437C248.26 174.034 248.464 173.665 248.78 173.41C249.1 173.159 249.506 173.045 249.909 173.091C250.313 173.137 250.682 173.341 250.937 173.657L251.756 174.685C252.007 175.005 252.121 175.411 252.075 175.814C252.029 176.218 251.825 176.587 251.509 176.842Z" fill="white" stroke="#263238" stroke-linecap="round" stroke-linejoin="round"/>
<path d="M291.731 219.36H266.29C265.886 219.36 265.499 219.203 265.21 218.921C264.921 218.639 264.754 218.256 264.744 217.853C264.744 217.443 264.907 217.049 265.196 216.759C265.486 216.47 265.88 216.307 266.29 216.307H291.731C292.141 216.307 292.534 216.47 292.824 216.759C293.114 217.049 293.277 217.443 293.277 217.853C293.267 218.256 293.1 218.639 292.811 218.921C292.522 219.203 292.134 219.36 291.731 219.36Z" fill="#263238"/>
<path d="M261.574 167.751C264.127 167.751 266.197 165.681 266.197 163.128C266.197 160.575 264.127 158.505 261.574 158.505C259.021 158.505 256.951 160.575 256.951 163.128C256.951 165.681 259.021 167.751 261.574 167.751Z" fill="#263238"/>
<path d="M288.09 146.221C290.643 146.221 292.713 144.152 292.713 141.598C292.713 139.045 290.643 136.976 288.09 136.976C285.537 136.976 283.467 139.045 283.467 141.598C283.467 144.152 285.537 146.221 288.09 146.221Z" fill="#263238"/>
<path d="M157.467 180.769H105.293L96.3875 216.577H148.553L157.467 180.769Z" fill="#263238" stroke="#263238" stroke-linecap="round" stroke-linejoin="round"/>
<path d="M148.012 216.577H70.2117V219.121H148.012V216.577Z" fill="#263238" stroke="#263238" stroke-linecap="round" stroke-linejoin="round"/>
<path d="M148.561 216.577H96.3875V219.121H148.561V216.577Z" fill="white" stroke="#263238" stroke-linecap="round" stroke-linejoin="round"/>
<path d="M158.039 180.769H105.873L96.9673 216.577H149.133L158.039 180.769Z" fill="white" stroke="#263238" stroke-linecap="round" stroke-linejoin="round"/>
<path d="M319.955 219.035H1V224.601H319.955V219.035Z" fill="#263238" stroke="#263238" stroke-linecap="round" stroke-linejoin="round"/>
</svg>
