<svg width="321" height="282" viewBox="0 0 321 282" fill="none" xmlns="http://www.w3.org/2000/svg">
<g opacity="0.3">
<path opacity="0.3" d="M44.3873 70.4603H12.4294V30.5969H39.6185L44.3873 34.5732V70.4603Z" fill="white" stroke="black" stroke-linejoin="round"/>
<path opacity="0.3" d="M39.6184 30.5969V34.6404H44.3872L39.6184 30.5969Z" fill="white" stroke="black" stroke-linejoin="round"/>
<path opacity="0.3" d="M30.0741 33.9485H6.21655V42.66H30.0741V33.9485Z" fill="black"/>
<path opacity="0.3" d="M15.9624 45.1519H41.6939" stroke="black" stroke-miterlimit="10"/>
<path opacity="0.3" d="M15.9624 49.9275H41.6939" stroke="black" stroke-miterlimit="10"/>
<path opacity="0.3" d="M15.9624 54.6963H41.6939" stroke="black" stroke-miterlimit="10"/>
<path opacity="0.3" d="M15.9624 59.4719H41.6939" stroke="black" stroke-miterlimit="10"/>
<path opacity="0.3" d="M15.9624 64.2407H41.6939" stroke="black" stroke-miterlimit="10"/>
<path opacity="0.3" d="M13.4973 41.4175V35.7688H12.342V35.0972H15.3444V35.7688H14.1891V41.4175H13.4973Z" fill="white"/>
<path opacity="0.3" d="M17.3863 38.7106L16.3318 41.3973H15.6602L16.9296 38.1598L15.7676 35.1306H16.4997L17.4669 37.6494L18.4543 35.1306H19.126L17.9505 38.18L19.2066 41.4174H18.4543L17.3863 38.7106Z" fill="white"/>
<path opacity="0.3" d="M20.6373 41.4175V35.7688H19.4753V35.0972H22.4844V35.7688H21.3224V41.4175H20.6373Z" fill="white"/>
</g>
<g opacity="0.3">
<path opacity="0.3" d="M304.483 158.153H272.525V118.283H299.708L304.483 122.259V158.153Z" fill="white" stroke="black" stroke-linejoin="round"/>
<path opacity="0.3" d="M299.708 118.283V122.326H304.483L299.708 118.283Z" fill="white" stroke="black" stroke-linejoin="round"/>
<path opacity="0.3" d="M290.163 121.641H266.306V130.353H290.163V121.641Z" fill="black"/>
<path opacity="0.3" d="M276.058 132.845H301.783" stroke="black" stroke-miterlimit="10"/>
<path opacity="0.3" d="M276.058 137.614H301.783" stroke="black" stroke-miterlimit="10"/>
<path opacity="0.3" d="M276.058 142.382H301.783" stroke="black" stroke-miterlimit="10"/>
<path opacity="0.3" d="M276.058 147.158H301.783" stroke="black" stroke-miterlimit="10"/>
<path opacity="0.3" d="M276.058 151.927H301.783" stroke="black" stroke-miterlimit="10"/>
<path opacity="0.3" d="M273.593 129.11V123.461H272.431V122.823H275.44V123.461H274.285V129.11H273.593Z" fill="white"/>
<path opacity="0.3" d="M277.482 126.397L276.428 129.083H275.756L277.026 125.839L275.837 122.797H276.562L277.536 125.309L278.517 122.797H279.188L278.013 125.839L279.269 129.083H278.523L277.482 126.397Z" fill="white"/>
<path opacity="0.3" d="M280.727 129.11V123.461H279.571V122.823H282.58V123.461H281.418V129.11H280.727Z" fill="white"/>
</g>
<g opacity="0.3">
<path opacity="0.3" d="M200.012 226.253H168.054V186.383H195.243L200.012 190.359V226.253Z" fill="white" stroke="black" stroke-linejoin="round"/>
<path opacity="0.3" d="M195.243 186.383V190.433H200.012L195.243 186.383Z" fill="white" stroke="black" stroke-linejoin="round"/>
<path opacity="0.3" d="M185.699 189.741H161.842V198.453H185.699V189.741Z" fill="black"/>
<path opacity="0.3" d="M171.594 200.945H197.319" stroke="black" stroke-miterlimit="10"/>
<path opacity="0.3" d="M171.594 205.714H197.319" stroke="black" stroke-miterlimit="10"/>
<path opacity="0.3" d="M171.594 210.482H197.319" stroke="black" stroke-miterlimit="10"/>
<path opacity="0.3" d="M171.594 215.258H197.319" stroke="black" stroke-miterlimit="10"/>
<path opacity="0.3" d="M171.594 220.027H197.319" stroke="black" stroke-miterlimit="10"/>
<path opacity="0.3" d="M169.123 197.21V191.562H167.967V190.924H170.976V191.562H169.814V197.21H169.123Z" fill="white"/>
<path opacity="0.3" d="M173.011 194.497L171.957 197.184H171.285L172.548 193.939L171.366 190.897H172.091L173.058 193.409L174.039 190.897H174.711L173.529 193.939L174.791 197.184H174.052L173.011 194.497Z" fill="white"/>
<path opacity="0.3" d="M176.296 197.21V191.562H175.134V190.924H178.143V191.562H176.967V197.21H176.296Z" fill="white"/>
</g>
<g opacity="0.3">
<path opacity="0.3" d="M57.6261 167.187H14.5857V113.494H51.2049L57.6261 118.847V167.187Z" fill="white" stroke="black" stroke-linejoin="round"/>
<path opacity="0.3" d="M51.2048 113.494V118.941H57.626L51.2048 113.494Z" fill="white" stroke="black" stroke-linejoin="round"/>
<path opacity="0.3" d="M38.3491 118.014H6.21655V129.748H38.3491V118.014Z" fill="black"/>
<path opacity="0.3" d="M19.3477 133.1H53.9989" stroke="black" stroke-miterlimit="10"/>
<path opacity="0.3" d="M19.3477 139.528H53.9989" stroke="black" stroke-miterlimit="10"/>
<path opacity="0.3" d="M19.3477 145.949H53.9989" stroke="black" stroke-miterlimit="10"/>
<path opacity="0.3" d="M19.3477 152.377H53.9989" stroke="black" stroke-miterlimit="10"/>
<path opacity="0.3" d="M19.3477 158.805H53.9989" stroke="black" stroke-miterlimit="10"/>
<path opacity="0.3" d="M16.6543 119.606C17.9977 119.606 18.5551 120.392 18.5551 121.675V122.689C18.5551 124.033 17.9238 124.704 16.5804 124.704H15.7677V128.063H14.8274V119.6L16.6543 119.606ZM16.5804 123.898C17.2521 123.898 17.6215 123.569 17.6215 122.763V121.635C17.6215 120.862 17.3461 120.473 16.6543 120.473H15.7677V123.898H16.5804Z" fill="white"/>
<path opacity="0.3" d="M21.3089 119.606C22.6523 119.606 23.2299 120.399 23.2299 121.709V125.974C23.2299 127.27 22.6254 128.069 21.3089 128.069H19.2939V119.606H21.3089ZM21.3089 127.209C21.9806 127.209 22.3164 126.786 22.3164 126.014V121.661C22.3164 120.882 21.9873 120.459 21.3022 120.459H20.2679V127.209H21.3089Z" fill="white"/>
<path opacity="0.3" d="M27.0046 123.549V124.402H25.0568V128.069H24.1165V119.606H27.4748V120.459H25.0568V123.549H27.0046Z" fill="white"/>
</g>
<g opacity="0.3">
<path opacity="0.3" d="M39.9478 240.634H18.7366V214.177H36.7775L39.9478 216.816V240.634Z" fill="white" stroke="black" stroke-linejoin="round"/>
<path opacity="0.3" d="M36.7773 214.177V216.863H39.9476L36.7773 214.177Z" fill="white" stroke="black" stroke-linejoin="round"/>
<path opacity="0.3" d="M30.4435 216.4H14.6123V222.183H30.4435V216.4Z" fill="black"/>
<path opacity="0.3" d="M21.0872 223.835H38.1609" stroke="black" stroke-miterlimit="10"/>
<path opacity="0.3" d="M21.0872 227.006H38.1609" stroke="black" stroke-miterlimit="10"/>
<path opacity="0.3" d="M21.0872 230.169H38.1609" stroke="black" stroke-miterlimit="10"/>
<path opacity="0.3" d="M21.0872 233.339H38.1609" stroke="black" stroke-miterlimit="10"/>
<path opacity="0.3" d="M21.0872 236.503H38.1609" stroke="black" stroke-miterlimit="10"/>
<path opacity="0.3" d="M19.7575 217.186C20.4291 217.186 20.6911 217.575 20.6911 218.207V218.704C20.6911 219.375 20.3821 219.711 19.7172 219.711H19.3074V221.357H18.844V217.186H19.7575ZM19.7172 219.275C20.0664 219.275 20.2343 219.113 20.2343 218.717V218.16C20.2343 217.784 20.0933 217.589 19.7575 217.589H19.3074V219.275H19.7172Z" fill="white"/>
<path opacity="0.3" d="M22.0479 217.186C22.7196 217.186 22.9949 217.582 22.9949 218.227V220.329C22.9949 220.967 22.6994 221.357 22.0479 221.357H21.074V217.186H22.0479ZM22.0479 220.934C22.3837 220.934 22.5449 220.725 22.5449 220.343V218.2C22.5449 217.817 22.3837 217.609 22.0412 217.609H21.5441V220.967L22.0479 220.934Z" fill="white"/>
<path opacity="0.3" d="M24.8553 219.127V219.55H23.8948V221.357H23.4314V217.186H25.0904V217.609H23.8948V219.127H24.8553Z" fill="white"/>
</g>
<g opacity="0.3">
<path opacity="0.3" d="M309.601 44.2317H288.39V17.7681H306.431L309.601 20.4077V44.2317Z" fill="white" stroke="black" stroke-linejoin="round"/>
<path opacity="0.3" d="M306.431 17.7681V20.4547H309.601L306.431 17.7681Z" fill="white" stroke="black" stroke-linejoin="round"/>
<path opacity="0.3" d="M300.097 19.998H284.266V25.7811H300.097V19.998Z" fill="black"/>
<path opacity="0.3" d="M290.734 27.4333H307.808" stroke="black" stroke-miterlimit="10"/>
<path opacity="0.3" d="M290.734 30.5969H307.808" stroke="black" stroke-miterlimit="10"/>
<path opacity="0.3" d="M290.734 33.7673H307.808" stroke="black" stroke-miterlimit="10"/>
<path opacity="0.3" d="M290.734 36.9307H307.808" stroke="black" stroke-miterlimit="10"/>
<path opacity="0.3" d="M290.734 40.1011H307.808" stroke="black" stroke-miterlimit="10"/>
<path opacity="0.3" d="M289.411 20.7839C290.083 20.7839 290.345 21.1668 290.345 21.8049V22.3019C290.345 22.9736 290.036 23.3094 289.371 23.3094H288.961V24.955H288.498V20.7839H289.411ZM289.371 22.893C289.72 22.893 289.888 22.7318 289.888 22.3288V21.8049C289.888 21.422 289.747 21.234 289.411 21.234H288.961V22.9198L289.371 22.893Z" fill="white"/>
<path opacity="0.3" d="M291.701 20.7839C292.373 20.7839 292.649 21.1735 292.649 21.8183V23.9206C292.649 24.5587 292.353 24.955 291.701 24.955H290.728V20.7839H291.701ZM291.701 24.5318C292.037 24.5318 292.198 24.3236 292.198 23.9408V21.8049C292.198 21.422 292.037 21.2138 291.695 21.2138H291.198V24.5721L291.701 24.5318Z" fill="white"/>
<path opacity="0.3" d="M294.509 22.7251V23.1482H293.549V24.955H293.085V20.7839H294.744V21.2071H293.549V22.7251H294.509Z" fill="white"/>
</g>
<path d="M271.995 7.42456H47.3496V183.005H271.995V7.42456Z" fill="#263238" stroke="#263238" stroke-miterlimit="10"/>
<path d="M279.961 0.553467H54.6372V176.55H279.961V0.553467Z" fill="#92E3A9"/>
<path d="M279.961 0.553467H54.6372V176.55H279.961V0.553467Z" fill="white" stroke="#263238" stroke-linecap="round" stroke-linejoin="round"/>
<path d="M108.458 25.4924H60.7695V55.7174H108.458V25.4924Z" fill="white" stroke="#263238" stroke-linecap="round" stroke-linejoin="round"/>
<path d="M73.8669 38.5967H94.0169" stroke="#263238" stroke-miterlimit="10"/>
<path d="M68.8293 43.634H102.077" stroke="#263238" stroke-miterlimit="10"/>
<path d="M108.458 61.4265H60.7695V91.6515H108.458V61.4265Z" fill="white" stroke="#263238" stroke-linecap="round" stroke-linejoin="round"/>
<path d="M65.7332 68.5999H82.4576" stroke="#263238" stroke-miterlimit="10"/>
<path d="M65.7332 72.603H82.4576" stroke="#263238" stroke-miterlimit="10"/>
<path d="M65.7332 76.6062H82.4576" stroke="#263238" stroke-miterlimit="10"/>
<path d="M65.7332 80.6094H82.4576" stroke="#263238" stroke-miterlimit="10"/>
<path d="M65.7332 84.6125H82.4576" stroke="#263238" stroke-miterlimit="10"/>
<path d="M86.4407 68.5999H103.165" stroke="#263238" stroke-miterlimit="10"/>
<path d="M86.4407 72.603H103.165" stroke="#263238" stroke-miterlimit="10"/>
<path d="M86.4407 76.6062H103.165" stroke="#263238" stroke-miterlimit="10"/>
<path d="M86.4407 80.6094H103.165" stroke="#263238" stroke-miterlimit="10"/>
<path d="M86.4407 84.6125H103.165" stroke="#263238" stroke-miterlimit="10"/>
<path d="M108.458 97.3608H60.7695V127.586H108.458V97.3608Z" fill="white" stroke="#263238" stroke-linecap="round" stroke-linejoin="round"/>
<path d="M65.7332 104.534H82.4576" stroke="#263238" stroke-miterlimit="10"/>
<path d="M65.7332 108.537H82.4576" stroke="#263238" stroke-miterlimit="10"/>
<path d="M65.7332 112.54H82.4576" stroke="#263238" stroke-miterlimit="10"/>
<path d="M65.7332 116.543H82.4576" stroke="#263238" stroke-miterlimit="10"/>
<path d="M65.7332 120.547H82.4576" stroke="#263238" stroke-miterlimit="10"/>
<path d="M86.4407 104.534H103.165" stroke="#263238" stroke-miterlimit="10"/>
<path d="M86.4407 108.537H103.165" stroke="#263238" stroke-miterlimit="10"/>
<path d="M86.4407 112.54H103.165" stroke="#263238" stroke-miterlimit="10"/>
<path d="M86.4407 116.543H103.165" stroke="#263238" stroke-miterlimit="10"/>
<path d="M86.4407 120.547H103.165" stroke="#263238" stroke-miterlimit="10"/>
<path d="M108.458 133.295H60.7695V163.52H108.458V133.295Z" fill="white" stroke="#263238" stroke-linecap="round" stroke-linejoin="round"/>
<path d="M65.7332 140.468H82.4576" stroke="#263238" stroke-miterlimit="10"/>
<path d="M65.7332 144.471H82.4576" stroke="#263238" stroke-miterlimit="10"/>
<path d="M65.7332 148.475H82.4576" stroke="#263238" stroke-miterlimit="10"/>
<path d="M65.7332 152.478H82.4576" stroke="#263238" stroke-miterlimit="10"/>
<path d="M65.7332 156.481H82.4576" stroke="#263238" stroke-miterlimit="10"/>
<path d="M86.4407 140.468H103.165" stroke="#263238" stroke-miterlimit="10"/>
<path d="M86.4407 144.471H103.165" stroke="#263238" stroke-miterlimit="10"/>
<path d="M86.4407 148.475H103.165" stroke="#263238" stroke-miterlimit="10"/>
<path d="M86.4407 152.478H103.165" stroke="#263238" stroke-miterlimit="10"/>
<path d="M86.4407 156.481H103.165" stroke="#263238" stroke-miterlimit="10"/>
<path d="M279.954 0.553467H115.175V176.55H279.954V0.553467Z" fill="#B8B8B8" stroke="#263238" stroke-linecap="round" stroke-linejoin="round"/>
<path d="M268.986 33.895H119.876V135.317H268.986V33.895Z" fill="white" stroke="#263238" stroke-linecap="round" stroke-linejoin="round"/>
<path d="M154.521 74.1545H236.356" stroke="#263238" stroke-miterlimit="10"/>
<path d="M143.398 83.0476H247.479" stroke="#263238" stroke-miterlimit="10"/>
<path d="M279.954 0.553467H274.131V176.55H279.954V0.553467Z" fill="#DBDBDB" stroke="#263238" stroke-miterlimit="10"/>
<path d="M279.954 55.0793H274.131V102.633H279.954V55.0793Z" fill="#878787"/>
<path d="M279.961 0.553467H54.6372V11.9852H279.961V0.553467Z" fill="#92E3A9" stroke="#263238" stroke-linecap="round" stroke-linejoin="round"/>
<path d="M214.319 2.50122H69.4541V8.94922H214.319V2.50122Z" fill="white"/>
<path d="M268.979 16.0286H257.796" stroke="#263238" stroke-miterlimit="10"/>
<path d="M268.979 19.4744H257.796" stroke="#263238" stroke-miterlimit="10"/>
<path d="M268.979 22.9131H257.796" stroke="#263238" stroke-miterlimit="10"/>
<path d="M282.419 248.452L285.139 240.674" stroke="#263238" stroke-linecap="round" stroke-linejoin="round"/>
<path d="M282.614 227.449V256.424" stroke="#263238" stroke-linecap="round" stroke-linejoin="round"/>
<path d="M278.154 242.481C278.154 242.481 274.124 238.081 270.094 238.813C266.064 239.546 264.224 244.321 264.224 247.256C264.224 250.191 268.254 259.729 268.254 259.729C268.254 259.729 271.189 256.431 277.798 251.669C284.407 246.907 284.763 242.111 278.154 242.481Z" fill="#92E3A9" stroke="#263238" stroke-linecap="round" stroke-linejoin="round"/>
<path d="M278.154 242.481C274.695 244.44 271.891 247.377 270.094 250.924" stroke="#263238" stroke-linecap="round" stroke-linejoin="round"/>
<path d="M284.736 237.316C284.736 237.316 288.095 233.695 291.393 234.307C294.69 234.918 296.222 238.854 296.215 241.272C296.208 243.69 292.857 251.548 292.857 251.548C290.468 249.072 287.843 246.836 285.018 244.872C279.585 240.929 279.289 237 284.736 237.316Z" fill="#92E3A9" stroke="#263238" stroke-linecap="round" stroke-linejoin="round"/>
<path d="M284.736 237.315C287.587 238.933 289.894 241.359 291.366 244.287" stroke="#263238" stroke-linecap="round" stroke-linejoin="round"/>
<path d="M282.03 232.506L287.087 225.111" stroke="#263238" stroke-linecap="round" stroke-linejoin="round"/>
<path d="M281.183 230.364C281.183 230.364 281.103 225.447 278.208 223.694C275.313 221.941 271.585 223.875 269.98 225.709C268.375 227.543 265.627 235.589 265.627 235.589C265.627 235.589 269.241 235.153 275.924 235.824C282.607 236.496 285.455 233.749 281.183 230.364Z" fill="#92E3A9" stroke="#263238" stroke-linecap="round" stroke-linejoin="round"/>
<path d="M281.183 230.364C277.978 229.677 274.641 229.953 271.592 231.156" stroke="#263238" stroke-linecap="round" stroke-linejoin="round"/>
<path d="M285.529 223.768C285.529 223.768 285.589 220.148 287.719 218.858C289.848 217.569 292.602 218.993 293.764 220.323C294.925 221.652 296.954 227.61 296.954 227.61C294.429 227.421 291.891 227.48 289.378 227.785C284.474 228.275 282.419 226.26 285.529 223.768Z" fill="#92E3A9" stroke="#263238" stroke-linecap="round" stroke-linejoin="round"/>
<path d="M285.529 223.768C287.888 223.262 290.344 223.466 292.588 224.352" stroke="#263238" stroke-linecap="round" stroke-linejoin="round"/>
<path d="M294.973 253.939H268.905L271.545 281.075H292.333L294.973 253.939Z" fill="white" stroke="#263238" stroke-linecap="round" stroke-linejoin="round"/>
<path d="M288.061 265.761C288.061 265.992 288.13 266.218 288.258 266.41C288.386 266.602 288.569 266.752 288.783 266.84C288.996 266.929 289.231 266.952 289.458 266.907C289.684 266.862 289.893 266.75 290.056 266.587C290.22 266.423 290.331 266.215 290.376 265.989C290.421 265.762 290.398 265.527 290.31 265.313C290.221 265.1 290.071 264.917 289.879 264.789C289.687 264.66 289.461 264.592 289.23 264.592C289.076 264.591 288.924 264.621 288.781 264.679C288.639 264.737 288.51 264.823 288.401 264.932C288.293 265.041 288.207 265.17 288.148 265.312C288.09 265.454 288.06 265.607 288.061 265.761Z" fill="#263238" stroke="#263238" stroke-linecap="round" stroke-linejoin="round"/>
<path d="M283.762 265.761C283.762 265.992 283.831 266.218 283.959 266.41C284.088 266.602 284.27 266.752 284.484 266.84C284.697 266.929 284.932 266.952 285.159 266.907C285.386 266.862 285.594 266.75 285.758 266.587C285.921 266.423 286.032 266.215 286.077 265.989C286.123 265.762 286.099 265.527 286.011 265.313C285.922 265.1 285.773 264.917 285.58 264.789C285.388 264.66 285.162 264.592 284.931 264.592C284.777 264.591 284.625 264.621 284.483 264.679C284.341 264.737 284.211 264.823 284.103 264.932C283.994 265.041 283.908 265.17 283.85 265.312C283.791 265.454 283.762 265.607 283.762 265.761Z" fill="#263238" stroke="#263238" stroke-linecap="round" stroke-linejoin="round"/>
<path d="M269.772 262.839H294.106L294.22 261.677H269.657L269.772 262.839Z" fill="#263238" stroke="#263238" stroke-linecap="round" stroke-linejoin="round"/>
<path d="M293.065 273.539L293.555 268.481H270.323L270.813 273.539H293.065Z" fill="#263238" stroke="#263238" stroke-linecap="round" stroke-linejoin="round"/>
<path d="M292.34 265.761C292.34 265.914 292.37 266.065 292.429 266.207C292.488 266.348 292.574 266.477 292.682 266.585C292.791 266.693 292.92 266.778 293.062 266.836C293.203 266.894 293.355 266.923 293.508 266.923H293.71L293.925 264.693C293.792 264.641 293.651 264.614 293.508 264.612C293.202 264.612 292.908 264.732 292.689 264.947C292.47 265.162 292.345 265.454 292.34 265.761Z" fill="#263238" stroke="#263238" stroke-linecap="round" stroke-linejoin="round"/>
<path d="M279.504 265.761C279.504 265.992 279.573 266.218 279.701 266.41C279.83 266.602 280.012 266.752 280.226 266.84C280.439 266.929 280.674 266.952 280.901 266.907C281.128 266.862 281.336 266.75 281.499 266.587C281.663 266.423 281.774 266.215 281.819 265.989C281.864 265.762 281.841 265.527 281.753 265.313C281.664 265.1 281.514 264.917 281.322 264.789C281.13 264.66 280.904 264.592 280.673 264.592C280.519 264.591 280.367 264.621 280.225 264.679C280.082 264.737 279.953 264.823 279.844 264.932C279.736 265.041 279.65 265.17 279.591 265.312C279.533 265.454 279.503 265.607 279.504 265.761Z" fill="#263238" stroke="#263238" stroke-linecap="round" stroke-linejoin="round"/>
<path d="M270.947 265.761C270.947 265.992 271.016 266.218 271.144 266.41C271.272 266.602 271.455 266.752 271.668 266.84C271.882 266.929 272.117 266.952 272.344 266.907C272.57 266.862 272.779 266.75 272.942 266.587C273.106 266.423 273.217 266.215 273.262 265.989C273.307 265.762 273.284 265.527 273.195 265.313C273.107 265.1 272.957 264.917 272.765 264.789C272.573 264.66 272.347 264.592 272.116 264.592C271.962 264.591 271.81 264.621 271.667 264.679C271.525 264.737 271.396 264.823 271.287 264.932C271.179 265.041 271.093 265.17 271.034 265.312C270.976 265.454 270.946 265.607 270.947 265.761Z" fill="#263238" stroke="#263238" stroke-linecap="round" stroke-linejoin="round"/>
<path d="M275.226 265.761C275.226 265.992 275.294 266.218 275.423 266.41C275.551 266.602 275.734 266.752 275.947 266.84C276.161 266.929 276.396 266.952 276.622 266.907C276.849 266.862 277.057 266.75 277.221 266.587C277.384 266.423 277.495 266.215 277.541 265.989C277.586 265.762 277.562 265.527 277.474 265.313C277.386 265.1 277.236 264.917 277.044 264.789C276.851 264.66 276.625 264.592 276.394 264.592C276.241 264.591 276.088 264.621 275.946 264.679C275.804 264.737 275.675 264.823 275.566 264.932C275.457 265.041 275.371 265.17 275.313 265.312C275.254 265.454 275.225 265.607 275.226 265.761Z" fill="#263238" stroke="#263238" stroke-linecap="round" stroke-linejoin="round"/>
<path d="M104.609 281.142C107.833 277.165 113.589 270.153 115.571 268.313C117.476 266.488 119.271 264.55 120.944 262.51C120.944 262.51 117.539 269.112 123.342 274.318C129.145 279.523 146.366 275.52 150.168 272.719C153.97 269.918 154.373 262.711 150.974 252.099C147.575 241.487 142.76 221.874 142.961 215.063C143.163 208.253 138.757 189.036 136.755 183.831C134.753 178.625 126.546 174.824 118.136 173.024C109.727 171.224 87.1054 180.627 87.1054 180.627L82.5045 182.427C82.5045 182.427 63.6978 192.838 58.6805 197.042C53.6631 201.247 56.0744 212.86 54.8789 224.07C53.6833 235.28 53.6766 248.297 53.6766 248.297C53.6766 248.297 42.0635 258.507 33.6542 270.113C29.6242 275.701 27.2801 279.107 25.9502 281.142H104.609Z" fill="#92E3A9" stroke="#263238" stroke-miterlimit="10"/>
<path d="M145.896 259.454C145.896 259.454 139.18 257.875 132.141 262.597C125.102 267.319 127.023 274.391 133.316 275.963C139.61 277.535 147.864 277.535 152.19 270.852C156.515 264.169 149.047 259.057 145.896 259.454Z" fill="white" stroke="#263238" stroke-miterlimit="10"/>
<path d="M147.569 259.393C143.804 258.796 139.953 259.676 136.822 261.851C131.301 265.532 132.833 271.06 137.742 272.289C142.652 273.518 149.1 273.518 152.479 268.299C155.857 263.081 150.02 259.091 147.569 259.393Z" fill="white" stroke="#263238" stroke-miterlimit="10"/>
<path d="M132.026 214.62C132.248 210.966 132.389 208.474 132.389 208.253" stroke="#263238" stroke-miterlimit="10"/>
<path d="M120.978 262.51C120.978 262.51 128.185 255.504 129.38 247.491C130.126 242.555 131.093 229.101 131.724 219.315" stroke="#263238" stroke-miterlimit="10"/>
<path d="M140.543 228.188C138.73 234.018 135.371 242.77 130.186 248.694" stroke="#263238" stroke-miterlimit="10"/>
<path d="M142.195 222.069C142.195 222.069 141.913 223.412 141.315 225.561" stroke="#263238" stroke-miterlimit="10"/>
<path d="M141.564 244.899C138.024 248.954 133.842 252.401 129.185 255.101" stroke="#263238" stroke-miterlimit="10"/>
<path d="M144.996 240.486C144.263 241.592 143.466 242.654 142.612 243.67" stroke="#263238" stroke-miterlimit="10"/>
<path d="M152.008 257.506C145.328 255.482 138.179 255.62 131.583 257.902C120.373 261.711 121.575 270.315 122.576 271.718" stroke="#263238" stroke-miterlimit="10"/>
<path d="M121.622 117.994C121.622 117.994 121.622 115.637 118.378 110.606C115.134 105.575 98.6177 107.657 93.016 113.259C87.4143 118.861 95.3736 125.94 91.8339 130.051C88.2942 134.161 76.4997 132.113 72.6645 139.487C68.8293 146.862 78.5618 150.395 80.6305 153.048C82.6992 155.701 77.0908 156.588 77.6819 159.241C78.2729 161.894 87.4076 162.19 87.4076 162.19C87.4076 162.19 81.5104 163.963 84.459 166.321C88.5224 169.393 93.5276 170.958 98.6177 170.747C104.515 170.451 103.037 158.946 102.453 150.395C101.869 141.845 109.526 132.408 118.378 133.288C127.231 134.168 136.661 144.203 135.17 148.629C133.679 153.055 137.527 147.742 145.493 142.725C153.459 137.708 149.92 127.391 148.18 125.329C146.44 123.267 140.516 122.676 139.334 118.84C138.152 115.005 135.499 111.177 130.488 111.177C125.478 111.177 126.633 117.699 121.622 117.994Z" fill="#263238" stroke="#263238" stroke-miterlimit="10"/>
<path d="M96.3676 171.016C96.3676 171.016 92.5659 172.016 90.9942 174.025C89.4225 176.033 82.9342 179.647 82.538 182.427C82.1417 185.208 84.5529 199.649 89.3419 205.452C94.1309 211.255 96.5489 211.658 96.5489 211.658C96.5489 211.658 97.9527 206.056 98.9535 205.653C99.9543 205.25 109.163 211.027 109.163 211.027C109.163 211.027 110.761 201.623 111.769 201.623C112.776 201.623 115.967 204.827 115.967 204.827C115.967 204.827 117.169 196.814 116.37 190.608C115.57 184.402 110.365 176.799 106.563 174.193C102.762 171.587 99.7259 169.216 96.3676 171.016Z" fill="white" stroke="#263238" stroke-miterlimit="10"/>
<path d="M98.3222 163.412L90.9338 181.104C90.9338 181.104 92.8347 189.345 95.3333 194.645C98.7386 201.852 107.155 205.284 107.155 205.284C107.101 201.104 108.008 196.967 109.808 193.194C111.489 189.785 113.462 186.529 115.705 183.461C115.705 183.461 102.453 170.491 98.3222 163.412Z" fill="white" stroke="#263238" stroke-miterlimit="10"/>
<path d="M100.23 170.122C100.23 170.122 103.622 189.513 108.471 195.572L113.072 186.84L100.982 167.933L100.23 170.122Z" fill="#263238" stroke="#263238" stroke-miterlimit="10"/>
<path d="M97.3484 227.677C97.3484 227.677 109.163 196.841 110.782 195.041C112.4 193.241 115.987 190.037 117.592 187.834C119.198 185.631 123.597 180.029 125.202 180.029C126.808 180.029 130.576 181.426 132.409 181.829C134.243 182.232 135.412 182.83 135.606 185.859C135.801 188.889 133.209 189.063 133.209 189.063L132.208 187.861C132.208 187.861 125.001 198.675 122.805 200.072C121.493 200.916 120.08 201.593 118.6 202.087L108.988 237.927L97.3484 227.677Z" fill="white" stroke="#263238" stroke-miterlimit="10"/>
<path d="M139.018 138.265C139.018 138.265 141.819 140.602 139.952 148.528C138.085 156.454 137.621 160.423 137.621 165.091C137.621 169.759 136.224 176.288 132.248 180.486C128.272 184.684 123.389 190.749 117.559 190.514C108.323 190.144 103.796 177.45 100.767 171.62C97.7378 165.79 97.0393 157.858 97.0393 154.593C97.0393 151.329 97.5028 143.632 101.701 137.802C105.899 131.971 117.33 129.641 122.227 130.339C127.123 131.038 133.188 131.736 139.018 138.265Z" fill="white" stroke="#263238" stroke-miterlimit="10"/>
<path d="M99.1349 159.261C99.1349 159.261 100.068 155.997 104.266 154.13C108.464 152.262 111.03 148.998 109.64 145.962C108.249 142.926 108.968 139.917 115.013 138.265C121.058 136.613 122.71 142.698 128.54 141.764C134.37 140.831 136.003 138.5 139.032 139.897C142.061 141.294 140.664 145.27 140.664 145.27C140.664 145.27 144.398 138.507 137.171 130.809C129.944 123.112 112.447 120.311 100.317 129.177C88.1867 138.043 95.1855 158.798 95.1855 158.798C95.1855 158.798 95.8706 159.725 99.1349 159.261Z" fill="#263238" stroke="#263238" stroke-miterlimit="10"/>
<path d="M128.292 163.224L127.593 176.751L122.69 174.884" stroke="#263238" stroke-miterlimit="10"/>
<path d="M124.578 181.661C124.578 181.661 119.916 182.333 117.814 179.096" stroke="#263238" stroke-miterlimit="10"/>
<path d="M119.413 163.083C119.198 164.426 118.452 165.407 117.754 165.293C117.055 165.179 116.665 164.003 116.88 162.667C117.095 161.33 117.841 160.343 118.539 160.457C119.238 160.571 119.628 161.746 119.413 163.083Z" fill="#263238"/>
<path d="M134.357 163.459C134.142 164.802 133.397 165.783 132.698 165.669C132 165.555 131.603 164.379 131.825 163.049C132.047 161.719 132.785 160.719 133.484 160.833C134.183 160.947 134.572 162.122 134.357 163.459Z" fill="#263238"/>
<path d="M113.455 156.991C113.455 156.991 118.472 152.619 122.516 156.017" stroke="#263238" stroke-width="2" stroke-miterlimit="10" stroke-linecap="round"/>
<path d="M131.093 156.017C131.093 156.017 134.491 153.109 137.406 155.856" stroke="#263238" stroke-width="2" stroke-miterlimit="10" stroke-linecap="round"/>
<path d="M125.753 159.906C125.753 159.906 118.633 158.771 107.618 160.578C107.618 160.578 106.651 168.02 111.83 171.257C117.008 174.495 122.025 171.419 123.315 169.639C125.921 166.092 125.753 159.906 125.753 159.906Z" stroke="#263238" stroke-width="2" stroke-miterlimit="10"/>
<path d="M142.095 158.885C142.095 158.885 137.003 157.804 129.132 159.503C129.132 159.503 128.46 166.623 132.141 169.712C135.821 172.802 139.435 169.867 140.362 168.167C142.189 164.802 142.095 158.885 142.095 158.885Z" stroke="#263238" stroke-width="2" stroke-miterlimit="10"/>
<path d="M125.753 159.906C125.753 159.906 126.519 157.811 129.111 159.503" stroke="#263238" stroke-width="2" stroke-miterlimit="10"/>
<path d="M96.7839 156.178L107.625 160.551" stroke="#263238" stroke-width="2" stroke-miterlimit="10"/>
<path d="M100.068 160.423C100.068 160.423 98.4363 150.865 94.0234 155.527C89.6106 160.188 93.56 164.856 95.6556 166.945C97.7512 169.034 100.357 166.945 100.357 166.945" fill="white"/>
<path d="M100.068 160.423C100.068 160.423 98.4363 150.865 94.0234 155.527C89.6106 160.188 93.56 164.856 95.6556 166.945C97.7512 169.034 100.357 166.945 100.357 166.945" stroke="#263238" stroke-miterlimit="10"/>
<path d="M82.5917 207.547C85.4658 212.88 87.4101 218.663 88.3411 224.648C89.7449 234.26 89.5434 236.066 89.5434 236.066L96.5489 227.664C96.5489 227.664 107.967 235.67 109.761 238.269C111.554 240.869 111.776 241.675 111.776 241.675C111.776 241.675 111.776 257.291 105.166 266.701C98.5572 276.111 95.3533 276.104 88.9523 276.104C82.5514 276.104 74.3369 270.093 69.9307 260.085C65.5246 250.077 61.9178 235.482 61.1185 234.051C60.3192 232.621 57.7131 224.648 57.7131 224.648" fill="#92E3A9"/>
<path d="M82.5917 207.547C85.4658 212.88 87.4101 218.663 88.3411 224.648C89.7449 234.26 89.5434 236.066 89.5434 236.066L96.5489 227.664C96.5489 227.664 107.967 235.67 109.761 238.269C111.554 240.869 111.776 241.675 111.776 241.675C111.776 241.675 111.776 257.291 105.166 266.701C98.5572 276.111 95.3533 276.104 88.9523 276.104C82.5514 276.104 74.3369 270.093 69.9307 260.085C65.5246 250.077 61.9178 235.482 61.1185 234.051C60.3192 232.621 57.7131 224.648 57.7131 224.648" stroke="#263238" stroke-miterlimit="10"/>
<path d="M79.9655 247.814C79.2334 248.673 78.6222 249.392 78.1318 249.896" stroke="#263238" stroke-miterlimit="10"/>
<path d="M89.5436 236.066C89.5436 236.066 85.8024 240.768 82.4441 244.832" stroke="#263238" stroke-miterlimit="10"/>
<path d="M90.5444 235.079C94.8986 236.336 99.071 238.153 102.957 240.486C109.761 244.516 110.345 248.895 112.36 247.297C114.375 245.698 115.96 240.687 113.959 237.893C111.957 235.099 105.751 228.49 101.351 226.475C96.9521 224.46 95.1453 225.669 93.7415 228.678C92.3377 231.687 89.1406 233.279 90.5444 235.079Z" fill="white" stroke="#263238" stroke-miterlimit="10"/>
<path d="M90.3228 251.468C90.3753 253.374 90.6641 255.267 91.1825 257.103" stroke="#263238" stroke-miterlimit="10"/>
<path d="M90.5442 235.079C90.5442 235.079 90.0673 241.796 90.168 248.049" stroke="#263238" stroke-miterlimit="10"/>
<path d="M97.3484 238.484C97.3484 238.484 98.7522 246.296 100.357 249.694" stroke="#263238" stroke-miterlimit="10"/>
<path d="M144.801 257.902C144.801 257.902 137.991 269.918 138.992 271.335C139.992 272.753 162.218 271.335 162.218 271.335L163.413 266.533C163.413 266.533 168.021 268.333 171.628 268.333C175.235 268.333 172.427 267.332 171.225 266.13C170.022 264.928 163.017 260.528 162.413 260.125C161.808 259.722 150.202 256.7 144.801 257.902Z" fill="white" stroke="#263238" stroke-miterlimit="10"/>
<path d="M159.303 256.518C159.303 256.518 162.52 255.551 163.38 257.593C164.239 259.635 163.81 268.34 163.487 270.57C163.165 272.8 161.667 272.712 161.022 270.57C160.377 268.427 158.873 256.841 158.873 256.841L159.303 256.518Z" fill="white" stroke="#263238" stroke-miterlimit="10"/>
<path d="M152.546 257.486C152.546 257.486 157.375 254.161 158.772 255.874C160.169 257.587 161.459 271.107 161.882 272.074C162.305 273.042 160.055 273.787 159.195 272.82C158.336 271.853 155.871 266.923 155.125 265.103C154.38 263.282 152.546 257.486 152.546 257.486Z" fill="white" stroke="#263238" stroke-miterlimit="10"/>
<path d="M143.001 261.133C143.001 261.133 145.688 256.196 147.938 254.806C150.188 253.416 152.64 255.981 153.835 257.916C155.031 259.85 155.978 264.888 156.522 267.353C157.066 269.818 158.537 272.605 157.704 272.927C156.871 273.25 153.52 270.462 152.553 268.965C151.585 267.467 149.228 261.67 149.228 261.67" fill="white"/>
<path d="M143.001 261.133C143.001 261.133 145.688 256.196 147.938 254.806C150.188 253.416 152.64 255.981 153.835 257.916C155.031 259.85 155.978 264.888 156.522 267.353C157.066 269.818 158.537 272.605 157.704 272.927C156.871 273.25 153.52 270.462 152.553 268.965C151.585 267.467 149.228 261.67 149.228 261.67" stroke="#263238" stroke-miterlimit="10"/>
<path d="M147.414 270.462C147.414 270.462 143.552 266.708 142.262 265.526C140.973 264.344 139.153 263.813 137.87 265.21C136.587 266.607 135.935 268.32 137.87 270.14C139.804 271.96 144.398 274.351 147.414 274.351C150.43 274.351 149.879 272.847 149.127 271.994C148.618 271.418 148.043 270.904 147.414 270.462Z" fill="white" stroke="#263238" stroke-miterlimit="10"/>
<path d="M109.19 281.075H249.937V277.051H109.19V281.075Z" fill="#B8B8B8" stroke="#263238" stroke-linecap="round" stroke-linejoin="round"/>
<path d="M109.19 281.075H158.597V277.051H109.19V281.075Z" fill="#263238" stroke="#263238" stroke-linecap="round" stroke-linejoin="round"/>
<path d="M154.615 277.038H246.001L251.281 216.259C251.353 215.591 251.283 214.915 251.074 214.277C250.865 213.638 250.523 213.051 250.07 212.555C249.617 212.059 249.064 211.665 248.447 211.399C247.83 211.133 247.163 211.002 246.492 211.013H165.59C164.163 211.04 162.796 211.589 161.747 212.556C160.697 213.522 160.038 214.839 159.894 216.259L154.615 277.038Z" fill="#263238" stroke="#263238" stroke-linecap="round" stroke-linejoin="round"/>
<path d="M156.367 277.038H247.754L253.034 216.259C253.106 215.591 253.036 214.915 252.827 214.277C252.618 213.638 252.276 213.051 251.823 212.555C251.37 212.059 250.817 211.665 250.2 211.399C249.583 211.133 248.916 211.002 248.245 211.013H167.342C165.916 211.04 164.549 211.589 163.499 212.556C162.45 213.522 161.791 214.839 161.647 216.259L156.367 277.038Z" fill="#B8B8B8" stroke="#263238" stroke-linecap="round" stroke-linejoin="round"/>
<path d="M202.672 242.111C202.83 240.56 203.55 239.12 204.698 238.065C205.845 237.009 207.34 236.41 208.899 236.382C209.632 236.369 210.361 236.513 211.035 236.803C211.709 237.093 212.313 237.524 212.808 238.066C213.303 238.607 213.677 239.249 213.905 239.946C214.133 240.644 214.21 241.382 214.131 242.111C213.973 243.663 213.253 245.102 212.106 246.158C210.958 247.214 209.464 247.813 207.905 247.841C207.171 247.854 206.443 247.71 205.769 247.42C205.094 247.13 204.49 246.699 203.995 246.157C203.5 245.615 203.126 244.974 202.898 244.277C202.67 243.579 202.593 242.841 202.672 242.111Z" fill="#263238" stroke="#263238" stroke-linecap="round" stroke-linejoin="round"/>
<path d="M319.381 281.075H4.63135" stroke="#263238" stroke-miterlimit="10"/>
</svg>
