<svg width="241" height="277" viewBox="0 0 241 277" fill="none" xmlns="http://www.w3.org/2000/svg">
<path d="M232.971 132.688L194.949 138.574C193.497 138.799 192.502 140.159 192.727 141.611L196.312 164.769C196.537 166.222 197.896 167.217 199.349 166.992L237.37 161.106C238.822 160.881 239.818 159.521 239.593 158.069L236.008 134.911C235.783 133.459 234.423 132.463 232.971 132.688Z" stroke="#263238" stroke-linecap="round" stroke-linejoin="round"/>
<path d="M193.308 145.349L236.588 138.65" stroke="#263238" stroke-linecap="round" stroke-linejoin="round"/>
<path d="M233.204 146.247L226.213 147.329L227.771 157.396L234.763 156.314L233.204 146.247Z" stroke="#263238" stroke-linecap="round" stroke-linejoin="round"/>
<path d="M229.05 148.977C230.527 147.219 232.954 148.391 232.385 153.848L234.548 154.921L234.759 156.292L227.773 157.377L227.485 155.542L230.123 154.516C230.123 154.516 227.661 150.636 229.05 148.977Z" stroke="#263238" stroke-linecap="round" stroke-linejoin="round"/>
<path d="M213.887 161.287C213.887 161.287 218.94 161.328 217.492 160.319C216.044 159.311 215.827 158.291 217.058 158.274C218.289 158.256 220.352 160.618 220.188 159.176C220.024 157.735 220.915 158.672 221.085 158.766C221.255 158.86 222.714 158.274 222.785 158.444C222.855 158.614 222.755 159.089 227.509 158.356" stroke="#263238" stroke-linecap="round" stroke-linejoin="round"/>
<path d="M196.977 149.845L218.172 146.563" stroke="#263238" stroke-linecap="round" stroke-linejoin="round"/>
<path d="M197.352 152.248L209.837 150.314" stroke="#263238" stroke-linecap="round" stroke-linejoin="round"/>
<path d="M198.008 156.486L215.423 153.79" stroke="#263238" stroke-linecap="round" stroke-linejoin="round"/>
<path d="M203.413 140.637L224.666 137.343" stroke="#263238" stroke-linecap="round" stroke-linejoin="round"/>
<path d="M1 125.79L48.5186 116.3L65.1123 195.969L14.6044 206.8L1 125.79Z" stroke="#263238" stroke-linecap="round" stroke-linejoin="round"/>
<path d="M12.6936 195.435L63.1019 186.309" stroke="#263238" stroke-linecap="round" stroke-linejoin="round"/>
<path d="M57.129 179.533L33.0562 183.976" stroke="#263238" stroke-linecap="round" stroke-linejoin="round"/>
<path d="M53.5593 175.536L46.5256 176.573" stroke="#263238" stroke-linecap="round" stroke-linejoin="round"/>
<path d="M54.6322 167.4L18.7017 174.141" stroke="#263238" stroke-linecap="round" stroke-linejoin="round"/>
<path d="M7.21313 162.799L56.3964 154.118" stroke="#263238" stroke-linecap="round" stroke-linejoin="round" stroke-dasharray="1 2"/>
<path d="M59.4736 193.39L29.5979 199.65" stroke="#263238" stroke-linecap="round" stroke-linejoin="round"/>
<path d="M58.5825 190.869L44.5386 193.39" stroke="#263238" stroke-linecap="round" stroke-linejoin="round"/>
<path d="M50.9862 148.866L26.3506 153.749" stroke="#263238" stroke-linecap="round" stroke-linejoin="round"/>
<path d="M49.0403 143.397L41.1919 144.939" stroke="#263238" stroke-linecap="round" stroke-linejoin="round"/>
<path d="M48.5772 139.599L12.6936 146.516" stroke="#263238" stroke-linecap="round" stroke-linejoin="round"/>
<path d="M45.3183 121.112L35.6294 123.117" stroke="#263238" stroke-linecap="round" stroke-linejoin="round"/>
<path d="M12.6936 128L4.33521 129.623" stroke="#263238" stroke-linecap="round" stroke-linejoin="round"/>
<path d="M7.3772 134.23C7.55151 133.636 7.85089 133.086 8.25526 132.617C8.65964 132.148 9.15966 131.77 9.72177 131.51" stroke="#263238" stroke-linecap="round" stroke-linejoin="round"/>
<path d="M11.0934 139.599C10.0555 139.476 9.0961 138.985 8.38947 138.215C7.68285 137.445 7.27586 136.447 7.24243 135.402" stroke="#263238" stroke-linecap="round" stroke-linejoin="round"/>
<path d="M14.3523 138.603C13.7573 139.138 13.0168 139.485 12.2246 139.599" stroke="#263238" stroke-linecap="round" stroke-linejoin="round"/>
<path d="M11.5037 131.112C12.2583 131.137 12.9938 131.356 13.6383 131.75C14.2829 132.143 14.8146 132.696 15.1817 133.356C15.5488 134.016 15.7388 134.76 15.7331 135.515C15.7275 136.27 15.5264 137.011 15.1495 137.665" stroke="#263238" stroke-linecap="round" stroke-linejoin="round"/>
<path d="M20.0496 132.214C19.2701 131.968 18.4964 131.686 17.7051 131.51" stroke="#263238" stroke-linecap="round" stroke-linejoin="round"/>
<path d="M26.6965 132.776C26.0341 134.353 22.3297 132.917 21.2512 132.589" stroke="#263238" stroke-linecap="round" stroke-linejoin="round"/>
<path d="M20.3545 128.592L27.2827 130.221C27.1713 130.684 27.0834 131.153 26.9955 131.616" stroke="#263238" stroke-linecap="round" stroke-linejoin="round"/>
<path d="M16.9255 130.221C17.6641 128.463 17.371 127.876 19.2115 128.304" stroke="#263238" stroke-linecap="round" stroke-linejoin="round"/>
<path d="M101.465 254.642L110.638 257.455L103.821 249.425C107.558 245.27 109.698 239.923 109.858 234.338" stroke="#263238" stroke-linecap="round" stroke-linejoin="round"/>
<path d="M90.334 258.182C93.4087 257.201 96.3102 255.743 98.9327 253.862" stroke="#263238" stroke-linecap="round" stroke-linejoin="round"/>
<path d="M54.9368 241.125C57.6389 254.143 72.0228 262.162 87.0691 259.043" stroke="#263238" stroke-linecap="round" stroke-linejoin="round"/>
<path d="M57.1289 226.448C56.5514 227.545 56.0615 228.685 55.6636 229.859" stroke="#263238" stroke-linecap="round" stroke-linejoin="round"/>
<path d="M109.419 229.824C106.723 216.806 92.3329 208.788 77.2925 211.912C70.4627 213.253 64.3076 216.917 59.8723 222.281" stroke="#263238" stroke-linecap="round" stroke-linejoin="round"/>
<path d="M93.4582 225.053C89.1267 220.335 83.2242 223.605 80.7683 228.394C76.7122 224.877 70.0125 224.016 67.75 230.012C63.9284 240.111 76.9994 246.271 83.0484 248.499C83.7341 248.757 84.2968 248.973 84.7658 249.132C85.1467 248.809 85.5922 248.399 86.1315 247.907C90.9144 243.587 100.762 233.013 93.4582 225.053Z" stroke="#263238" stroke-linecap="round" stroke-linejoin="round"/>
<path d="M129.477 32.9212L120.62 29.2344L126.628 37.8858C122.521 41.6607 119.888 46.7702 119.196 52.3049" stroke="#263238" stroke-linecap="round" stroke-linejoin="round"/>
<path d="M140.883 30.4536C137.73 31.1372 134.702 32.3079 131.909 33.9236" stroke="#263238" stroke-linecap="round" stroke-linejoin="round"/>
<path d="M174.486 50.8397C173.05 37.6105 159.505 28.2322 144.23 29.9144" stroke="#263238" stroke-linecap="round" stroke-linejoin="round"/>
<path d="M170.893 65.2353C171.563 64.1983 172.151 63.1107 172.652 61.9822" stroke="#263238" stroke-linecap="round" stroke-linejoin="round"/>
<path d="M119.196 56.8418C120.632 70.0593 134.177 79.4259 149.452 77.7671C156.378 77.0866 162.856 74.0321 167.787 69.1215" stroke="#263238" stroke-linecap="round" stroke-linejoin="round"/>
<path d="M153.265 64.9306C160.038 61.3053 162.589 52.8761 158.964 46.1036C155.338 39.331 146.909 36.7797 140.137 40.405C133.364 44.0303 130.813 52.4595 134.438 59.232C138.063 66.0046 146.492 68.5559 153.265 64.9306Z" stroke="#263238" stroke-linecap="round" stroke-linejoin="round"/>
<path d="M141.416 54.4271L145.578 58.3543L152.518 46.4028" stroke="#263238" stroke-linecap="round" stroke-linejoin="round"/>
<path opacity="0.2" d="M164.088 185.148C164.088 185.148 162.002 210.399 165.02 216.525C168.039 222.65 169.551 264.5 168.197 269.764C168.197 269.764 177.915 272.214 181.761 268.732C185.606 265.251 191.52 268.603 201.262 265.215C211.003 261.827 203.975 186.631 203.975 186.631L204.274 159.276L188.208 144.962L164.088 185.148Z" fill="black" fill-opacity="0.7"/>
<path d="M177.042 197.293C176.981 197.474 176.884 197.639 176.755 197.78C174.68 199.743 165.823 201.924 158.215 203.495C151.914 204.802 146.492 205.687 146.492 205.687C146.492 205.687 142.319 171.005 142.319 167.359C142.319 163.713 135.59 104.689 135.59 104.689L151.721 103.991L173.121 103.065C173.121 103.065 173.25 104.642 173.467 107.397C174.879 124.946 179.732 190.371 177.042 197.293Z" fill="#92E3A9"/>
<path opacity="0.2" d="M177.042 197.293L158.215 201.144L151.105 202.604C149.177 200.711 147.706 200.675 147.706 200.675L147.119 195.371L146.199 186.69L138.099 110.316C139.857 109.102 140.725 106.447 140.725 106.447L151.568 106.054L170.354 105.369L173.455 107.373C174.879 124.946 179.732 190.371 177.042 197.293Z" fill="black" fill-opacity="0.7"/>
<path d="M177.042 197.293L158.215 201.144L151.105 202.604C149.177 200.711 147.706 200.675 147.706 200.675L147.119 195.371L146.199 186.69L138.099 110.316C139.857 109.102 140.725 106.447 140.725 106.447L151.568 106.054L170.354 105.369L173.455 107.373C174.879 124.946 179.732 190.371 177.042 197.293Z" stroke="#263238" stroke-linecap="round" stroke-linejoin="round"/>
<path d="M148.702 174.809L154.985 174.797L154.991 176.761L153.245 177.382L149.218 177.822L148.702 174.809Z" fill="#92E3A9" stroke="#263238" stroke-linecap="round" stroke-linejoin="round"/>
<path d="M149.089 178.853L153.708 178.695L154.892 179.258L154.833 181.866L149.441 181.924L149.089 178.853Z" fill="#92E3A9" stroke="#263238" stroke-linecap="round" stroke-linejoin="round"/>
<path d="M149.827 183.021L155.103 182.64L155.044 184.615L152.494 185.518L149.798 185.365L149.827 183.021Z" fill="#92E3A9" stroke="#263238" stroke-linecap="round" stroke-linejoin="round"/>
<path d="M150.144 186.35L154.405 186.567L154.792 187.657L154.171 188.859L150.361 189.105L149.704 187.247L150.144 186.35Z" fill="#92E3A9" stroke="#263238" stroke-linecap="round" stroke-linejoin="round"/>
<path d="M155.056 190.166L155.642 191.871C155.735 192.053 155.784 192.254 155.784 192.458C155.784 192.662 155.735 192.863 155.642 193.044C155.533 193.168 155.394 193.263 155.238 193.318C155.082 193.374 154.914 193.388 154.751 193.36C154.423 193.331 154.1 193.22 153.772 193.202C152.782 193.161 151.873 193.976 150.9 193.788C150.519 192.733 149.558 191.186 150.859 190.711C151.099 190.635 155.196 190.553 155.056 190.166Z" fill="#92E3A9" stroke="#263238" stroke-linecap="round" stroke-linejoin="round"/>
<path d="M155.038 194.966C155.131 195.372 155.198 195.783 155.238 196.197C155.297 196.459 155.288 196.732 155.212 196.989C155.136 197.247 154.996 197.481 154.804 197.668C154.554 197.806 154.274 197.88 153.989 197.885L150.601 198.19C150.552 197.55 150.542 196.908 150.572 196.268C150.771 195.506 150.63 195.57 151.351 195.259C152.494 194.773 153.866 195.547 155.038 194.966Z" fill="#92E3A9" stroke="#263238" stroke-linecap="round" stroke-linejoin="round"/>
<path d="M142.718 112.051C142.718 112.051 143.995 124.401 144.054 126.845" stroke="#263238" stroke-linecap="round" stroke-linejoin="round"/>
<path d="M145.472 112.186L146.07 118.991" stroke="#263238" stroke-linecap="round" stroke-linejoin="round"/>
<path d="M155.021 109.612L155.794 117.59L156.879 117.695L156.527 109.689L155.021 109.612Z" fill="#92E3A9" stroke="#263238" stroke-linecap="round" stroke-linejoin="round"/>
<path opacity="0.2" d="M177.042 197.293C176.981 197.474 176.884 197.639 176.755 197.78C174.68 199.743 165.823 201.924 158.215 203.495V198.219L147.143 195.382L145.472 194.955L146.223 186.702L149.089 155.167L151.592 106.078L151.697 103.991L173.121 103.065C173.121 103.065 173.25 104.642 173.467 107.397C174.879 124.946 179.732 190.371 177.042 197.293Z" fill="black" fill-opacity="0.7"/>
<path d="M177.042 197.293C176.981 197.474 176.884 197.639 176.755 197.78C174.68 199.743 165.823 201.924 158.215 203.495C151.914 204.802 146.492 205.687 146.492 205.687C146.492 205.687 142.319 171.005 142.319 167.359C142.319 163.713 135.59 104.689 135.59 104.689L151.721 103.991L173.121 103.065C173.121 103.065 173.25 104.642 173.467 107.397C174.879 124.946 179.732 190.371 177.042 197.293Z" stroke="#263238" stroke-linecap="round" stroke-linejoin="round"/>
<path d="M188.396 275.995C188.53 274.758 186.584 257.015 186.549 255.087C186.455 249.812 184.961 242.889 184.961 242.889C182.874 237.555 181.251 225.264 175.682 217.38C170.114 209.497 170.12 200.224 169.194 192.352C168.267 184.48 168.496 185.16 168.731 178.173C168.9 172.925 168.666 167.672 168.033 162.459C167.57 157.817 166.644 149.652 168.033 145.848C169.422 142.044 173.056 141.158 177.036 144.968C181.016 148.778 182.64 164.399 182.64 166.327C182.64 168.256 182.64 174.281 184.035 176.602C184.035 176.602 191.918 172.57 191.918 171.456C191.918 170.342 191.684 160.501 192.844 159.974L188.208 144.968L197 141.844C198.655 143.329 200.085 145.047 201.244 146.944C202.236 148.514 203.067 150.182 203.723 151.92C207.433 161.761 213.395 168.625 214.625 171.456C215.856 174.287 214.625 196.772 214.625 200.951C214.625 205.13 211.929 224.397 212 227.638C212.052 229.982 213.635 238.704 215.212 245.392C215.798 247.971 219.356 266.657 219.901 268.14L188.396 275.995Z" fill="white"/>
<path opacity="0.4" d="M195.336 158.983C195.277 160.243 196.783 170.29 196.783 170.29C197.827 172.793 192.129 181.327 192.129 181.327C190.898 182.018 190.371 186.309 190.371 186.309C186.514 185.453 177.681 176.573 177.681 176.573C177.681 176.573 176.638 180.213 175.465 189.222C174.293 198.231 181.725 219.631 184.89 234.408C188.056 249.185 186.549 255.069 186.549 255.069C186.455 249.794 184.961 242.872 184.961 242.872C182.874 237.538 181.251 225.246 175.682 217.363C170.114 209.479 170.12 200.224 169.194 192.352C168.267 184.48 168.496 185.16 168.731 178.173C168.9 172.925 168.666 167.672 168.033 162.459C167.57 157.817 166.644 149.652 168.033 145.848C169.422 142.044 173.056 141.158 177.036 144.968C181.016 148.778 182.64 164.399 182.64 166.327C182.64 168.256 182.64 174.281 184.035 176.602C184.035 176.602 191.918 172.57 191.918 171.456C191.918 170.342 191.684 160.501 192.844 159.974L188.208 144.968L197 141.844C198.655 143.329 200.085 145.047 201.244 146.944C198.401 152.629 195.394 158.198 195.336 158.983Z" fill="#92E3A9"/>
<path opacity="0.4" d="M210.118 229.191C210.505 225.674 211.66 217.316 212.392 212.099C211.496 216.173 210.048 218.236 210.048 218.236C210.048 218.236 212.545 188.343 212.791 186.52C213.037 184.697 215.558 176.503 214.631 171.427C215.862 174.252 214.631 196.742 214.631 200.921C214.631 205.101 211.935 224.367 212.006 227.609C212.058 229.953 214.573 244.894 216.15 251.582C212.762 246.658 209.731 232.726 210.118 229.191Z" fill="#92E3A9"/>
<path d="M219.889 268.111C218.037 262.777 212.088 230.832 212.017 227.609C211.947 224.385 214.643 205.095 214.643 200.922C214.643 196.748 215.874 174.252 214.643 171.427C213.412 168.602 207.451 161.732 203.741 151.891C202.339 148.043 200.033 144.587 197.018 141.815L188.226 144.939L192.862 159.944C191.69 160.472 191.936 170.313 191.936 171.427C191.936 172.541 184.052 176.573 184.052 176.573C182.657 174.229 182.657 168.227 182.657 166.298C182.657 164.37 181.034 148.743 177.054 144.939C173.074 141.135 169.434 142.008 168.051 145.818C166.667 149.628 167.588 157.787 168.051 162.43C168.685 167.648 168.918 172.908 168.748 178.162C168.514 185.148 168.279 184.457 169.211 192.34C170.143 200.224 170.137 209.497 175.7 217.38C181.262 225.264 182.892 237.555 184.979 242.889C184.979 242.889 188.917 271.358 188.413 275.995" stroke="#263238" stroke-linecap="round" stroke-linejoin="round"/>
<path d="M184.035 176.573C184.035 176.573 185.424 183.062 188.554 186.309" stroke="#263238" stroke-linecap="round" stroke-linejoin="round"/>
<path d="M184.879 179.533C184.879 179.533 190.74 181.327 193.19 181.438" stroke="#263238" stroke-linecap="round" stroke-linejoin="round"/>
<path d="M191.918 171.427C191.918 171.427 196.092 169.498 198.758 170.659" stroke="#263238" stroke-linecap="round" stroke-linejoin="round"/>
<path d="M192.844 159.944C192.844 159.944 196.092 159.645 196.783 158.022" stroke="#263238" stroke-linecap="round" stroke-linejoin="round"/>
<path d="M176.755 219.033C176.755 219.033 182.991 226.776 184.844 230.715" stroke="#263238" stroke-linecap="round" stroke-linejoin="round"/>
<path d="M213.02 185.148C211.976 191.297 210.581 208.107 210.118 211.12" stroke="#263238" stroke-linecap="round" stroke-linejoin="round"/>
<path d="M215.012 173.554C215.188 179.123 213.84 182.018 213.84 182.018" stroke="#263238" stroke-linecap="round" stroke-linejoin="round"/>
<path d="M167.072 95.6384L210.048 106.974C210.048 106.974 194.943 152.817 191.877 158.502L186.754 198.465C186.754 198.465 159.299 197.258 146.674 193.442C146.674 193.442 154.657 151.826 155.085 146.275C155.513 140.725 167.072 95.6384 167.072 95.6384Z" fill="#92E3A9"/>
<path opacity="0.2" d="M157.828 143.814L167.3 103.317C167.3 103.317 171.374 101.295 172.951 99.4485L203.741 108.205C203.741 108.205 203.835 111.224 205.599 113.158L190.06 157.934L186.291 190.939C186.291 190.939 181.28 191.338 180.799 195.042C180.799 195.042 164.551 195.922 153.655 193.05C153.655 193.05 152.371 189.046 150.408 186.514L157.828 143.814Z" fill="black" fill-opacity="0.7"/>
<path d="M157.828 143.814L167.3 103.317C167.3 103.317 171.374 101.295 172.951 99.4485L203.741 108.205C203.741 108.205 203.835 111.224 205.599 113.158L190.06 157.934L186.291 190.939C186.291 190.939 181.28 191.338 180.799 195.042C180.799 195.042 164.551 195.922 153.655 193.05C153.655 193.05 152.371 189.046 150.408 186.514L157.828 143.814Z" stroke="#263238" stroke-linecap="round" stroke-linejoin="round"/>
<path d="M165.712 145.918C165.712 145.918 168.508 135.367 178.355 137.261C188.202 139.154 182.64 152.154 182.64 152.154C182.64 152.154 182.698 162.646 174.709 161.199C167.781 159.944 164.088 156.14 165.712 145.918Z" fill="#92E3A9" stroke="#263238" stroke-linecap="round" stroke-linejoin="round"/>
<path d="M171.046 107.168C171.046 107.168 168.068 119.225 167.3 121.546" stroke="#263238" stroke-linecap="round" stroke-linejoin="round"/>
<path d="M173.596 108.211L171.861 114.823" stroke="#263238" stroke-linecap="round" stroke-linejoin="round"/>
<path d="M195.336 112.848L201.262 114.934L200.611 116.792H198.759L194.814 115.866L195.336 112.848Z" fill="#92E3A9" stroke="#263238" stroke-linecap="round" stroke-linejoin="round"/>
<path d="M194.351 116.792L198.759 118.182L199.685 119.108L198.759 121.546L193.653 119.805L194.351 116.792Z" fill="#92E3A9" stroke="#263238" stroke-linecap="round" stroke-linejoin="round"/>
<path d="M193.653 120.966L198.759 122.373L198.038 124.213H195.336L192.844 123.17L193.653 120.966Z" fill="#92E3A9" stroke="#263238" stroke-linecap="round" stroke-linejoin="round"/>
<path d="M192.844 124.213L196.783 125.837V126.991L195.799 127.923L192.129 126.88V124.905L192.844 124.213Z" fill="#92E3A9" stroke="#263238" stroke-linecap="round" stroke-linejoin="round"/>
<path d="M196.203 129.447V131.253C196.233 131.451 196.217 131.655 196.155 131.846C196.093 132.037 195.987 132.212 195.845 132.355C195.7 132.434 195.537 132.476 195.371 132.476C195.205 132.476 195.041 132.434 194.896 132.355C194.597 132.214 194.31 132.003 194.028 131.88C193.108 131.511 191.977 131.974 191.098 131.481C191.098 130.362 190.705 128.586 192.088 128.551C192.317 128.568 196.203 129.858 196.203 129.447Z" fill="#92E3A9" stroke="#263238" stroke-linecap="round" stroke-linejoin="round"/>
<path d="M194.579 133.966C194.535 134.38 194.461 134.789 194.356 135.191C194.228 135.713 193.975 136.293 193.454 136.434C193.173 136.481 192.885 136.457 192.616 136.364L189.322 135.496C189.481 134.88 189.677 134.273 189.908 133.679C190.353 133.029 190.201 133.04 190.98 132.988C192.246 132.935 193.278 134.125 194.579 133.966Z" fill="#92E3A9" stroke="#263238" stroke-linecap="round" stroke-linejoin="round"/>
<path d="M183.455 109.026L181.479 116.793L182.464 117.256L184.844 109.601L183.455 109.026Z" fill="#92E3A9" stroke="#263238" stroke-linecap="round" stroke-linejoin="round"/>
<path d="M158.702 161.181L164.786 162.758L164.294 164.657L162.447 164.821L158.438 164.229L158.702 161.181Z" fill="#92E3A9" stroke="#263238" stroke-linecap="round" stroke-linejoin="round"/>
<path d="M158.057 165.196L162.564 166.204L163.572 167.048L162.857 169.557L157.623 168.256L158.057 165.196Z" fill="#92E3A9" stroke="#263238" stroke-linecap="round" stroke-linejoin="round"/>
<path d="M157.723 169.416L162.928 170.378L162.365 172.271L159.674 172.505L157.101 171.679L157.723 169.416Z" fill="#92E3A9" stroke="#263238" stroke-linecap="round" stroke-linejoin="round"/>
<path d="M157.189 172.716L161.257 174L161.357 175.154L160.454 176.163L156.709 175.436L156.539 173.472L157.189 172.716Z" fill="#92E3A9" stroke="#263238" stroke-linecap="round" stroke-linejoin="round"/>
<path d="M160.982 177.646L161.14 179.445C161.188 179.641 161.189 179.846 161.143 180.042C161.098 180.239 161.006 180.422 160.876 180.576C160.738 180.668 160.579 180.723 160.414 180.736C160.249 180.749 160.083 180.721 159.932 180.652C159.622 180.541 159.346 180.354 159.024 180.26C158.08 179.967 156.99 180.524 156.093 180.107C155.988 178.994 155.454 177.259 156.826 177.124C157.037 177.112 161.017 178.056 160.982 177.646Z" fill="#92E3A9" stroke="#263238" stroke-linecap="round" stroke-linejoin="round"/>
<path d="M159.757 182.288C159.748 182.714 159.709 183.139 159.639 183.56C159.552 184.087 159.352 184.691 158.848 184.873C158.571 184.943 158.281 184.943 158.004 184.873L154.651 184.287C154.764 183.657 154.915 183.034 155.103 182.423C155.49 181.737 155.337 181.76 156.111 181.643C157.342 181.462 158.467 182.558 159.757 182.288Z" fill="#92E3A9" stroke="#263238" stroke-linecap="round" stroke-linejoin="round"/>
<path d="M184.035 187.979C184.035 187.979 185.43 172.423 185.43 170.858" stroke="#263238" stroke-linecap="round" stroke-linejoin="round"/>
<path d="M181.25 187.282C181.25 187.282 181.837 179.193 181.942 177.786" stroke="#263238" stroke-linecap="round" stroke-linejoin="round"/>
<path d="M170.378 181.438L168.496 190.646H170.378L171.743 181.438H170.378Z" fill="#92E3A9" stroke="#263238" stroke-linecap="round" stroke-linejoin="round"/>
<path opacity="0.2" d="M191.977 158.274C187.909 157.424 184.281 156.175 181.596 154.376C181.596 154.376 183.542 159.968 190.441 169.498L186.731 198.466C186.731 198.466 168.813 197.68 155.273 195.365C159.434 183.642 166.996 161.427 166.099 157.025C164.885 150.982 169.17 143.849 169.17 143.849C182.716 141.41 195.851 131.171 204.866 122.513C200.277 136.082 194.011 154.253 191.977 158.274Z" fill="black" fill-opacity="0.7"/>
<path d="M167.072 95.6384L210.048 106.974C210.048 106.974 194.943 152.817 191.877 158.502L186.754 198.465C186.754 198.465 159.299 197.258 146.674 193.442C146.674 193.442 154.657 151.826 155.085 146.275C155.513 140.725 167.072 95.6384 167.072 95.6384Z" stroke="#263238" stroke-linecap="round" stroke-linejoin="round"/>
<path d="M190.898 186.895L184.844 230.715C183.495 227.849 179.82 222.96 177.921 220.516C177.218 219.602 176.749 219.033 176.749 219.033L175.676 217.38C170.114 209.497 170.114 200.224 169.188 192.34C168.262 184.457 168.49 185.148 168.725 178.162C168.895 172.917 168.664 167.668 168.033 162.459C167.57 157.817 166.644 149.652 168.033 145.847C168.713 143.984 169.938 142.823 171.474 142.577C173.009 142.331 174.991 143.034 177.036 144.968C181.016 148.772 182.64 164.399 182.64 166.327C182.64 168.256 182.64 174.281 184.035 176.602C184.035 176.573 187.774 183.648 190.898 186.895Z" fill="white"/>
<path opacity="0.4" d="M175.219 214.256C176.485 215.874 177.347 218.207 177.921 220.516C177.218 219.602 176.749 219.033 176.749 219.033L175.676 217.38C170.114 209.497 170.114 200.224 169.188 192.34C168.262 184.457 168.49 185.148 168.725 178.162C168.895 172.917 168.664 167.668 168.033 162.459C167.57 157.817 166.644 149.652 168.033 145.848C168.713 143.984 169.938 142.823 171.474 142.577C174.404 143.409 177.335 146.393 178.355 151.498C180.113 160.067 172.183 153.145 170.348 160.407C168.514 167.67 171.181 169.627 172.277 171.456C173.373 173.285 171.972 177.318 170.348 182.734C168.725 188.149 171.743 209.807 175.219 214.256Z" fill="#92E3A9"/>
<path d="M190.898 186.895C187.768 183.648 184.035 176.573 184.035 176.573C182.64 174.229 182.64 168.226 182.64 166.298C182.64 164.37 181.016 148.743 177.036 144.939C173.056 141.135 169.416 142.008 168.033 145.818C166.65 149.628 167.57 157.787 168.033 162.429C168.667 167.648 168.9 172.907 168.73 178.162C168.496 185.148 168.261 184.457 169.193 192.34C170.125 200.224 170.12 209.497 175.682 217.38L176.755 219.033C176.755 219.033 182.991 226.776 184.843 230.715" stroke="#263238" stroke-linecap="round" stroke-linejoin="round"/>
<path d="M170.378 168.35C170.378 168.35 175.694 165.601 178.355 165.835" stroke="#263238" stroke-linecap="round" stroke-linejoin="round"/>
<path opacity="0.2" d="M89.191 93.1827C89.191 93.1827 75.7448 78.3768 74.8187 77.4682C73.8926 76.5597 73.1951 60.769 70.6395 53.8174C68.084 46.8657 66.8472 6.04677 66.8472 6.04677C66.8472 6.04677 64.4147 3.034 57.5568 4.65761C50.699 6.28123 43.9759 3.26259 36.3268 7.67039C28.6776 12.0782 43.5129 75.1237 43.5129 75.1237L58.5709 123.111L89.191 93.1827Z" fill="black" fill-opacity="0.7"/>
<path d="M98.4287 93.294C98.4287 93.294 92.4031 131.786 86.1197 136.885C82.4915 139.816 76.8352 141.164 71.8178 140.988C68.1837 140.859 64.8779 139.945 62.9319 138.286C58.2955 134.342 51.7952 132.255 48.5597 129.705C45.3242 127.155 45.3124 118.111 43.2258 110.456C41.1391 102.801 38.1205 102.573 37.4288 94.9235C36.7372 87.2743 33.9471 63.8579 28.9063 57.3576C23.8655 50.8573 23.7483 45.7637 21.6616 39.152C19.5749 32.5403 4.31177 8.61985 4.31177 8.61985L41.5201 1C41.5201 1 45.1776 16.1401 49.0931 28.4901C50.9511 34.3515 52.8678 39.5916 54.4738 42.2762C57.5577 47.4688 60.2289 52.8955 62.463 58.5064C66.6715 62.9142 68.975 72.6794 69.6725 81.2312L79.6369 86.7878C87.2978 88.8803 98.4287 93.294 98.4287 93.294Z" fill="white"/>
<path opacity="0.4" d="M98.4286 93.2939C98.4286 93.2939 92.4031 131.786 86.1196 136.885C82.4914 139.816 76.8351 141.164 71.8177 140.988C59.919 138.058 56.7187 131.422 55.1068 129.816C52.9615 127.677 50.1422 114.641 51.6896 107.057C53.237 99.4718 52.1233 96.6642 50.8456 92.9598C48.0145 84.7538 56.6484 80.3343 57.5393 77.2277C58.4302 74.1212 58.1254 56.7479 54.2393 51.0975C52.1761 48.0906 46.8598 32.593 49.0989 28.5017C50.9569 34.3631 52.8736 39.6033 54.4796 42.2878C57.5635 47.4804 60.2347 52.9072 62.4688 58.5181C66.6773 62.9259 68.9808 72.691 69.6783 81.2428L79.6427 86.7994C87.2978 88.8803 98.4286 93.2939 98.4286 93.2939Z" fill="#92E3A9"/>
<path d="M52.9909 90.5859C52.9909 90.5859 50.8925 93.0536 49.0403 93.0536" stroke="#263238" stroke-linecap="round" stroke-linejoin="round"/>
<path d="M57.557 98.9268C57.557 98.9268 55.3003 103.721 51.6956 104.788" stroke="#263238" stroke-linecap="round" stroke-linejoin="round"/>
<path d="M53.5479 127.026C53.5479 127.026 58.6532 124.823 59.462 121.112" stroke="#263238" stroke-linecap="round" stroke-linejoin="round"/>
<path d="M79.6486 86.7937C79.6486 86.7937 78.3708 88.4173 78.3708 89.7244" stroke="#263238" stroke-linecap="round" stroke-linejoin="round"/>
<path d="M41.5435 1C41.5435 1 49.5033 33.9236 54.4973 42.2996C57.5811 47.4922 60.2524 52.919 62.4864 58.5299C66.6949 62.9377 68.9985 72.7087 69.696 81.2605L79.6604 86.8171C87.3095 88.9038 98.4169 93.3116 98.4169 93.3116C98.4169 93.3116 92.3914 131.804 86.108 136.903C79.8245 142.002 67.6152 142.213 62.926 138.275C58.2369 134.336 51.7893 132.243 48.5538 129.693C45.3183 127.144 45.3066 118.1 43.2199 110.445C41.1332 102.79 38.1146 102.561 37.423 94.9118C36.7313 87.2626 33.9413 63.8462 28.9004 57.3459C23.8596 50.8456 23.7424 45.752 21.6557 39.1403C19.5691 32.5286 4.31177 8.61985 4.31177 8.61985" stroke="#263238" stroke-linecap="round" stroke-linejoin="round"/>
<path d="M112.525 90.7969L50.9861 185.523L65.5107 187.141L109.641 188.976L114.161 104.718L112.525 90.7969Z" fill="#263238" stroke="#263238" stroke-linecap="round" stroke-linejoin="round"/>
<path d="M112.525 90.7911L106.84 187.358L50.9861 185.523L55.3939 111.529L56.7654 88.552L81.1021 89.5309L112.525 90.7911Z" fill="#757575"/>
<path d="M98.4814 176.239C102.237 176.239 105.281 173.195 105.281 169.44C105.281 165.685 102.237 162.64 98.4814 162.64C94.7263 162.64 91.6821 165.685 91.6821 169.44C91.6821 173.195 94.7263 176.239 98.4814 176.239Z" fill="#BFBFBF" stroke="#263238" stroke-miterlimit="10"/>
<path d="M96.5647 164.927L101.172 165.53" stroke="#263238" stroke-linecap="round" stroke-linejoin="round"/>
<path d="M95.3279 166.046L102.25 166.72" stroke="#263238" stroke-linecap="round" stroke-linejoin="round"/>
<path d="M94.5601 172.869L101.488 173.543" stroke="#263238" stroke-linecap="round" stroke-linejoin="round"/>
<path d="M97.5903 167.588C97.7806 167.635 97.9818 167.607 98.1521 167.51C98.3224 167.413 98.4487 167.254 98.5047 167.066L99.0205 167.119L98.4989 172.013L97.731 171.931L98.1296 168.197L97.5435 168.133L97.5903 167.588Z" fill="#263238"/>
<path d="M100.152 167.793C100.456 167.793 100.597 168.021 100.562 168.344V168.402L100.263 168.373V168.32C100.263 168.179 100.228 168.115 100.128 168.103C100.029 168.092 99.964 168.144 99.9523 168.285C99.9406 168.426 99.9875 168.549 100.175 168.748C100.27 168.829 100.345 168.931 100.393 169.046C100.441 169.161 100.461 169.286 100.451 169.41C100.415 169.733 100.24 169.897 99.9289 169.862C99.6182 169.827 99.4834 169.627 99.5127 169.311V169.188L99.8058 169.217V169.363C99.8058 169.504 99.8468 169.563 99.9465 169.574C100.046 169.586 100.116 169.539 100.128 169.399C100.14 169.258 100.093 169.135 99.9054 168.936C99.8102 168.855 99.7356 168.753 99.6876 168.638C99.6397 168.522 99.62 168.398 99.6299 168.273C99.671 167.922 99.8527 167.734 100.152 167.793Z" fill="#263238"/>
<path d="M100.703 167.875L101.676 167.974L101.641 168.262L101.312 168.226L101.131 169.938L100.82 169.909L101.002 168.191L100.674 168.156L100.703 167.875Z" fill="#263238"/>
<path d="M84.2252 95.0777L73.3217 92.6984C73.0402 92.637 72.7622 92.8153 72.7008 93.0968L71.2174 99.8944C71.156 100.176 71.3344 100.454 71.6159 100.515L82.5195 102.895C82.8009 102.956 83.0789 102.778 83.1403 102.496L84.6237 95.6986C84.6851 95.4171 84.5067 95.1392 84.2252 95.0777Z" fill="white" stroke="#263238" stroke-linecap="round" stroke-linejoin="round"/>
<path d="M76.8468 99.3078C76.8442 99.261 76.8323 99.2152 76.8117 99.173C76.8059 99.1499 76.8059 99.1258 76.8117 99.1027C76.8207 99.085 76.835 99.0706 76.8527 99.0617C77.0109 98.921 76.8175 98.7334 76.6651 98.6982C76.6124 98.6851 76.5573 98.6858 76.5049 98.7002C76.4526 98.7146 76.4048 98.7421 76.3662 98.7803L76.4893 98.3231L77.0285 98.4403L77.0871 98.159L76.2783 97.9832C76.2612 98.0225 76.2493 98.0638 76.2431 98.1062C76.2431 98.1473 76.2959 98.159 76.2959 98.2059C76.2959 98.2528 76.2959 98.2469 76.2959 98.2704C76.3065 98.3047 76.3295 98.3339 76.3603 98.3524C76.3896 98.3524 76.4189 98.4052 76.4131 98.4403C76.4171 98.4517 76.4171 98.4641 76.4131 98.4755C76.3909 98.5294 76.3518 98.5746 76.3017 98.6045C76.2786 98.6089 76.2579 98.6214 76.2431 98.6396V98.6748C76.2431 98.7158 76.1962 98.7393 76.161 98.7627C76.1259 98.7862 76.0379 98.9737 76.0028 99.1027L76.2959 99.1672V99.1085C76.3252 98.9679 76.4014 98.9327 76.4951 98.9503C76.5889 98.9679 76.6475 99.0382 76.6124 99.1789L76.5186 99.6126C76.5186 99.7474 76.4189 99.7885 76.3193 99.765C76.2197 99.7416 76.1728 99.683 76.2021 99.5423L76.2431 99.3606L75.95 99.2961L75.9149 99.4602C75.8922 99.5238 75.8833 99.5915 75.8888 99.6589C75.8944 99.7262 75.9142 99.7915 75.947 99.8505C75.9798 99.9096 76.0248 99.9609 76.0791 100.001C76.1333 100.041 76.1955 100.07 76.2615 100.084C76.3275 100.098 76.3958 100.098 76.4618 100.084C76.5278 100.07 76.5901 100.042 76.6444 100.002C76.6987 99.9614 76.7438 99.9101 76.7766 99.8511C76.8095 99.7921 76.8295 99.7268 76.8351 99.6595C76.8559 99.5435 76.8599 99.425 76.8468 99.3078Z" fill="#263238"/>
<path d="M80.6743 100.128C80.6689 100.082 80.657 100.037 80.6391 99.9936C80.6334 99.9705 80.6334 99.9463 80.6391 99.9232C80.6481 99.9056 80.6625 99.8912 80.6802 99.8822C80.8326 99.7415 80.6391 99.554 80.4926 99.5188C80.4399 99.5057 80.3847 99.5064 80.3324 99.5207C80.28 99.5351 80.2323 99.5627 80.1937 99.6009L80.3167 99.1437L80.856 99.2609L80.9146 98.9796L80.1057 98.8037C80.086 98.842 80.0741 98.8839 80.0706 98.9268C80.0706 98.9678 80.1175 98.9796 80.1233 99.0264C80.1292 99.0733 80.1233 99.0675 80.1233 99.0909C80.134 99.1253 80.157 99.1545 80.1878 99.173C80.2171 99.173 80.2464 99.2257 80.2405 99.2609C80.2347 99.2961 80.2405 99.2609 80.2405 99.2961C80.218 99.3516 80.1765 99.3974 80.1233 99.425C80.1025 99.4311 80.0841 99.4433 80.0706 99.4602C80.0706 99.4602 80.0706 99.4602 80.0706 99.4954C80.0706 99.5305 80.0295 99.5598 79.9944 99.5833C79.9592 99.6067 79.8713 99.7943 79.8361 99.9232L80.1292 99.9877V99.9291C80.1585 99.7884 80.2347 99.7533 80.3285 99.7709C80.4223 99.7884 80.475 99.8588 80.4457 99.9994L80.3519 100.433C80.3519 100.568 80.2523 100.609 80.1526 100.586C80.053 100.562 80.0061 100.504 80.0354 100.363L80.0764 100.181L79.7834 100.117L79.7482 100.281C79.7305 100.342 79.7256 100.407 79.7339 100.471C79.7422 100.534 79.7634 100.596 79.7963 100.651C79.8292 100.706 79.873 100.753 79.9251 100.791C79.9772 100.828 80.0364 100.855 80.099 100.868C80.1617 100.882 80.2265 100.883 80.2895 100.87C80.3524 100.858 80.4121 100.833 80.4649 100.796C80.5178 100.76 80.5626 100.713 80.5965 100.659C80.6305 100.604 80.653 100.544 80.6626 100.48C80.686 100.364 80.69 100.245 80.6743 100.128Z" fill="#263238"/>
<path d="M78.9568 99.6946H78.9861C78.9861 99.6653 78.9861 99.636 78.9861 99.595H79.115L79.2147 99.1436C79.2372 99.0795 79.2458 99.0113 79.24 98.9435C79.2342 98.8757 79.2141 98.81 79.181 98.7506C79.1479 98.6912 79.1026 98.6395 79.048 98.5989C78.9934 98.5583 78.9309 98.5298 78.8645 98.5151C78.798 98.5005 78.7293 98.5002 78.6627 98.5141C78.5962 98.528 78.5333 98.5559 78.4783 98.5959C78.4233 98.6359 78.3775 98.6872 78.3437 98.7462C78.31 98.8053 78.2892 98.8708 78.2827 98.9385V99.0206C78.3237 99.0557 78.3472 99.1143 78.3882 99.1436C78.4292 99.1729 78.4937 99.1436 78.4761 99.2433C78.4585 99.3429 78.441 99.3253 78.4761 99.3546C78.5113 99.384 78.5172 99.3547 78.523 99.3957C78.5302 99.4049 78.534 99.4162 78.534 99.4279C78.534 99.4396 78.5302 99.4509 78.523 99.4602C78.523 99.4602 78.482 99.4602 78.4761 99.5129C78.4703 99.5657 78.4761 99.6008 78.441 99.6126C78.4058 99.6243 78.3296 99.5422 78.2651 99.5481C78.242 99.5548 78.2211 99.5676 78.2046 99.5851C78.1882 99.6026 78.1767 99.6243 78.1713 99.6477C78.1415 99.7474 78.1199 99.8493 78.1069 99.9525C78.0855 100.015 78.078 100.08 78.0851 100.146C78.0922 100.211 78.1135 100.274 78.1477 100.33C78.1819 100.386 78.2279 100.433 78.2827 100.47C78.3374 100.506 78.3995 100.529 78.4644 100.539C78.531 100.557 78.6007 100.559 78.6686 100.547C78.7365 100.535 78.8009 100.508 78.8571 100.468C78.909 100.424 78.9527 100.37 78.9861 100.31C79.0124 100.28 79.027 100.242 79.027 100.202C79.027 100.162 79.0124 100.123 78.9861 100.093H78.9568L78.9157 99.9525C78.9157 99.9525 78.9157 99.9525 78.9568 99.9173C78.9978 99.8822 78.9568 99.806 79.0154 99.7649C79.074 99.7239 78.945 99.7063 78.9568 99.6946ZM78.7106 100.093C78.6813 100.234 78.6051 100.275 78.5054 100.251C78.4058 100.228 78.3589 100.164 78.3882 100.023L78.6227 98.9678C78.652 98.8271 78.7223 98.7861 78.822 98.8095C78.9216 98.833 78.9685 98.8975 78.9392 99.0381L78.7106 100.093Z" fill="#263238"/>
<path d="M79.4784 100.421L79.4139 100.72L79.115 100.656L79.1795 100.357L79.4784 100.421Z" fill="#263238"/>
<path d="M81.9286 99.8998C81.9638 99.8998 81.9638 99.765 81.9755 99.7181C81.998 99.6539 82.0067 99.5857 82.0008 99.518C81.995 99.4502 81.9749 99.3845 81.9418 99.3251C81.9087 99.2656 81.8634 99.2139 81.8088 99.1734C81.7543 99.1328 81.6917 99.1042 81.6253 99.0896C81.5589 99.075 81.4901 99.0746 81.4236 99.0886C81.357 99.1025 81.2941 99.1304 81.2392 99.1704C81.1842 99.2104 81.1383 99.2616 81.1046 99.3207C81.0709 99.3797 81.0501 99.4453 81.0435 99.513L80.9556 99.9057C81.0318 99.976 80.9556 100.087 80.9908 100.169C81.026 100.251 80.9908 100.169 80.9908 100.205C80.9908 100.24 80.9029 100.257 80.9029 100.304C80.9029 100.351 80.9029 100.304 80.9029 100.304C80.9029 100.304 80.856 100.375 80.8267 100.41C80.8082 100.438 80.798 100.47 80.7974 100.504C80.7749 100.568 80.7662 100.636 80.772 100.704C80.7778 100.771 80.7979 100.837 80.831 100.897C80.8641 100.956 80.9095 101.008 80.964 101.048C81.0186 101.089 81.0812 101.117 81.1476 101.132C81.214 101.147 81.2828 101.147 81.3493 101.133C81.4159 101.119 81.4787 101.091 81.5337 101.051C81.5887 101.011 81.6346 100.96 81.6683 100.901C81.702 100.842 81.7228 100.776 81.7293 100.709L81.7997 100.386C81.7997 100.304 81.9052 100.087 81.7997 100.023C81.6942 99.9584 81.7528 100.023 81.7411 99.9819C81.7339 99.9683 81.7301 99.9532 81.7301 99.9379C81.7301 99.9226 81.7339 99.9075 81.7411 99.8939C81.8114 99.8353 81.8641 99.935 81.9286 99.8998ZM81.5711 100.416C81.5711 100.451 81.5125 100.463 81.4832 100.509C81.4606 100.568 81.4468 100.629 81.4421 100.691C81.4128 100.832 81.3366 100.867 81.2428 100.849C81.149 100.832 81.0904 100.761 81.1256 100.621C81.1256 100.58 81.1784 100.463 81.1666 100.427C81.1549 100.392 81.108 100.427 81.0846 100.357C81.067 100.296 81.067 100.231 81.0846 100.169C81.0874 100.156 81.0874 100.142 81.0846 100.128C81.0846 100.128 81.0553 100.076 81.0846 100.052C81.1139 100.029 81.0846 100.052 81.0846 100.052C81.0846 100.052 81.0846 99.976 81.0846 99.9233C81.0846 99.8705 81.0846 99.9233 81.0846 99.9233C81.2721 99.9936 81.2663 99.7064 81.2956 99.5892C81.3249 99.4719 81.4011 99.4074 81.4949 99.4309C81.5887 99.4543 81.6414 99.5188 81.6121 99.6536C81.5723 99.773 81.5487 99.8972 81.5418 100.023C81.5663 100.027 81.5888 100.039 81.6058 100.057C81.6227 100.075 81.6332 100.098 81.6355 100.123C81.6297 100.154 81.6297 100.185 81.6355 100.216C81.6355 100.216 81.6355 100.269 81.6355 100.293C81.6355 100.316 81.6004 100.293 81.5769 100.293C81.5607 100.299 81.5464 100.309 81.5351 100.323C81.5239 100.336 81.5161 100.352 81.5125 100.369L81.5711 100.416Z" fill="#263238"/>
<path d="M78.6521 95.6384L80.6333 96.0722" stroke="#263238" stroke-linecap="round" stroke-linejoin="round"/>
<path d="M74.1504 94.6538L77.6672 95.4275" stroke="#263238" stroke-linecap="round" stroke-linejoin="round"/>
<path d="M73.8574 96.0137L76.1786 96.5178" stroke="#263238" stroke-linecap="round" stroke-linejoin="round"/>
<path opacity="0.4" d="M53.5476 184.668C56.6277 183.862 59.795 183.437 62.9786 183.402C68.6994 183.261 72.3569 184.345 77.0461 182.024C81.7352 179.703 84.7773 183.882 89.2613 181.561C93.7453 179.24 95.8261 175.524 98.4168 175.606C101.008 175.688 104.864 134.172 106.107 127.027C107.35 119.881 109.993 99.9643 110.902 95.9199L105.796 185.934L53.5476 184.668Z" fill="white"/>
<path d="M53.7937 166.955L68.0897 184.345L52.9907 183.408L53.7937 166.955Z" fill="#92E3A9" stroke="#263238" stroke-linecap="round" stroke-linejoin="round"/>
<path d="M91.7346 132.565L91.506 139.183C91.4743 140.106 91.2609 141.014 90.8781 141.855C90.4953 142.696 89.9506 143.453 89.2751 144.084C88.5996 144.714 87.8066 145.205 86.9413 145.529C86.076 145.853 85.1553 146.003 84.232 145.971L77.4328 145.73C76.5068 145.698 75.5963 145.484 74.7535 145.1C73.9107 144.715 73.1521 144.168 72.5214 143.489C71.8907 142.81 71.4003 142.014 71.0783 141.145C70.7564 140.276 70.6092 139.353 70.6452 138.427L70.95 129.811C71.0157 127.947 71.8189 126.185 73.1829 124.914C74.547 123.642 76.3603 122.964 78.224 123.029L85.0233 123.263C85.2109 123.263 85.3984 123.263 85.6094 123.304C84.658 124.22 84.0575 125.439 83.9122 126.751C83.767 128.064 84.0863 129.385 84.8145 130.486C85.5428 131.587 86.634 132.398 87.8983 132.778C89.1626 133.158 90.5201 133.083 91.7346 132.565Z" fill="#92E3A9" stroke="#263238" stroke-linecap="round" stroke-linejoin="round"/>
<path d="M92.9599 126.851C92.9387 127.487 92.7293 128.102 92.3581 128.62C91.987 129.137 91.4708 129.532 90.8748 129.756C90.2789 129.98 89.63 130.022 89.0103 129.877C88.3905 129.731 87.8277 129.406 87.393 128.941C86.9583 128.476 86.6713 127.892 86.5683 127.264C86.4653 126.636 86.5509 125.991 86.8143 125.412C87.0776 124.832 87.507 124.344 88.0479 124.009C88.5889 123.673 89.2172 123.506 89.8534 123.527C90.7054 123.558 91.5107 123.925 92.0929 124.548C92.6751 125.17 92.9868 125.999 92.9599 126.851Z" fill="#92E3A9" stroke="#263238" stroke-linecap="round" stroke-linejoin="round"/>
<path opacity="0.4" d="M72.5796 139.248L82.5733 130.702C82.5733 130.702 81.3073 126.124 82.5733 124.676H77.7728C76.6167 124.672 75.5028 125.11 74.6585 125.9C73.8143 126.69 73.3034 127.772 73.2302 128.926L72.5796 139.248Z" fill="white"/>
<path opacity="0.4" d="M88.382 127.027L90.5214 124.682C90.5214 124.682 89.1908 123.785 88.382 124.682C87.5731 125.579 88.382 127.027 88.382 127.027Z" fill="white"/>
<path d="M87.3386 178.085L103.452 178.783" stroke="#263238" stroke-linecap="round" stroke-linejoin="round"/>
<path d="M81.7585 179.709L103.452 180.87" stroke="#263238" stroke-linecap="round" stroke-linejoin="round"/>
<path d="M97.772 184.345H103.452" stroke="#263238" stroke-linecap="round" stroke-linejoin="round"/>
<path opacity="0.2" d="M78.0248 125.162C69.7133 129.16 60.7101 115.157 57.5567 113.229C56.7792 112.738 56.0544 112.168 55.3938 111.529L56.7654 88.552L81.0961 89.5309C80.9379 92.9539 80.9906 96.7346 81.7526 98.9091C83.3938 103.651 86.3304 121.171 78.0248 125.162Z" fill="black" fill-opacity="0.7"/>
<path opacity="0.4" d="M68.7112 125.878C68.7112 125.878 75.358 128.761 78.3708 127.05C81.3836 125.338 84.6308 122.068 85.0939 114.805C85.0939 114.805 89.0503 125.034 81.0729 128.099C73.0955 131.165 68.7112 125.878 68.7112 125.878Z" fill="white"/>
<path opacity="0.4" d="M66.1204 129.969C66.1204 129.969 79.6016 133.591 85.3693 127.038C85.3693 127.038 84.5956 130.678 78.3707 131.727C72.1459 132.777 66.1204 129.969 66.1204 129.969Z" fill="white"/>
<path opacity="0.4" d="M87.8018 106.553C86.7761 104.73 88.0363 121.112 88.0363 121.112C88.0363 121.112 89.8885 110.292 87.8018 106.553Z" fill="white"/>
<path d="M112.525 90.7911L106.84 187.358L50.9861 185.523L55.3939 111.529L56.7654 88.552L81.1021 89.5309L112.525 90.7911Z" stroke="#263238" stroke-linecap="round" stroke-linejoin="round"/>
<path opacity="0.4" d="M109.7 187.874L107.666 187.358L112.525 98.9268L113.387 104.765L109.7 187.874Z" fill="white"/>
<path d="M78.025 125.163C77.2564 125.571 76.4017 125.791 75.5314 125.804C74.6611 125.817 73.8001 125.624 73.0194 125.239C71.6682 124.53 70.578 123.409 69.907 122.038C67.5917 117.865 61.3258 108.358 60.1711 105.626C59.0164 102.895 56.4608 95.1697 53.9111 91.9283C51.3614 88.687 49.9664 83.8102 49.9664 83.8102L49.0403 36.5085C50.4294 43.3488 54.257 51.1152 54.257 51.1152C57.5823 52.8456 60.4079 55.4007 62.463 58.5358C63.0611 59.1728 63.597 59.8657 64.0631 60.6049C67.8496 66.4663 69.6842 77.0169 69.8835 85.2228C70.118 94.5015 73.1307 98.7041 78.0016 106.787C82.8724 114.87 81.1902 123.363 78.025 125.163Z" fill="white"/>
<path opacity="0.4" d="M78.0249 125.162C77.2531 125.561 76.3995 125.775 75.531 125.789C74.6625 125.802 73.8028 125.614 73.0192 125.239C75.6803 124.512 79.1737 123.146 78.3707 121.136C77.1105 117.924 73.4237 122.689 71.5715 121.136C69.7193 119.582 62.9903 110.673 67.2633 106.752C71.5363 102.83 70.194 96.2539 67.2633 94.4017C64.3326 92.5495 66.2376 88.1359 67.1637 81.1901C67.7498 76.9874 65.7393 67.4685 64.0864 60.5989C67.8729 66.4603 69.7075 77.0109 69.9068 85.2169C70.1413 94.4955 73.154 98.6981 78.0249 106.781C82.8957 114.864 81.1901 123.474 78.0249 125.162Z" fill="#92E3A9"/>
<path d="M49.0403 36.4792C50.4294 43.3195 54.257 51.0859 54.257 51.0859C57.5823 52.8163 60.4079 55.3714 62.463 58.5065C67.3338 63.6059 69.6549 75.8973 69.8835 85.1701C70.1121 94.4429 73.1307 98.6514 78.0016 106.734C82.8724 114.817 81.5184 123.246 78.0016 125.163C75.5515 126.505 72.2046 126.212 69.8835 122.038C67.5624 117.865 61.3024 108.358 60.1477 105.626C58.993 102.895 56.4374 95.1697 53.8877 91.9283C51.338 88.687 49.9429 83.8103 49.9429 83.8103" stroke="#263238" stroke-linecap="round" stroke-linejoin="round"/>
<path d="M64.0984 104.765C64.0984 104.765 67.8849 104.425 69.6199 103.006" stroke="#263238" stroke-linecap="round" stroke-linejoin="round"/>
<path d="M48.5771 84.7422C48.5771 84.7422 47.8386 86.5006 51.7071 88.259" stroke="#263238" stroke-linecap="round" stroke-linejoin="round"/>
</svg>
