<svg width="314" height="240" viewBox="0 0 314 240" fill="none" xmlns="http://www.w3.org/2000/svg">
<path d="M314 210.914H0V211.071H314V210.914Z" fill="#E0E0E0"/>
<path d="M238.219 216.704H216.616V216.861H238.219V216.704Z" fill="#E0E0E0"/>
<path d="M263.634 216.258H251.476V216.415H263.634V216.258Z" fill="#E0E0E0"/>
<path d="M155.329 216.629H139.202V216.786H155.329V216.629Z" fill="#E0E0E0"/>
<path d="M166.979 218.858H155.964V219.015H166.979V218.858Z" fill="#E0E0E0"/>
<path d="M90.8527 215.04H57.575V215.197H90.8527V215.04Z" fill="#E0E0E0"/>
<path d="M148.836 182.905H27.5755C26.6255 182.903 25.715 182.525 25.0439 181.853C24.3728 181.18 23.9958 180.269 23.9958 179.319V8.86112C24.0041 7.91662 24.3847 7.01353 25.0549 6.348C25.7252 5.68247 26.6309 5.30826 27.5755 5.30664H148.836C149.787 5.30664 150.699 5.68444 151.372 6.35692C152.044 7.0294 152.422 7.94149 152.422 8.89252V179.319C152.422 180.27 152.044 181.182 151.372 181.855C150.699 182.527 149.787 182.905 148.836 182.905ZM27.5755 5.43224C26.6671 5.4339 25.7966 5.79589 25.1549 6.43875C24.5132 7.08161 24.1528 7.95281 24.1528 8.86112V179.319C24.1528 180.227 24.5132 181.099 25.1549 181.742C25.7966 182.384 26.6671 182.746 27.5755 182.748H148.836C149.745 182.746 150.616 182.385 151.259 181.742C151.901 181.099 152.263 180.228 152.265 179.319V8.86112C152.263 7.95223 151.901 7.08105 151.259 6.43837C150.616 5.79569 149.745 5.4339 148.836 5.43224H27.5755Z" fill="#E0E0E0"/>
<path d="M284.679 182.905H163.412C162.461 182.903 161.55 182.525 160.878 181.853C160.206 181.181 159.828 180.27 159.826 179.319V8.86112C159.836 7.91605 160.218 7.01296 160.889 6.34761C161.56 5.68225 162.467 5.30824 163.412 5.30664H284.679C285.622 5.30991 286.526 5.68485 287.195 6.35021C287.864 7.01556 288.244 7.91771 288.252 8.86112V179.319C288.252 180.268 287.876 181.178 287.206 181.85C286.536 182.522 285.627 182.902 284.679 182.905ZM163.412 5.43224C162.503 5.4339 161.632 5.79569 160.989 6.43837C160.346 7.08105 159.985 7.95223 159.983 8.86112V179.319C159.985 180.228 160.346 181.099 160.989 181.742C161.632 182.385 162.503 182.746 163.412 182.748H284.679C285.587 182.746 286.459 182.385 287.101 181.742C287.744 181.099 288.106 180.228 288.107 179.319V8.86112C288.106 7.95223 287.744 7.08105 287.101 6.43837C286.459 5.79569 285.587 5.4339 284.679 5.43224H163.412Z" fill="#E0E0E0"/>
<path d="M272.571 20.5481H177.931V101.912H272.571V20.5481Z" fill="#E0E0E0"/>
<path d="M274.675 20.5481H180.035V101.912H274.675V20.5481Z" fill="#F0F0F0"/>
<path d="M270.9 98.0937V24.3665L183.809 24.3665V98.0937H270.9Z" fill="#FAFAFA"/>
<path d="M243.067 98.0937V24.3665H237.378V98.0937H243.067Z" fill="#E0E0E0"/>
<path d="M213.137 98.0937V24.3665H207.447V98.0937H213.137Z" fill="#E0E0E0"/>
<path d="M245.071 100.511V21.5215H239.381V100.511H245.071Z" fill="#F0F0F0"/>
<path d="M215.134 100.518V21.5278H209.444V100.518H215.134Z" fill="#F0F0F0"/>
<path d="M270.9 98.0873V24.3601H269.312V98.0873H270.9Z" fill="#E0E0E0"/>
<path d="M111.37 84.8051C111.37 84.8051 99.8521 64.9665 115.835 49.1472C115.835 49.1472 120.005 51.8665 119.942 55.5214C119.879 59.1764 115.47 60.0995 116.419 63.1516C117.367 66.2037 121.518 69.1867 118.793 71.7113C116.067 74.2358 119.232 76.4715 119.05 79.5613C118.868 82.651 111.37 84.8051 111.37 84.8051Z" fill="#E0E0E0"/>
<path d="M113.178 88.052C113.178 88.052 117.85 65.5821 97.7042 55.6221C97.7042 55.6221 94.6018 59.5157 95.8202 62.9634C97.0385 66.4111 101.504 65.8962 101.566 69.0927C101.629 72.2892 98.6336 76.434 102.012 77.9663C105.391 79.4986 103.099 82.6261 104.248 85.5023C105.397 88.3785 113.178 88.052 113.178 88.052Z" fill="#E6E6E6"/>
<path d="M102.923 82.3433C102.923 82.3433 103.124 101.742 110.88 101.742C118.635 101.742 118.83 82.3433 118.83 82.3433H102.923Z" fill="#F0F0F0"/>
<path d="M56.3252 94.4448C56.3252 94.4448 56.7585 101.742 73.3189 101.742C89.8792 101.742 90.3188 94.4448 90.3188 94.4448H56.3252Z" fill="#E6E6E6"/>
<path d="M230.916 138.443H222.174C221.085 138.443 220.202 139.325 220.202 140.415V154.871C220.202 155.96 221.085 156.843 222.174 156.843H230.916C232.005 156.843 232.887 155.96 232.887 154.871V140.415C232.887 139.325 232.005 138.443 230.916 138.443Z" fill="#F0F0F0"/>
<path d="M254.101 144.459H248.217C247.485 144.459 246.892 145.052 246.892 145.784V155.518C246.892 156.25 247.485 156.843 248.217 156.843H254.101C254.833 156.843 255.426 156.25 255.426 155.518V145.784C255.426 145.052 254.833 144.459 254.101 144.459Z" fill="#E6E6E6"/>
<path d="M254.98 143.259H247.338C247.091 143.259 246.892 143.459 246.892 143.705V144.208C246.892 144.454 247.091 144.653 247.338 144.653H254.98C255.227 144.653 255.426 144.454 255.426 144.208V143.705C255.426 143.459 255.227 143.259 254.98 143.259Z" fill="#F0F0F0"/>
<path d="M199.968 146.607C199.968 146.607 200.282 156.843 212.27 156.843C224.259 156.843 224.579 146.607 224.579 146.607H199.968Z" fill="#E6E6E6"/>
<path d="M170.15 133.086H188.293V129.506H170.15V133.086Z" fill="#E0E0E0"/>
<path d="M278.493 129.512H188.293V133.092H278.493V129.512Z" fill="#F0F0F0"/>
<path d="M170.15 160.423H188.293V156.843H170.15V160.423Z" fill="#E0E0E0"/>
<path d="M278.493 156.843H188.293V160.423H278.493V156.843Z" fill="#F0F0F0"/>
<path d="M176.688 133.086H173.341V210.907H176.688V133.086Z" fill="#E0E0E0"/>
<path d="M191.64 133.086H188.293V210.907H191.64V133.086Z" fill="#F0F0F0"/>
<path d="M266.887 133.086H263.54V210.907H266.887V133.086Z" fill="#E0E0E0"/>
<path d="M278.493 133.086H275.146V210.907H278.493V133.086Z" fill="#F0F0F0"/>
<path d="M56.3254 106.295H39.1685V206.204H56.3254V106.295Z" fill="#E6E6E6"/>
<path d="M127.069 206.198H42.4653V210.914H127.069V206.198Z" fill="#E6E6E6"/>
<path d="M56.3254 206.198H130.36V106.289L56.3254 106.289L56.3254 206.198Z" fill="#F0F0F0"/>
<path d="M63.07 168.448H123.615V144.044H63.07V168.448Z" fill="#E6E6E6"/>
<path d="M63.07 197.299H123.615V172.895H63.07V197.299Z" fill="#E6E6E6"/>
<path d="M100.141 146.72H86.5447C86.1022 146.718 85.6783 146.542 85.3654 146.229C85.0525 145.916 84.8759 145.492 84.8743 145.049C84.8743 144.606 85.0501 144.18 85.3632 143.866C85.6763 143.552 86.1011 143.374 86.5447 143.373H100.141C100.585 143.374 101.009 143.552 101.323 143.866C101.636 144.18 101.811 144.606 101.811 145.049C101.81 145.492 101.633 145.916 101.32 146.229C101.007 146.542 100.583 146.718 100.141 146.72Z" fill="#F0F0F0"/>
<path d="M63.07 139.592H123.615V115.188H63.07V139.592Z" fill="#E6E6E6"/>
<path d="M100.141 117.869H86.5447C86.1011 117.868 85.6763 117.69 85.3632 117.376C85.0501 117.062 84.8743 116.636 84.8743 116.193C84.8759 115.75 85.0525 115.326 85.3654 115.013C85.6783 114.7 86.1022 114.524 86.5447 114.522H100.141C100.583 114.524 101.007 114.7 101.32 115.013C101.633 115.326 101.81 115.75 101.811 116.193C101.811 116.636 101.636 117.062 101.323 117.376C101.009 117.69 100.585 117.868 100.141 117.869Z" fill="#F0F0F0"/>
<path d="M100.141 175.57H86.5447C86.1022 175.568 85.6783 175.392 85.3654 175.079C85.0525 174.766 84.8759 174.342 84.8743 173.899C84.8743 173.456 85.0501 173.03 85.3632 172.716C85.6763 172.402 86.1011 172.224 86.5447 172.223H100.141C100.585 172.224 101.009 172.402 101.323 172.716C101.636 173.03 101.811 173.456 101.811 173.899C101.81 174.342 101.633 174.766 101.32 175.079C101.007 175.392 100.583 175.568 100.141 175.57Z" fill="#F0F0F0"/>
<path d="M132.646 101.742H56.3252V106.295H132.646V101.742Z" fill="#E6E6E6"/>
<path d="M36.7693 106.289H56.3252V101.736H36.7693V106.289Z" fill="#E0E0E0"/>
<path d="M75.448 24.3665H47.6904V54.8496H75.448V24.3665Z" fill="#E6E6E6"/>
<path d="M78.456 24.3665H49.7815V54.8496H78.456V24.3665Z" fill="#F0F0F0"/>
<path d="M76.0508 52.4443V26.7654H52.1805V52.4443H76.0508Z" fill="#FAFAFA"/>
<path d="M70.2668 46.2207V32.9888H57.9706V46.2207H70.2668Z" fill="#F0F0F0"/>
<path d="M104.713 15.3672H83.6621V37.9815H104.713V15.3672Z" fill="#E6E6E6"/>
<path d="M106.948 15.3672H85.678V37.9815H106.948V15.3672Z" fill="#F0F0F0"/>
<path d="M105.165 36.1979V17.1506H87.4615V36.1979H105.165Z" fill="#FAFAFA"/>
<path d="M96.3101 21.8545L91.4683 30.2446H101.152L96.3101 21.8545Z" fill="#F0F0F0"/>
<path d="M157 239.274C224.248 239.274 278.763 236.092 278.763 232.165C278.763 228.239 224.248 225.056 157 225.056C89.7522 225.056 35.2371 228.239 35.2371 232.165C35.2371 236.092 89.7522 239.274 157 239.274Z" fill="#F5F5F5"/>
<path d="M263.634 62.3416H202.028C198.778 62.3416 196.143 64.9761 196.143 68.2259V84.9809C196.143 88.2308 198.778 90.8653 202.028 90.8653H263.634C266.884 90.8653 269.519 88.2308 269.519 84.9809V68.2259C269.519 64.9761 266.884 62.3416 263.634 62.3416Z" fill="#407BFF"/>
<path d="M251.414 67.1521H203.29C202.721 67.1521 202.26 67.6132 202.26 68.182V69.3124C202.26 69.8812 202.721 70.3423 203.29 70.3423H251.414C251.982 70.3423 252.443 69.8812 252.443 69.3124V68.182C252.443 67.6132 251.982 67.1521 251.414 67.1521Z" fill="#407BFF"/>
<path d="M236.172 74.8389H203.29C202.721 74.8389 202.26 75.3 202.26 75.8688V76.9992C202.26 77.568 202.721 78.0291 203.29 78.0291H236.172C236.741 78.0291 237.202 77.568 237.202 76.9992V75.8688C237.202 75.3 236.741 74.8389 236.172 74.8389Z" fill="#407BFF"/>
<path d="M227.355 82.5254H203.29C202.721 82.5254 202.26 82.9865 202.26 83.5553V84.6857C202.26 85.2545 202.721 85.7156 203.29 85.7156H227.355C227.924 85.7156 228.385 85.2545 228.385 84.6857V83.5553C228.385 82.9865 227.924 82.5254 227.355 82.5254Z" fill="#407BFF"/>
<path d="M257.179 82.5254H233.114C232.545 82.5254 232.084 82.9865 232.084 83.5553V84.6857C232.084 85.2545 232.545 85.7156 233.114 85.7156H257.179C257.747 85.7156 258.209 85.2545 258.209 84.6857V83.5553C258.209 82.9865 257.747 82.5254 257.179 82.5254Z" fill="#407BFF"/>
<g opacity="0.5">
<path opacity="0.5" d="M251.414 67.1521H203.29C202.721 67.1521 202.26 67.6132 202.26 68.182V69.3124C202.26 69.8812 202.721 70.3423 203.29 70.3423H251.414C251.982 70.3423 252.443 69.8812 252.443 69.3124V68.182C252.443 67.6132 251.982 67.1521 251.414 67.1521Z" fill="white"/>
<path opacity="0.5" d="M236.172 74.8389H203.29C202.721 74.8389 202.26 75.3 202.26 75.8688V76.9992C202.26 77.568 202.721 78.0291 203.29 78.0291H236.172C236.741 78.0291 237.202 77.568 237.202 76.9992V75.8688C237.202 75.3 236.741 74.8389 236.172 74.8389Z" fill="white"/>
<path opacity="0.5" d="M227.355 82.5254H203.29C202.721 82.5254 202.26 82.9865 202.26 83.5553V84.6857C202.26 85.2545 202.721 85.7156 203.29 85.7156H227.355C227.924 85.7156 228.385 85.2545 228.385 84.6857V83.5553C228.385 82.9865 227.924 82.5254 227.355 82.5254Z" fill="white"/>
<path opacity="0.5" d="M257.179 82.5254H233.114C232.545 82.5254 232.084 82.9865 232.084 83.5553V84.6857C232.084 85.2545 232.545 85.7156 233.114 85.7156H257.179C257.747 85.7156 258.209 85.2545 258.209 84.6857V83.5553C258.209 82.9865 257.747 82.5254 257.179 82.5254Z" fill="white"/>
</g>
<path d="M214.286 55.6912H144.358C139.593 55.6912 135.73 59.5544 135.73 64.3199V88.8872C135.73 93.6528 139.593 97.516 144.358 97.516H214.286C219.052 97.516 222.915 93.6528 222.915 88.8872V64.3199C222.915 59.5544 219.052 55.6912 214.286 55.6912Z" fill="#407BFF"/>
<path d="M216.761 62.7434H146.211C145.375 62.7434 144.698 63.421 144.698 64.2569V65.9085C144.698 66.7444 145.375 67.422 146.211 67.422H216.761C217.596 67.422 218.274 66.7444 218.274 65.9085V64.2569C218.274 63.421 217.596 62.7434 216.761 62.7434Z" fill="#407BFF"/>
<path d="M194.41 74.0161H146.211C145.375 74.0161 144.698 74.6937 144.698 75.5296V77.1812C144.698 78.0171 145.375 78.6947 146.211 78.6947H194.41C195.246 78.6947 195.923 78.0171 195.923 77.1812V75.5296C195.923 74.6937 195.246 74.0161 194.41 74.0161Z" fill="#407BFF"/>
<path d="M181.486 85.2888H146.211C145.375 85.2888 144.698 85.9664 144.698 86.8023V88.4539C144.698 89.2898 145.375 89.9674 146.211 89.9674H181.486C182.322 89.9674 182.999 89.2898 182.999 88.4539V86.8023C182.999 85.9664 182.322 85.2888 181.486 85.2888Z" fill="#407BFF"/>
<path d="M219.329 85.2888H189.939C189.103 85.2888 188.425 85.9664 188.425 86.8023V88.4539C188.425 89.2898 189.103 89.9674 189.939 89.9674H219.329C220.165 89.9674 220.842 89.2898 220.842 88.4539V86.8023C220.842 85.9664 220.165 85.2888 219.329 85.2888Z" fill="#407BFF"/>
<g opacity="0.5">
<path opacity="0.5" d="M216.761 62.7434H146.211C145.375 62.7434 144.698 63.421 144.698 64.2569V65.9085C144.698 66.7444 145.375 67.422 146.211 67.422H216.761C217.596 67.422 218.274 66.7444 218.274 65.9085V64.2569C218.274 63.421 217.596 62.7434 216.761 62.7434Z" fill="white"/>
<path opacity="0.5" d="M194.41 74.0161H146.211C145.375 74.0161 144.698 74.6937 144.698 75.5296V77.1812C144.698 78.0171 145.375 78.6947 146.211 78.6947H194.41C195.246 78.6947 195.923 78.0171 195.923 77.1812V75.5296C195.923 74.6937 195.246 74.0161 194.41 74.0161Z" fill="white"/>
<path opacity="0.5" d="M181.486 85.2888H146.211C145.375 85.2888 144.698 85.9664 144.698 86.8023V88.4539C144.698 89.2898 145.375 89.9674 146.211 89.9674H181.486C182.322 89.9674 182.999 89.2898 182.999 88.4539V86.8023C182.999 85.9664 182.322 85.2888 181.486 85.2888Z" fill="white"/>
<path opacity="0.5" d="M219.329 85.2888H189.939C189.103 85.2888 188.425 85.9664 188.425 86.8023V88.4539C188.425 89.2898 189.103 89.9674 189.939 89.9674H219.329C220.165 89.9674 220.842 89.2898 220.842 88.4539V86.8023C220.842 85.9664 220.165 85.2888 219.329 85.2888Z" fill="white"/>
</g>
<path d="M170.81 105.096H137.13C134.903 105.096 133.098 106.901 133.098 109.127V159.581C133.098 161.808 134.903 163.613 137.13 163.613H170.81C173.036 163.613 174.842 161.808 174.842 159.581V109.127C174.842 106.901 173.036 105.096 170.81 105.096Z" fill="#407BFF"/>
<path opacity="0.4" d="M170.81 105.096H137.13C134.903 105.096 133.098 106.901 133.098 109.127V159.581C133.098 161.808 134.903 163.613 137.13 163.613H170.81C173.036 163.613 174.842 161.808 174.842 159.581V109.127C174.842 106.901 173.036 105.096 170.81 105.096Z" fill="black"/>
<path d="M169.265 111.2H138.669C138.26 111.2 137.928 111.532 137.928 111.941V113.053C137.928 113.462 138.26 113.794 138.669 113.794H169.265C169.674 113.794 170.006 113.462 170.006 113.053V111.941C170.006 111.532 169.674 111.2 169.265 111.2Z" fill="#FAFAFA"/>
<path d="M159.525 117.442H138.669C138.26 117.442 137.928 117.774 137.928 118.183V119.295C137.928 119.704 138.26 120.036 138.669 120.036H159.525C159.934 120.036 160.266 119.704 160.266 119.295V118.183C160.266 117.774 159.934 117.442 159.525 117.442Z" fill="#FAFAFA"/>
<path d="M169.265 123.691H138.669C138.26 123.691 137.928 124.023 137.928 124.432V125.544C137.928 125.953 138.26 126.285 138.669 126.285H169.265C169.674 126.285 170.006 125.953 170.006 125.544V124.432C170.006 124.023 169.674 123.691 169.265 123.691Z" fill="#FAFAFA"/>
<path d="M150.042 129.933H138.669C138.26 129.933 137.928 130.265 137.928 130.674V131.786C137.928 132.195 138.26 132.527 138.669 132.527H150.042C150.451 132.527 150.783 132.195 150.783 131.786V130.674C150.783 130.265 150.451 129.933 150.042 129.933Z" fill="#FAFAFA"/>
<path d="M165.955 129.933H154.582C154.173 129.933 153.841 130.265 153.841 130.674V131.786C153.841 132.195 154.173 132.527 154.582 132.527H165.955C166.364 132.527 166.696 132.195 166.696 131.786V130.674C166.696 130.265 166.364 129.933 165.955 129.933Z" fill="#FAFAFA"/>
<path d="M169.265 136.182H138.669C138.26 136.182 137.928 136.514 137.928 136.923V138.034C137.928 138.444 138.26 138.776 138.669 138.776H169.265C169.674 138.776 170.006 138.444 170.006 138.034V136.923C170.006 136.514 169.674 136.182 169.265 136.182Z" fill="#FAFAFA"/>
<path d="M169.265 142.424H138.669C138.26 142.424 137.928 142.756 137.928 143.165V144.277C137.928 144.686 138.26 145.018 138.669 145.018H169.265C169.674 145.018 170.006 144.686 170.006 144.277V143.165C170.006 142.756 169.674 142.424 169.265 142.424Z" fill="#FAFAFA"/>
<path d="M163.839 148.673H138.669C138.26 148.673 137.928 149.005 137.928 149.414V150.525C137.928 150.935 138.26 151.266 138.669 151.266H163.839C164.248 151.266 164.58 150.935 164.58 150.525V149.414C164.58 149.005 164.248 148.673 163.839 148.673Z" fill="#FAFAFA"/>
<path d="M150.412 154.915H138.669C138.26 154.915 137.928 155.247 137.928 155.656V156.768C137.928 157.177 138.26 157.509 138.669 157.509H150.412C150.822 157.509 151.153 157.177 151.153 156.768V155.656C151.153 155.247 150.822 154.915 150.412 154.915Z" fill="#FAFAFA"/>
<path d="M179.922 104.738H133.205L153.86 121.173L185.53 133.105V110.333C185.527 108.848 184.934 107.425 183.883 106.376C182.832 105.327 181.407 104.738 179.922 104.738Z" fill="#407BFF"/>
<path opacity="0.4" d="M179.922 104.738H133.205L153.86 121.173L185.53 133.105V110.333C185.527 108.848 184.934 107.425 183.883 106.376C182.832 105.327 181.407 104.738 179.922 104.738Z" fill="black"/>
<path d="M177.881 113.203H143.699C143.186 113.203 142.77 113.619 142.77 114.133V115.866C142.77 116.379 143.186 116.796 143.699 116.796H177.881C178.394 116.796 178.81 116.379 178.81 115.866V114.133C178.81 113.619 178.394 113.203 177.881 113.203Z" fill="#FAFAFA"/>
<path d="M260.714 149.225V116.368C260.714 113.85 258.673 111.809 256.155 111.809H199.101C196.583 111.809 194.542 113.85 194.542 116.368V149.225C194.542 151.743 196.583 153.785 199.101 153.785H256.155C258.673 153.785 260.714 151.743 260.714 149.225Z" fill="#407BFF"/>
<path d="M271.133 138.813V105.956C271.133 103.438 269.092 101.397 266.574 101.397H209.52C207.002 101.397 204.96 103.438 204.96 105.956V138.813C204.96 141.331 207.002 143.372 209.52 143.372H266.574C269.092 143.372 271.133 141.331 271.133 138.813Z" fill="#407BFF"/>
<path opacity="0.5" d="M271.133 138.813V105.956C271.133 103.438 269.092 101.397 266.574 101.397H209.52C207.002 101.397 204.96 103.438 204.96 105.956V138.813C204.96 141.331 207.002 143.372 209.52 143.372H266.574C269.092 143.372 271.133 141.331 271.133 138.813Z" fill="white"/>
<path d="M265.343 127.553V107.325C265.343 106.205 264.434 105.297 263.314 105.297H244.669C243.548 105.297 242.64 106.205 242.64 107.325V127.553C242.64 128.673 243.548 129.582 244.669 129.582H263.314C264.434 129.582 265.343 128.673 265.343 127.553Z" fill="#407BFF"/>
<path opacity="0.7" d="M265.343 127.553V107.325C265.343 106.205 264.434 105.297 263.314 105.297H244.669C243.548 105.297 242.64 106.205 242.64 107.325V127.553C242.64 128.673 243.548 129.582 244.669 129.582H263.314C264.434 129.582 265.343 128.673 265.343 127.553Z" fill="white"/>
<path d="M239.086 137.337V121.838C239.086 120.978 238.389 120.281 237.528 120.281H223.241C222.381 120.281 221.684 120.978 221.684 121.838V137.337C221.684 138.197 222.381 138.895 223.241 138.895H237.528C238.389 138.895 239.086 138.197 239.086 137.337Z" fill="#407BFF"/>
<path opacity="0.3" d="M239.086 137.337V121.838C239.086 120.978 238.389 120.281 237.528 120.281H223.241C222.381 120.281 221.684 120.978 221.684 121.838V137.337C221.684 138.197 222.381 138.895 223.241 138.895H237.528C238.389 138.895 239.086 138.197 239.086 137.337Z" fill="white"/>
<path d="M230.382 39.0679V30.6967C230.382 28.137 228.307 26.062 225.747 26.062L72.4335 26.062C69.8739 26.062 67.7989 28.137 67.7989 30.6967V39.0679C67.7989 41.6275 69.8739 43.7025 72.4335 43.7025L225.747 43.7025C228.307 43.7025 230.382 41.6275 230.382 39.0679Z" fill="#407BFF"/>
<path opacity="0.5" d="M230.382 39.0679V30.6967C230.382 28.137 228.307 26.062 225.747 26.062L72.4335 26.062C69.8739 26.062 67.7989 28.137 67.7989 30.6967V39.0679C67.7989 41.6275 69.8739 43.7025 72.4335 43.7025L225.747 43.7025C228.307 43.7025 230.382 41.6275 230.382 39.0679Z" fill="white"/>
<path d="M201.375 46.6541V40.5813H157.258V46.6541H201.375Z" fill="#407BFF"/>
<path opacity="0.5" d="M201.375 46.6541V40.5813H157.258V46.6541H201.375Z" fill="white"/>
<path d="M246.201 13.0059V4.63464C246.201 2.075 244.126 0 241.567 0L88.2529 0C85.6932 0 83.6183 2.075 83.6183 4.63464V13.0059C83.6183 15.5655 85.6932 17.6405 88.2529 17.6405L241.567 17.6405C244.126 17.6405 246.201 15.5655 246.201 13.0059Z" fill="#407BFF"/>
<path d="M81.8659 92.762C81.3133 94.018 80.7041 95.3745 80.1703 96.6995C79.6365 98.0246 79.0839 99.3874 78.6003 100.744C77.6081 103.388 76.8126 106.102 76.2202 108.864L76.0381 109.869L75.9753 110.246C75.9753 110.352 75.9753 110.49 75.9376 110.616C75.9137 111.227 75.9263 111.84 75.9753 112.45C76.0946 113.775 76.3081 115.194 76.6033 116.613C77.1308 119.458 77.8027 122.391 78.4873 125.28L75.2656 126.536C73.7638 123.798 72.4849 120.944 71.4411 118.001C70.8912 116.47 70.4464 114.902 70.1097 113.31C69.9211 112.429 69.8035 111.535 69.7581 110.635C69.7581 110.384 69.7581 110.145 69.7581 109.875C69.7581 109.605 69.7581 109.304 69.802 109.128L69.9276 107.872C70.1153 106.254 70.4026 104.65 70.788 103.067C71.1397 101.497 71.5918 99.9714 72.044 98.4642C72.4961 96.957 73.0613 95.4749 73.6579 94.018C73.9531 93.2895 74.2859 92.5673 74.5748 91.8451C74.8637 91.1229 75.2028 90.4321 75.6047 89.6597L81.8659 92.762Z" fill="#E4897B"/>
<path d="M78.3177 124.432L80.7669 126.825L75.4226 129.337C75.4226 129.337 74.1289 127.069 75.027 125.022L78.3177 124.432Z" fill="#E4897B"/>
<path d="M82.7452 130.385L78.2298 132.232L75.429 129.312L80.767 126.825L82.7452 130.385Z" fill="#E4897B"/>
<path opacity="0.4" d="M174.213 127.811C165.328 126.813 156.937 123.203 150.103 117.438C143.269 111.672 138.297 104.01 135.817 95.4193C133.337 86.8287 133.459 77.6956 136.169 69.1746C138.878 60.6536 144.053 53.1273 151.04 47.5471C158.026 41.9669 166.51 38.5833 175.42 37.8242C184.329 37.065 193.263 38.9644 201.093 43.2821C208.923 47.5999 215.297 54.1421 219.409 62.0818C223.521 70.0216 225.187 79.0023 224.196 87.8886C223.537 93.7927 221.722 99.5091 218.853 104.711C215.985 109.913 212.119 114.499 207.477 118.207C202.835 121.914 197.508 124.671 191.801 126.319C186.093 127.966 180.117 128.473 174.213 127.811Z" fill="#FAFAFA"/>
<path opacity="0.4" d="M207.108 47.2506L138.342 102.194C138.053 101.566 137.771 100.938 137.507 100.31C135.783 96.2097 134.68 91.8749 134.235 87.4489L193.631 39.991C198.508 41.6176 203.067 44.0735 207.108 47.2506Z" fill="#FAFAFA"/>
<path opacity="0.4" d="M222.978 71.3219L158.325 122.975C152.183 119.773 146.86 115.2 142.77 109.611L213.363 53.2041C217.913 58.4271 221.203 64.6259 222.978 71.3219Z" fill="#FAFAFA"/>
<path d="M128.357 65.5945L127.76 65.3936C128.794 62.3446 130.092 59.3922 131.641 56.5702L132.188 56.8716C130.659 59.6621 129.377 62.5808 128.357 65.5945ZM135.981 50.937L135.472 50.5665C140.633 43.5881 147.388 37.9446 155.172 34.1066L155.455 34.6718C147.759 38.4702 141.082 44.0533 135.981 50.9558V50.937ZM204.803 35.5322C202.751 34.4314 200.628 33.4685 198.448 32.6496L198.674 32.0593C200.875 32.8974 203.019 33.8792 205.092 34.9984L204.803 35.5322Z" fill="#407BFF"/>
<path opacity="0.3" d="M128.357 65.5945L127.76 65.3936C128.794 62.3446 130.092 59.3922 131.641 56.5702L132.188 56.8716C130.659 59.6621 129.377 62.5808 128.357 65.5945ZM135.981 50.937L135.472 50.5665C140.633 43.5881 147.388 37.9446 155.172 34.1066L155.455 34.6718C147.759 38.4702 141.082 44.0533 135.981 50.9558V50.937ZM204.803 35.5322C202.751 34.4314 200.628 33.4685 198.448 32.6496L198.674 32.0593C200.875 32.8974 203.019 33.8792 205.092 34.9984L204.803 35.5322Z" fill="black"/>
<path d="M225.998 59.7793C220.183 47.7187 209.95 38.3584 197.42 33.6388C184.89 28.9192 171.025 29.2023 158.698 34.4294C146.371 39.6564 136.529 49.4266 131.211 61.7144C125.893 74.0023 125.507 87.8653 130.134 100.43C125.939 101.899 121.794 103.475 117.675 105.102C111.734 107.459 105.847 109.921 100.015 112.487C94.1874 115.068 88.3847 117.7 82.6385 120.45C79.756 121.801 76.9111 123.226 74.0412 124.608C72.5482 125.249 71.1955 126.177 70.0596 127.34C69.445 127.983 68.9037 128.693 68.4457 129.456C67.8868 130.358 67.4636 131.338 67.1897 132.364C66.7171 134.212 66.9215 136.168 67.7658 137.878C68.6101 139.589 70.0386 140.94 71.7929 141.689C72.7671 142.098 73.795 142.364 74.845 142.481C75.7318 142.581 76.6272 142.581 77.514 142.481C79.1256 142.285 80.6832 141.775 82.0984 140.98C84.9432 139.542 87.8069 138.154 90.6329 136.678C96.2849 133.795 101.937 130.787 107.52 127.735C113.103 124.683 118.692 121.487 124.143 118.208C127.911 115.929 131.717 113.599 135.447 111.162C142.61 122.47 153.849 130.589 166.835 133.837C179.822 137.084 193.559 135.211 205.202 128.605C216.844 121.999 225.499 111.168 229.373 98.3545C233.247 85.5413 232.043 71.7289 226.011 59.7793H225.998ZM197.449 119.772C190.151 123.374 181.949 124.732 173.879 123.673C165.809 122.614 158.235 119.185 152.114 113.822C145.992 108.458 141.599 101.4 139.489 93.539C137.379 85.6785 137.647 77.3688 140.259 69.6606C142.872 61.9524 147.711 55.1919 154.166 50.234C160.62 45.276 168.4 42.3433 176.521 41.8066C184.642 41.2699 192.74 43.1533 199.791 47.2187C206.841 51.2841 212.528 57.3489 216.132 64.6463C218.526 69.4925 219.941 74.7628 220.298 80.1561C220.654 85.5494 219.945 90.9601 218.21 96.0792C216.475 101.198 213.748 105.925 210.186 109.991C206.624 114.056 202.296 117.38 197.449 119.772Z" fill="#407BFF"/>
<path opacity="0.3" d="M225.998 59.7793C220.183 47.7187 209.95 38.3584 197.42 33.6388C184.89 28.9192 171.025 29.2023 158.698 34.4294C146.371 39.6564 136.529 49.4266 131.211 61.7144C125.893 74.0023 125.507 87.8653 130.134 100.43C125.939 101.899 121.794 103.475 117.675 105.102C111.734 107.459 105.847 109.921 100.015 112.487C94.1874 115.068 88.3847 117.7 82.6385 120.45C79.756 121.801 76.9111 123.226 74.0412 124.608C72.5482 125.249 71.1955 126.177 70.0596 127.34C69.445 127.983 68.9037 128.693 68.4457 129.456C67.8868 130.358 67.4636 131.338 67.1897 132.364C66.7171 134.212 66.9215 136.168 67.7658 137.878C68.6101 139.589 70.0386 140.94 71.7929 141.689C72.7671 142.098 73.795 142.364 74.845 142.481C75.7318 142.581 76.6272 142.581 77.514 142.481C79.1256 142.285 80.6832 141.775 82.0984 140.98C84.9432 139.542 87.8069 138.154 90.6329 136.678C96.2849 133.795 101.937 130.787 107.52 127.735C113.103 124.683 118.692 121.487 124.143 118.208C127.911 115.929 131.717 113.599 135.447 111.162C142.61 122.47 153.849 130.589 166.835 133.837C179.822 137.084 193.559 135.211 205.202 128.605C216.844 121.999 225.499 111.168 229.373 98.3545C233.247 85.5413 232.043 71.7289 226.011 59.7793H225.998ZM197.449 119.772C190.151 123.374 181.949 124.732 173.879 123.673C165.809 122.614 158.235 119.185 152.114 113.822C145.992 108.458 141.599 101.4 139.489 93.539C137.379 85.6785 137.647 77.3688 140.259 69.6606C142.872 61.9524 147.711 55.1919 154.166 50.234C160.62 45.276 168.4 42.3433 176.521 41.8066C184.642 41.2699 192.74 43.1533 199.791 47.2187C206.841 51.2841 212.528 57.3489 216.132 64.6463C218.526 69.4925 219.941 74.7628 220.298 80.1561C220.654 85.5494 219.945 90.9601 218.21 96.0792C216.475 101.198 213.748 105.925 210.186 109.991C206.624 114.056 202.296 117.38 197.449 119.772Z" fill="black"/>
<path d="M99.2239 70.336C99.2239 70.7065 99.4186 71.008 99.6635 71.008C99.9084 71.008 100.103 70.7065 100.103 70.336C100.103 69.9655 99.9084 69.6641 99.6635 69.6641C99.4186 69.6641 99.2239 69.9906 99.2239 70.336Z" fill="#263238"/>
<path d="M99.3997 71.0081C99.8442 72.1454 100.442 73.2167 101.177 74.192C100.923 74.3738 100.632 74.4977 100.325 74.5552C100.018 74.6127 99.7022 74.6023 99.3997 74.5249V71.0081Z" fill="#DE5753"/>
<path d="M97.9239 68.2699C97.8889 68.2699 97.8543 68.262 97.8228 68.2468C97.7912 68.2316 97.7635 68.2094 97.7418 68.182C97.709 68.134 97.696 68.0754 97.7053 68.0181C97.7147 67.9608 97.7457 67.9093 97.792 67.8743C98.0686 67.6645 98.3918 67.5247 98.734 67.4668C99.0762 67.4088 99.4274 67.4344 99.7576 67.5414C99.7873 67.5495 99.8149 67.5637 99.8388 67.5831C99.8626 67.6026 99.8821 67.6268 99.8959 67.6542C99.9098 67.6816 99.9178 67.7116 99.9194 67.7423C99.9209 67.773 99.916 67.8037 99.905 67.8324C99.894 67.8611 99.877 67.8871 99.8553 67.9089C99.8336 67.9306 99.8075 67.9476 99.7789 67.9586C99.7502 67.9697 99.7195 67.9746 99.6888 67.973C99.6581 67.9715 99.6281 67.9635 99.6006 67.9496C99.3383 67.8692 99.0606 67.8529 98.7906 67.902C98.5207 67.9512 98.2666 68.0644 98.0495 68.2322C98.0123 68.2569 97.9685 68.27 97.9239 68.2699Z" fill="#263238"/>
<path d="M86.5383 73.1306C87.1663 76.503 87.8571 82.6888 85.4958 84.9433C85.4958 84.9433 86.419 88.3659 92.6927 88.3659C99.6007 88.3659 95.9834 84.9433 95.9834 84.9433C92.2154 84.039 92.3222 81.2507 92.9753 78.6256L86.5383 73.1306Z" fill="#E4897B"/>
<path d="M82.6762 86.7206C83.4235 85.5588 82.1675 82.7391 82.1675 82.7391C82.1675 82.7391 93.2705 79.9445 97.811 84.2337C98.753 85.1192 97.7105 86.4255 97.7105 86.4255L82.6762 86.7206Z" fill="#407BFF"/>
<path opacity="0.1" d="M82.6762 86.7206C83.4235 85.5588 82.1675 82.7391 82.1675 82.7391C82.1675 82.7391 93.2705 79.9445 97.811 84.2337C98.753 85.1192 97.7105 86.4255 97.7105 86.4255L82.6762 86.7206Z" fill="black"/>
<path d="M64.307 214.851C63.7229 214.851 62.7872 213.878 62.5109 213.514C62.499 213.496 62.4927 213.475 62.4927 213.454C62.4927 213.433 62.499 213.412 62.5109 213.394C62.521 213.377 62.5357 213.362 62.5534 213.352C62.5711 213.342 62.5911 213.337 62.6114 213.338C62.6805 213.338 64.2191 213.476 64.6398 214.022C64.6856 214.08 64.7183 214.147 64.7356 214.219C64.7529 214.29 64.7545 214.365 64.7403 214.437C64.7348 214.53 64.7005 214.62 64.642 214.693C64.5835 214.766 64.5037 214.819 64.4137 214.845L64.307 214.851ZM62.85 213.595C63.3085 214.123 64.0432 214.72 64.3572 214.644C64.3572 214.644 64.4828 214.613 64.5205 214.412C64.5288 214.37 64.5274 214.327 64.5165 214.285C64.5056 214.244 64.4855 214.206 64.4577 214.173C63.9925 213.821 63.4327 213.615 62.85 213.583V213.595Z" fill="#407BFF"/>
<path d="M62.9192 213.583C62.8065 213.594 62.6929 213.594 62.5801 213.583C62.5603 213.581 62.5413 213.574 62.5257 213.562C62.51 213.549 62.4984 213.533 62.4922 213.514C62.4834 213.496 62.4788 213.477 62.4788 213.457C62.4788 213.438 62.4834 213.418 62.4922 213.401C62.5362 213.363 63.4593 212.402 64.1564 212.402C64.2398 212.4 64.3227 212.416 64.3995 212.449C64.4764 212.481 64.5455 212.53 64.6023 212.591C64.6648 212.643 64.7076 212.715 64.7236 212.795C64.7396 212.875 64.7278 212.958 64.6902 213.03C64.5081 213.382 63.5472 213.583 62.9192 213.583ZM62.8376 213.363C63.4656 213.363 64.3762 213.168 64.5269 212.892C64.5269 212.892 64.5709 212.81 64.4704 212.71C64.4338 212.67 64.389 212.639 64.3391 212.618C64.2892 212.598 64.2354 212.588 64.1815 212.591C63.6667 212.709 63.1988 212.978 62.8376 213.363Z" fill="#407BFF"/>
<path d="M105.749 229.107C105.273 229.104 104.798 229.06 104.329 228.975C104.306 228.971 104.285 228.958 104.27 228.94C104.255 228.921 104.247 228.898 104.248 228.875C104.244 228.853 104.247 228.831 104.256 228.811C104.265 228.79 104.28 228.773 104.298 228.762C104.367 228.724 105.975 227.801 106.747 228.014C106.819 228.03 106.886 228.061 106.946 228.104C107.005 228.147 107.055 228.202 107.093 228.265C107.142 228.335 107.168 228.419 107.168 228.504C107.168 228.589 107.142 228.673 107.093 228.743C106.911 229.025 106.339 229.107 105.749 229.107ZM104.687 228.812C105.541 228.937 106.71 228.931 106.923 228.63C106.954 228.592 106.98 228.523 106.923 228.391C106.875 228.313 106.798 228.256 106.71 228.234C106.22 228.108 105.246 228.523 104.687 228.812Z" fill="#407BFF"/>
<path d="M104.355 228.981C104.334 228.987 104.312 228.987 104.292 228.981C104.274 228.97 104.261 228.954 104.253 228.935C104.245 228.916 104.243 228.895 104.248 228.875C104.29 228.221 104.541 227.598 104.964 227.097C105.049 227.024 105.149 226.969 105.258 226.938C105.366 226.906 105.48 226.899 105.592 226.915C105.893 226.915 105.981 227.097 106 227.217C106.082 227.738 104.983 228.736 104.424 228.988L104.355 228.981ZM105.479 227.097C105.341 227.096 105.207 227.145 105.102 227.236C104.747 227.632 104.527 228.131 104.474 228.661C105.039 228.316 105.793 227.537 105.73 227.223C105.73 227.223 105.73 227.116 105.516 227.097H105.479Z" fill="#407BFF"/>
<path d="M99.2803 228.868H103.896L104.355 218.186H99.7387L99.2803 228.868Z" fill="#E4897B"/>
<path d="M58.1777 210.531L62.0337 213.055L70.5493 205.865L66.6871 203.334L58.1777 210.531Z" fill="#E4897B"/>
<path d="M62.668 212.817L58.6614 209.532C58.5906 209.474 58.5018 209.442 58.4102 209.442C58.3186 209.442 58.2298 209.474 58.159 209.532L54.8557 212.126C54.7759 212.189 54.7115 212.27 54.6672 212.362C54.6229 212.454 54.5999 212.554 54.5999 212.656C54.5999 212.758 54.6229 212.859 54.6672 212.951C54.7115 213.043 54.7759 213.124 54.8557 213.187C56.275 214.311 57.0223 214.788 58.787 216.233C59.8734 217.118 62.555 219.831 64.0685 221.056C65.5819 222.281 66.9698 220.962 66.4674 220.327C64.2129 217.47 63.3274 215.027 63.0699 213.514C63.0254 213.24 62.8825 212.992 62.668 212.817Z" fill="#263238"/>
<path d="M103.865 228.334H98.8407C98.7491 228.335 98.6603 228.366 98.5885 228.423C98.5167 228.48 98.4662 228.559 98.4451 228.648L97.5345 232.749C97.5116 232.849 97.5116 232.952 97.5346 233.051C97.5575 233.151 97.6028 233.244 97.6669 233.323C97.7311 233.402 97.8124 233.466 97.9048 233.509C97.9972 233.552 98.0982 233.574 98.2002 233.572C100.015 233.541 102.64 233.434 104.926 233.434C107.595 233.434 109.906 233.578 113.034 233.578C114.918 233.578 115.458 231.663 114.66 231.493C111.055 230.702 108.104 230.62 104.989 228.692C104.655 228.471 104.265 228.347 103.865 228.334Z" fill="#263238"/>
<path d="M76.4023 86.3187C72.402 88.2027 70.1223 100.826 70.1223 100.826L79.9003 104.725C81.3315 101.231 82.4885 97.6296 83.3606 93.9552C84.7045 88.1399 80.4969 84.3719 76.4023 86.3187Z" fill="#263238"/>
<path d="M81.5896 93.4339C79.1718 95.8831 78.0666 100.681 77.583 103.802L79.9254 104.738C81.316 101.342 82.4496 97.8471 83.3166 94.2817C83.1094 92.9503 82.5944 92.4165 81.5896 93.4339Z" fill="#203048"/>
<path d="M103.08 86.2307C103.08 86.2307 107.991 91.7822 103.356 126.109H78.682C78.5124 122.341 80.8925 103.846 77.2375 85.9983C79.9644 85.4696 82.7231 85.1213 85.4957 84.9558C88.9885 84.7484 92.4906 84.7484 95.9833 84.9558C98.3782 85.1968 100.751 85.6231 103.08 86.2307Z" fill="#263238"/>
<path d="M105.334 99.5568L101.177 92.3914C100.375 95.7346 100.047 99.1743 100.204 102.609C100.317 105.071 102.571 114.189 104.6 115.521C105.138 110.217 105.383 104.888 105.334 99.5568Z" fill="#203048"/>
<path d="M105.912 91.1355C106.54 94.1876 107.168 97.315 107.84 100.38C108.512 103.444 109.209 106.521 110.019 109.492C110.226 110.227 110.421 110.98 110.647 111.684L110.817 112.224L110.898 112.494V112.462C110.854 112.406 110.804 112.4 110.842 112.462C111.1 112.744 111.43 112.951 111.796 113.059C112.39 113.28 113.001 113.45 113.624 113.568C116.593 114.038 119.599 114.234 122.604 114.152L123.201 117.568C122.359 117.838 121.574 118.033 120.745 118.227C119.916 118.422 119.1 118.585 118.265 118.711C116.537 118.999 114.785 119.116 113.033 119.063C112.06 119.036 111.092 118.91 110.145 118.686C108.94 118.422 107.808 117.897 106.829 117.147C106.189 116.631 105.662 115.99 105.278 115.263C105.177 115.075 105.089 114.861 105.008 114.679L104.895 114.384L104.662 113.756C104.342 112.959 104.078 112.173 103.789 111.388C102.728 108.248 101.843 105.077 101.064 101.912C100.285 98.7469 99.6131 95.588 99.0542 92.3413L105.912 91.1355Z" fill="#E4897B"/>
<path d="M96.9192 89.5968C95.6192 93.8107 100.888 106.377 100.888 106.377L111.382 103.739C111.382 103.739 110.98 97.2082 108.587 92.0272C104.983 84.2148 98.4766 84.5414 96.9192 89.5968Z" fill="#263238"/>
<path d="M122.516 114.152L127.741 114.02L125.229 119.458C125.229 119.458 123.101 119.741 121.355 116.871L119.515 114.673L121.631 114.252C121.922 114.191 122.219 114.157 122.516 114.152Z" fill="#E4897B"/>
<path d="M131.038 115.031L128.049 119.54L125.229 119.458L127.741 114.02L131.038 115.031Z" fill="#E4897B"/>
<path d="M104.355 218.186L104.116 223.694H99.5002L99.7389 218.186H104.355Z" fill="#CE6F64"/>
<path d="M66.6871 203.334L70.5493 205.865L66.1533 209.57L62.2974 207.045L66.6871 203.334Z" fill="#CE6F64"/>
<path d="M86.8271 69.5383C87.1035 74.1039 87.0344 76.798 89.3391 79.1405C92.8057 82.6761 98.4514 80.5849 99.5441 76.0005C100.53 71.8933 99.9147 65.1109 95.4433 63.2897C94.4567 62.8915 93.3851 62.7505 92.3291 62.8799C91.273 63.0092 90.2672 63.4048 89.4059 64.0294C88.5446 64.6541 87.8561 65.4872 87.405 66.4508C86.954 67.4144 86.7551 68.4768 86.8271 69.5383Z" fill="#E4897B"/>
<path d="M81.4513 68.7345C82.588 72.8982 85.2633 77.6961 88.7236 78.0038C93.0191 78.3806 94.9596 73.9406 95.5248 69.3562C98.0996 67.5916 96.7494 65.651 99.3305 65.4061C102.646 65.0921 101.585 59.0256 97.2204 58.0522C97.2204 58.0522 98.6837 60.784 95.6127 59.4024C92.6923 58.0145 89.4477 57.452 86.2304 57.7759C86.2304 57.7759 90.1491 59.7353 86.3183 60.6082C82.4875 61.4811 81.3446 63.8424 83.1093 65.268C83.1093 65.2742 80.704 65.9964 81.4513 68.7345Z" fill="#263238"/>
<path d="M92.9061 70.2983C92.9905 71.4332 93.4475 72.5084 94.2061 73.3567C95.2109 74.4682 96.2596 73.7774 96.4355 72.4272C96.5988 71.2152 96.2659 69.1742 95.035 68.5587C93.8042 67.9433 92.8245 68.9293 92.9061 70.2983Z" fill="#E4897B"/>
<path d="M94.6018 126.109C94.6018 126.109 99.0983 158.671 95.5564 171.72C89.9421 192.382 68.477 209.821 68.477 209.821L61.1985 205.048C61.1985 205.048 79.4796 190.322 81.7152 173.02C83.7248 157.49 78.682 138.706 78.682 126.103L94.6018 126.109Z" fill="#407BFF"/>
<path opacity="0.1" d="M94.6018 126.109C94.6018 126.109 99.0983 158.671 95.5564 171.72C89.9421 192.382 68.477 209.821 68.477 209.821L61.1985 205.048C61.1985 205.048 79.4796 190.322 81.7152 173.02C83.7248 157.49 78.682 138.706 78.682 126.103L94.6018 126.109Z" fill="black"/>
<path d="M96.4608 144.723C95.2637 143.351 93.9459 142.09 92.5232 140.955C93.2894 151.524 93.9174 167.18 93.2203 178.302C94.1575 176.17 94.9383 173.972 95.5564 171.727C97.2834 165.352 97.1013 154.344 96.4608 144.723Z" fill="#407BFF"/>
<path opacity="0.3" d="M96.4608 144.723C95.2637 143.351 93.9459 142.09 92.5232 140.955C93.2894 151.524 93.9174 167.18 93.2203 178.302C94.1575 176.17 94.9383 173.972 95.5564 171.727C97.2834 165.352 97.1013 154.344 96.4608 144.723Z" fill="black"/>
<path d="M71.4098 208.195C71.4412 208.195 68.5901 210.079 68.5901 210.079L60.6396 204.866L63.1516 202.788L71.4098 208.195Z" fill="#407BFF"/>
<path opacity="0.3" d="M71.4098 208.195C71.4412 208.195 68.5901 210.079 68.5901 210.079L60.6396 204.866L63.1516 202.788L71.4098 208.195Z" fill="black"/>
<path d="M103.356 126.109C103.356 126.109 110.302 155.562 110.792 169.635C111.344 185.411 105.837 222.626 105.837 222.626H98.0183C98.0183 222.626 97.0574 185.122 96.712 170.753C96.3289 155.085 87.135 126.109 87.135 126.109H103.356Z" fill="#407BFF"/>
<path opacity="0.1" d="M103.356 126.109C103.356 126.109 110.302 155.562 110.792 169.635C111.344 185.411 105.837 222.626 105.837 222.626H98.0183C98.0183 222.626 97.0574 185.122 96.712 170.753C96.3289 155.085 87.135 126.109 87.135 126.109H103.356Z" fill="black"/>
<path d="M107.338 219.517C107.375 219.517 106.898 222.758 106.898 222.758H97.3901L97.1326 219.863L107.338 219.517Z" fill="#407BFF"/>
<path opacity="0.3" d="M107.338 219.517C107.375 219.517 106.898 222.758 106.898 222.758H97.3901L97.1326 219.863L107.338 219.517Z" fill="black"/>
<path d="M223.568 97.8047C224.102 98.3071 224.522 98.7341 224.962 99.2114C225.402 99.6887 225.816 100.153 226.218 100.637C227.034 101.598 227.801 102.609 228.542 103.626C230.022 105.667 231.338 107.822 232.479 110.07L232.711 110.528C232.825 110.75 232.92 110.981 232.994 111.219C233.146 111.678 233.239 112.155 233.27 112.638C233.311 113.49 233.194 114.341 232.925 115.15C232.466 116.494 231.785 117.75 230.909 118.868C229.331 120.894 227.47 122.684 225.383 124.181L223.819 122.385C224.554 121.524 225.32 120.601 226.004 119.678C226.701 118.783 227.331 117.839 227.888 116.852C228.41 115.991 228.795 115.055 229.031 114.076C229.113 113.726 229.128 113.364 229.075 113.009C229.053 112.889 229.015 112.773 228.962 112.663C228.939 112.615 228.912 112.569 228.881 112.525L228.68 112.186C227.469 110.211 226.154 108.301 224.742 106.465C224.045 105.542 223.298 104.656 222.544 103.783C222.174 103.344 221.791 102.917 221.407 102.49C221.024 102.063 220.61 101.635 220.277 101.303L223.568 97.8047Z" fill="#E4897B"/>
<path d="M224.422 121.857L219.731 121.091L222.186 125.198C222.186 125.198 225.207 125.091 226.067 123.314L224.422 121.857Z" fill="#E4897B"/>
<path d="M216.264 122.988L218.5 126.322L222.186 125.198L219.731 121.091L216.264 122.988Z" fill="#E4897B"/>
<path d="M224.196 229.051C223.877 229.078 223.559 228.991 223.298 228.806C223.219 228.731 223.161 228.638 223.129 228.534C223.097 228.431 223.093 228.321 223.116 228.215C223.12 228.148 223.143 228.083 223.182 228.028C223.221 227.972 223.274 227.929 223.336 227.901C223.882 227.656 225.314 228.573 225.477 228.68C225.496 228.691 225.51 228.709 225.518 228.729C225.526 228.75 225.527 228.772 225.521 228.793C225.519 228.815 225.509 228.835 225.495 228.851C225.48 228.866 225.461 228.877 225.439 228.881C225.033 228.984 224.615 229.041 224.196 229.051ZM223.568 228.077C223.522 228.07 223.476 228.07 223.43 228.077C223.402 228.09 223.379 228.11 223.362 228.136C223.345 228.161 223.336 228.191 223.336 228.222C223.319 228.292 223.321 228.365 223.34 228.434C223.36 228.503 223.397 228.566 223.449 228.617C223.687 228.831 224.303 228.862 225.125 228.699C224.654 228.387 224.124 228.176 223.568 228.077Z" fill="#407BFF"/>
<path d="M225.452 228.875H225.395C224.949 228.617 224.089 227.619 224.196 227.072C224.216 226.986 224.264 226.909 224.332 226.852C224.4 226.796 224.484 226.763 224.573 226.758C224.657 226.746 224.744 226.753 224.826 226.779C224.907 226.805 224.982 226.85 225.044 226.909C225.559 227.361 225.565 228.718 225.565 228.793C225.564 228.812 225.558 228.831 225.548 228.847C225.538 228.863 225.525 228.877 225.508 228.887L225.452 228.875ZM224.648 226.991H224.598C224.46 226.991 224.428 227.066 224.416 227.122C224.353 227.443 224.887 228.209 225.333 228.567C225.344 228.04 225.192 227.523 224.899 227.085C224.862 227.05 224.817 227.023 224.768 227.007C224.719 226.991 224.668 226.985 224.617 226.991H224.648Z" fill="#407BFF"/>
<path d="M202.794 229.05C202.393 229.089 201.991 228.987 201.657 228.762C201.582 228.695 201.524 228.611 201.487 228.517C201.451 228.423 201.438 228.322 201.45 228.222C201.454 228.16 201.473 228.101 201.506 228.05C201.539 227.998 201.584 227.956 201.638 227.926C202.222 227.6 204.094 228.554 204.307 228.674C204.327 228.686 204.342 228.704 204.352 228.725C204.362 228.746 204.366 228.77 204.364 228.793C204.36 228.815 204.35 228.835 204.334 228.851C204.318 228.867 204.298 228.877 204.276 228.881C203.788 228.984 203.292 229.041 202.794 229.05ZM201.958 228.077C201.887 228.072 201.815 228.087 201.751 228.121C201.729 228.132 201.71 228.149 201.696 228.17C201.683 228.191 201.676 228.215 201.676 228.24C201.666 228.306 201.673 228.372 201.695 228.435C201.716 228.497 201.753 228.553 201.801 228.598C202.09 228.856 202.863 228.9 203.905 228.724C203.297 228.4 202.639 228.181 201.958 228.077Z" fill="#407BFF"/>
<path d="M204.257 228.875H204.207C203.648 228.623 202.536 227.619 202.624 227.072C202.624 226.947 202.737 226.79 203.045 226.758C203.157 226.746 203.271 226.757 203.379 226.791C203.487 226.824 203.587 226.879 203.673 226.953C204.263 227.443 204.376 228.711 204.376 228.768C204.379 228.787 204.376 228.806 204.368 228.824C204.36 228.842 204.348 228.857 204.332 228.868C204.308 228.878 204.282 228.881 204.257 228.875ZM203.133 226.991H203.064C202.863 226.991 202.85 227.091 202.844 227.116C202.794 227.436 203.547 228.234 204.1 228.579C204.045 228.043 203.826 227.536 203.472 227.129C203.377 227.047 203.258 226.999 203.133 226.991Z" fill="#407BFF"/>
<path d="M211.68 83.3669C211.498 86.2055 211.008 91.9705 213.187 93.5657C213.187 93.5657 212.791 96.4733 207.648 97.1515C201.996 97.8863 204.577 94.6961 204.577 94.6961C207.573 93.5531 207.19 91.2735 206.373 89.1885L211.68 83.3669Z" fill="#E4897B"/>
<path d="M199.98 78.3493C199.949 78.3493 199.918 78.3426 199.89 78.3296C199.862 78.3166 199.837 78.2976 199.817 78.2739C199.637 78.0609 199.41 77.8931 199.154 77.784C198.898 77.6749 198.619 77.6276 198.341 77.6459C198.312 77.6513 198.282 77.6506 198.253 77.6439C198.223 77.6372 198.196 77.6247 198.172 77.6071C198.148 77.5894 198.128 77.5671 198.112 77.5414C198.097 77.5157 198.087 77.4871 198.084 77.4575C198.077 77.3985 198.093 77.339 198.129 77.2919C198.166 77.2449 198.219 77.2142 198.278 77.2063C198.633 77.1763 198.989 77.2327 199.318 77.3705C199.646 77.5083 199.935 77.7234 200.162 77.9976C200.19 78.0303 200.207 78.0701 200.213 78.1123C200.218 78.1545 200.212 78.1974 200.194 78.2362C200.176 78.2749 200.148 78.3078 200.112 78.3311C200.077 78.3545 200.035 78.3673 199.993 78.3681L199.98 78.3493Z" fill="#263238"/>
<path d="M199 81.1313C198.778 82.0321 198.433 82.8983 197.977 83.7061C198.186 83.819 198.418 83.8842 198.656 83.8972C198.894 83.9103 199.131 83.8708 199.352 83.7815L199 81.1313Z" fill="#DE5753"/>
<path d="M199.252 80.4405C199.302 80.8173 199.145 81.1439 198.9 81.1816C198.655 81.2193 198.41 80.9304 198.366 80.5536C198.322 80.1768 198.473 79.8502 198.718 79.8188C198.963 79.7874 199.208 80.0386 199.252 80.4405Z" fill="#263238"/>
<path d="M198.831 79.8251L197.895 79.6807C197.895 79.6807 198.448 80.3275 198.831 79.8251Z" fill="#263238"/>
<path d="M209.432 228.774H204.722L204.408 217.878H209.118L209.432 228.774Z" fill="#E4897B"/>
<path d="M230.815 228.774H226.105L224.592 217.878H229.302L230.815 228.774Z" fill="#E4897B"/>
<path d="M225.816 228.247H231.104C231.194 228.246 231.281 228.278 231.35 228.337C231.418 228.396 231.462 228.478 231.474 228.567L232.102 232.756C232.114 232.861 232.103 232.968 232.07 233.069C232.038 233.17 231.984 233.263 231.913 233.342C231.842 233.421 231.755 233.484 231.657 233.527C231.56 233.57 231.455 233.592 231.349 233.591C229.509 233.559 228.617 233.453 226.293 233.453C224.862 233.453 222.77 233.597 220.798 233.597C218.827 233.597 218.72 231.644 219.542 231.468C223.229 230.677 223.813 229.584 225.05 228.535C225.266 228.356 225.536 228.255 225.816 228.247Z" fill="#263238"/>
<path d="M204.565 228.247H209.846C209.937 228.246 210.025 228.277 210.094 228.336C210.164 228.395 210.209 228.477 210.223 228.567L210.851 232.756C210.862 232.861 210.851 232.968 210.819 233.069C210.786 233.17 210.732 233.263 210.661 233.342C210.59 233.421 210.503 233.484 210.406 233.527C210.309 233.57 210.203 233.592 210.097 233.591C208.257 233.559 207.365 233.453 205.042 233.453C203.61 233.453 200.646 233.597 198.674 233.597C196.702 233.597 196.595 231.644 197.418 231.468C201.104 230.677 202.555 229.584 203.798 228.535C204.014 228.356 204.284 228.255 204.565 228.247Z" fill="#263238"/>
<path d="M204.408 217.878L204.571 223.499H209.281L209.118 217.878H204.408Z" fill="#CE6F64"/>
<path d="M229.302 217.878H224.592L225.377 223.499H230.08L229.302 217.878Z" fill="#CE6F64"/>
<path d="M211.743 77.4889C212.063 82.1487 212.295 84.1143 210.273 86.7959C207.227 90.8214 201.437 90.1996 199.729 85.7283C198.191 81.7028 197.927 74.7634 202.21 72.3268C203.152 71.7868 204.216 71.4965 205.302 71.4834C206.388 71.4703 207.459 71.7348 208.414 72.2519C209.369 72.769 210.176 73.5216 210.759 74.4381C211.341 75.3546 211.68 76.4048 211.743 77.4889Z" fill="#E4897B"/>
<path d="M214.455 81.8158C217.068 83.2727 219.008 79.6806 219.008 79.6806C219.008 79.6806 214.324 80.1892 214.744 77.4009C215.297 73.702 212.647 69.2055 206.003 69.7833C205.632 69.8147 205.28 69.8586 204.935 69.9152C204.239 69.5855 203.453 69.5003 202.703 69.6736C201.953 69.8469 201.283 70.2683 200.803 70.8697C198.919 71.0267 196.375 73.275 198.102 76.2454C198.224 75.9041 198.411 75.5903 198.655 75.3222C198.799 77.0618 200.319 79.825 202.216 80.0071C202.624 82.3872 201.041 85.1442 201.588 87.631C202.398 91.2169 208.446 92.027 208.446 92.027C208.237 91.5792 208.159 91.0816 208.222 90.5915C208.284 90.1015 208.483 89.639 208.797 89.2576C212.904 91.1416 215.611 89.3015 215.611 89.3015C212.81 88.259 213.658 86.4002 213.658 86.4002C214.625 86.8296 215.721 86.8673 216.715 86.5054C217.71 86.1435 218.525 85.4102 218.99 84.4596C218.059 84.5038 217.136 84.2777 216.331 83.8085C215.527 83.3393 214.875 82.6472 214.455 81.8158Z" fill="#263238"/>
<path d="M203.855 80.7231C203.866 81.1703 203.789 81.6153 203.627 82.0324C203.465 82.4495 203.223 82.8305 202.913 83.1535C202.084 84.0138 201.067 83.411 200.79 82.312C200.545 81.3197 200.684 79.6806 201.764 79.2285C202.002 79.1351 202.259 79.1026 202.512 79.1339C202.766 79.1652 203.007 79.2595 203.215 79.408C203.423 79.5565 203.59 79.7546 203.702 79.9843C203.814 80.214 203.866 80.468 203.855 80.7231Z" fill="#E4897B"/>
<path d="M207.767 124.137C207.767 124.137 208.961 155.135 211.799 173.334C214.085 188.042 224.24 222.406 224.24 222.406H230.658C230.658 222.406 225.364 189.216 224.202 174.678C221.263 137.884 228.893 129.983 221.69 122.322L207.767 124.137Z" fill="#263238"/>
<path d="M213.13 133.94C213.13 133.94 210.229 133.437 208.533 138.964C209.161 149.433 210.235 163.324 211.799 173.334C212.144 175.564 212.672 178.252 213.319 181.197C212.094 163.512 213.13 133.94 213.13 133.94Z" fill="#161F33"/>
<path d="M202.762 124.79C202.762 124.79 197.474 159.085 197.782 173.435C198.102 188.362 203.572 222.419 203.572 222.419H209.934C209.934 222.419 208.929 189.248 209.488 174.59C210.116 158.608 216.641 122.988 216.641 122.988L202.762 124.79Z" fill="#263238"/>
<path d="M231.587 222.708H223.053L222.387 219.844L231.525 219.907L231.587 222.708Z" fill="#407BFF"/>
<path opacity="0.2" d="M231.587 222.708H223.053L222.387 219.844L231.525 219.907L231.587 222.708Z" fill="black"/>
<path d="M221.37 93.572C223.825 93.8106 227.556 100.788 227.556 100.788L221.357 105.542C221.357 105.542 216.226 101.039 216.836 98.5081C217.47 95.8767 219.015 93.3522 221.37 93.572Z" fill="#407BFF"/>
<path opacity="0.1" d="M221.37 93.572C223.825 93.8106 227.556 100.788 227.556 100.788L221.357 105.542C221.357 105.542 216.226 101.039 216.836 98.5081C217.47 95.8767 219.015 93.3522 221.37 93.572Z" fill="black"/>
<path d="M219.517 96.5738C218.891 96.4052 218.243 96.3332 217.596 96.3603C217.266 97.0469 217.011 97.767 216.836 98.5081C216.208 101.02 221.357 105.542 221.357 105.542L221.816 105.19L219.517 96.5738Z" fill="#407BFF"/>
<path opacity="0.3" d="M219.517 96.5738C218.891 96.4052 218.243 96.3332 217.596 96.3603C217.266 97.0469 217.011 97.767 216.836 98.5081C216.208 101.02 221.357 105.542 221.357 105.542L221.816 105.19L219.517 96.5738Z" fill="black"/>
<path d="M200.658 103.275C198.869 107.803 196.985 112.406 195.484 116.946C195.383 117.235 195.302 117.511 195.214 117.794L195 118.491C194.942 118.696 194.942 118.914 195 119.119C195.355 119.904 195.917 120.577 196.627 121.066C198.504 122.413 200.55 123.509 202.712 124.325L202.147 126.636C199.487 126.286 196.915 125.447 194.561 124.162C193.111 123.388 191.931 122.192 191.176 120.733C190.742 119.8 190.591 118.761 190.742 117.744C190.757 117.619 190.778 117.496 190.805 117.373L190.868 117.109L190.975 116.632C191.05 116.312 191.125 116.004 191.207 115.69C191.835 113.178 192.639 110.792 193.487 108.424C194.335 106.057 195.22 103.721 196.219 101.391L200.658 103.275Z" fill="#E4897B"/>
<path d="M196.847 96.9192C196.847 96.9192 194.724 97.9931 202.762 124.79L221.715 122.316C220.384 114.641 219.756 109.887 221.37 93.572C218.652 93.3774 215.924 93.3774 213.206 93.572C210.312 93.7403 207.435 94.118 204.596 94.7024C200.96 95.5125 196.847 96.9192 196.847 96.9192Z" fill="#407BFF"/>
<path opacity="0.1" d="M196.847 96.9192C196.847 96.9192 194.724 97.9931 202.762 124.79L221.715 122.316C220.384 114.641 219.756 109.887 221.37 93.572C218.652 93.3774 215.924 93.3774 213.206 93.572C210.312 93.7403 207.435 94.118 204.596 94.7024C200.96 95.5125 196.847 96.9192 196.847 96.9192Z" fill="black"/>
<path d="M221.853 121.166L222.94 122.742C223.021 122.868 222.883 123.019 222.67 123.05L202.794 125.65C202.624 125.65 202.467 125.606 202.442 125.499L202.053 123.823C202.021 123.71 202.159 123.59 202.348 123.565L221.539 121.053C221.597 121.044 221.656 121.049 221.711 121.069C221.766 121.089 221.815 121.122 221.853 121.166Z" fill="#407BFF"/>
<path opacity="0.2" d="M221.853 121.166L222.94 122.742C223.021 122.868 222.883 123.019 222.67 123.05L202.794 125.65C202.624 125.65 202.467 125.606 202.442 125.499L202.053 123.823C202.021 123.71 202.159 123.59 202.348 123.565L221.539 121.053C221.597 121.044 221.656 121.049 221.711 121.069C221.766 121.089 221.815 121.122 221.853 121.166Z" fill="black"/>
<path d="M219.555 123.647L220.07 123.578C220.17 123.578 220.239 123.502 220.227 123.44L219.699 121.267C219.679 121.23 219.647 121.201 219.608 121.185C219.569 121.169 219.526 121.167 219.486 121.179L218.971 121.242C218.864 121.242 218.795 121.317 218.814 121.386L219.341 123.553C219.354 123.622 219.454 123.659 219.555 123.647Z" fill="#263238"/>
<path d="M207.095 125.255L207.61 125.186C207.711 125.186 207.786 125.11 207.767 125.047L207.24 122.875C207.219 122.838 207.187 122.809 207.149 122.792C207.11 122.775 207.067 122.771 207.026 122.78L206.511 122.849C206.411 122.849 206.336 122.925 206.354 122.988L206.882 125.161C206.895 125.255 206.995 125.292 207.095 125.255Z" fill="#263238"/>
<path d="M197.732 106.013C198.253 108.437 198.988 111.508 200.062 115.395L200.294 105.542L197.732 106.013Z" fill="#407BFF"/>
<path opacity="0.3" d="M197.732 106.013C198.253 108.437 198.988 111.508 200.062 115.395L200.294 105.542L197.732 106.013Z" fill="black"/>
<path d="M196.846 96.9192C194.491 97.8675 192.45 105.925 192.45 105.925L200.552 109.869C200.552 109.869 204.464 100.015 202.712 98.0936C200.96 96.1719 199.559 95.8328 196.846 96.9192Z" fill="#407BFF"/>
<path opacity="0.1" d="M196.846 96.9192C194.491 97.8675 192.45 105.925 192.45 105.925L200.552 109.869C200.552 109.869 204.464 100.015 202.712 98.0936C200.96 96.1719 199.559 95.8328 196.846 96.9192Z" fill="black"/>
<path d="M211.021 222.708H202.486L201.82 219.844L211.322 219.907L211.021 222.708Z" fill="#407BFF"/>
<path opacity="0.2" d="M211.021 222.708H202.486L201.82 219.844L211.322 219.907L211.021 222.708Z" fill="black"/>
<path d="M202.844 123.546L202.159 123.264C201.991 123.195 201.808 123.173 201.628 123.198C201.448 123.223 201.278 123.296 201.135 123.408C200.992 123.52 200.882 123.668 200.814 123.837C200.747 124.006 200.726 124.189 200.753 124.369L201.249 127.641C201.273 127.805 201.332 127.961 201.424 128.099C201.516 128.237 201.637 128.353 201.779 128.438C201.92 128.523 202.079 128.576 202.244 128.592C202.409 128.609 202.575 128.588 202.731 128.533C202.98 128.442 203.213 128.313 203.422 128.15C203.649 127.961 203.828 127.722 203.946 127.452C204.064 127.181 204.117 126.887 204.1 126.592L204.031 125.236C204.019 124.869 203.9 124.514 203.689 124.214C203.478 123.914 203.185 123.682 202.844 123.546Z" fill="#E4897B"/>
</svg>
