<svg width="314" height="232" viewBox="0 0 314 232" fill="none" xmlns="http://www.w3.org/2000/svg">
<path d="M23.7134 205.299L68.6279 157.703C69.6866 156.553 70.9725 155.635 72.4042 155.006C73.8359 154.378 75.3824 154.054 76.9458 154.054C78.5092 154.054 80.0557 154.378 81.4874 155.006C82.9191 155.635 84.205 156.553 85.2637 157.703L130.178 205.299H23.7134Z" fill="#F5F5F5"/>
<path d="M85.2635 157.703C83.9473 156.274 82.285 155.209 80.437 154.609C78.5889 154.009 76.6176 153.896 74.7131 154.281C73.0364 161.038 71.9562 170.891 78.098 175.495C87.9388 182.874 75.7556 190.453 75.7556 197.876C75.872 200.453 76.513 202.979 77.6396 205.299H130.184L85.2635 157.703Z" fill="#EBEBEB"/>
<path d="M62.0464 205.89H43.6648V150.802L62.0464 142.003V205.89Z" fill="#F0F0F0"/>
<path d="M50.2966 154.105H46.8677V157.534H50.2966V154.105Z" fill="white"/>
<path d="M57.6755 160.341H54.2466V163.77H57.6755V160.341Z" fill="white"/>
<path d="M50.2966 166.583H46.8677V170.012H50.2966V166.583Z" fill="white"/>
<path d="M57.6755 172.819H54.2466V176.248H57.6755V172.819Z" fill="white"/>
<path d="M57.6755 179.062H54.2466V182.491H57.6755V179.062Z" fill="white"/>
<path d="M50.2966 185.298H46.8677V188.726H50.2966V185.298Z" fill="white"/>
<path d="M57.6755 197.776H54.2466V201.205H57.6755V197.776Z" fill="white"/>
<path d="M38.509 99.5505C38.509 99.5505 105.642 109.241 111.231 93.327C116.544 78.1985 106.459 89.3643 94.087 88.6107C89.1572 88.3093 93.4088 73.8778 80.8362 73.9406C68.5463 73.9972 71.6486 87.945 66.6309 88.1397C64.0686 88.2339 65.3749 82.2616 57.8765 82.7829C49.7502 83.3481 51.7912 92.0145 48.8396 94.1246C46.4721 95.8202 38.0003 91.4116 38.509 99.5505Z" fill="#F0F0F0"/>
<path d="M26.4201 103.061C26.4201 103.061 67.755 109.027 71.1902 99.2304C74.4621 89.9171 68.2574 96.7875 60.6398 96.3228C57.6003 96.1406 60.219 87.2544 52.4758 87.2921C44.9398 87.3298 46.8238 95.9208 43.7278 96.0339C42.1515 96.0967 42.9553 92.4166 38.3395 92.7369C33.3155 93.0886 34.5715 98.4203 32.7754 99.7202C31.3185 100.763 26.1124 98.0498 26.4201 103.061Z" fill="#FAFAFA"/>
<path d="M261.072 197.123H271.761V178.308L261.072 174.264V197.123Z" fill="#EBEBEB"/>
<path d="M265.631 179.74H267.208V178.163H265.631V179.74Z" fill="white"/>
<path d="M262.234 179.74H263.81V178.163H262.234V179.74Z" fill="white"/>
<path d="M269.016 182.61H270.593V181.034H269.016V182.61Z" fill="white"/>
<path d="M265.631 185.48H267.208V183.903H265.631V185.48Z" fill="white"/>
<path d="M262.234 185.48H263.81V183.903H262.234V185.48Z" fill="white"/>
<path d="M269.016 188.344H270.593V186.767H269.016V188.344Z" fill="white"/>
<path d="M267.202 190.278H265.625V191.854H267.202V190.278Z" fill="white"/>
<path d="M270.593 190.278H269.016V191.854H270.593V190.278Z" fill="white"/>
<path d="M263.817 193.141H262.24V194.718H263.817V193.141Z" fill="white"/>
<path d="M256.563 152.811V146.921H255.15V140.339H253.963V137.363L251.577 133.846L249.191 137.363V140.339H248.004V146.921H246.591V152.811H245.165V187.276H257.995V152.811H256.563Z" fill="#EBEBEB"/>
<path d="M252.462 154.651H250.685V156.429H252.462V154.651Z" fill="#FEFEFE"/>
<path d="M256.293 154.651H254.516V156.429H256.293V154.651Z" fill="#FEFEFE"/>
<path d="M248.638 161.126H246.861V162.903H248.638V161.126Z" fill="#FEFEFE"/>
<path d="M256.293 161.126H254.516V162.903H256.293V161.126Z" fill="#FEFEFE"/>
<path d="M252.462 164.366H250.685V166.144H252.462V164.366Z" fill="#FEFEFE"/>
<path d="M248.638 167.601H246.861V169.378H248.638V167.601Z" fill="#FEFEFE"/>
<path d="M252.462 167.601H250.685V169.378H252.462V167.601Z" fill="#FEFEFE"/>
<path d="M256.293 170.841H254.516V172.618H256.293V170.841Z" fill="#FEFEFE"/>
<path d="M248.638 174.082H246.861V175.859H248.638V174.082Z" fill="#FEFEFE"/>
<path d="M252.462 177.316H250.685V179.093H252.462V177.316Z" fill="#FEFEFE"/>
<path d="M256.293 177.316H254.516V179.093H256.293V177.316Z" fill="#FEFEFE"/>
<path d="M282.537 215.712H261.738V215.869H282.537V215.712Z" fill="#EBEBEB"/>
<path d="M208.006 217.42H202.549V217.577H208.006V217.42Z" fill="#EBEBEB"/>
<path d="M261.11 209.884H249.059V210.041H261.11V209.884Z" fill="#EBEBEB"/>
<path d="M60.0681 210.939H32.9448V211.096H60.0681V210.939Z" fill="#EBEBEB"/>
<path d="M69.6388 210.939H65.6636V211.096H69.6388V210.939Z" fill="#EBEBEB"/>
<path d="M141.394 213.589H82.5632V213.746H141.394V213.589Z" fill="#EBEBEB"/>
<path d="M149.715 177.598H28.4484C27.4974 177.598 26.5853 177.221 25.9128 176.548C25.2403 175.876 24.8625 174.964 24.8625 174.013V3.55448C24.8708 2.6089 25.2523 1.70486 25.9239 1.03915C26.5955 0.373448 27.5028 -3.62519e-05 28.4484 2.6392e-09H149.715C150.186 2.6392e-09 150.652 0.0927507 151.087 0.272958C151.523 0.453165 151.918 0.7173 152.251 1.05028C152.584 1.38326 152.848 1.77857 153.028 2.21362C153.208 2.64868 153.301 3.11497 153.301 3.58588V174.013C153.301 174.483 153.208 174.95 153.028 175.385C152.848 175.82 152.584 176.215 152.251 176.548C151.918 176.881 151.523 177.145 151.087 177.325C150.652 177.506 150.186 177.598 149.715 177.598ZM28.4484 0.1256C27.5395 0.127261 26.6684 0.489049 26.0257 1.13173C25.383 1.77441 25.0212 2.64559 25.0195 3.55448V174.013C25.0212 174.921 25.383 175.793 26.0257 176.435C26.6684 177.078 27.5395 177.44 28.4484 177.441H149.715C150.624 177.44 151.495 177.078 152.138 176.435C152.781 175.793 153.142 174.921 153.144 174.013V3.55448C153.142 2.64559 152.781 1.77441 152.138 1.13173C151.495 0.489049 150.624 0.127261 149.715 0.1256H28.4484Z" fill="#EBEBEB"/>
<path d="M285.552 177.598H164.285C163.334 177.598 162.422 177.221 161.749 176.548C161.077 175.876 160.699 174.964 160.699 174.013V3.55448C160.707 2.6089 161.089 1.70486 161.76 1.03915C162.432 0.373448 163.339 -3.62519e-05 164.285 2.6392e-09H285.552C286.503 2.63921e-09 287.415 0.377797 288.087 1.05028C288.76 1.72276 289.138 2.63484 289.138 3.58588V174.013C289.138 174.964 288.76 175.876 288.087 176.548C287.415 177.221 286.503 177.598 285.552 177.598ZM164.285 0.1256C163.376 0.127261 162.505 0.489049 161.862 1.13173C161.219 1.77441 160.858 2.64559 160.856 3.55448V174.013C160.858 174.921 161.219 175.793 161.862 176.435C162.505 177.078 163.376 177.44 164.285 177.441H285.552C286.461 177.44 287.332 177.078 287.974 176.435C288.617 175.793 288.979 174.921 288.981 174.013V3.55448C288.979 2.64559 288.617 1.77441 287.974 1.13173C287.332 0.489049 286.461 0.127261 285.552 0.1256H164.285Z" fill="#EBEBEB"/>
<path d="M314 205.607H0V205.764H314V205.607Z" fill="#EBEBEB"/>
<path d="M184.412 205.299L228.077 175.746C232.542 172.719 239.789 172.719 244.254 175.746L287.919 205.299H184.412Z" fill="#F5F5F5"/>
<path d="M244.254 175.746C241.466 173.862 237.598 173.152 233.993 173.617C232.366 177.812 231.318 183.935 237.29 186.805C246.854 191.383 235.004 196.093 235.004 200.703C235.004 202.191 235.783 203.805 236.838 205.312H287.919L244.254 175.746Z" fill="#EBEBEB"/>
<path d="M96.938 199.352L111.69 176.022C112.016 175.501 111.778 174.571 111.313 174.571H97.8549C102.46 167.278 107.066 159.985 111.671 152.692C111.997 152.171 111.759 151.241 111.294 151.241H97.8549C102.46 143.952 107.066 136.659 111.671 129.362C111.997 128.841 111.759 127.911 111.294 127.911H97.8549C102.46 120.618 107.066 113.325 111.671 106.032C111.997 105.51 111.759 104.581 111.294 104.581H97.8549C102.46 97.2877 107.066 89.9945 111.671 82.7014C111.997 82.1864 111.759 81.2569 111.294 81.2569H97.8549L111.671 59.3711C111.997 58.8562 111.759 57.9268 111.294 57.9268H97.8549L111.671 36.0472C112.161 35.2685 111.401 34.069 110.911 34.8415L96.1593 58.1717C96.0825 58.308 96.0351 58.4588 96.0199 58.6145C96.0048 58.7703 96.0223 58.9274 96.0714 59.076C96.1342 59.3586 96.2912 59.5784 96.5298 59.591H110.007C105.401 66.8841 100.796 74.1773 96.1907 81.4705C96.1139 81.6068 96.0665 81.7576 96.0513 81.9133C96.0362 82.0691 96.0537 82.2262 96.1028 82.3748C96.1656 82.6574 96.3226 82.8772 96.5612 82.8898H110.038C105.433 90.1787 100.827 97.4719 96.2221 104.769C96.1453 104.906 96.0979 105.056 96.0827 105.212C96.0676 105.368 96.0851 105.525 96.1342 105.674C96.197 105.956 96.354 106.176 96.5926 106.189H110.07C105.464 113.478 100.859 120.771 96.2535 128.068C96.1767 128.204 96.1293 128.355 96.1141 128.511C96.099 128.667 96.1165 128.824 96.1656 128.972C96.2284 129.255 96.3854 129.475 96.624 129.487H110.101L96.2849 151.367C96.2081 151.503 96.1607 151.654 96.1455 151.81C96.1304 151.965 96.1479 152.123 96.197 152.271C96.2598 152.548 96.4168 152.774 96.6554 152.786H110.132L96.3163 174.666C96.2395 174.802 96.1921 174.953 96.1769 175.109C96.1618 175.264 96.1793 175.421 96.2284 175.57C96.2912 175.846 96.4482 176.072 96.6868 176.085H110.164L96.3477 197.964C95.6883 198.925 96.4482 200.125 96.938 199.352Z" fill="#E0E0E0"/>
<path d="M111.313 200.024C111.746 200.024 112.117 199.44 112.117 198.768V35.4882C112.117 34.7974 111.746 34.2322 111.313 34.2322H96.5614C96.1218 34.2322 95.7575 34.8162 95.7575 35.4882V198.768C95.7435 199.07 95.8177 199.369 95.9711 199.629C95.9699 199.643 95.9699 199.658 95.9711 199.673C96.0228 199.775 96.1016 199.862 96.1991 199.923C96.2965 199.983 96.4088 200.016 96.5237 200.018L111.313 200.024ZM97.3401 143.536V36.7191H110.528V197.487H97.3401V143.536Z" fill="#E0E0E0"/>
<path d="M110.93 199.352L96.1783 176.022C95.8517 175.501 96.0966 174.571 96.5614 174.571H110.013C105.408 167.278 100.802 159.985 96.1971 152.692C95.8706 152.171 96.1155 151.241 96.5802 151.241H110.032L96.216 129.362C95.8894 128.841 96.1343 127.911 96.5991 127.911H110.051L96.2348 106.032C95.9083 105.51 96.1532 104.581 96.6179 104.581H110.07L96.2537 82.7014C95.9271 82.1864 96.172 81.2569 96.6367 81.2569H110.088L96.2725 59.3711C95.9459 58.8562 96.1909 57.9268 96.6556 57.9268H110.107C105.502 50.6294 100.897 43.3362 96.2913 36.0472C95.8015 35.2685 96.5614 34.069 97.0512 34.8415L111.803 58.1717C111.88 58.308 111.927 58.4588 111.942 58.6145C111.957 58.7703 111.94 58.9274 111.891 59.076C111.828 59.3586 111.677 59.5784 111.439 59.591H97.8551C102.46 66.8841 107.066 74.1773 111.671 81.4705C111.748 81.6068 111.795 81.7576 111.81 81.9133C111.826 82.0691 111.808 82.2262 111.759 82.3748C111.696 82.6574 111.545 82.8772 111.307 82.8898H97.8551C102.46 90.1787 107.066 97.4719 111.671 104.769C111.748 104.906 111.795 105.056 111.81 105.212C111.826 105.368 111.808 105.525 111.759 105.674C111.696 105.956 111.545 106.176 111.307 106.189H97.8551C102.46 113.478 107.066 120.771 111.671 128.068C111.748 128.204 111.795 128.355 111.81 128.511C111.826 128.667 111.808 128.824 111.759 128.972C111.696 129.255 111.545 129.475 111.307 129.487H97.8551C102.46 136.781 107.066 144.074 111.671 151.367C111.748 151.503 111.795 151.654 111.81 151.81C111.826 151.965 111.808 152.123 111.759 152.271C111.696 152.548 111.545 152.774 111.307 152.786H97.8551C102.46 160.075 107.066 167.368 111.671 174.666C111.748 174.802 111.795 174.953 111.81 175.109C111.826 175.264 111.808 175.421 111.759 175.57C111.696 175.846 111.545 176.072 111.307 176.085H97.8551C102.46 183.378 107.066 190.671 111.671 197.964C112.18 198.925 111.42 200.125 110.93 199.352Z" fill="#F0F0F0"/>
<path d="M111.313 200.024C111.427 200.022 111.538 199.988 111.634 199.927C111.73 199.866 111.808 199.781 111.859 199.679V199.635C112.01 199.374 112.084 199.076 112.073 198.775V35.4945C112.073 34.8037 111.702 34.2385 111.269 34.2385H96.5612C96.1216 34.2385 95.7573 34.8226 95.7573 35.4945V198.775C95.7573 199.465 96.1216 200.031 96.5612 200.031L111.313 200.024ZM110.528 197.475H97.3399V36.7066H110.528V197.475Z" fill="#F0F0F0"/>
<path d="M91.6064 205.607H176.996V200.677H91.6064V205.607Z" fill="#E0E0E0"/>
<path d="M91.6125 201.255H180.581V198.347H91.6125V201.255Z" fill="#EBEBEB"/>
<path d="M96.7435 59.3019L106.503 65.4689C106.716 65.6071 107.131 65.5066 107.131 65.3119V59.6599L116.281 65.4438C116.5 65.5819 116.909 65.4815 116.909 65.2868V59.6348L126.059 65.4187C126.272 65.5568 126.687 65.4563 126.687 65.2617V59.6097L135.836 65.3935C136.056 65.5317 136.464 65.4312 136.464 65.2365V59.5845L145.614 65.3684C145.828 65.5066 146.242 65.4061 146.242 65.2114V59.5594L155.392 65.3433C155.612 65.4815 156.02 65.381 156.02 65.1863V59.5343L165.17 65.3182C165.491 65.5191 165.993 65.2051 165.673 64.9979L155.914 58.8309C155.856 58.7988 155.792 58.7788 155.726 58.7723C155.66 58.7659 155.594 58.773 155.531 58.7933C155.418 58.8247 155.323 58.8875 155.317 58.9879V64.6399L146.167 58.8561C146.11 58.8241 146.047 58.8042 145.983 58.7977C145.918 58.7912 145.852 58.7983 145.79 58.8184C145.671 58.8498 145.583 58.9126 145.577 59.0131V64.6651L136.276 58.9817C136.218 58.9495 136.154 58.9295 136.088 58.9231C136.023 58.9166 135.956 58.9237 135.893 58.944C135.78 58.9754 135.686 59.0382 135.679 59.1387V64.7907L126.53 59.0068C126.473 58.9748 126.41 58.9549 126.345 58.9484C126.28 58.9419 126.215 58.949 126.153 58.9691C126.033 59.0005 125.945 59.0633 125.939 59.1638V64.8158L116.789 59.0319C116.731 58.9997 116.668 58.9798 116.602 58.9733C116.536 58.9668 116.469 58.9739 116.406 58.9942C116.293 59.0256 116.199 59.0884 116.193 59.1889V64.8409L107.043 59.057C106.986 59.025 106.923 59.0051 106.858 58.9987C106.793 58.9922 106.728 58.9992 106.666 59.0193C106.547 59.0507 106.459 59.1135 106.446 59.214V64.866L97.2961 59.0821C96.9256 58.7744 96.4232 59.0947 96.7435 59.3019Z" fill="#E0E0E0"/>
<path d="M96.4607 65.312C96.4607 65.4942 96.7056 65.6449 96.9945 65.6449H165.289C165.578 65.6449 165.823 65.4942 165.823 65.312V59.1388C165.823 58.9567 165.578 58.806 165.289 58.806H96.9945C96.8691 58.7988 96.7444 58.8294 96.6365 58.8939C96.5948 58.9157 96.5596 58.948 96.5342 58.9877C96.5089 59.0274 96.4944 59.0729 96.4921 59.12L96.4607 65.312ZM120.086 59.4779H164.756V64.9729H97.5597V59.4779H120.086Z" fill="#E0E0E0"/>
<path d="M96.7435 65.1487L106.503 58.9818C106.716 58.8436 107.131 58.9441 107.131 59.1388V64.7908L116.281 59.0069C116.5 58.8687 116.909 58.9692 116.909 59.1639V64.8159L126.059 59.032C126.272 58.8939 126.687 58.9943 126.687 59.189V64.841L135.836 59.0571C136.056 58.919 136.464 59.0195 136.464 59.2141V64.8661L145.614 59.0823C145.828 58.9441 146.242 59.0446 146.242 59.2393V64.8913L155.392 59.1074C155.612 58.9692 156.02 59.0697 156.02 59.2644V64.9164L165.17 59.1325C165.491 58.9253 165.993 59.2455 165.673 59.4528L155.914 65.6197C155.796 65.6814 155.658 65.6949 155.531 65.6574C155.418 65.6574 155.323 65.5632 155.317 65.4627V59.8107L146.167 65.5946C146.051 65.6565 145.916 65.6701 145.79 65.6323C145.671 65.6323 145.583 65.5381 145.577 65.4376V59.7856L136.276 65.469C136.158 65.5306 136.021 65.5441 135.893 65.5067C135.78 65.5067 135.686 65.4125 135.679 65.312V59.66L126.53 65.4439C126.414 65.5058 126.278 65.5193 126.153 65.4816C126.033 65.4816 125.945 65.3874 125.939 65.2869V59.6349L116.789 65.4188C116.671 65.4804 116.534 65.4939 116.406 65.4565C116.293 65.4565 116.199 65.3623 116.193 65.2618V59.6098L107.043 65.3937C106.927 65.4556 106.792 65.4691 106.666 65.4313C106.547 65.4313 106.459 65.3371 106.446 65.2367V59.5847L97.2961 65.3685C96.9256 65.67 96.4232 65.356 96.7435 65.1487Z" fill="#F0F0F0"/>
<path d="M96.4607 65.312C96.4636 65.3589 96.4784 65.4042 96.5036 65.4438C96.5289 65.4833 96.5638 65.5158 96.6051 65.5381C96.714 65.5999 96.8379 65.6303 96.9631 65.626H165.289C165.578 65.626 165.823 65.4753 165.823 65.2932V59.1199C165.823 58.9378 165.578 58.7871 165.289 58.7871H96.9945C96.7056 58.7871 96.4607 58.9378 96.4607 59.1199V65.312ZM97.5283 64.9729V59.4779H164.756V64.9729H97.5597H97.5283Z" fill="#F0F0F0"/>
<path d="M96.894 66.1536H110.967C111.88 66.1536 112.619 65.4141 112.619 64.5019V59.9552C112.619 59.043 111.88 58.3036 110.967 58.3036H96.894C95.9818 58.3036 95.2424 59.043 95.2424 59.9552V64.5019C95.2424 65.4141 95.9818 66.1536 96.894 66.1536Z" fill="#F5F5F5"/>
<path d="M96.7435 106.76L106.503 112.933C106.716 113.065 107.131 112.965 107.131 112.77V107.118C110.183 109.044 113.233 110.974 116.281 112.908C116.5 113.04 116.909 112.94 116.909 112.745V107.093L126.059 112.883C126.272 113.015 126.687 112.914 126.687 112.72V107.068C129.739 108.994 132.789 110.924 135.836 112.858C136.056 112.99 136.464 112.889 136.464 112.695V107.043L145.614 112.833C145.828 112.965 146.242 112.864 146.242 112.67V107.018C149.295 108.943 152.345 110.873 155.392 112.808C155.612 112.94 156.02 112.839 156.02 112.644V106.992L165.17 112.783C165.491 112.983 165.993 112.669 165.673 112.462L155.914 106.295C155.856 106.263 155.792 106.243 155.726 106.237C155.66 106.23 155.594 106.237 155.531 106.258C155.418 106.258 155.323 106.346 155.317 106.446V112.098L146.167 106.314C146.11 106.282 146.047 106.262 145.983 106.256C145.918 106.249 145.852 106.256 145.79 106.276C145.671 106.276 145.583 106.364 145.577 106.465V112.117L136.276 106.44C136.218 106.408 136.154 106.388 136.088 106.381C136.023 106.375 135.956 106.382 135.893 106.402C135.78 106.402 135.686 106.49 135.679 106.59V112.242L126.53 106.459C126.473 106.427 126.41 106.407 126.345 106.4C126.28 106.394 126.215 106.401 126.153 106.421C126.033 106.421 125.945 106.509 125.939 106.609V112.261L116.789 106.477C116.731 106.445 116.668 106.425 116.602 106.419C116.536 106.412 116.469 106.419 116.406 106.44C116.293 106.44 116.199 106.528 116.193 106.628V112.28L107.043 106.496C106.986 106.464 106.923 106.444 106.858 106.438C106.793 106.431 106.728 106.438 106.666 106.459C106.547 106.459 106.459 106.547 106.446 106.647V112.299L97.2961 106.515C96.9256 106.232 96.4232 106.553 96.7435 106.76Z" fill="#E0E0E0"/>
<path d="M96.4607 112.764C96.4607 112.946 96.7056 113.103 96.9945 113.103H165.289C165.578 113.103 165.823 112.946 165.823 112.764V106.597C165.823 106.415 165.578 106.258 165.289 106.258H96.9945C96.8684 106.252 96.7437 106.285 96.6365 106.352C96.5951 106.376 96.5603 106.409 96.5351 106.45C96.5098 106.49 96.4951 106.537 96.4921 106.584L96.4607 112.764ZM120.086 106.936H164.756V112.412H97.5597V106.917L120.086 106.936Z" fill="#E0E0E0"/>
<path d="M96.7435 112.607L106.503 106.44C106.716 106.302 107.131 106.402 107.131 106.597V112.249L116.281 106.465C116.5 106.327 116.909 106.427 116.909 106.622V112.274L126.059 106.49C126.272 106.352 126.687 106.452 126.687 106.647V112.299L135.836 106.515C136.056 106.377 136.464 106.477 136.464 106.672V112.324L145.614 106.54C145.828 106.402 146.242 106.503 146.242 106.697V112.349L155.392 106.565C155.612 106.427 156.02 106.528 156.02 106.722V112.374L165.17 106.591C165.491 106.383 165.993 106.704 165.673 106.905L155.914 113.078C155.856 113.111 155.792 113.132 155.726 113.139C155.66 113.145 155.593 113.137 155.531 113.115C155.418 113.115 155.323 113.028 155.317 112.927V107.275C152.265 109.201 149.215 111.131 146.167 113.065C146.111 113.099 146.048 113.119 145.983 113.126C145.918 113.133 145.852 113.125 145.79 113.103C145.671 113.103 145.583 113.015 145.577 112.914V107.262L136.276 112.927C136.219 112.961 136.155 112.982 136.089 112.988C136.023 112.995 135.956 112.987 135.893 112.965C135.78 112.965 135.686 112.877 135.679 112.776V107.124C132.627 109.05 129.577 110.98 126.53 112.914C126.473 112.948 126.41 112.969 126.345 112.975C126.28 112.982 126.214 112.974 126.153 112.952C126.033 112.952 125.945 112.864 125.939 112.764V107.112L116.789 112.902C116.732 112.936 116.668 112.956 116.602 112.963C116.536 112.969 116.469 112.961 116.406 112.94C116.293 112.94 116.199 112.852 116.193 112.751V107.099C113.141 109.025 110.091 110.955 107.043 112.889C106.986 112.923 106.924 112.944 106.858 112.95C106.793 112.957 106.728 112.949 106.666 112.927C106.547 112.927 106.459 112.839 106.446 112.739V107.087L97.2961 112.877C96.9256 113.128 96.4232 112.814 96.7435 112.607Z" fill="#F0F0F0"/>
<path d="M96.4607 112.764C96.4637 112.811 96.4785 112.858 96.5037 112.898C96.5289 112.939 96.5637 112.972 96.6051 112.996C96.714 113.058 96.8379 113.088 96.9631 113.084H165.289C165.578 113.084 165.823 112.927 165.823 112.745V106.578C165.823 106.396 165.578 106.239 165.289 106.239H96.9945C96.7056 106.239 96.4607 106.396 96.4607 106.578V112.764ZM97.5283 112.431V106.936H164.756V112.412H97.5597L97.5283 112.431Z" fill="#F0F0F0"/>
<path d="M96.894 113.605H110.967C111.88 113.605 112.619 112.866 112.619 111.954V107.407C112.619 106.495 111.88 105.755 110.967 105.755H96.894C95.9818 105.755 95.2424 106.495 95.2424 107.407V111.954C95.2424 112.866 95.9818 113.605 96.894 113.605Z" fill="#F5F5F5"/>
<path d="M96.7435 154.212L106.503 160.379C106.716 160.517 107.131 160.416 107.131 160.222V154.57L116.281 160.354C116.5 160.492 116.909 160.391 116.909 160.197V154.545L126.059 160.328C126.272 160.467 126.687 160.366 126.687 160.171V154.519L135.836 160.303C136.056 160.441 136.464 160.341 136.464 160.146V154.494L145.614 160.278C145.828 160.416 146.242 160.316 146.242 160.121V154.469L155.392 160.253C155.612 160.391 156.02 160.291 156.02 160.096V154.444L165.17 160.228C165.491 160.435 165.993 160.115 165.673 159.914L155.914 153.741C155.856 153.707 155.792 153.686 155.726 153.68C155.66 153.673 155.593 153.681 155.531 153.703C155.418 153.703 155.323 153.791 155.317 153.891V159.543L146.167 153.753C146.111 153.72 146.048 153.699 145.983 153.692C145.918 153.686 145.852 153.694 145.79 153.716C145.671 153.716 145.583 153.803 145.577 153.904V159.556L136.276 153.891C136.219 153.858 136.155 153.837 136.089 153.83C136.023 153.824 135.956 153.832 135.893 153.854C135.78 153.854 135.686 153.942 135.679 154.042V159.694L126.53 153.904C126.473 153.87 126.41 153.85 126.345 153.843C126.28 153.837 126.214 153.845 126.153 153.866C126.033 153.866 125.945 153.954 125.939 154.055V159.707C122.891 157.772 119.841 155.842 116.789 153.917C116.732 153.883 116.668 153.862 116.602 153.856C116.536 153.849 116.469 153.857 116.406 153.879C116.293 153.879 116.199 153.967 116.193 154.067V159.719L107.043 153.929C106.986 153.896 106.924 153.875 106.858 153.868C106.793 153.862 106.728 153.87 106.666 153.891C106.547 153.891 106.459 153.979 106.446 154.08V159.732C103.398 157.798 100.348 155.868 97.2961 153.942C96.9256 153.69 96.4232 154.004 96.7435 154.212Z" fill="#E0E0E0"/>
<path d="M96.4607 160.222C96.4607 160.404 96.7056 160.561 96.9945 160.561H165.289C165.578 160.561 165.823 160.404 165.823 160.222V154.055C165.823 153.872 165.578 153.715 165.289 153.715H96.9945C96.8693 153.711 96.7454 153.742 96.6365 153.803C96.5951 153.827 96.5603 153.861 96.5351 153.901C96.5098 153.942 96.4951 153.988 96.4921 154.036L96.4607 160.222ZM120.086 154.387H164.756V159.882H97.5597V154.387H120.086Z" fill="#E0E0E0"/>
<path d="M96.7435 160.065L106.503 153.891C106.716 153.753 107.131 153.86 107.131 154.055V159.707L116.281 153.917C116.5 153.778 116.909 153.885 116.909 154.08V159.732L126.059 153.942C126.272 153.804 126.687 153.91 126.687 154.105V159.757L135.836 153.967C136.056 153.829 136.464 153.935 136.464 154.13V159.782L145.614 153.992C145.828 153.854 146.242 153.961 146.242 154.155V159.807L155.392 154.017C155.612 153.879 156.02 153.986 156.02 154.18V159.832L165.17 154.042C165.491 153.841 165.993 154.155 165.673 154.362L155.914 160.529C155.856 160.562 155.792 160.582 155.726 160.588C155.66 160.594 155.594 160.587 155.531 160.567C155.418 160.567 155.323 160.473 155.317 160.379V154.727L146.167 160.511C146.11 160.543 146.047 160.562 145.983 160.569C145.918 160.575 145.852 160.568 145.79 160.548C145.671 160.548 145.583 160.454 145.577 160.36V154.708L136.276 160.379C136.218 160.411 136.154 160.431 136.088 160.437C136.023 160.444 135.956 160.437 135.893 160.416C135.78 160.416 135.686 160.322 135.679 160.228V154.576L126.53 160.36C126.473 160.392 126.41 160.412 126.345 160.418C126.28 160.425 126.215 160.418 126.153 160.398C126.033 160.398 125.945 160.303 125.939 160.209V154.557L116.789 160.341C116.731 160.373 116.668 160.393 116.602 160.4C116.536 160.406 116.469 160.399 116.406 160.379C116.293 160.379 116.199 160.284 116.193 160.19V154.538L107.043 160.322C106.986 160.354 106.923 160.374 106.858 160.381C106.793 160.387 106.728 160.38 106.666 160.36C106.614 160.355 106.565 160.334 106.526 160.3C106.487 160.267 106.459 160.222 106.446 160.171V154.519L97.2961 160.303C96.9256 160.586 96.4232 160.266 96.7435 160.065Z" fill="#F0F0F0"/>
<path d="M96.4607 160.222C96.463 160.269 96.4775 160.314 96.5028 160.354C96.5282 160.394 96.5634 160.426 96.6051 160.448C96.7123 160.514 96.837 160.547 96.9631 160.542H165.289C165.578 160.542 165.823 160.385 165.823 160.203V154.036C165.823 153.854 165.578 153.697 165.289 153.697H96.9945C96.7056 153.697 96.4607 153.854 96.4607 154.036V160.222ZM97.5283 159.883V154.388H164.756V159.883H97.5597H97.5283Z" fill="#F0F0F0"/>
<path d="M96.894 161.063H110.967C111.88 161.063 112.619 160.324 112.619 159.412V154.865C112.619 153.953 111.88 153.213 110.967 153.213H96.894C95.9818 153.213 95.2424 153.953 95.2424 154.865V159.412C95.2424 160.324 95.9818 161.063 96.894 161.063Z" fill="#F5F5F5"/>
<path d="M181.706 60.6208C181.706 60.6208 255.389 68.9355 248.06 48.1487C242.408 32.1786 231.902 47.0811 226.834 45.3478C222.387 43.8343 224.108 32.6559 212.013 33.9119C199.918 35.1679 204.376 47.0371 200.508 50.1834C196.338 53.5495 181.253 45.3478 181.706 60.6208Z" fill="#F0F0F0"/>
<path d="M220.748 63.1706C220.748 63.1706 265.274 68.1946 260.84 55.6346C257.424 45.9823 251.068 55.0066 248.01 53.9453C245.335 53.0284 246.377 46.2586 239.067 47.0373C231.757 47.816 234.451 54.969 232.115 56.8655C229.591 58.9003 220.478 53.9453 220.748 63.1706Z" fill="#FAFAFA"/>
<path d="M153.973 231.55C221.221 231.55 275.736 228.367 275.736 224.441C275.736 220.515 221.221 217.332 153.973 217.332C86.7253 217.332 32.2102 220.515 32.2102 224.441C32.2102 228.367 86.7253 231.55 153.973 231.55Z" fill="#F5F5F5"/>
<path d="M195.173 82.3054L186.012 83.7596C185.115 83.9021 184.503 84.7451 184.645 85.6426L186.761 98.9714C186.904 99.8689 187.747 100.481 188.644 100.338L197.805 98.8843C198.703 98.7418 199.315 97.8988 199.172 97.0013L197.056 83.6725C196.914 82.775 196.071 82.1629 195.173 82.3054Z" fill="#407BFF"/>
<path opacity="0.2" d="M197.048 83.6308C197.015 83.4157 196.937 83.2098 196.82 83.026C196.704 82.8423 196.55 82.6847 196.37 82.5632L187.772 100.241C188.04 100.354 188.334 100.388 188.62 100.342L197.82 98.8724C198.028 98.8395 198.227 98.766 198.407 98.656C198.586 98.5461 198.742 98.4018 198.866 98.2315C198.99 98.0612 199.079 97.8682 199.128 97.6635C199.177 97.4588 199.185 97.2465 199.152 97.0386L197.048 83.6308Z" fill="white"/>
<path d="M197.82 98.8724C198.028 98.8395 198.227 98.766 198.407 98.6561C198.586 98.5461 198.742 98.4018 198.866 98.2315C198.99 98.0612 199.078 97.8682 199.127 97.6635C199.176 97.4588 199.185 97.2465 199.151 97.0387L197.023 83.6309C196.99 83.423 196.916 83.2236 196.806 83.0442C196.696 82.8647 196.552 82.7087 196.382 82.5851C196.211 82.4614 196.018 82.3725 195.814 82.3235C195.609 82.2745 195.397 82.2664 195.189 82.2995L185.945 83.769C185.737 83.8019 185.537 83.8754 185.358 83.9854C185.178 84.0953 185.022 84.2396 184.899 84.4099C184.775 84.5802 184.686 84.7732 184.637 84.9779C184.588 85.1826 184.58 85.3949 184.613 85.6028L186.736 99.0106C186.805 99.4302 187.038 99.8054 187.382 100.055C187.727 100.304 188.156 100.407 188.576 100.342L197.82 98.8724ZM187.345 98.9101L185.26 85.5086C185.238 85.3796 185.242 85.2475 185.272 85.1201C185.303 84.9928 185.358 84.8729 185.436 84.7675C185.588 84.5608 185.812 84.4194 186.064 84.3719L195.308 82.8961H195.465C195.702 82.8976 195.93 82.983 196.109 83.1371C196.289 83.2913 196.408 83.504 196.445 83.7376L198.574 97.1391C198.612 97.3995 198.549 97.6647 198.398 97.8802C198.247 98.0874 198.022 98.2289 197.77 98.2758L188.532 99.7453C188.401 99.7686 188.266 99.7654 188.136 99.7357C188.006 99.7061 187.883 99.6508 187.775 99.5729C187.666 99.495 187.575 99.3963 187.505 99.2824C187.436 99.1686 187.39 99.042 187.37 98.9101H187.345Z" fill="#263238"/>
<path opacity="0.9" d="M196.125 88.916L189.211 90.0334C188.548 90.1405 188.098 90.7645 188.205 91.4272L188.24 91.6448C188.347 92.3075 188.971 92.7579 189.634 92.6508L196.548 91.5335C197.21 91.4264 197.661 90.8023 197.554 90.1396L197.519 89.922C197.411 89.2593 196.787 88.8089 196.125 88.916Z" fill="white"/>
<path d="M189.192 92.316C189.106 92.3079 189.022 92.2823 188.947 92.2406L188.997 92.0334C189.066 92.0675 189.14 92.0908 189.217 92.1024C189.3 92.1181 189.385 92.1181 189.468 92.1024C189.544 92.0924 189.618 92.0645 189.681 92.0208C189.702 92.0048 189.718 91.9834 189.726 91.9589C189.735 91.9345 189.737 91.9081 189.732 91.8826C189.732 91.8648 189.727 91.8473 189.718 91.8319C189.71 91.8164 189.697 91.8036 189.681 91.7947C189.647 91.7689 189.605 91.7537 189.562 91.7508H189.386C189.298 91.744 189.209 91.7314 189.122 91.7131C189.057 91.6993 188.997 91.669 188.947 91.6252C188.918 91.601 188.894 91.5714 188.877 91.5379C188.859 91.5045 188.849 91.468 188.846 91.4305C188.824 91.361 188.824 91.2865 188.846 91.217C188.88 91.1444 188.935 91.0833 189.003 91.0411C189.093 90.9908 189.191 90.9567 189.292 90.9406C189.375 90.9312 189.46 90.9312 189.543 90.9406C189.619 90.946 189.694 90.9651 189.763 90.9972L189.713 91.2044C189.65 91.1789 189.585 91.162 189.518 91.1542H189.323C189.247 91.1617 189.175 91.1923 189.116 91.2421C189.095 91.259 189.079 91.2816 189.07 91.3071C189.061 91.3326 189.06 91.3602 189.066 91.3865C189.069 91.4035 189.075 91.4197 189.085 91.4339C189.095 91.448 189.107 91.4597 189.122 91.4682C189.155 91.4928 189.195 91.508 189.235 91.5121H189.411C189.498 91.5157 189.585 91.5284 189.669 91.5498C189.735 91.5627 189.797 91.5906 189.851 91.6314C189.909 91.6834 189.944 91.7551 189.951 91.8324C189.97 91.9002 189.97 91.9719 189.951 92.0396C189.915 92.1124 189.858 92.1734 189.788 92.2155C189.699 92.2669 189.601 92.301 189.499 92.316C189.397 92.3317 189.294 92.3317 189.192 92.316Z" fill="#263238"/>
<path d="M190.397 90.9846L189.951 91.0537L189.92 90.8401L191.057 90.6643V90.8715L190.617 90.9406L190.793 92.071L190.542 92.115L190.397 90.9846Z" fill="#263238"/>
<path d="M192.25 91.531L191.578 91.6377L191.496 91.9643L191.239 92.0083L191.628 90.5701L191.873 90.5325L192.689 91.7885L192.432 91.8324L192.25 91.531ZM192.137 91.3489L191.791 90.8025L191.628 91.4305L192.137 91.3489Z" fill="#263238"/>
<path d="M193.776 91.6064L193.443 91.2547H193.393L193.085 91.2987L193.148 91.6943L192.903 91.732L192.689 90.3881L193.242 90.3002C193.344 90.2808 193.448 90.2808 193.55 90.3002C193.637 90.3209 193.715 90.3668 193.776 90.432C193.835 90.5017 193.875 90.5865 193.889 90.677C193.903 90.7687 193.89 90.8626 193.851 90.947C193.814 91.0318 193.75 91.1022 193.669 91.148L194.046 91.5373L193.776 91.6064ZM193.518 90.5576C193.435 90.5303 193.345 90.5303 193.261 90.5576L192.972 90.6079L193.054 91.1417L193.349 91.0914C193.437 91.0863 193.52 91.0482 193.581 90.9847C193.606 90.9558 193.624 90.9215 193.634 90.8845C193.644 90.8475 193.645 90.8087 193.638 90.7712C193.636 90.7287 193.624 90.6872 193.604 90.6501C193.583 90.613 193.554 90.5813 193.518 90.5576Z" fill="#263238"/>
<path d="M194.41 90.344L193.971 90.413L193.933 90.2058L195.076 90.0237L195.107 90.2372L194.661 90.3063L194.843 91.4367L194.592 91.4744L194.41 90.344Z" fill="#263238"/>
<path d="M216.867 75.7242C216.767 76.057 216.867 76.3522 217.081 76.4401C217.294 76.528 217.59 76.2768 217.677 75.9503C217.765 75.6237 217.677 75.3223 217.458 75.2343C217.238 75.1464 216.968 75.3913 216.867 75.7242Z" fill="#263238"/>
<path d="M218.136 77.043L215.316 78.6193C215.511 78.9448 215.778 79.2208 216.098 79.4257C216.417 79.6305 216.779 79.7586 217.156 79.7999L218.136 77.043Z" fill="#BA4D3C"/>
<path d="M218.626 74.732C218.596 74.7297 218.567 74.7205 218.54 74.7053C218.514 74.6901 218.492 74.6692 218.475 74.6441C218.364 74.446 218.206 74.2776 218.016 74.153C217.826 74.0284 217.609 73.9513 217.382 73.9282C217.335 73.925 217.29 73.9038 217.257 73.8688C217.225 73.8338 217.206 73.7877 217.207 73.7398C217.211 73.6915 217.234 73.6467 217.27 73.6142C217.306 73.5816 217.353 73.5637 217.401 73.564C217.689 73.5868 217.967 73.6801 218.21 73.8356C218.453 73.9911 218.654 74.2041 218.795 74.4557C218.818 74.4984 218.824 74.5484 218.811 74.5952C218.798 74.642 218.768 74.682 218.726 74.7069C218.695 74.7212 218.661 74.7297 218.626 74.732Z" fill="#263238"/>
<path d="M230.231 77.9725C229.101 82.4439 228.718 84.3593 225.942 86.2747C221.929 88.008 216.39 86.8399 216.139 82.1299C215.907 77.8972 217.79 71.3157 222.67 70.2858C224.318 69.9175 226.046 70.2159 227.475 71.1159C228.904 72.0158 229.92 73.4444 230.3 75.09C230.507 76.0427 230.483 77.0309 230.231 77.9725Z" fill="#CE7A63"/>
<path d="M221.42 77.2441L216.353 74.0476C216.353 74.0476 214.845 77.3948 215.467 77.6021C216.089 77.8093 217.068 75.1717 217.068 75.1717L220.692 77.1562L221.42 77.2441Z" fill="#407BFF"/>
<path opacity="0.7" d="M216.93 75.2594L216.547 75.002C216.547 75.002 215.335 77.3632 215.618 77.5893C215.9 77.8154 216.93 75.2594 216.93 75.2594Z" fill="white"/>
<path d="M220.755 86.2119C221.182 87.5746 219.442 90.8402 219.442 90.8402L225.829 93.9802L227.016 84.981C227.016 84.981 220.246 84.6042 220.755 86.2119Z" fill="#CE7A63"/>
<path d="M220.843 79.9445C220.618 79.1501 220.57 78.3162 220.703 77.5014C220.835 76.6866 221.144 75.9107 221.609 75.2282C222.281 74.3176 221.025 71.7428 220.252 74.0538C219.75 75.5485 216.874 72.6471 218.456 70.1414C218.456 70.1414 222.312 65.5695 225.251 69.281C225.251 69.281 232.253 70.1853 231.82 75.0021C231.82 75.0021 234.131 80.9807 226.488 87.0283L224.196 86.6013C223.022 86.3438 222.118 84.5979 221.797 83.4613L220.843 79.9445Z" fill="#263238"/>
<path d="M220.705 77.3131C220.298 77.551 219.943 77.8672 219.659 78.2435C219.376 78.6197 219.169 79.0484 219.053 79.5048C218.758 80.7169 219.882 81.2821 221.031 80.9116C222.067 80.5724 223.461 79.5362 223.248 78.3305C223.192 78.0652 223.072 77.8178 222.898 77.6102C222.723 77.4026 222.5 77.2413 222.249 77.1406C221.997 77.04 221.724 77.003 221.455 77.0331C221.186 77.0632 220.928 77.1594 220.705 77.3131Z" fill="#CE7A63"/>
<path d="M230.187 71.8117C230.187 71.8117 228.021 70.6561 228.165 72.7725C228.31 74.8889 229.848 77.7965 231.676 77.6081C233.503 77.4197 230.187 71.8117 230.187 71.8117Z" fill="#407BFF"/>
<path d="M232.021 70.1602C231.459 70.1561 230.911 70.3337 230.458 70.6664C230.006 70.9991 229.673 71.4692 229.509 72.0066C229.361 72.5426 229.341 73.1059 229.45 73.6511C229.559 74.1964 229.794 74.7086 230.137 75.1466C230.815 76.0383 231.776 79.5991 231.393 80.0889C230.872 80.7734 231.091 81.7092 230.853 82.5381C229.817 86.1554 233.245 87.4993 233.899 87.4868C234.197 87.6653 234.528 87.7818 234.872 87.8293C235.216 87.8768 235.567 87.8543 235.902 87.7631C236.31 87.6375 237.905 87.2984 237.158 85.2071C237.158 85.5902 236.53 85.9544 236.134 85.9105C235.932 85.8847 235.739 85.807 235.575 85.6849C235.411 85.5627 235.281 85.4003 235.199 85.2134C235.035 84.8366 236.191 86.1742 237.484 84.711C237.999 84.1207 238.112 82.3686 237.755 81.6589C238.6 80.4528 239.137 79.0577 239.318 77.5958C239.35 76.9872 239.254 76.3787 239.038 75.809C238.822 75.2392 238.49 74.7207 238.062 74.2862C238.388 73.6551 238.496 72.934 238.368 72.2353C238.241 71.5366 237.886 70.8997 237.359 70.424C236.82 69.9533 236.18 69.6137 235.488 69.4317C234.796 69.2498 234.072 69.2304 233.371 69.3752C232.743 69.4946 232.002 69.8337 231.895 70.4805" fill="#263238"/>
<path d="M207.868 101.359C207.868 101.359 205.061 97.7356 204.1 96.5675C203.422 95.7699 202.153 94.0555 201.299 93.4652C200.445 92.8748 198.078 91.757 196.953 91.87C196.771 91.87 196.552 91.9391 196.552 92.1212C196.552 92.6488 197.996 93.2579 198.95 93.597C199.047 93.6324 199.134 93.6885 199.206 93.7614C199.278 93.8342 199.333 93.922 199.367 94.0186C199.401 94.1151 199.413 94.2179 199.403 94.3198C199.393 94.4217 199.361 94.5202 199.308 94.6081C198.919 95.2361 198.442 96.8187 198.58 97.2206C198.775 97.7858 199.93 98.4075 200.42 98.7529C200.91 99.0983 202.216 99.8519 202.216 99.8519L205.588 105.177L207.868 101.359Z" fill="#CE7A63"/>
<path opacity="0.1" d="M207.868 101.359C207.868 101.359 205.061 97.7356 204.1 96.5675C203.422 95.7699 202.153 94.0555 201.299 93.4652C200.445 92.8748 198.078 91.757 196.953 91.87C196.771 91.87 196.552 91.9391 196.552 92.1212C196.552 92.6488 197.996 93.2579 198.95 93.597C199.047 93.6324 199.134 93.6885 199.206 93.7614C199.278 93.8342 199.333 93.922 199.367 94.0186C199.401 94.1151 199.413 94.2179 199.403 94.3198C199.393 94.4217 199.361 94.5202 199.308 94.6081C198.919 95.2361 198.442 96.8187 198.58 97.2206C198.775 97.7858 199.93 98.4075 200.42 98.7529C200.91 99.0983 202.216 99.8519 202.216 99.8519L205.588 105.177L207.868 101.359Z" fill="black"/>
<path d="M204.628 103.984C204.628 103.984 208.798 112.983 213.42 115.006C218.042 117.028 218.651 116.984 227.449 108.456C236.247 99.9273 234.684 94.9473 231.544 94.0116C228.404 93.0759 226.005 96.5236 223.204 100.48C221.129 103.258 218.818 105.851 216.296 108.229L207.542 100.731C207.542 100.731 205.099 101.033 204.628 103.984Z" fill="#263238"/>
<path d="M198.009 213.771L197.406 222.651L201.513 223.267L203.654 214.638L198.009 213.771Z" fill="#CE7A63"/>
<path d="M197.594 220.573L201.877 220.899C201.977 220.902 202.074 220.939 202.151 221.004C202.227 221.069 202.279 221.158 202.298 221.257L203.171 225.735C203.21 225.925 203.171 226.124 203.064 226.286C202.957 226.449 202.79 226.562 202.599 226.601H202.442C200.47 226.513 198.718 226.363 196.263 226.3C193.361 226.225 194.09 226.595 190.68 226.551C188.626 226.551 188.312 224.184 189.185 224.089C193.185 223.694 194.837 222.312 196.395 220.949C196.734 220.68 197.161 220.545 197.594 220.573Z" fill="#263238"/>
<path opacity="0.1" d="M202.241 220.34L197.594 219.901L198.008 213.771L203.654 214.638L202.241 220.34Z" fill="black"/>
<path d="M227.964 211.517L230.137 222.632L234.081 222.299L233.635 211.517H227.964Z" fill="#CE7A63"/>
<path d="M229.691 221.226L234.59 221.15C234.679 221.15 234.765 221.18 234.836 221.234C234.906 221.289 234.957 221.365 234.979 221.452L235.921 225.421C235.946 225.504 235.954 225.592 235.943 225.679C235.932 225.766 235.904 225.85 235.859 225.925C235.814 226 235.754 226.065 235.682 226.115C235.611 226.166 235.529 226.201 235.444 226.218H235.306C233.541 226.218 231.971 226.136 229.773 226.174C227.179 226.212 227.839 226.513 224.793 226.601C222.959 226.651 222.588 224.573 223.367 224.46C226.928 223.957 227.28 222.871 228.636 221.577C228.932 221.334 229.308 221.208 229.691 221.226Z" fill="#263238"/>
<path opacity="0.1" d="M233.974 219.8L229.66 220.214L228.065 212.05C229.949 211.956 233.038 211.818 233.648 211.793L233.974 219.8Z" fill="black"/>
<path d="M234.345 218.142L229.025 218.519L218.689 171.513L216.585 161.126L213.784 147.31L210.38 128.621H228.027C228.027 128.621 231.255 136.785 229.804 145.853C228.887 151.555 229.051 159.405 229.126 165.516C229.126 167.305 229.17 168.869 229.195 170.069C229.223 171.593 229.506 173.102 230.03 174.534C230.388 175.532 230.834 176.901 231.286 178.591C232.184 181.61 232.769 184.714 233.032 187.854C233.855 198.184 234.345 218.142 234.345 218.142Z" fill="#407BFF"/>
<path opacity="0.1" d="M234.345 218.142L229.025 218.519L218.689 171.513L216.585 161.126L213.784 147.31L210.38 128.621H228.027C228.027 128.621 231.255 136.785 229.804 145.853C228.887 151.555 229.051 159.405 229.126 165.516C229.126 167.305 229.17 168.869 229.195 170.069C229.223 171.593 229.506 173.102 230.03 174.534C230.388 175.532 230.834 176.901 231.286 178.591C232.184 181.61 232.769 184.714 233.032 187.854C233.855 198.184 234.345 218.142 234.345 218.142Z" fill="black"/>
<path opacity="0.1" d="M222.827 143.121C219.594 148.659 217.474 154.775 216.585 161.126L213.784 147.31L213.853 146.952L218.607 143.366L220.177 142.7L222.827 143.121Z" fill="black"/>
<path d="M206.254 128.621L197.462 217.508L202.863 218.305C202.863 218.305 209.821 195.578 210.895 182.384C211.026 180.983 211.063 179.575 211.008 178.17C210.933 176.376 211.16 174.582 211.68 172.863L212.415 170.389L216.516 155.279C217.352 152.357 218.752 149.626 220.635 147.241C222.815 144.528 225.804 137.425 224.573 128.809L211.159 128.621H206.254Z" fill="#407BFF"/>
<path d="M203.874 216.943L203.064 219.166L196.696 218.268L196.84 215.913L203.874 216.943Z" fill="#407BFF"/>
<path opacity="0.2" d="M203.874 216.943L203.064 219.166L196.696 218.268L196.84 215.913L203.874 216.943Z" fill="black"/>
<path d="M235.004 216.547L234.973 218.877L228.561 219.373L228.197 217.037L235.004 216.547Z" fill="#407BFF"/>
<path opacity="0.2" d="M235.004 216.547L234.973 218.877L228.561 219.373L228.197 217.037L235.004 216.547Z" fill="black"/>
<path d="M232.869 96.2285C232.938 103.325 228.071 106.622 227.889 125.324C227.889 125.324 227.179 128.57 206.43 125.148C206.43 125.148 206.813 121.581 206.43 112.588L206.392 111.853C206.204 107.551 206.097 103.545 206.204 101.083C206.204 100.7 206.242 100.354 206.267 100.059C206.285 99.7792 206.318 99.5003 206.367 99.224C207.253 94.3947 207.761 92.4479 209.507 91.3175C215.838 87.2229 232.819 91.7257 232.869 96.2285Z" fill="#263238"/>
<path opacity="0.4" d="M206.361 111.853C206.173 107.551 206.066 103.545 206.173 101.083C206.173 100.7 206.21 100.354 206.235 100.059L210.964 93.8735L212.936 94.7276C212.936 94.7276 214.726 102.276 206.361 111.853Z" fill="black"/>
<path d="M193.832 100.612L189.436 97.2081C189.46 95.7655 189.173 94.3348 188.595 93.0131C187.86 91.6315 184.513 89.1509 184.569 92.4416C184.626 95.7323 184.802 95.5125 185.361 96.6806C185.712 97.4279 186.321 97.6728 187.471 98.91C188.62 100.147 190.768 103.218 190.768 103.218L193.832 100.612Z" fill="#CE7A63"/>
<path d="M189.656 102.86C189.656 102.86 194.793 109.768 196.834 111.545C199.754 114.057 204.339 113.235 208.634 106.126C214.971 95.638 214.506 91.9768 211.291 91.3613C208.075 90.7459 206.518 94.7965 204.113 98.9852C201.708 103.174 200.068 105.824 200.068 105.824L192.941 99.2616C192.941 99.2616 189.863 99.8519 189.656 102.86Z" fill="#263238"/>
<path d="M218.544 90.4319C218.544 90.4319 220.824 86.4189 227.173 89.1005C230.853 90.6517 227.173 92.7806 227.173 92.7806L218.544 90.4319Z" fill="#263238"/>
<path opacity="0.4" d="M219.982 90.0615C219.982 90.0615 225.389 88.9751 228.071 91.8953L219.982 90.0615Z" fill="black"/>
<path d="M206.43 125.148L227.889 125.324L228.027 128.621H206.254L206.43 125.148Z" fill="#407BFF"/>
<path opacity="0.2" d="M206.43 125.148L227.889 125.324L228.027 128.621H206.254L206.43 125.148Z" fill="black"/>
<path d="M131.836 111.445C130.787 111.533 129.531 111.332 128.483 111.445C128.803 103.601 127.227 92.2092 123.697 83.1409C129.889 91.3865 131.428 101.108 131.836 111.445Z" fill="white"/>
<path d="M128.998 170.106L127 186.849C127 186.849 130.768 184.444 131.824 189.775C131.824 189.775 131.861 186.007 134.888 185.7C138.129 185.386 138.656 189.097 138.656 189.097C138.656 189.097 138.775 184.444 142.889 183.897L141.049 170.081L128.998 170.106Z" fill="#407BFF"/>
<path d="M107.978 198.724C107.978 198.724 97.4343 199.384 97.7734 197.87C98.1125 196.357 105.893 196.15 105.893 196.15C105.893 196.15 101.001 194.046 103.137 191.057C105.272 188.067 109.266 191.81 109.266 191.81C109.266 191.81 106.754 188.262 109.322 186.202C112.575 183.59 115.339 188.758 115.339 188.758C115.339 188.758 114.604 184.777 117.537 184.852C120.469 184.927 119.634 188.72 119.634 188.72C119.634 188.72 123.729 185.335 125.864 187.559C127.848 189.625 125.123 192.539 125.123 192.539C125.123 192.539 129.387 189.863 130.662 192.338C131.937 194.812 127.358 196.972 127.358 196.972C127.358 196.972 136.213 196.533 136.502 197.908C136.791 199.283 114.805 197.952 107.978 198.724Z" fill="#407BFF"/>
<path opacity="0.7" d="M107.978 198.724C107.978 198.724 97.4343 199.384 97.7734 197.87C98.1125 196.357 105.893 196.15 105.893 196.15C105.893 196.15 101.001 194.046 103.137 191.057C105.272 188.067 109.266 191.81 109.266 191.81C109.266 191.81 106.754 188.262 109.322 186.202C112.575 183.59 115.339 188.758 115.339 188.758C115.339 188.758 114.604 184.777 117.537 184.852C120.469 184.927 119.634 188.72 119.634 188.72C119.634 188.72 123.729 185.335 125.864 187.559C127.848 189.625 125.123 192.539 125.123 192.539C125.123 192.539 129.387 189.863 130.662 192.338C131.937 194.812 127.358 196.972 127.358 196.972C127.358 196.972 136.213 196.533 136.502 197.908C136.791 199.283 114.805 197.952 107.978 198.724Z" fill="white"/>
<path d="M143.486 198.084C143.486 198.084 132.935 198.75 133.274 197.23C133.613 195.71 141.394 195.509 141.394 195.509C141.394 195.509 136.502 193.405 138.637 190.422C140.773 187.439 144.767 191.17 144.767 191.17C144.767 191.17 142.255 187.628 144.823 185.568C148.076 182.955 150.84 188.117 150.84 188.117C150.84 188.117 150.111 184.142 153.038 184.218C155.964 184.293 155.135 188.08 155.135 188.08C155.135 188.08 159.23 184.695 161.365 186.924C163.349 188.99 160.624 191.898 160.624 191.898C160.624 191.898 164.888 189.223 166.169 191.703C167.45 194.184 162.859 196.338 162.859 196.338C162.859 196.338 171.721 195.898 172.003 197.274C172.286 198.649 150.306 197.311 143.486 198.084Z" fill="#407BFF"/>
<path opacity="0.7" d="M143.486 198.084C143.486 198.084 132.935 198.75 133.274 197.23C133.613 195.71 141.394 195.509 141.394 195.509C141.394 195.509 136.502 193.405 138.637 190.422C140.773 187.439 144.767 191.17 144.767 191.17C144.767 191.17 142.255 187.628 144.823 185.568C148.076 182.955 150.84 188.117 150.84 188.117C150.84 188.117 150.111 184.142 153.038 184.218C155.964 184.293 155.135 188.08 155.135 188.08C155.135 188.08 159.23 184.695 161.365 186.924C163.349 188.99 160.624 191.898 160.624 191.898C160.624 191.898 164.888 189.223 166.169 191.703C167.45 194.184 162.859 196.338 162.859 196.338C162.859 196.338 171.721 195.898 172.003 197.274C172.286 198.649 150.306 197.311 143.486 198.084Z" fill="white"/>
<path d="M123.088 184.55C123.088 184.55 117.574 182.183 119.98 178.817C122.385 175.451 126.888 179.664 126.888 179.664C126.888 179.664 124.049 175.67 126.944 173.34C130.618 170.401 133.726 176.223 133.726 176.223C133.726 176.223 132.904 171.739 136.238 171.827C139.573 171.915 138.6 176.185 138.6 176.185C138.6 176.185 143.216 172.367 145.621 174.879C147.856 177.209 144.786 180.487 144.786 180.487C144.786 180.487 149.59 177.473 151.066 180.267C152.541 183.062 147.335 185.492 147.335 185.492L123.088 184.55Z" fill="#407BFF"/>
<path opacity="0.6" d="M123.088 184.55C123.088 184.55 117.574 182.183 119.98 178.817C122.385 175.451 126.888 179.664 126.888 179.664C126.888 179.664 124.049 175.67 126.944 173.34C130.618 170.401 133.726 176.223 133.726 176.223C133.726 176.223 132.904 171.739 136.238 171.827C139.573 171.915 138.6 176.185 138.6 176.185C138.6 176.185 143.216 172.367 145.621 174.879C147.856 177.209 144.786 180.487 144.786 180.487C144.786 180.487 149.59 177.473 151.066 180.267C152.541 183.062 147.335 185.492 147.335 185.492L123.088 184.55Z" fill="white"/>
<path d="M120.388 198.825C120.388 198.825 104.87 199.805 105.366 197.569C105.862 195.333 117.298 195.057 117.298 195.057C117.298 195.057 110.107 191.967 113.247 187.571C116.456 183.075 122.265 188.676 122.265 188.676C122.265 188.676 118.566 183.464 122.347 180.431C127.132 176.587 131.196 184.199 131.196 184.199C131.196 184.199 130.122 178.346 134.436 178.453C138.75 178.559 137.513 184.142 137.513 184.142C137.513 184.142 143.542 179.162 146.682 182.434C149.602 185.48 145.589 189.757 145.589 189.757C145.589 189.757 151.869 185.825 153.753 189.468C155.637 193.11 148.886 196.288 148.886 196.288C148.886 196.288 161.917 195.66 162.344 197.663C162.771 199.666 130.429 197.695 120.388 198.825Z" fill="#407BFF"/>
<path opacity="0.8" d="M120.388 198.825C120.388 198.825 104.87 199.805 105.366 197.569C105.862 195.333 117.298 195.057 117.298 195.057C117.298 195.057 110.107 191.967 113.247 187.571C116.456 183.075 122.265 188.676 122.265 188.676C122.265 188.676 118.566 183.464 122.347 180.431C127.132 176.587 131.196 184.199 131.196 184.199C131.196 184.199 130.122 178.346 134.436 178.453C138.75 178.559 137.513 184.142 137.513 184.142C137.513 184.142 143.542 179.162 146.682 182.434C149.602 185.48 145.589 189.757 145.589 189.757C145.589 189.757 151.869 185.825 153.753 189.468C155.637 193.11 148.886 196.288 148.886 196.288C148.886 196.288 161.917 195.66 162.344 197.663C162.771 199.666 130.429 197.695 120.388 198.825Z" fill="white"/>
<path opacity="0.9" d="M128.998 171.256L127 187.967C127 187.967 130.768 185.631 131.824 190.981C131.824 190.981 131.861 187.213 134.888 186.956C138.129 186.698 138.656 190.422 138.656 190.422C138.656 190.422 138.775 185.769 142.889 185.291L141.049 171.475L128.998 171.256Z" fill="white"/>
<path opacity="0.1" d="M131.736 178.226C131.213 180.514 131.102 182.877 131.409 185.203C131.409 185.203 132.32 181.178 131.736 178.226Z" fill="black"/>
<path opacity="0.1" d="M138.267 180.562C137.944 182.648 137.991 184.773 138.405 186.843C138.405 186.843 138.976 183.175 138.267 180.562Z" fill="black"/>
<path d="M122.755 50.152V54.3534C130.683 56.6208 139.087 56.6208 147.015 54.3534V50.152C147.022 44.7128 145.954 39.3259 143.873 34.3005C141.792 29.2752 138.739 24.7104 134.888 20.8684C131.036 24.7093 127.981 29.2737 125.899 34.2992C123.817 39.3247 122.748 44.7122 122.755 50.152Z" fill="#407BFF"/>
<g opacity="0.3">
<path opacity="0.3" d="M122.755 50.152V54.3534C130.683 56.6208 139.087 56.6208 147.015 54.3534V50.152C147.022 44.7128 145.954 39.3259 143.873 34.3005C141.792 29.2752 138.739 24.7104 134.888 20.8684C131.036 24.7093 127.981 29.2737 125.899 34.2992C123.817 39.3247 122.748 44.7122 122.755 50.152Z" fill="black"/>
</g>
<path d="M135.981 42.2517V49.0215H134.392V43.5077H133.042V42.2517H135.981Z" fill="#263238"/>
<path d="M147.015 89.5653V57.776C139.087 55.5086 130.683 55.5086 122.755 57.776V89.5842C130.681 87.3106 139.086 87.3041 147.015 89.5653Z" fill="#263238"/>
<path d="M122.755 57.8074V89.6156C130.683 91.883 139.087 91.883 147.015 89.6156V57.8074C139.087 60.0748 130.683 60.0748 122.755 57.8074Z" fill="#407BFF"/>
<path opacity="0.3" d="M122.755 57.8074V89.6156C130.683 91.883 139.087 91.883 147.015 89.6156V57.8074C139.087 60.0748 130.683 60.0748 122.755 57.8074Z" fill="white"/>
<path opacity="0.4" d="M140.81 61.0479V89.49C140.81 89.49 143.705 89.9548 144.729 88.4727V60.1248L144.553 60.2001C143.368 60.7379 142.086 61.0264 140.785 61.0479H140.81Z" fill="white"/>
<path d="M141.666 81.248C145.376 77.5373 145.376 71.5212 141.666 67.8106C137.955 64.1 131.939 64.1 128.228 67.8106C124.518 71.5212 124.518 77.5373 128.228 81.248C131.939 84.9586 137.955 84.9586 141.666 81.248Z" fill="#407BFF"/>
<path d="M134.945 84.0264C132.549 84.0265 130.241 83.1202 128.486 81.4893C126.73 79.8585 125.657 77.624 125.481 75.2344C125.481 75.473 125.443 75.7054 125.443 75.9503C125.408 77.2181 125.627 78.48 126.088 79.6618C126.548 80.8436 127.24 81.9212 128.124 82.8312C129.007 83.7411 130.064 84.465 131.231 84.9602C132.399 85.4554 133.654 85.7118 134.922 85.7143C136.191 85.7168 137.446 85.4654 138.616 84.9749C139.786 84.4843 140.845 83.7646 141.732 82.8582C142.619 81.9517 143.316 80.8768 143.781 79.6969C144.246 78.517 144.47 77.2559 144.44 75.988C144.44 75.7431 144.44 75.5107 144.409 75.2721C144.222 77.6544 143.144 79.8788 141.39 81.5015C139.636 83.1242 137.334 84.0258 134.945 84.0264Z" fill="#407BFF"/>
<path opacity="0.3" d="M134.945 84.0264C132.549 84.0265 130.241 83.1202 128.486 81.4893C126.73 79.8585 125.657 77.624 125.481 75.2344C125.481 75.473 125.443 75.7054 125.443 75.9503C125.408 77.2181 125.627 78.48 126.088 79.6618C126.548 80.8436 127.24 81.9212 128.124 82.8312C129.007 83.7411 130.064 84.465 131.231 84.9602C132.399 85.4554 133.654 85.7118 134.922 85.7143C136.191 85.7168 137.446 85.4654 138.616 84.9749C139.786 84.4843 140.845 83.7646 141.732 82.8582C142.619 81.9517 143.316 80.8768 143.781 79.6969C144.246 78.517 144.47 77.2559 144.44 75.988C144.44 75.7431 144.44 75.5107 144.409 75.2721C144.222 77.6544 143.144 79.8788 141.39 81.5015C139.636 83.1242 137.334 84.0258 134.945 84.0264Z" fill="black"/>
<path opacity="0.6" d="M139.698 79.2808C142.322 76.6566 142.322 72.402 139.698 69.7778C137.074 67.1537 132.819 67.1537 130.195 69.7778C127.571 72.402 127.571 76.6566 130.195 79.2808C132.819 81.9049 137.074 81.9049 139.698 79.2808Z" fill="white"/>
<path d="M134.593 81.213L137.344 68.2699C136.629 67.9983 135.873 67.8496 135.108 67.8303L132.37 80.7294C133.078 81.0169 133.83 81.1805 134.593 81.213Z" fill="#407BFF"/>
<path d="M137.099 80.8612L139.485 69.6075C139.176 69.3227 138.842 69.0663 138.487 68.8413L135.874 81.1501C136.291 81.0926 136.701 80.9958 137.099 80.8612Z" fill="#407BFF"/>
<g opacity="0.7">
<path opacity="0.7" d="M134.593 81.213L137.344 68.2699C136.629 67.9983 135.873 67.8496 135.108 67.8303L132.37 80.7294C133.078 81.0169 133.83 81.1805 134.593 81.213Z" fill="white"/>
<path opacity="0.7" d="M137.099 80.8612L139.485 69.6075C139.176 69.3227 138.842 69.0663 138.487 68.8413L135.874 81.1501C136.29 81.0926 136.7 80.9958 137.099 80.8612Z" fill="white"/>
</g>
<path d="M137.469 76.4842V77.7402H132.351V76.7228L134.964 74.2548C135.185 74.0602 135.374 73.8312 135.523 73.5765C135.616 73.4026 135.665 73.2086 135.667 73.0113C135.674 72.8922 135.653 72.773 135.605 72.6637C135.557 72.5545 135.484 72.4583 135.391 72.3833C135.155 72.2229 134.871 72.1476 134.587 72.1698C134.31 72.1665 134.035 72.2244 133.783 72.3394C133.544 72.4528 133.339 72.6258 133.186 72.8418L132.043 72.107C132.319 71.7075 132.696 71.3888 133.136 71.1838C133.636 70.9555 134.181 70.8418 134.731 70.851C135.184 70.8402 135.633 70.9259 136.05 71.1022C136.402 71.2458 136.706 71.4851 136.929 71.793C137.144 72.1043 137.254 72.4761 137.243 72.8543C137.246 73.213 137.167 73.5675 137.011 73.8905C136.782 74.3094 136.478 74.6821 136.113 74.9895L134.555 76.459L137.469 76.4842Z" fill="#263238"/>
<path d="M147.015 124.828V93.0194C139.087 90.752 130.683 90.752 122.755 93.0194V124.828C130.683 122.56 139.087 122.56 147.015 124.828Z" fill="#263238"/>
<path d="M144.585 97.1077H125.186L110.566 123.088C110.485 123.232 110.443 123.395 110.444 123.56C110.445 123.725 110.49 123.887 110.573 124.03C110.656 124.173 110.775 124.291 110.918 124.374C111.061 124.457 111.223 124.5 111.388 124.501H158.382C158.547 124.5 158.709 124.457 158.852 124.374C158.995 124.291 159.114 124.173 159.197 124.03C159.28 123.887 159.325 123.725 159.326 123.56C159.327 123.395 159.285 123.232 159.204 123.088L144.585 97.1077Z" fill="#407BFF"/>
<path d="M147.015 93.0696C139.087 95.337 130.683 95.337 122.755 93.0696V125.82C130.683 128.091 139.088 128.091 147.015 125.82V93.0696Z" fill="#407BFF"/>
<path opacity="0.5" d="M147.015 93.0696C139.087 95.337 130.683 95.337 122.755 93.0696V125.82C130.683 128.091 139.088 128.091 147.015 125.82V93.0696Z" fill="white"/>
<path opacity="0.4" d="M140.81 96.8878V125.336C140.81 125.336 143.705 125.795 144.729 124.313V95.9646L144.553 96.0462C143.369 96.5849 142.086 96.8715 140.785 96.8878H140.81Z" fill="white"/>
<path d="M136.904 110.66C137.214 111.004 137.382 111.453 137.375 111.916C137.379 112.3 137.272 112.677 137.067 113.002C136.837 113.354 136.51 113.631 136.125 113.8C135.635 114.014 135.103 114.117 134.568 114.101C134.093 114.101 133.62 114.038 133.161 113.913C132.741 113.806 132.344 113.625 131.987 113.379L132.615 112.18C132.888 112.376 133.191 112.527 133.513 112.625C133.848 112.733 134.197 112.788 134.549 112.789C134.875 112.808 135.2 112.727 135.478 112.556C135.584 112.49 135.671 112.397 135.73 112.287C135.79 112.177 135.82 112.053 135.818 111.928C135.818 111.376 135.397 111.099 134.562 111.099H133.846V110.063L135.24 108.487H132.357V107.231H137.099V108.242L135.566 109.982C136.075 110.053 136.546 110.292 136.904 110.66Z" fill="#263238"/>
<path d="M122.755 134.097H121.587L101.529 169.736C101.418 169.934 101.361 170.157 101.364 170.384C101.366 170.611 101.428 170.833 101.543 171.029C101.658 171.224 101.822 171.386 102.019 171.499C102.216 171.611 102.439 171.67 102.666 171.67H122.762L122.755 134.097Z" fill="#407BFF"/>
<path d="M168.241 169.736L148.208 134.097H147.015V171.67H167.111C167.338 171.671 167.561 171.613 167.758 171.5C167.956 171.388 168.12 171.225 168.234 171.029C168.349 170.833 168.41 170.611 168.411 170.384C168.412 170.157 168.354 169.933 168.241 169.736Z" fill="#407BFF"/>
<g opacity="0.2">
<path opacity="0.2" d="M122.755 134.097H121.587L101.529 169.736C101.418 169.934 101.361 170.157 101.364 170.384C101.366 170.611 101.428 170.833 101.543 171.029C101.658 171.224 101.822 171.386 102.019 171.499C102.216 171.611 102.439 171.67 102.666 171.67H122.762L122.755 134.097Z" fill="black"/>
<path opacity="0.2" d="M168.242 169.736L148.208 134.097H147.015V171.67H167.111C167.338 171.671 167.561 171.613 167.759 171.5C167.956 171.388 168.12 171.225 168.235 171.029C168.349 170.833 168.41 170.611 168.411 170.384C168.412 170.157 168.354 169.933 168.242 169.736Z" fill="black"/>
</g>
<path d="M147.015 155.687V129.406C139.087 127.138 130.683 127.138 122.755 129.406V155.687C130.683 153.42 139.087 153.42 147.015 155.687Z" fill="#263238"/>
<path d="M143.812 172.166L140.628 159.091H129.142L125.958 172.166C128.787 173.343 131.821 173.95 134.885 173.95C137.949 173.95 140.983 173.343 143.812 172.166Z" fill="#263238"/>
<path opacity="0.2" d="M129.142 159.091L128.395 162.15C132.634 163.383 137.136 163.383 141.376 162.15L140.628 159.091H129.142Z" fill="white"/>
<path opacity="0.4" d="M127.597 165.434C127.396 166.263 127.189 167.098 126.969 167.896C132.107 169.491 137.607 169.491 142.745 167.896L142.117 165.44C137.322 166.382 132.391 166.38 127.597 165.434Z" fill="white"/>
<path d="M147.015 129.28C139.088 131.551 130.683 131.551 122.755 129.28V152.083C130.613 154.805 139.158 154.805 147.015 152.083V129.286V129.28Z" fill="#407BFF"/>
<path opacity="0.7" d="M147.015 129.28C139.088 131.551 130.683 131.551 122.755 129.28V152.083C130.613 154.805 139.158 154.805 147.015 152.083V129.286V129.28Z" fill="white"/>
<path d="M122.755 152.077V157.628C126.6 159.225 130.722 160.047 134.885 160.047C139.048 160.047 143.17 159.225 147.015 157.628V152.064C139.159 154.79 130.614 154.795 122.755 152.077Z" fill="#407BFF"/>
<path opacity="0.2" d="M122.755 152.077V157.628C126.6 159.225 130.722 160.047 134.885 160.047C139.048 160.047 143.17 159.225 147.015 157.628V152.064C139.159 154.79 130.614 154.795 122.755 152.077Z" fill="black"/>
<path d="M117.355 142.317V144.201C120.886 145.216 124.631 145.216 128.162 144.201V142.317C128.165 139.894 127.689 137.494 126.761 135.256C125.833 133.018 124.472 130.985 122.755 129.274C121.041 130.986 119.681 133.019 118.755 135.257C117.828 137.496 117.352 139.895 117.355 142.317Z" fill="#407BFF"/>
<path opacity="0.2" d="M117.355 142.317V144.201C120.886 145.216 124.631 145.216 128.162 144.201V142.317C128.165 139.894 127.689 137.494 126.761 135.256C125.833 133.018 124.472 130.985 122.755 129.274C121.041 130.986 119.681 133.019 118.755 135.257C117.828 137.496 117.352 139.895 117.355 142.317Z" fill="white"/>
<path d="M117.354 144.189V158.356C120.886 159.368 124.631 159.368 128.162 158.356V144.189C124.631 145.203 120.886 145.203 117.354 144.189Z" fill="#407BFF"/>
<path opacity="0.4" d="M117.354 144.189V158.356C120.886 159.368 124.631 159.368 128.162 158.356V144.189C124.631 145.203 120.886 145.203 117.354 144.189Z" fill="white"/>
<path d="M128.162 158.363C124.631 159.374 120.886 159.374 117.354 158.363V172.951C120.887 173.959 124.63 173.959 128.162 172.951V158.363Z" fill="#407BFF"/>
<path opacity="0.6" d="M128.162 158.363C124.631 159.374 120.886 159.374 117.354 158.363V172.951C120.887 173.959 124.63 173.959 128.162 172.951V158.363Z" fill="white"/>
<path d="M117.354 172.7V175.181C119.067 175.891 120.904 176.257 122.758 176.257C124.613 176.257 126.449 175.891 128.162 175.181V172.7C124.662 173.912 120.855 173.912 117.354 172.7Z" fill="#407BFF"/>
<path opacity="0.4" d="M122.755 131.139C122.755 131.139 124.69 135.949 124.69 140.126V171.758L126.335 171.425V138.26C126.335 138.26 126.084 133.871 122.755 131.139Z" fill="white"/>
<path d="M141.614 142.317V144.201C145.143 145.216 148.887 145.216 152.416 144.201V142.317C152.418 139.895 151.942 137.496 151.015 135.257C150.089 133.019 148.729 130.986 147.015 129.274C145.299 130.985 143.939 133.018 143.012 135.257C142.085 137.495 141.61 139.895 141.614 142.317Z" fill="#407BFF"/>
<path opacity="0.2" d="M141.614 142.317V144.201C145.143 145.216 148.887 145.216 152.416 144.201V142.317C152.418 139.895 151.942 137.496 151.015 135.257C150.089 133.019 148.729 130.986 147.015 129.274C145.299 130.985 143.939 133.018 143.012 135.257C142.085 137.495 141.61 139.895 141.614 142.317Z" fill="white"/>
<path d="M141.614 144.189V158.356C145.144 159.368 148.886 159.368 152.416 158.356V144.189C148.887 145.203 145.143 145.203 141.614 144.189Z" fill="#407BFF"/>
<path opacity="0.4" d="M141.614 144.189V158.356C145.144 159.368 148.886 159.368 152.416 158.356V144.189C148.887 145.203 145.143 145.203 141.614 144.189Z" fill="white"/>
<path d="M152.416 158.363C148.886 159.374 145.144 159.374 141.614 158.363V172.951C145.144 173.959 148.886 173.959 152.416 172.951V158.363Z" fill="#407BFF"/>
<path opacity="0.6" d="M152.416 158.363C148.886 159.374 145.144 159.374 141.614 158.363V172.951C145.144 173.959 148.886 173.959 152.416 172.951V158.363Z" fill="white"/>
<path d="M141.614 172.7V175.181C143.326 175.891 145.161 176.257 147.015 176.257C148.868 176.257 150.704 175.891 152.416 175.181V172.7C148.917 173.912 145.113 173.912 141.614 172.7Z" fill="#407BFF"/>
<path opacity="0.4" d="M147.109 131.516C147.109 131.516 149.043 136.326 149.043 140.502V172.135L150.682 171.802V138.637C150.682 138.637 150.438 134.247 147.109 131.516Z" fill="white"/>
<path d="M138.16 147.354H137.03V148.773H135.497V147.354H131.88V146.324L135.07 142.029H136.716L133.764 146.079H135.579V144.823H137.061V146.079H138.16V147.354Z" fill="#263238"/>
<path opacity="0.4" d="M141.445 36.3862C143.234 41.7556 143.881 47.483 144.12 53.6248C142.644 54.5166 142.644 54.5166 140.766 54.2026C140.948 48.2626 140.382 42.3234 139.083 36.5244L141.445 36.3862Z" fill="white"/>
<path opacity="0.4" d="M138.788 34.27C138.082 31.1241 137.153 28.0328 136.006 25.0195C138.124 27.8565 139.817 30.9877 141.03 34.3139L138.788 34.27Z" fill="white"/>
<path d="M150.613 145.752L150.048 145.476L156.146 133.079H172.888V133.707H156.541L150.613 145.752Z" fill="#407BFF"/>
<path d="M150.789 147.228C151.895 147.228 152.792 146.331 152.792 145.225C152.792 144.119 151.895 143.222 150.789 143.222C149.683 143.222 148.786 144.119 148.786 145.225C148.786 146.331 149.683 147.228 150.789 147.228Z" fill="#263238"/>
<path d="M193.662 120.457H175.513C173.776 120.457 172.367 121.865 172.367 123.603V141.752C172.367 143.49 173.776 144.898 175.513 144.898H193.662C195.4 144.898 196.809 143.49 196.809 141.752V123.603C196.809 121.865 195.4 120.457 193.662 120.457Z" fill="#407BFF"/>
<path opacity="0.4" d="M193.662 120.457H175.513C173.776 120.457 172.367 121.865 172.367 123.603V141.752C172.367 143.49 173.776 144.898 175.513 144.898H193.662C195.4 144.898 196.809 143.49 196.809 141.752V123.603C196.809 121.865 195.4 120.457 193.662 120.457Z" fill="black"/>
<path d="M186.899 129.996C186.899 131.447 186.039 132.627 184.588 132.627C183.137 132.627 182.271 131.447 182.271 129.996C182.271 128.545 183.137 127.371 184.588 127.371C186.039 127.371 186.899 128.539 186.899 129.996Z" fill="#407BFF"/>
<path d="M186.729 132.137C186.467 132.45 186.14 132.702 185.77 132.874C185.4 133.047 184.996 133.137 184.588 133.137C184.18 133.137 183.776 133.047 183.406 132.874C183.037 132.702 182.709 132.45 182.447 132.137C180.6 132.765 179.545 134.342 179.545 136.697H189.656C189.656 134.342 188.576 132.778 186.729 132.137Z" fill="#407BFF"/>
<path d="M177.919 134.204C178.664 134.204 179.269 133.518 179.269 132.671C179.269 131.825 178.664 131.139 177.919 131.139C177.173 131.139 176.568 131.825 176.568 132.671C176.568 133.518 177.173 134.204 177.919 134.204Z" fill="#407BFF"/>
<path d="M191.257 134.204C192.003 134.204 192.607 133.518 192.607 132.671C192.607 131.825 192.003 131.139 191.257 131.139C190.511 131.139 189.907 131.825 189.907 132.671C189.907 133.518 190.511 134.204 191.257 134.204Z" fill="#407BFF"/>
<path d="M190.158 136.697H194.309C194.309 135.321 193.681 134.411 192.626 134.04C192.474 134.226 192.282 134.375 192.065 134.478C191.848 134.58 191.61 134.633 191.37 134.633C191.13 134.633 190.893 134.58 190.676 134.478C190.459 134.375 190.267 134.226 190.114 134.04C189.966 134.091 189.823 134.156 189.687 134.235C190.008 135.016 190.168 135.853 190.158 136.697Z" fill="#407BFF"/>
<path d="M179.011 136.697C178.996 135.853 179.154 135.015 179.476 134.235C179.338 134.156 179.193 134.091 179.043 134.04C178.891 134.227 178.699 134.377 178.482 134.48C178.265 134.583 178.027 134.637 177.787 134.637C177.546 134.637 177.309 134.583 177.091 134.48C176.874 134.377 176.683 134.227 176.531 134.04C175.45 134.411 174.841 135.296 174.841 136.697H179.011Z" fill="#407BFF"/>
<path opacity="0.8" d="M186.899 129.996C186.899 131.447 186.039 132.627 184.588 132.627C183.137 132.627 182.271 131.447 182.271 129.996C182.271 128.545 183.137 127.371 184.588 127.371C186.039 127.371 186.899 128.539 186.899 129.996Z" fill="white"/>
<path opacity="0.8" d="M186.729 132.137C186.467 132.45 186.14 132.702 185.77 132.874C185.4 133.047 184.996 133.137 184.588 133.137C184.18 133.137 183.776 133.047 183.406 132.874C183.037 132.702 182.709 132.45 182.447 132.137C180.6 132.765 179.545 134.342 179.545 136.697H189.656C189.656 134.342 188.576 132.778 186.729 132.137Z" fill="white"/>
<path opacity="0.8" d="M177.919 134.204C178.664 134.204 179.269 133.518 179.269 132.671C179.269 131.825 178.664 131.139 177.919 131.139C177.173 131.139 176.568 131.825 176.568 132.671C176.568 133.518 177.173 134.204 177.919 134.204Z" fill="white"/>
<path opacity="0.8" d="M191.257 134.204C192.003 134.204 192.607 133.518 192.607 132.671C192.607 131.825 192.003 131.139 191.257 131.139C190.511 131.139 189.907 131.825 189.907 132.671C189.907 133.518 190.511 134.204 191.257 134.204Z" fill="white"/>
<path opacity="0.8" d="M190.158 136.697H194.309C194.309 135.321 193.681 134.411 192.626 134.04C192.474 134.226 192.282 134.375 192.065 134.478C191.848 134.58 191.61 134.633 191.37 134.633C191.13 134.633 190.893 134.58 190.676 134.478C190.459 134.375 190.267 134.226 190.114 134.04C189.966 134.091 189.823 134.156 189.687 134.235C190.008 135.016 190.168 135.853 190.158 136.697Z" fill="white"/>
<path opacity="0.8" d="M179.011 136.697C178.996 135.853 179.154 135.015 179.476 134.235C179.338 134.156 179.193 134.091 179.043 134.04C178.891 134.227 178.699 134.377 178.482 134.48C178.265 134.583 178.027 134.637 177.787 134.637C177.546 134.637 177.309 134.583 177.091 134.48C176.874 134.377 176.683 134.227 176.531 134.04C175.45 134.411 174.841 135.296 174.841 136.697H179.011Z" fill="white"/>
<path d="M118.183 75.3161L112.255 63.2711H95.9082V62.6431H112.651L118.749 75.0398L118.183 75.3161Z" fill="#407BFF"/>
<path d="M118.008 76.7918C119.114 76.7918 120.011 75.8949 120.011 74.7885C120.011 73.6821 119.114 72.7852 118.008 72.7852C116.901 72.7852 116.004 73.6821 116.004 74.7885C116.004 75.8949 116.901 76.7918 118.008 76.7918Z" fill="#263238"/>
<path d="M94.4073 49.2729H76.2581C74.5205 49.2729 73.1118 50.6816 73.1118 52.4192V70.5684C73.1118 72.3061 74.5205 73.7147 76.2581 73.7147H94.4073C96.1449 73.7147 97.5536 72.3061 97.5536 70.5684V52.4192C97.5536 50.6816 96.1449 49.2729 94.4073 49.2729Z" fill="#407BFF"/>
<path opacity="0.4" d="M94.4073 49.2729H76.2581C74.5205 49.2729 73.1118 50.6816 73.1118 52.4192V70.5684C73.1118 72.3061 74.5205 73.7147 76.2581 73.7147H94.4073C96.1449 73.7147 97.5536 72.3061 97.5536 70.5684V52.4192C97.5536 50.6816 96.1449 49.2729 94.4073 49.2729Z" fill="black"/>
<path d="M79.0526 62.5048L82.2052 65.6574L85.2384 60.6962L88.3659 65.8144L92.0585 59.4716L92.1402 60.2378L93.0194 60.1498L92.7368 57.4243L90.2813 58.5673L90.6581 59.3648L91.2672 59.076L88.3533 64.0937L85.2384 59.0006L82.0356 64.2444L78.9522 61.1546L76.189 64.9101L76.8986 65.4313L79.0526 62.5048Z" fill="#407BFF"/>
<path d="M93.8169 57.4243V66.4236H76.189V67.083H94.4763V57.4243H93.8169Z" fill="#407BFF"/>
<g opacity="0.8">
<path opacity="0.8" d="M79.0526 62.5048L82.2052 65.6574L85.2384 60.6962L88.3659 65.8144L92.0585 59.4716L92.1402 60.2378L93.0194 60.1498L92.7368 57.4243L90.2813 58.5673L90.6581 59.3648L91.2672 59.076L88.3533 64.0937L85.2384 59.0006L82.0356 64.2444L78.9522 61.1546L76.189 64.9101L76.8986 65.4313L79.0526 62.5048Z" fill="white"/>
<path opacity="0.8" d="M93.8169 57.4243V66.4236H76.189V67.083H94.4763V57.4243H93.8169Z" fill="white"/>
</g>
<path d="M118.183 111.571L112.255 99.5255H95.908V98.8975H112.65L118.748 111.294L118.183 111.571Z" fill="#407BFF"/>
<path d="M118.007 113.046C119.114 113.046 120.011 112.149 120.011 111.043C120.011 109.936 119.114 109.04 118.007 109.04C116.901 109.04 116.004 109.936 116.004 111.043C116.004 112.149 116.901 113.046 118.007 113.046Z" fill="#263238"/>
<path d="M94.4385 86.2683H76.2893C74.5517 86.2683 73.1431 87.677 73.1431 89.4146V107.564C73.1431 109.301 74.5517 110.71 76.2893 110.71H94.4385C96.1762 110.71 97.5848 109.301 97.5848 107.564V89.4146C97.5848 87.677 96.1762 86.2683 94.4385 86.2683Z" fill="#407BFF"/>
<path opacity="0.4" d="M94.4385 86.2683H76.2893C74.5517 86.2683 73.1431 87.677 73.1431 89.4146V107.564C73.1431 109.301 74.5517 110.71 76.2893 110.71H94.4385C96.1762 110.71 97.5848 109.301 97.5848 107.564V89.4146C97.5848 87.677 96.1762 86.2683 94.4385 86.2683Z" fill="black"/>
<path d="M87.5494 97.3776C87.5589 97.2165 87.5589 97.055 87.5494 96.894L89.1068 95.7196C88.9609 95.211 88.7498 94.7234 88.4788 94.269L86.5446 94.539C86.3407 94.2859 86.1113 94.0544 85.8601 93.8482L86.1301 91.9202C85.6737 91.6531 85.1865 91.4422 84.6794 91.2922L83.5239 92.8748C83.3608 92.8653 83.1972 92.8653 83.0341 92.8748C82.873 92.8653 82.7115 92.8653 82.5505 92.8748L81.3761 91.3174C80.8686 91.4662 80.3813 91.6771 79.9254 91.9454L80.1955 93.8733C79.9438 94.0811 79.7125 94.3124 79.5047 94.5641L77.5767 94.2941C77.3085 94.7499 77.0975 95.2372 76.9487 95.7448L78.5062 96.9191C78.4727 97.2427 78.4727 97.5689 78.5062 97.8925L76.9487 99.0669C77.0987 99.574 77.3096 100.061 77.5767 100.518L79.5047 100.248C79.7109 100.499 79.9424 100.728 80.1955 100.932L79.9254 102.866C80.3799 103.137 80.8675 103.348 81.3761 103.494L82.5505 101.943C82.7075 101.943 82.8708 101.943 83.0341 101.943C83.1973 101.943 83.3606 101.943 83.5239 101.943L84.6982 103.494C85.2065 103.347 85.6939 103.136 86.1489 102.866L85.8789 100.932C86.1316 100.73 86.3611 100.5 86.5634 100.248L88.4977 100.518C88.7676 100.063 88.9786 99.5751 89.1257 99.0669L87.5682 97.8925C87.5727 97.7206 87.5664 97.5486 87.5494 97.3776ZM83.0152 98.822C82.7295 98.822 82.4503 98.7372 82.2127 98.5785C81.9752 98.4198 81.7901 98.1942 81.6808 97.9303C81.5714 97.6664 81.5428 97.376 81.5986 97.0958C81.6543 96.8156 81.7919 96.5582 81.9939 96.3562C82.1959 96.1542 82.4532 96.0166 82.7334 95.9609C83.0136 95.9052 83.304 95.9338 83.568 96.0431C83.8319 96.1524 84.0575 96.3376 84.2162 96.5751C84.3749 96.8126 84.4596 97.0919 84.4596 97.3776C84.4596 97.7606 84.3074 98.128 84.0366 98.3989C83.7657 98.6698 83.3983 98.822 83.0152 98.822Z" fill="#407BFF"/>
<path d="M92.9814 103.099C92.9814 103.017 92.9814 102.935 92.9814 102.854L93.7602 102.27C93.6925 102.017 93.5911 101.774 93.4587 101.548L92.4916 101.679C92.3899 101.554 92.2764 101.438 92.1525 101.334L92.2844 100.373C92.0582 100.241 91.8153 100.139 91.5622 100.072L90.9718 100.85C90.8903 100.844 90.8084 100.844 90.7269 100.85C90.6475 100.844 90.5677 100.844 90.4883 100.85L89.898 100.072C89.6448 100.139 89.4019 100.241 89.1758 100.373L89.3076 101.334C89.1833 101.44 89.0678 101.555 88.9622 101.679L88.0014 101.548C87.869 101.774 87.7676 102.017 87.7 102.27L88.4787 102.854C88.4787 102.935 88.4787 103.017 88.4787 103.099C88.4787 103.18 88.4787 103.262 88.4787 103.344L87.7 103.934C87.7688 104.187 87.8702 104.429 88.0014 104.656L88.9622 104.518C89.0644 104.645 89.1803 104.761 89.3076 104.863L89.1758 105.831C89.4032 105.96 89.6458 106.062 89.898 106.132L90.4883 105.353H90.7269H90.9718L91.5622 106.132C91.8143 106.062 92.0569 105.96 92.2844 105.831L92.1525 104.863C92.2793 104.763 92.3932 104.647 92.4916 104.518L93.4587 104.656C93.59 104.429 93.6913 104.187 93.7602 103.934L92.9814 103.344C92.9752 103.262 92.9814 103.18 92.9814 103.099ZM90.7144 104.662C90.4051 104.662 90.1028 104.571 89.8456 104.399C89.5884 104.227 89.388 103.983 89.2697 103.697C89.1513 103.411 89.1203 103.097 89.1807 102.794C89.241 102.49 89.3899 102.212 89.6086 101.993C89.8273 101.774 90.106 101.625 90.4093 101.565C90.7126 101.505 91.027 101.536 91.3128 101.654C91.5985 101.772 91.8427 101.973 92.0145 102.23C92.1864 102.487 92.2781 102.789 92.2781 103.099C92.2781 103.304 92.2376 103.507 92.159 103.697C92.0805 103.887 91.9653 104.059 91.8201 104.204C91.6749 104.35 91.5025 104.465 91.3128 104.543C91.123 104.622 90.9197 104.662 90.7144 104.662Z" fill="#407BFF"/>
<g opacity="0.8">
<path opacity="0.8" d="M87.5494 97.3776C87.5589 97.2165 87.5589 97.055 87.5494 96.894L89.1068 95.7196C88.9609 95.211 88.7498 94.7234 88.4788 94.269L86.5446 94.539C86.3407 94.2859 86.1113 94.0544 85.8601 93.8482L86.1301 91.9202C85.6737 91.6531 85.1865 91.4422 84.6794 91.2922L83.5239 92.8748C83.3608 92.8653 83.1972 92.8653 83.0341 92.8748C82.873 92.8653 82.7115 92.8653 82.5505 92.8748L81.3761 91.3174C80.8686 91.4662 80.3813 91.6771 79.9254 91.9454L80.1955 93.8733C79.9438 94.0811 79.7125 94.3124 79.5047 94.5641L77.5767 94.2941C77.3085 94.7499 77.0975 95.2372 76.9487 95.7448L78.5062 96.9191C78.4727 97.2427 78.4727 97.5689 78.5062 97.8925L76.9487 99.0669C77.0987 99.574 77.3096 100.061 77.5767 100.518L79.5047 100.248C79.7109 100.499 79.9424 100.728 80.1955 100.932L79.9254 102.866C80.3799 103.137 80.8675 103.348 81.3761 103.494L82.5505 101.943C82.7075 101.943 82.8708 101.943 83.0341 101.943C83.1973 101.943 83.3606 101.943 83.5239 101.943L84.6982 103.494C85.2065 103.347 85.6939 103.136 86.1489 102.866L85.8789 100.932C86.1316 100.73 86.3611 100.5 86.5634 100.248L88.4977 100.518C88.7676 100.063 88.9786 99.5751 89.1257 99.0669L87.5682 97.8925C87.5727 97.7206 87.5664 97.5486 87.5494 97.3776ZM83.0152 98.822C82.7295 98.822 82.4503 98.7372 82.2127 98.5785C81.9752 98.4198 81.7901 98.1942 81.6808 97.9303C81.5714 97.6664 81.5428 97.376 81.5986 97.0958C81.6543 96.8156 81.7919 96.5582 81.9939 96.3562C82.1959 96.1542 82.4532 96.0166 82.7334 95.9609C83.0136 95.9052 83.304 95.9338 83.568 96.0431C83.8319 96.1524 84.0575 96.3376 84.2162 96.5751C84.3749 96.8126 84.4596 97.0919 84.4596 97.3776C84.4596 97.7606 84.3074 98.128 84.0366 98.3989C83.7657 98.6698 83.3983 98.822 83.0152 98.822Z" fill="white"/>
<path opacity="0.8" d="M92.9817 103.099C92.9817 103.017 92.9817 102.935 92.9817 102.854L93.7604 102.27C93.6927 102.017 93.5913 101.774 93.459 101.548L92.4918 101.679C92.3902 101.554 92.2766 101.438 92.1527 101.334L92.2846 100.373C92.0584 100.241 91.8155 100.139 91.5624 100.072L90.9721 100.85C90.8906 100.844 90.8087 100.844 90.7272 100.85C90.6477 100.844 90.5679 100.844 90.4885 100.85L89.8982 100.072C89.6451 100.139 89.4022 100.241 89.176 100.373L89.3079 101.334C89.1835 101.44 89.068 101.555 88.9625 101.679L88.0016 101.548C87.8693 101.774 87.7679 102.017 87.7002 102.27L88.4789 102.854C88.4789 102.935 88.4789 103.017 88.4789 103.099C88.4789 103.18 88.4789 103.262 88.4789 103.344L87.7002 103.934C87.7691 104.187 87.8704 104.429 88.0016 104.656L88.9625 104.518C89.0647 104.645 89.1805 104.761 89.3079 104.863L89.176 105.831C89.4034 105.96 89.646 106.062 89.8982 106.132L90.4885 105.353H90.7272H90.9721L91.5624 106.132C91.8146 106.062 92.0571 105.96 92.2846 105.831L92.1527 104.863C92.2796 104.763 92.3935 104.647 92.4918 104.518L93.459 104.656C93.5902 104.429 93.6915 104.187 93.7604 103.934L92.9817 103.344C92.9754 103.262 92.9817 103.18 92.9817 103.099ZM90.7146 104.662C90.4053 104.662 90.103 104.571 89.8458 104.399C89.5887 104.227 89.3883 103.983 89.2699 103.697C89.1516 103.411 89.1206 103.097 89.1809 102.794C89.2413 102.49 89.3902 102.212 89.6089 101.993C89.8276 101.774 90.1062 101.625 90.4095 101.565C90.7129 101.505 91.0273 101.536 91.313 101.654C91.5987 101.772 91.843 101.973 92.0148 102.23C92.1866 102.487 92.2783 102.789 92.2783 103.099C92.2783 103.304 92.2379 103.507 92.1593 103.697C92.0807 103.887 91.9655 104.059 91.8203 104.204C91.6751 104.35 91.5027 104.465 91.313 104.543C91.1233 104.622 90.9199 104.662 90.7146 104.662Z" fill="white"/>
</g>
<path d="M150.613 44.7827L150.048 44.5063L156.146 32.1096H172.888V32.7376H156.541L150.613 44.7827Z" fill="#407BFF"/>
<path d="M150.789 46.2584C151.895 46.2584 152.792 45.3614 152.792 44.255C152.792 43.1486 151.895 42.2517 150.789 42.2517C149.683 42.2517 148.786 43.1486 148.786 44.255C148.786 45.3614 149.683 46.2584 150.789 46.2584Z" fill="#263238"/>
<path d="M193.662 20.2026H175.513C173.776 20.2026 172.367 21.6113 172.367 23.3489V41.4981C172.367 43.2358 173.776 44.6444 175.513 44.6444H193.662C195.4 44.6444 196.809 43.2358 196.809 41.4981V23.3489C196.809 21.6113 195.4 20.2026 193.662 20.2026Z" fill="#407BFF"/>
<path opacity="0.4" d="M193.662 20.2026H175.513C173.776 20.2026 172.367 21.6113 172.367 23.3489V41.4981C172.367 43.2358 173.776 44.6444 175.513 44.6444H193.662C195.4 44.6444 196.809 43.2358 196.809 41.4981V23.3489C196.809 21.6113 195.4 20.2026 193.662 20.2026Z" fill="black"/>
<path d="M184.412 23.864C183.213 23.8966 182.052 24.2987 181.09 25.0153C180.128 25.7318 179.41 26.728 179.035 27.8678C178.66 29.0075 178.646 30.2352 178.994 31.3833C179.343 32.5314 180.037 33.5439 180.983 34.2825C181.951 35.0244 182.629 36.0821 182.898 37.2718L182.961 37.5732H186.214L186.277 37.278C186.554 36.075 187.243 35.0065 188.224 34.2574C189.182 33.4939 189.875 32.4484 190.205 31.2691C190.535 30.0898 190.486 28.8364 190.065 27.6865C189.643 26.5367 188.87 25.5487 187.855 24.8627C186.841 24.1766 185.636 23.8272 184.412 23.864ZM186.447 33.6796L185.662 33.5414L186.29 29.8551L185.26 30.6024L184.701 29.0198L184.154 30.6966L182.968 30.0686L183.596 33.5352L182.811 33.6733L181.831 28.1595L183.759 29.3778L184.632 26.5267L185.668 29.4657L187.382 28.3667L186.447 33.6796Z" fill="#407BFF"/>
<path d="M186.202 38.0378H182.974V39.4006H186.202V38.0378Z" fill="#407BFF"/>
<path d="M184.544 40.6315H184.632C184.934 40.6322 185.233 40.5648 185.506 40.4344C185.779 40.3039 186.019 40.1137 186.208 39.8779H182.98C183.168 40.1121 183.406 40.3013 183.677 40.4317C183.947 40.562 184.244 40.6303 184.544 40.6315Z" fill="#407BFF"/>
<g opacity="0.8">
<path opacity="0.8" d="M186.202 38.0378H182.974V39.4006H186.202V38.0378Z" fill="white"/>
<path opacity="0.8" d="M184.544 40.6315H184.632C184.934 40.6322 185.233 40.5648 185.506 40.4344C185.779 40.3039 186.019 40.1137 186.208 39.8779H182.98C183.168 40.1121 183.406 40.3013 183.677 40.4317C183.947 40.562 184.244 40.6303 184.544 40.6315Z" fill="white"/>
</g>
<path opacity="0.9" d="M184.412 23.864C183.213 23.8966 182.052 24.2987 181.09 25.0153C180.128 25.7318 179.41 26.728 179.035 27.8678C178.66 29.0075 178.646 30.2352 178.994 31.3833C179.343 32.5314 180.037 33.5439 180.983 34.2825C181.951 35.0244 182.629 36.0821 182.898 37.2718L182.961 37.5732H186.214L186.277 37.278C186.554 36.075 187.243 35.0065 188.224 34.2574C189.182 33.4939 189.875 32.4484 190.205 31.2691C190.535 30.0898 190.486 28.8364 190.065 27.6865C189.643 26.5367 188.87 25.5487 187.855 24.8627C186.841 24.1766 185.636 23.8272 184.412 23.864ZM186.447 33.6796L185.662 33.5414L186.29 29.8551L185.26 30.6024L184.701 29.0198L184.154 30.6966L182.968 30.0686L183.596 33.5352L182.811 33.6733L181.831 28.1595L183.759 29.3778L184.632 26.5267L185.668 29.4657L187.382 28.3667L186.447 33.6796Z" fill="white"/>
</svg>
