<svg width="314" height="234" viewBox="0 0 314 234" fill="none" xmlns="http://www.w3.org/2000/svg">
<path d="M314 205.607H0V205.764H314V205.607Z" fill="#E6E6E6"/>
<path d="M266.341 214.418H259.678V214.575H266.341V214.418Z" fill="#E6E6E6"/>
<path d="M255.068 214.493H227.97V214.65H255.068V214.493Z" fill="#E6E6E6"/>
<path d="M194.473 212.999H148.742V213.156H194.473V212.999Z" fill="#E6E6E6"/>
<path d="M122.435 215.724H107.922V215.881H122.435V215.724Z" fill="#E6E6E6"/>
<path d="M74.0726 213.074H54.0896V213.231H74.0726V213.074Z" fill="#E6E6E6"/>
<path d="M96.2348 213.074H77.5581V213.231H96.2348V213.074Z" fill="#E6E6E6"/>
<path d="M60.0746 210.33H41.0022V210.487H60.0746V210.33Z" fill="#E6E6E6"/>
<path d="M148.836 177.598H27.5755C26.6255 177.597 25.715 177.218 25.0439 176.546C24.3728 175.874 23.9958 174.962 23.9958 174.013V3.55448C24.0041 2.60998 24.3847 1.70689 25.0549 1.04136C25.7252 0.375832 26.6309 0.00161797 27.5755 0H148.836C149.787 0 150.699 0.377797 151.372 1.05028C152.044 1.72276 152.422 2.63484 152.422 3.58588V174.013C152.422 174.964 152.044 175.876 151.372 176.548C150.699 177.221 149.787 177.598 148.836 177.598ZM27.5755 0.1256C26.6671 0.127264 25.7966 0.489253 25.1549 1.13211C24.5132 1.77497 24.1528 2.64617 24.1528 3.55448V174.013C24.1528 174.921 24.5132 175.792 25.1549 176.435C25.7966 177.078 26.6671 177.44 27.5755 177.441H148.836C149.745 177.44 150.616 177.078 151.259 176.435C151.901 175.793 152.263 174.921 152.265 174.013V3.55448C152.263 2.64559 151.901 1.77441 151.259 1.13173C150.616 0.489049 149.745 0.127261 148.836 0.1256H27.5755Z" fill="#E6E6E6"/>
<path d="M284.679 177.598H163.412C162.461 177.597 161.55 177.218 160.878 176.546C160.206 175.874 159.828 174.963 159.826 174.013V3.55448C159.836 2.60941 160.218 1.70632 160.889 1.04097C161.56 0.375612 162.467 0.00160033 163.412 0H284.679C285.622 0.00326842 286.526 0.378212 287.195 1.04357C287.864 1.70892 288.244 2.61107 288.252 3.55448V174.013C288.252 174.961 287.876 175.872 287.206 176.544C286.536 177.216 285.627 177.595 284.679 177.598ZM163.412 0.1256C162.503 0.127261 161.632 0.489049 160.989 1.13173C160.346 1.77441 159.985 2.64559 159.983 3.55448V174.013C159.985 174.921 160.346 175.793 160.989 176.435C161.632 177.078 162.503 177.44 163.412 177.441H284.679C285.587 177.44 286.459 177.078 287.101 176.435C287.744 175.793 288.106 174.921 288.107 174.013V3.55448C288.106 2.64559 287.744 1.77441 287.101 1.13173C286.459 0.489049 285.587 0.127261 284.679 0.1256H163.412Z" fill="#E6E6E6"/>
<path d="M131.78 13.4832H33.9685V98.596H131.78V13.4832Z" fill="#E6E6E6"/>
<path d="M135.786 13.4832H35.8398V98.596H135.786V13.4832Z" fill="#F0F0F0"/>
<path d="M131.78 98.5959H33.9685V102.012H131.78V98.5959Z" fill="#E6E6E6"/>
<path d="M142.455 98.5959H42.5093V102.012H142.455V98.5959Z" fill="#F0F0F0"/>
<path d="M130.184 92.9943V19.085L41.4479 19.085V92.9943H130.184Z" fill="#FAFAFA"/>
<path d="M55.8167 92.9943L72.9359 19.085H96.4294L79.3101 92.9943H55.8167Z" fill="white"/>
<path d="M44.6758 80.6415C44.5692 80.6415 44.467 80.5992 44.3916 80.5238C44.3163 80.4484 44.2739 80.3462 44.2739 80.2396V22.7274C44.2739 22.6208 44.3163 22.5185 44.3916 22.4432C44.467 22.3678 44.5692 22.3254 44.6758 22.3254C44.7824 22.3254 44.8847 22.3678 44.96 22.4432C45.0354 22.5185 45.0778 22.6208 45.0778 22.7274V80.2396C45.0778 80.3462 45.0354 80.4484 44.96 80.5238C44.8847 80.5992 44.7824 80.6415 44.6758 80.6415Z" fill="#E6E6E6"/>
<path d="M84.127 92.9943L101.246 19.085H109.373L92.2533 92.9943H84.127Z" fill="white"/>
<path d="M130.178 92.9879V19.0786H129.469V92.9879H130.178Z" fill="#E6E6E6"/>
<path d="M137.111 19.6941H39.3004L38.7854 17.9922H136.596L137.111 19.6941Z" fill="#E0E0E0"/>
<path d="M137.111 22.5012H39.3004L38.7854 20.7993H136.596L137.111 22.5012Z" fill="#E0E0E0"/>
<path d="M137.111 25.3083H39.3004L38.7854 23.6064H136.596L137.111 25.3083Z" fill="#E0E0E0"/>
<path d="M137.111 28.1155H39.3004L38.7854 26.4136H136.596L137.111 28.1155Z" fill="#E0E0E0"/>
<path d="M137.111 30.9228H39.3004L38.7854 29.2209H136.596L137.111 30.9228Z" fill="#E0E0E0"/>
<path d="M137.111 33.73H39.3004L38.7854 32.0281H136.596L137.111 33.73Z" fill="#E0E0E0"/>
<path d="M253.203 19.0222H212.076V92.3412H253.203V19.0222Z" fill="#E6E6E6"/>
<path d="M235.243 22.8968C234.623 22.8906 234.019 22.7012 233.507 22.3524C232.995 22.0036 232.597 21.5111 232.364 20.9368C232.131 20.3625 232.074 19.7322 232.198 19.1252C232.323 18.5182 232.624 17.9616 233.065 17.5256C233.505 17.0896 234.065 16.7937 234.673 16.675C235.281 16.5564 235.911 16.6204 236.483 16.8589C237.055 17.0975 237.543 17.4999 237.887 18.0156C238.231 18.5313 238.414 19.1371 238.414 19.7568C238.406 20.5924 238.068 21.3911 237.474 21.979C236.88 22.567 236.078 22.8968 235.243 22.8968ZM235.243 17.182C234.747 17.1882 234.265 17.3408 233.856 17.6205C233.447 17.9003 233.13 18.2947 232.944 18.7542C232.759 19.2138 232.714 19.7178 232.814 20.203C232.915 20.6882 233.156 21.1329 233.509 21.481C233.861 21.8292 234.309 22.0654 234.795 22.1598C235.282 22.2542 235.785 22.2026 236.242 22.0116C236.7 21.8206 237.09 21.4987 237.365 21.0863C237.639 20.6739 237.786 20.1895 237.786 19.694C237.786 19.3614 237.72 19.0322 237.592 18.7254C237.464 18.4185 237.276 18.1402 237.039 17.9065C236.803 17.6729 236.522 17.4885 236.214 17.3641C235.905 17.2397 235.575 17.1778 235.243 17.182Z" fill="#E0E0E0"/>
<path d="M257.65 19.0222H215.172V92.3412H257.65V19.0222Z" fill="#F0F0F0"/>
<path d="M254.095 88.7804V22.5767L218.732 22.5767V88.7804H254.095Z" fill="#FAFAFA"/>
<path d="M254.095 88.7804V22.5767H253.655V88.7804H254.095Z" fill="#E0E0E0"/>
<path d="M222.789 118.416C222.789 118.416 223.229 125.807 240.028 125.807C256.827 125.807 257.26 118.416 257.26 118.416H222.789Z" fill="#E6E6E6"/>
<path d="M188.814 131.61H171.657V202.272H188.814V131.61Z" fill="#E6E6E6"/>
<path d="M264.595 202.272H174.955V205.607H264.595V202.272Z" fill="#E6E6E6"/>
<path d="M188.815 202.272H267.886V131.61H188.815V202.272Z" fill="#F5F5F5"/>
<path d="M195.559 175.57H261.141V158.313H195.559V175.57Z" fill="#E6E6E6"/>
<path d="M195.559 195.98H261.141V178.723H195.559V195.98Z" fill="#E6E6E6"/>
<path d="M238.156 160.203H218.544C218.231 160.203 217.931 160.078 217.709 159.857C217.488 159.636 217.363 159.335 217.363 159.022C217.363 158.708 217.487 158.407 217.709 158.185C217.93 157.963 218.23 157.837 218.544 157.835H238.156C238.47 157.837 238.77 157.963 238.992 158.185C239.213 158.407 239.337 158.708 239.337 159.022C239.337 159.335 239.213 159.636 238.991 159.857C238.77 160.078 238.469 160.203 238.156 160.203Z" fill="#F5F5F5"/>
<path d="M195.559 155.16H261.141V137.902H195.559V155.16Z" fill="#E6E6E6"/>
<path d="M238.156 139.799H218.544C218.23 139.798 217.93 139.672 217.709 139.449C217.487 139.227 217.363 138.926 217.363 138.612C217.363 138.299 217.488 137.999 217.709 137.777C217.931 137.556 218.231 137.432 218.544 137.432H238.156C238.469 137.432 238.77 137.556 238.991 137.777C239.213 137.999 239.337 138.299 239.337 138.612C239.337 138.926 239.213 139.227 238.992 139.449C238.77 139.672 238.47 139.798 238.156 139.799Z" fill="#F5F5F5"/>
<path d="M238.156 180.613H218.544C218.23 180.611 217.93 180.485 217.709 180.263C217.487 180.04 217.363 179.739 217.363 179.426C217.363 179.113 217.488 178.812 217.709 178.591C217.931 178.37 218.231 178.245 218.544 178.245H238.156C238.469 178.245 238.77 178.37 238.991 178.591C239.213 178.812 239.337 179.113 239.337 179.426C239.337 179.739 239.213 180.04 238.992 180.263C238.77 180.485 238.47 180.611 238.156 180.613Z" fill="#F5F5F5"/>
<path d="M270.172 125.807H188.814V131.61H270.172V125.807Z" fill="#EBEBEB"/>
<path d="M169.259 131.616H188.814V125.813H169.259V131.616Z" fill="#E0E0E0"/>
<path d="M178.264 125.807H195.314V105.372H178.264V125.807Z" fill="#E6E6E6"/>
<path d="M225.571 105.378H195.314V125.814H225.571V105.378Z" fill="#FAFAFA"/>
<path d="M217.42 116.18C217.42 117.643 214.28 118.824 210.443 118.824C206.606 118.824 203.472 117.624 203.472 116.18C203.472 114.736 206.612 113.536 210.455 113.536C214.299 113.536 217.42 114.704 217.42 116.18Z" fill="white"/>
<g style="mix-blend-mode:multiply" opacity="0.7">
<path d="M178.264 109.391H225.747V107.991H178.264V109.391Z" fill="#E0E0E0"/>
</g>
<path d="M177.316 108.587H195.308V104.531H177.316V108.587Z" fill="#E6E6E6"/>
<path d="M226.507 104.524H195.314V108.581H226.507V104.524Z" fill="#FAFAFA"/>
<path d="M109.172 115.59H44.1736L48.2305 205.607H113.228L109.172 115.59Z" fill="#E6E6E6"/>
<path d="M110.113 115.59H45.1155L49.1724 205.607H114.17L110.113 115.59Z" fill="#FAFAFA"/>
<path d="M59.4464 205.607H76.4966V185.172H59.4464V205.607Z" fill="#E0E0E0"/>
<path d="M158.124 185.172H76.5029V205.607H158.124V185.172Z" fill="#F0F0F0"/>
<g style="mix-blend-mode:multiply" opacity="0.7">
<path d="M59.4466 189.191H158.3V187.791H59.4466V189.191Z" fill="#E0E0E0"/>
</g>
<path d="M58.5107 188.381H76.5029V184.324H58.5107V188.381Z" fill="#E0E0E0"/>
<path d="M159.066 184.324H76.5029V188.381H159.066V184.324Z" fill="#F0F0F0"/>
<path d="M73.5828 184.324H95.77V147.404H73.5828V184.324Z" fill="#E6E6E6"/>
<path d="M151.204 147.404H95.7637V184.324H151.204V147.404Z" fill="#EBEBEB"/>
<g style="mix-blend-mode:multiply" opacity="0.7">
<path d="M73.5766 152.629H151.436V150.808H73.5766V152.629Z" fill="#E0E0E0"/>
</g>
<path d="M72.3582 151.574H95.77V143.184H72.3582V151.574Z" fill="#E6E6E6"/>
<path d="M152.428 143.184H95.7637V151.574H152.428V143.184Z" fill="#EBEBEB"/>
<path d="M48.8648 205.607C57.5252 205.607 64.5459 198.586 64.5459 189.926C64.5459 181.266 57.5252 174.245 48.8648 174.245C40.2043 174.245 33.1836 181.266 33.1836 189.926C33.1836 198.586 40.2043 205.607 48.8648 205.607Z" fill="#F0F0F0"/>
<g style="mix-blend-mode:multiply" opacity="0.7">
<path d="M41.1842 180.575C42.1136 179.608 42.4904 178.452 42.0131 178C41.5358 177.548 40.3992 177.956 39.4697 178.923C38.5403 179.891 38.1635 181.046 38.6345 181.505C39.1055 181.963 40.2484 181.548 41.1842 180.575Z" fill="#E0E0E0"/>
</g>
<g style="mix-blend-mode:multiply" opacity="0.7">
<path d="M47.7279 177.636C49.0467 177.385 50.0201 176.656 49.8945 176.01C49.7689 175.363 48.6008 175.043 47.2757 175.3C45.9506 175.557 44.9898 176.28 45.1091 176.927C45.2285 177.573 46.3777 177.894 47.7279 177.636Z" fill="#E0E0E0"/>
</g>
<g style="mix-blend-mode:multiply" opacity="0.7">
<path d="M46.359 183.112C47.615 182.666 48.4377 181.674 48.1614 180.896C47.8851 180.117 46.6353 179.847 45.3668 180.268C44.0982 180.688 43.2944 181.706 43.5644 182.484C43.8345 183.263 45.0905 183.558 46.359 183.112Z" fill="#E0E0E0"/>
</g>
<path d="M157 233.968C224.248 233.968 278.763 230.785 278.763 226.859C278.763 222.933 224.248 219.75 157 219.75C89.7522 219.75 35.2371 222.933 35.2371 226.859C35.2371 230.785 89.7522 233.968 157 233.968Z" fill="#F5F5F5"/>
<path d="M192.947 35.4443H120.676C115.606 35.4443 111.495 39.555 111.495 44.6257V217.671C111.495 222.742 115.606 226.852 120.676 226.852H192.947C198.017 226.852 202.128 222.742 202.128 217.671V44.6257C202.128 39.555 198.017 35.4443 192.947 35.4443Z" fill="#407BFF"/>
<path opacity="0.7" d="M192.947 35.4443H120.676C115.606 35.4443 111.495 39.555 111.495 44.6257V217.671C111.495 222.742 115.606 226.852 120.676 226.852H192.947C198.017 226.852 202.128 222.742 202.128 217.671V44.6257C202.128 39.555 198.017 35.4443 192.947 35.4443Z" fill="white"/>
<path d="M195.371 35.1177H123.101C118.03 35.1177 113.919 39.2283 113.919 44.299V217.344C113.919 222.415 118.03 226.526 123.101 226.526H195.371C200.442 226.526 204.552 222.415 204.552 217.344V44.299C204.552 39.2283 200.442 35.1177 195.371 35.1177Z" fill="#407BFF"/>
<path opacity="0.2" d="M195.371 35.1177H123.101C118.03 35.1177 113.919 39.2283 113.919 44.299V217.344C113.919 222.415 118.03 226.526 123.101 226.526H195.371C200.442 226.526 204.552 222.415 204.552 217.344V44.299C204.552 39.2283 200.442 35.1177 195.371 35.1177Z" fill="black"/>
<path d="M162.771 218.092C162.773 218.901 162.534 219.692 162.085 220.365C161.636 221.039 160.998 221.564 160.25 221.874C159.503 222.184 158.681 222.266 157.887 222.108C157.093 221.951 156.364 221.561 155.792 220.989C155.22 220.417 154.831 219.688 154.673 218.894C154.515 218.1 154.597 217.278 154.907 216.531C155.217 215.783 155.742 215.145 156.416 214.696C157.089 214.247 157.88 214.009 158.689 214.01C159.772 214.01 160.81 214.44 161.576 215.205C162.341 215.971 162.771 217.009 162.771 218.092Z" fill="#407BFF"/>
<path opacity="0.4" d="M162.771 218.092C162.773 218.901 162.534 219.692 162.085 220.365C161.636 221.039 160.998 221.564 160.25 221.874C159.503 222.184 158.681 222.266 157.887 222.108C157.093 221.951 156.364 221.561 155.792 220.989C155.22 220.417 154.831 219.688 154.673 218.894C154.515 218.1 154.597 217.278 154.907 216.531C155.217 215.783 155.742 215.145 156.416 214.696C157.089 214.247 157.88 214.009 158.689 214.01C159.772 214.01 160.81 214.44 161.576 215.205C162.341 215.971 162.771 217.009 162.771 218.092Z" fill="black"/>
<path d="M203.824 212.107H113.643V47.6213H204.452L203.824 212.107Z" fill="#407BFF"/>
<path opacity="0.8" d="M204.621 212.019L113.593 212.126V47.6338L204.539 47.5396L204.621 212.019Z" fill="white"/>
<path opacity="0.33" d="M106.779 50.3782H106.151V58.6803H106.779V50.3782Z" fill="#407BFF"/>
<path opacity="0.33" d="M106.779 60.9851H106.151V63.585H106.779V60.9851Z" fill="#407BFF"/>
<path d="M184.946 54.4287H122.391C118.943 54.4287 116.149 57.2235 116.149 60.671V98.0119C116.149 101.459 118.943 104.254 122.391 104.254H184.946C188.394 104.254 191.188 101.459 191.188 98.0119V60.671C191.188 57.2235 188.394 54.4287 184.946 54.4287Z" fill="white"/>
<path opacity="0.27" d="M130.848 73.6061C135.082 71.8361 137.079 66.9693 135.309 62.7358C133.539 58.5023 128.672 56.5052 124.439 58.2753C120.205 60.0453 118.208 64.9122 119.978 69.1456C121.748 73.3791 126.615 75.3762 130.848 73.6061Z" fill="#407BFF"/>
<path d="M134.505 65.9399C134.51 67.0812 134.225 68.2049 133.676 69.2055C132.879 70.6752 131.573 71.8033 130.003 72.3776C128.433 72.9518 126.707 72.9328 125.15 72.3241C123.593 71.7154 122.312 70.5588 121.548 69.072C120.784 67.5851 120.589 65.8702 121 64.2498C121.412 62.6294 122.401 61.2151 123.782 60.2727C125.163 59.3303 126.84 58.9248 128.499 59.1324C130.158 59.34 131.684 60.1465 132.79 61.4001C133.896 62.6537 134.506 64.2681 134.505 65.9399Z" fill="white"/>
<path opacity="0.27" d="M133.676 69.1993C133.087 70.285 132.217 71.1916 131.155 71.8234C130.094 72.4552 128.882 72.7887 127.647 72.7887C126.412 72.7887 125.2 72.4552 124.139 71.8234C123.078 71.1916 122.207 70.285 121.618 69.1993C123.403 68.0078 125.501 67.3718 127.647 67.3718C129.793 67.3718 131.891 68.0078 133.676 69.1993Z" fill="#407BFF"/>
<path opacity="0.27" d="M127.647 66.6371C129.333 66.6371 130.699 65.2707 130.699 63.585C130.699 61.8994 129.333 60.533 127.647 60.533C125.962 60.533 124.595 61.8994 124.595 63.585C124.595 65.2707 125.962 66.6371 127.647 66.6371Z" fill="#407BFF"/>
<path d="M186.585 108.857H120.752C118.21 108.857 116.149 110.918 116.149 113.461V121.694C116.149 124.236 118.21 126.297 120.752 126.297H186.585C189.127 126.297 191.188 124.236 191.188 121.694V113.461C191.188 110.918 189.127 108.857 186.585 108.857Z" fill="white"/>
<path opacity="0.6" d="M203.943 127.987L212.817 152.441C213.045 153.081 213.012 153.785 212.724 154.4C212.436 155.015 211.916 155.492 211.278 155.725L164.724 172.612C164.086 172.841 163.382 172.809 162.767 172.522C162.152 172.235 161.675 171.717 161.44 171.08L152.566 146.619C152.336 145.981 152.369 145.276 152.657 144.662C152.946 144.047 153.466 143.572 154.105 143.341L200.659 126.448C201.298 126.219 202.002 126.253 202.618 126.541C203.233 126.829 203.709 127.349 203.943 127.987Z" fill="#407BFF"/>
<path d="M202.536 126.504L189.229 148.403C187.997 150.433 186.107 151.982 183.875 152.791C181.642 153.601 179.199 153.624 176.952 152.855L152.698 144.578C152.99 143.996 153.493 143.547 154.105 143.322L200.659 126.429C201.272 126.217 201.942 126.243 202.536 126.504Z" fill="#407BFF"/>
<path opacity="0.5" d="M202.536 126.504L189.229 148.403C187.997 150.433 186.107 151.982 183.875 152.791C181.642 153.601 179.199 153.624 176.952 152.855L152.698 144.578C152.99 143.996 153.493 143.547 154.105 143.322L200.659 126.429C201.272 126.217 201.942 126.243 202.536 126.504Z" fill="white"/>
<path opacity="0.6" d="M189.342 170.019L188.915 192.049C188.902 192.623 188.662 193.17 188.248 193.568C187.834 193.967 187.279 194.186 186.704 194.178L144.76 193.361C144.476 193.356 144.195 193.294 143.934 193.18C143.674 193.065 143.438 192.901 143.241 192.696C143.044 192.49 142.889 192.248 142.786 191.983C142.682 191.718 142.632 191.435 142.638 191.151L143.058 169.12C143.066 168.823 143.134 168.529 143.258 168.258C143.382 167.987 143.56 167.745 143.781 167.544C144.189 167.179 144.721 166.981 145.269 166.992L187.213 167.802C187.789 167.815 188.336 168.055 188.735 168.471C189.134 168.886 189.352 169.443 189.342 170.019Z" fill="#407BFF"/>
<path d="M188.683 168.417L171.501 181.68C169.907 182.909 167.942 183.558 165.93 183.519C163.918 183.48 161.98 182.756 160.435 181.467L143.812 167.544C144.221 167.179 144.752 166.981 145.3 166.992L187.244 167.802C187.784 167.821 188.296 168.041 188.683 168.417Z" fill="#407BFF"/>
<path opacity="0.5" d="M188.683 168.417L171.501 181.68C169.907 182.909 167.942 183.558 165.93 183.519C163.918 183.48 161.98 182.756 160.435 181.467L143.812 167.544C144.221 167.179 144.752 166.981 145.3 166.992L187.244 167.802C187.784 167.821 188.296 168.041 188.683 168.417Z" fill="white"/>
<path d="M147.034 40.2987C147.035 40.0133 147.121 39.7347 147.28 39.498C147.44 39.2613 147.666 39.0771 147.93 38.9688C148.194 38.8604 148.484 38.8327 148.764 38.8891C149.043 38.9456 149.3 39.0836 149.502 39.2859C149.703 39.4881 149.84 39.7455 149.895 40.0255C149.95 40.3055 149.921 40.5956 149.812 40.8592C149.702 41.1227 149.517 41.348 149.28 41.5064C149.043 41.6648 148.764 41.7494 148.478 41.7494C148.288 41.7494 148.1 41.7118 147.924 41.6388C147.748 41.5659 147.589 41.4589 147.455 41.3241C147.32 41.1893 147.214 41.0294 147.142 40.8534C147.07 40.6774 147.033 40.4889 147.034 40.2987Z" fill="#407BFF"/>
<path d="M153.471 38.8545H165.472C165.854 38.8561 166.221 39.0089 166.491 39.2794C166.762 39.5499 166.915 39.9163 166.916 40.2989C166.916 40.6825 166.764 41.0506 166.494 41.3225C166.223 41.5943 165.855 41.7479 165.472 41.7496H153.471C153.087 41.7479 152.72 41.5943 152.449 41.3225C152.178 41.0506 152.026 40.6825 152.026 40.2989C152.028 39.9163 152.181 39.5499 152.451 39.2794C152.722 39.0089 153.088 38.8561 153.471 38.8545Z" fill="#407BFF"/>
<path opacity="0.4" d="M147.034 40.2987C147.035 40.0133 147.121 39.7347 147.28 39.498C147.44 39.2613 147.666 39.0771 147.93 38.9688C148.194 38.8604 148.484 38.8327 148.764 38.8891C149.043 38.9456 149.3 39.0836 149.502 39.2859C149.703 39.4881 149.84 39.7455 149.895 40.0255C149.95 40.3055 149.921 40.5956 149.812 40.8592C149.702 41.1227 149.517 41.348 149.28 41.5064C149.043 41.6648 148.764 41.7494 148.478 41.7494C148.288 41.7494 148.1 41.7118 147.924 41.6388C147.748 41.5659 147.589 41.4589 147.455 41.3241C147.32 41.1893 147.214 41.0294 147.142 40.8534C147.07 40.6774 147.033 40.4889 147.034 40.2987Z" fill="black"/>
<path opacity="0.4" d="M153.471 38.8545H165.472C165.854 38.8561 166.221 39.0089 166.491 39.2794C166.762 39.5499 166.915 39.9163 166.916 40.2989C166.916 40.6825 166.764 41.0506 166.494 41.3225C166.223 41.5943 165.855 41.7479 165.472 41.7496H153.471C153.087 41.7479 152.72 41.5943 152.449 41.3225C152.178 41.0506 152.026 40.6825 152.026 40.2989C152.028 39.9163 152.181 39.5499 152.451 39.2794C152.722 39.0089 153.088 38.8561 153.471 38.8545Z" fill="black"/>
<path d="M204.678 67.9558H198.693C197.302 67.9558 196.175 69.0833 196.175 70.4741V88.7049C196.175 90.0957 197.302 91.2232 198.693 91.2232H204.678C206.068 91.2232 207.196 90.0957 207.196 88.7049V70.4741C207.196 69.0833 206.068 67.9558 204.678 67.9558Z" fill="#407BFF"/>
<path opacity="0.8" d="M204.678 67.9558H198.693C197.302 67.9558 196.175 69.0833 196.175 70.4741V88.7049C196.175 90.0957 197.302 91.2232 198.693 91.2232H204.678C206.068 91.2232 207.196 90.0957 207.196 88.7049V70.4741C207.196 69.0833 206.068 67.9558 204.678 67.9558Z" fill="white"/>
<path d="M205.306 97.9365H198.065C197.021 97.9365 196.175 98.7828 196.175 99.8268V109.171C196.175 110.215 197.021 111.062 198.065 111.062H205.306C206.35 111.062 207.196 110.215 207.196 109.171V99.8268C207.196 98.7828 206.35 97.9365 205.306 97.9365Z" fill="#407BFF"/>
<path opacity="0.8" d="M205.306 97.9365H198.065C197.021 97.9365 196.175 98.7828 196.175 99.8268V109.171C196.175 110.215 197.021 111.062 198.065 111.062H205.306C206.35 111.062 207.196 110.215 207.196 109.171V99.8268C207.196 98.7828 206.35 97.9365 205.306 97.9365Z" fill="white"/>
<path d="M124.959 207.51L129.575 207.956L134.379 196.972L129.764 196.52L124.959 207.51Z" fill="#E4897B"/>
<path d="M78.1042 173.868L80.7356 177.856L90.8212 173.039L88.1836 169.045L78.1042 173.868Z" fill="#E4897B"/>
<path d="M134.379 196.972L131.905 202.637H127.088L129.757 196.52L134.379 196.972Z" fill="#CE6F64"/>
<path d="M88.1837 169.051L90.815 173.039L85.6215 175.52L82.9839 171.532L88.1837 169.051Z" fill="#CE6F64"/>
<path d="M176.864 95.0918L177.014 95.4309L177.209 95.8265C177.335 96.0903 177.479 96.3603 177.623 96.6304C177.919 97.1642 178.251 97.7042 178.565 98.2192C179.227 99.2734 179.955 100.284 180.745 101.246C181.549 102.199 182.406 103.104 183.313 103.959C183.784 104.374 184.243 104.801 184.732 105.215L185.467 105.793L185.637 105.931C185.557 105.906 185.475 105.889 185.392 105.881C185.21 105.862 185.026 105.89 184.858 105.962C184.756 105.992 184.664 106.051 184.594 106.132C184.55 106.195 184.663 106.094 184.758 105.931C185.006 105.473 185.202 104.989 185.342 104.487C185.686 103.267 185.957 102.028 186.152 100.775C186.365 99.4815 186.541 98.1564 186.679 96.8313C186.817 95.5062 186.962 94.156 187.087 92.8372L189.512 92.7996C189.662 94.2 189.725 95.5628 189.782 96.9569C189.838 98.3511 189.813 99.7327 189.782 101.146C189.726 102.598 189.56 104.045 189.285 105.473C189.126 106.295 188.871 107.096 188.526 107.859C188.275 108.399 187.931 108.89 187.508 109.31C187.181 109.617 186.797 109.859 186.378 110.019C185.889 110.202 185.364 110.267 184.845 110.208C184.425 110.152 184.017 110.025 183.64 109.831C183.489 109.755 183.342 109.671 183.2 109.58L182.961 109.423L182.045 108.795C181.417 108.38 180.864 107.922 180.292 107.463C179.163 106.52 178.103 105.496 177.121 104.399C176.147 103.292 175.251 102.119 174.44 100.888C174.038 100.26 173.667 99.6322 173.309 99.0042C173.133 98.6714 172.964 98.3448 172.8 97.9994L172.562 97.4656C172.48 97.2772 172.417 97.1265 172.317 96.869L176.864 95.0918Z" fill="#E4897B"/>
<path d="M178.986 98.3386L174.766 104.16L176.512 105.875L181.002 100.474L178.986 98.3386Z" fill="#F5F5F5"/>
<path d="M172.367 90.6582C177.121 91.9142 180.399 98.5835 180.399 98.5835L174.911 106.277C174.911 106.277 168.304 97.9681 168.474 95.3431C168.637 92.5924 169.504 89.8857 172.367 90.6582Z" fill="#407BFF"/>
<path opacity="0.7" d="M172.367 90.6582C177.121 91.9142 180.399 98.5835 180.399 98.5835L174.911 106.277C174.911 106.277 168.304 97.9681 168.474 95.3431C168.637 92.5924 169.504 89.8857 172.367 90.6582Z" fill="white"/>
<path d="M176.468 93.1135C176.468 93.1135 178.032 94.9598 159.933 116.864L143.184 107.055C147.454 100.405 149.923 96.2032 154.852 80.3022C157.485 81.188 160.05 82.2648 162.526 83.5239C165.154 84.8476 167.696 86.3347 170.138 87.9764C173.228 90.187 176.468 93.1135 176.468 93.1135Z" fill="#407BFF"/>
<path opacity="0.7" d="M176.468 93.1135C176.468 93.1135 178.032 94.9598 159.933 116.864L143.184 107.055C147.454 100.405 149.923 96.2032 154.852 80.3022C157.485 81.188 160.05 82.2648 162.526 83.5239C165.154 84.8476 167.696 86.3347 170.138 87.9764C173.228 90.187 176.468 93.1135 176.468 93.1135Z" fill="white"/>
<path d="M174.295 91.2233C173.115 90.2436 171.601 89.0315 170.138 87.9765C167.709 86.3141 165.166 84.8261 162.526 83.524C161.044 82.7516 159.525 82.0733 158.231 81.5583C158.024 81.9037 158.193 82.9588 158.828 84.5037C161.239 87.6123 166.841 92.1904 171.513 93.101C173.686 92.787 174.364 92.0962 174.295 91.2233Z" fill="#F5F5F5"/>
<path d="M158.827 84.5037C160.235 87.6397 162.108 90.5446 164.385 93.1198C166.755 93.3564 169.143 93.3564 171.513 93.1198C166.841 92.1904 161.239 87.6123 158.827 84.5037Z" fill="#F5F5F5"/>
<path d="M159.952 116.864C159.952 116.864 160.222 159.895 152.591 172.317C144.654 185.235 134.304 200.991 134.304 200.991L125.343 200.558C125.343 200.558 135.792 177.247 139.736 166.426C145.168 151.511 147.68 109.68 147.68 109.68L159.952 116.864Z" fill="#407BFF"/>
<path opacity="0.4" d="M159.952 116.864C159.952 116.864 160.222 159.895 152.591 172.317C144.654 185.235 134.304 200.991 134.304 200.991L125.343 200.558C125.343 200.558 135.792 177.247 139.736 166.426C145.168 151.511 147.68 109.68 147.68 109.68L159.952 116.864Z" fill="black"/>
<path opacity="0.2" d="M150.419 118.064C148.968 119.295 147.719 120.747 146.72 122.366C146.437 125.569 146.092 129.167 145.696 132.935C148.428 129.224 150.588 122.711 150.419 118.064Z" fill="black"/>
<path d="M155.524 114.296C155.524 114.296 136.565 141.212 124.752 155.744C115.207 167.456 87.5745 175.84 87.5745 175.84L84.2021 170.188C84.2021 170.188 106.182 157.917 112.738 149.992C133.726 124.62 133.462 111.464 143.209 107.124L155.524 114.296Z" fill="#407BFF"/>
<path opacity="0.4" d="M155.524 114.296C155.524 114.296 136.565 141.212 124.752 155.744C115.207 167.456 87.5745 175.84 87.5745 175.84L84.2021 170.188C84.2021 170.188 106.182 157.917 112.738 149.992C133.726 124.62 133.462 111.464 143.209 107.124L155.524 114.296Z" fill="black"/>
<path d="M187.144 93.4276L185.888 88.4036L190.68 89.7977C190.68 89.7977 190.548 93.1764 188.89 94.2754L187.144 93.4276Z" fill="#E4897B"/>
<path d="M187.414 84.3718L190.78 86.0737L190.698 89.8229L185.907 88.4287L187.414 84.3718Z" fill="#E4897B"/>
<path d="M127.22 86.2181L122.824 83.5177L127.22 81.1689C127.22 81.1689 129.475 83.6809 129.06 85.6277L127.22 86.2181Z" fill="#E4897B"/>
<path d="M121.085 79.555L124.683 78.4246L127.245 81.1689L122.831 83.5176L121.085 79.555Z" fill="#E4897B"/>
<path d="M81.841 177.435L80.2772 172.298C80.2497 172.21 80.1914 172.135 80.1129 172.086C80.0345 172.038 79.9412 172.019 79.8502 172.034L75.6112 172.662C75.5051 172.682 75.4043 172.724 75.3156 172.786C75.2269 172.848 75.1522 172.927 75.0965 173.02C75.0408 173.112 75.0052 173.216 74.9922 173.323C74.9791 173.43 74.9889 173.539 75.0209 173.642C75.5986 175.419 75.9629 176.254 76.6537 178.509C77.0744 179.903 77.8092 183.037 78.3932 184.958C78.9773 186.88 80.9052 186.403 80.8362 185.549C80.5159 181.731 81.1439 179.777 81.7907 178.264C81.901 178.001 81.9187 177.709 81.841 177.435Z" fill="#263238"/>
<path d="M130.191 206.53H124.539C124.437 206.531 124.338 206.565 124.257 206.628C124.177 206.69 124.119 206.777 124.093 206.876L122.837 211.366C122.806 211.472 122.801 211.583 122.821 211.691C122.842 211.799 122.888 211.901 122.955 211.988C123.022 212.075 123.109 212.145 123.209 212.191C123.309 212.238 123.418 212.261 123.528 212.258C125.512 212.226 126.479 212.113 128.972 212.113C130.505 212.113 134.474 212.27 136.59 212.27C138.706 212.27 139.102 210.173 138.242 209.984C134.392 209.136 132.182 207.962 130.995 206.844C130.776 206.641 130.489 206.529 130.191 206.53Z" fill="#263238"/>
<path d="M143.517 105.925L141.884 106.986C141.759 107.068 141.828 107.269 142.022 107.382L159.606 117.662C159.757 117.75 159.927 117.75 159.989 117.662L161.019 116.249C161.088 116.149 161.019 115.985 160.843 115.891L143.887 105.962C143.835 105.922 143.773 105.897 143.708 105.89C143.642 105.884 143.576 105.896 143.517 105.925Z" fill="#263238"/>
<path d="M153.477 87.5056C152.29 88.4539 151.16 89.22 149.96 90.0176C148.761 90.8152 147.542 91.4997 146.286 92.1779C143.766 93.5572 141.113 94.6787 138.367 95.5252C138.028 95.6445 137.664 95.7261 137.319 95.8203C136.973 95.9145 136.64 96.0087 136.226 96.0966C135.326 96.2986 134.397 96.3454 133.481 96.2348C132.51 96.1193 131.576 95.7935 130.743 95.2802C129.969 94.791 129.291 94.1654 128.74 93.4339C127.81 92.1381 127.145 90.6722 126.781 89.1196C126.595 88.4037 126.46 87.6755 126.379 86.9404C126.279 86.2078 126.231 85.4692 126.234 84.7298L128.646 84.5226C128.937 85.7485 129.33 86.948 129.82 88.1085C130.247 89.1715 130.867 90.1466 131.648 90.9847C131.928 91.3006 132.269 91.556 132.652 91.7353C133.034 91.9145 133.449 92.0139 133.871 92.0272C134.314 92.0238 134.754 91.954 135.177 91.82C135.723 91.6441 136.364 91.4432 136.948 91.2296C139.365 90.3209 141.703 89.2139 143.938 87.9201C145.081 87.2921 146.173 86.5699 147.279 85.8728C148.384 85.1757 149.47 84.3907 150.419 83.6748L153.477 87.5056Z" fill="#E4897B"/>
<path d="M145.708 85.8602L147.881 92.4291L149.922 91.2045L148.013 84.6921L145.708 85.8602Z" fill="#F5F5F5"/>
<path d="M82.3246 180.129C82.2188 180.128 82.1151 180.1 82.0231 180.048C81.5019 179.734 81.3574 178.622 81.3135 177.988C81.3132 177.966 81.3189 177.944 81.33 177.925C81.341 177.907 81.3571 177.891 81.3763 177.881C81.3956 177.87 81.4172 177.865 81.4391 177.865C81.461 177.865 81.4826 177.87 81.5019 177.881C81.6526 178.006 82.9714 179.137 82.8898 179.727C82.8811 179.795 82.8544 179.86 82.8125 179.914C82.7705 179.968 82.7148 180.01 82.6511 180.035C82.5514 180.092 82.4394 180.124 82.3246 180.129ZM81.5647 178.245C81.6463 179.093 81.8536 179.683 82.1362 179.853C82.201 179.887 82.2733 179.905 82.3466 179.905C82.4198 179.905 82.4921 179.887 82.5569 179.853C82.6449 179.809 82.6637 179.759 82.6637 179.715C82.7077 179.394 82.0797 178.71 81.5647 178.245Z" fill="#407BFF"/>
<path d="M83.1157 178.766C82.471 178.711 81.857 178.467 81.351 178.063C81.341 178.047 81.3357 178.029 81.3357 178.01C81.3357 177.991 81.341 177.972 81.351 177.956C81.3555 177.937 81.3648 177.92 81.378 177.906C81.3912 177.891 81.4079 177.881 81.4264 177.875C81.4829 177.875 82.8017 177.46 83.392 177.824C83.4667 177.868 83.5307 177.928 83.5796 178C83.6284 178.072 83.6609 178.153 83.6747 178.239C83.7002 178.325 83.6954 178.418 83.6611 178.501C83.6269 178.585 83.5652 178.654 83.4863 178.697C83.3703 178.75 83.243 178.774 83.1157 178.766ZM81.6713 178.032C82.1549 178.364 83.0529 178.66 83.3481 178.496C83.392 178.496 83.4486 178.421 83.4234 178.277C83.4143 178.223 83.3932 178.172 83.3617 178.127C83.3302 178.082 83.289 178.046 83.2413 178.019C82.7294 177.86 82.1807 177.864 81.6713 178.032Z" fill="#407BFF"/>
<path d="M132.703 207.466C132.18 207.456 131.66 207.391 131.152 207.271C131.129 207.265 131.108 207.252 131.092 207.235C131.077 207.217 131.067 207.194 131.064 207.171C131.064 207.147 131.07 207.124 131.082 207.104C131.094 207.084 131.112 207.068 131.133 207.058C131.51 206.876 133.444 206.003 133.959 206.348C134.008 206.383 134.047 206.431 134.071 206.486C134.096 206.541 134.105 206.602 134.097 206.662C134.094 206.768 134.067 206.871 134.018 206.965C133.969 207.059 133.9 207.14 133.814 207.202C133.48 207.403 133.092 207.495 132.703 207.466ZM131.547 207.121C132.175 207.234 133.23 207.359 133.676 207.02C133.737 206.978 133.786 206.921 133.82 206.856C133.854 206.79 133.871 206.717 133.871 206.643C133.875 206.624 133.873 206.604 133.866 206.585C133.86 206.566 133.848 206.549 133.833 206.537C133.551 206.348 132.389 206.75 131.547 207.121Z" fill="#407BFF"/>
<path d="M131.177 207.271C131.154 207.28 131.13 207.28 131.108 207.271C131.09 207.259 131.077 207.241 131.07 207.221C131.063 207.201 131.063 207.179 131.07 207.158C131.07 207.07 131.56 205.017 132.69 205.161C132.985 205.193 133.061 205.343 133.079 205.456C133.155 205.997 131.861 207.026 131.195 207.29L131.177 207.271ZM132.59 205.356C131.911 205.356 131.503 206.455 131.334 206.951C131.962 206.593 132.878 205.777 132.835 205.463C132.835 205.413 132.765 205.375 132.646 205.362L132.59 205.356Z" fill="#407BFF"/>
<path d="M144.685 109.159L144.233 108.895C144.145 108.839 144.101 108.751 144.139 108.701L145.495 106.873C145.533 106.823 145.639 106.823 145.727 106.873L146.186 107.143C146.274 107.193 146.318 107.281 146.28 107.332L144.924 109.159C144.886 109.209 144.779 109.209 144.685 109.159Z" fill="#407BFF"/>
<path d="M158.218 117.078L157.766 116.808C157.678 116.758 157.634 116.67 157.672 116.62L159.028 114.792C159.066 114.742 159.173 114.742 159.261 114.792L159.719 115.056C159.807 115.112 159.851 115.2 159.807 115.251L158.457 117.078C158.419 117.128 158.313 117.128 158.218 117.078Z" fill="#407BFF"/>
<path d="M151.455 113.115L150.996 112.851C150.908 112.801 150.864 112.713 150.908 112.657L152.259 110.836C152.303 110.779 152.403 110.779 152.497 110.836L152.949 111.099C153.044 111.15 153.081 111.238 153.044 111.294L151.687 113.115C151.649 113.172 151.543 113.172 151.455 113.115Z" fill="#407BFF"/>
<path opacity="0.4" d="M144.685 109.159L144.233 108.895C144.145 108.839 144.101 108.751 144.139 108.701L145.495 106.873C145.533 106.823 145.639 106.823 145.727 106.873L146.186 107.143C146.274 107.193 146.318 107.281 146.28 107.332L144.924 109.159C144.886 109.209 144.779 109.209 144.685 109.159Z" fill="black"/>
<path opacity="0.4" d="M158.218 117.078L157.766 116.808C157.678 116.758 157.634 116.67 157.672 116.62L159.028 114.792C159.066 114.742 159.173 114.742 159.261 114.792L159.719 115.056C159.807 115.112 159.851 115.2 159.807 115.251L158.457 117.078C158.419 117.128 158.313 117.128 158.218 117.078Z" fill="black"/>
<path opacity="0.4" d="M151.455 113.115L150.996 112.851C150.908 112.801 150.864 112.713 150.908 112.657L152.259 110.836C152.303 110.779 152.403 110.779 152.497 110.836L152.949 111.099C153.044 111.15 153.081 111.238 153.044 111.294L151.687 113.115C151.649 113.172 151.543 113.172 151.455 113.115Z" fill="black"/>
<path d="M164.021 84.7799C164.021 81.0119 162.765 66.1849 168.944 64.9289C170.898 62.869 180.575 62.6555 182.057 67.893C184.016 74.7696 181.115 91.5498 181.115 91.5498L164.021 84.7799Z" fill="#263238"/>
<path d="M182.403 91.5875C182.382 91.5851 182.362 91.5787 182.344 91.5686C182.326 91.5585 182.31 91.5448 182.297 91.5285C182.284 91.5121 182.274 91.4933 182.269 91.4733C182.263 91.4532 182.262 91.4323 182.264 91.4116C182.264 91.2421 184.305 74.4556 182.051 67.8114C181.423 65.9902 179.677 64.7154 177.09 64.213C173.724 63.5536 170.081 64.3762 169.07 65.5443C169.041 65.5731 169.001 65.5892 168.96 65.5892C168.919 65.5892 168.88 65.5731 168.85 65.5443C168.821 65.5139 168.805 65.4734 168.805 65.4313C168.805 65.3891 168.821 65.3486 168.85 65.3182C170.031 63.9492 173.994 63.2647 177.171 63.8864C179.872 64.4076 181.718 65.7704 182.371 67.6921C184.645 74.418 182.616 91.2609 182.597 91.4305C182.597 91.4543 182.591 91.4777 182.581 91.4991C182.57 91.5205 182.555 91.5394 182.537 91.5543C182.518 91.5693 182.496 91.58 182.473 91.5858C182.45 91.5915 182.426 91.5921 182.403 91.5875Z" fill="#263238"/>
<path d="M168.304 75.4041C167.356 78.1296 165.208 82.8961 162.539 83.5241C162.539 83.5241 161.754 86.4003 166.307 89.0631C171.331 91.9895 170.15 87.9766 170.15 87.9766C167.802 85.7284 169.051 83.7439 170.64 82.1237L168.304 75.4041Z" fill="#E4897B"/>
<path d="M169.246 78.1421L170.628 82.1173C170.254 82.4927 169.912 82.8981 169.604 83.3294C168.649 82.5695 167.626 80.7169 168.153 79.5614C168.43 79.0266 168.8 78.5459 169.246 78.1421Z" fill="#CE6F64"/>
<path d="M168.342 69.9718C167.042 74.5373 166.395 76.4402 167.845 79.5237C170.025 84.1709 175.909 84.7674 178.521 80.6854C180.895 77.0116 182.616 70.1664 178.873 66.8694C178.052 66.1394 177.059 65.6304 175.987 65.3904C174.915 65.1504 173.8 65.1874 172.746 65.4977C171.693 65.8081 170.735 66.3817 169.965 67.1645C169.194 67.9473 168.636 68.9134 168.342 69.9718Z" fill="#E4897B"/>
<path d="M167.004 72.8481C170.251 74.0601 177.881 70.0346 179.96 67.5666C180.236 63.7609 171.312 65.2618 171.312 65.2618C171.312 65.2618 166.552 63.7986 167.004 72.8481Z" fill="#263238"/>
<path d="M166.232 73.7586C166.02 74.6507 166.172 75.5903 166.652 76.371C167.28 77.401 168.436 76.999 168.938 75.9817C169.391 75.0522 169.598 73.388 168.624 72.7161C168.408 72.5735 168.159 72.4872 167.901 72.465C167.643 72.4427 167.383 72.4853 167.145 72.5889C166.908 72.6924 166.7 72.8536 166.54 73.0578C166.381 73.2621 166.275 73.5029 166.232 73.7586Z" fill="#E4897B"/>
<path d="M174.678 73.6079C174.546 73.9721 174.634 74.3364 174.873 74.418C175.111 74.4996 175.407 74.2736 175.538 73.9093C175.67 73.5451 175.576 73.1871 175.337 73.0992C175.099 73.0113 174.804 73.2436 174.678 73.6079Z" fill="#263238"/>
<path d="M178.785 75.0585C178.66 75.4228 178.748 75.7807 178.986 75.8687C179.225 75.9566 179.52 75.7242 179.646 75.36C179.771 74.9957 179.683 74.6315 179.451 74.5499C179.219 74.4682 178.917 74.6943 178.785 75.0585Z" fill="#263238"/>
<path d="M179.338 74.531L180.299 74.5875C180.299 74.5875 179.608 75.115 179.338 74.531Z" fill="#263238"/>
<path d="M177.479 75.2971C177.512 76.2396 177.673 77.1734 177.956 78.0729C177.724 78.1409 177.48 78.1571 177.242 78.1202C177.003 78.0833 176.775 77.9942 176.575 77.8594L177.479 75.2971Z" fill="#DE5753"/>
<path d="M174.829 78.8518H174.791C174.298 78.6916 173.851 78.416 173.486 78.0479C173.121 77.6798 172.85 77.2298 172.694 76.7354C172.688 76.7055 172.694 76.6746 172.71 76.6489C172.727 76.6232 172.752 76.6047 172.782 76.5973C172.796 76.5936 172.811 76.593 172.826 76.5955C172.841 76.5981 172.855 76.6036 172.867 76.6119C172.88 76.6202 172.89 76.631 172.898 76.6436C172.906 76.6563 172.911 76.6704 172.914 76.6852C173.066 77.1397 173.321 77.5527 173.66 77.8916C173.999 78.2305 174.412 78.4861 174.867 78.6383C174.892 78.6471 174.913 78.6645 174.927 78.6876C174.94 78.7106 174.945 78.7378 174.941 78.7641C174.936 78.7905 174.923 78.8144 174.902 78.8316C174.882 78.8488 174.856 78.8582 174.829 78.8581V78.8518Z" fill="#263238"/>
<path d="M174.496 72.1698C174.445 72.1705 174.395 72.154 174.355 72.1229C174.315 72.0918 174.286 72.048 174.274 71.9986C174.261 71.9491 174.266 71.8969 174.287 71.8505C174.308 71.804 174.344 71.7661 174.389 71.7427C174.702 71.5663 175.051 71.4669 175.409 71.4527C175.768 71.4385 176.124 71.5099 176.449 71.6611C176.479 71.6731 176.505 71.6911 176.527 71.7141C176.549 71.737 176.566 71.7643 176.577 71.7941C176.587 71.824 176.592 71.8558 176.589 71.8874C176.587 71.9191 176.578 71.9498 176.563 71.9777C176.548 72.0057 176.527 72.0301 176.502 72.0495C176.477 72.0688 176.448 72.0827 176.417 72.0901C176.386 72.0976 176.354 72.0985 176.323 72.0927C176.292 72.087 176.262 72.0747 176.236 72.0567C175.976 71.9416 175.693 71.8896 175.409 71.9049C175.125 71.9202 174.849 72.0023 174.603 72.1447C174.57 72.1619 174.533 72.1706 174.496 72.1698Z" fill="#263238"/>
<path d="M181.392 73.834C181.342 73.8339 181.294 73.8171 181.255 73.7864C181.217 73.7556 181.189 73.7126 181.178 73.6645C181.115 73.3881 180.988 73.1303 180.807 72.9122C180.626 72.694 180.396 72.5215 180.136 72.4085C180.079 72.3884 180.032 72.3471 180.005 72.2932C179.978 72.2393 179.973 72.1771 179.991 72.1196C180 72.091 180.015 72.0646 180.035 72.042C180.055 72.0194 180.079 72.001 180.106 71.9881C180.133 71.9751 180.162 71.9679 180.192 71.9667C180.222 71.9656 180.252 71.9706 180.28 71.9814C180.612 72.1179 180.907 72.3324 181.138 72.6068C181.37 72.8812 181.532 73.2073 181.611 73.5577C181.619 73.5866 181.621 73.6166 181.617 73.6462C181.612 73.6757 181.602 73.7042 181.587 73.7299C181.572 73.7556 181.552 73.778 181.528 73.7959C181.504 73.8137 181.477 73.8267 181.448 73.834H181.392Z" fill="#263238"/>
<path d="M175.212 73.0867L176.173 73.1432C176.173 73.1432 175.501 73.6644 175.212 73.0867Z" fill="#263238"/>
<path d="M154.865 80.3024C152.887 79.8314 146.801 84.4661 146.801 84.4661L149.382 92.6991C149.382 92.6991 155.744 89.1761 156.334 86.5824C156.918 83.8946 157.119 80.8425 154.865 80.3024Z" fill="#407BFF"/>
<path opacity="0.7" d="M154.865 80.3024C152.887 79.8314 146.801 84.4661 146.801 84.4661L149.382 92.6991C149.382 92.6991 155.744 89.1761 156.334 86.5824C156.918 83.8946 157.119 80.8425 154.865 80.3024Z" fill="white"/>
<path d="M227.336 27.9082H180.738C178.74 27.9082 176.823 28.7022 175.41 30.1154C173.996 31.5287 173.202 33.4455 173.202 35.4442V49.8882C173.202 51.8869 173.996 53.8037 175.41 55.217C176.823 56.6302 178.74 57.4242 180.738 57.4242H184.632V64.8346L192.042 57.4242H227.336C229.335 57.4242 231.251 56.6302 232.665 55.217C234.078 53.8037 234.872 51.8869 234.872 49.8882V35.4442C234.872 33.4455 234.078 31.5287 232.665 30.1154C231.251 28.7022 229.335 27.9082 227.336 27.9082Z" fill="#407BFF"/>
<path opacity="0.3" d="M227.336 27.9082H180.738C178.74 27.9082 176.823 28.7022 175.41 30.1154C173.996 31.5287 173.202 33.4455 173.202 35.4442V49.8882C173.202 51.8869 173.996 53.8037 175.41 55.217C176.823 56.6302 178.74 57.4242 180.738 57.4242H184.632V64.8346L192.042 57.4242H227.336C229.335 57.4242 231.251 56.6302 232.665 55.217C234.078 53.8037 234.872 51.8869 234.872 49.8882V35.4442C234.872 33.4455 234.078 31.5287 232.665 30.1154C231.251 28.7022 229.335 27.9082 227.336 27.9082Z" fill="black"/>
<g opacity="0.54">
<path opacity="0.54" d="M226.243 33.9121H181.819C180.865 33.9121 180.092 34.6853 180.092 35.6391C180.092 36.5929 180.865 37.3661 181.819 37.3661H226.243C227.197 37.3661 227.97 36.5929 227.97 35.6391C227.97 34.6853 227.197 33.9121 226.243 33.9121Z" fill="#F5F5F5"/>
</g>
<g opacity="0.54">
<path opacity="0.54" d="M226.237 44.2301H197.764C197.304 44.2284 196.864 44.0453 196.54 43.7206C196.215 43.3959 196.032 42.956 196.03 42.4968C196.032 42.0382 196.215 41.5989 196.54 41.2752C196.865 40.9515 197.305 40.7698 197.764 40.7698H226.237C226.695 40.7698 227.134 40.9517 227.458 41.2756C227.782 41.5995 227.964 42.0387 227.964 42.4968C227.964 42.9554 227.782 43.3953 227.459 43.7202C227.135 44.045 226.696 44.2284 226.237 44.2301Z" fill="#F5F5F5"/>
</g>
<g opacity="0.54">
<path opacity="0.54" d="M189.311 44.2301H181.819C181.36 44.2284 180.921 44.045 180.597 43.7202C180.273 43.3953 180.092 42.9554 180.092 42.4968C180.092 42.0387 180.274 41.5995 180.597 41.2756C180.921 40.9517 181.361 40.7698 181.819 40.7698H189.311C189.769 40.7698 190.208 40.9517 190.532 41.2756C190.856 41.5995 191.038 42.0387 191.038 42.4968C191.038 42.9554 190.856 43.3953 190.532 43.7202C190.208 44.045 189.769 44.2284 189.311 44.2301Z" fill="#F5F5F5"/>
</g>
<g opacity="0.54">
<path opacity="0.54" d="M215.147 51.0877H181.819C181.361 51.0877 180.921 50.9058 180.597 50.5819C180.274 50.258 180.092 49.8188 180.092 49.3607C180.092 48.9021 180.273 48.4622 180.597 48.1373C180.921 47.8125 181.36 47.6291 181.819 47.6274H215.147C215.605 47.6291 216.044 47.8125 216.368 48.1373C216.692 48.4622 216.874 48.9021 216.874 49.3607C216.874 49.8188 216.692 50.258 216.368 50.5819C216.044 50.9058 215.605 51.0877 215.147 51.0877Z" fill="#F5F5F5"/>
</g>
</svg>
