<svg version="1.1" xmlns="http://www.w3.org/2000/svg" xmlns:xlink="http://www.w3.org/1999/xlink" viewBox="0 0 172 172"><defs><linearGradient x1="35.83333" y1="141.54167" x2="136.16667" y2="141.54167" gradientUnits="userSpaceOnUse" id="location-svg-color-1"><stop offset="0" stop-color="#33bef0"></stop><stop offset="1" stop-color="#22a5e2"></stop></linearGradient><linearGradient x1="47.99875" y1="30.07133" x2="124.00125" y2="106.07383" gradientUnits="userSpaceOnUse" id="location-svg-color-2"><stop offset="0" stop-color="#d43a02"></stop><stop offset="1" stop-color="#b9360c"></stop></linearGradient><radialGradient cx="86" cy="68.08333" r="25.08333" gradientUnits="userSpaceOnUse" id="location-svg-color-3"><stop offset="0.177" stop-color="#000000"></stop><stop offset="1" stop-color="#000000" stop-opacity="0"></stop></radialGradient></defs><g fill="none" fill-rule="nonzero" stroke="none" stroke-width="1" stroke-linecap="butt" stroke-linejoin="miter" stroke-miterlimit="10" stroke-dasharray="" stroke-dashoffset="0" font-family="none" font-weight="none" font-size="none" text-anchor="none" style="mix-blend-mode: normal"><path d="M0,172v-172h172v172z" fill="none"></path><g><ellipse cx="24" cy="39.5" transform="scale(3.58333,3.58333)" rx="14" ry="4.5" fill="url(#location-svg-color-1)"></ellipse><path d="M124.528,105.51483c9.40625,-9.67858 15.222,-22.86883 15.222,-37.4315c0,-29.68433 -24.06567,-53.75 -53.75,-53.75c-29.68433,0 -53.75,24.06567 -53.75,53.75c0,14.56267 5.81575,27.75292 15.222,37.4315c0.05375,0.05375 34.30325,34.3355 34.30325,34.3355c2.33275,2.33275 6.11317,2.33275 8.44592,0c0,0.00358 34.25308,-34.27817 34.30683,-34.3355z" fill="url(#location-svg-color-2)"></path><circle cx="24" cy="19" transform="scale(3.58333,3.58333)" r="7" fill="url(#location-svg-color-3)"></circle><circle cx="24" cy="19" transform="scale(3.58333,3.58333)" r="6" fill="#f9f9f9"></circle></g></g></svg>