<svg version="1.1" xmlns="http://www.w3.org/2000/svg" xmlns:xlink="http://www.w3.org/1999/xlink" viewBox="0 0 172 172"><defs><linearGradient x1="86" y1="32.17475" x2="86" y2="22.60367" gradientUnits="userSpaceOnUse" id="profession-svg-color-1"><stop offset="0" stop-color="#b33f20"></stop><stop offset="0.129" stop-color="#c74724"></stop><stop offset="0.295" stop-color="#d94f29"></stop><stop offset="0.469" stop-color="#e4532b"></stop><stop offset="0.659" stop-color="#e8552c"></stop></linearGradient><radialGradient cx="85.398" cy="21.47121" r="163.90167" gradientUnits="userSpaceOnUse" id="profession-svg-color-2"><stop offset="0" stop-color="#40150b"></stop><stop offset="0.156" stop-color="#622110"></stop><stop offset="0.417" stop-color="#953218"></stop><stop offset="0.645" stop-color="#ba3f1e"></stop><stop offset="0.828" stop-color="#d14722"></stop><stop offset="0.944" stop-color="#d94a23"></stop></radialGradient><linearGradient x1="86" y1="32.35033" x2="86" y2="96.48842" gradientUnits="userSpaceOnUse" id="profession-svg-color-3"><stop offset="0" stop-color="#fc7d5b"></stop><stop offset="0.06" stop-color="#f8734f"></stop><stop offset="0.18" stop-color="#f3653d"></stop><stop offset="0.326" stop-color="#f05b31"></stop><stop offset="0.523" stop-color="#ee552a"></stop><stop offset="1" stop-color="#ed5328"></stop></linearGradient><linearGradient x1="111.08333" y1="136.16667" x2="161.25" y2="136.16667" gradientUnits="userSpaceOnUse" id="profession-svg-color-4"><stop offset="0" stop-color="#fede00"></stop><stop offset="1" stop-color="#ffd000"></stop></linearGradient></defs><g fill="none" fill-rule="nonzero" stroke="none" stroke-width="1" stroke-linecap="butt" stroke-linejoin="miter" stroke-miterlimit="10" stroke-dasharray="" stroke-dashoffset="0" font-family="none" font-weight="none" font-size="none" text-anchor="none" style="mix-blend-mode: normal"><path d="M0,172v-172h172v172z" fill="none"></path><g><path d="M102.125,21.5h-32.25c-2.967,0 -5.375,2.408 -5.375,5.375v5.375h43v-5.375c0,-2.967 -2.408,-5.375 -5.375,-5.375z" fill="url(#profession-svg-color-1)"></path><path d="M150.5,146.91667h-129c-3.94167,0 -7.16667,-3.225 -7.16667,-7.16667v-93.16667c0,-7.88333 6.45,-14.33333 14.33333,-14.33333h114.66667c7.88333,0 14.33333,6.45 14.33333,14.33333v93.16667c0,3.94167 -3.225,7.16667 -7.16667,7.16667z" fill="url(#profession-svg-color-2)"></path><path d="M151.56425,90.49708l-65.56425,9.83625l-65.56425,-9.83625c-3.50808,-0.52317 -6.10242,-3.53675 -6.10242,-7.08425v-36.8295c0,-7.88333 6.45,-14.33333 14.33333,-14.33333h114.66667c7.88333,0 14.33333,6.45 14.33333,14.33333v36.8295c0,3.5475 -2.59433,6.56108 -6.10242,7.08425z" fill="url(#profession-svg-color-3)"></path><path d="M91.375,75.25h-10.75c-0.989,0 -1.79167,0.80267 -1.79167,1.79167v10.75c0,0.989 0.80267,1.79167 1.79167,1.79167h10.75c0.989,0 1.79167,-0.80267 1.79167,-1.79167v-10.75c0,-0.989 -0.80267,-1.79167 -1.79167,-1.79167z" fill="#f6eca5"></path><path d="M136.16667,100.33333l8.34558,4.68342l9.57108,0.11825l4.88767,8.22733l8.22733,4.88767l0.11825,9.57108l4.68342,8.34558l-4.68342,8.34558l-0.11825,9.57108l-8.22733,4.88767l-4.88767,8.22733l-9.57108,0.11825l-8.34558,4.68342l-8.34558,-4.68342l-9.57108,-0.11825l-4.88767,-8.22733l-8.22733,-4.88767l-0.11825,-9.57108l-4.68342,-8.34558l4.68342,-8.34558l0.11825,-9.57108l8.22733,-4.88767l4.88767,-8.22733l9.57108,-0.11825z" fill="#fdb700"></path><circle cx="38" cy="38" transform="scale(3.58333,3.58333)" r="7" fill="url(#profession-svg-color-4)"></circle></g></g></svg>